<svg xmlns="http://www.w3.org/2000/svg" xmlns:xlink="http://www.w3.org/1999/xlink" width="109.1" height="104.284" viewBox="0 0 109.1 104.284">
  <defs>
    <clipPath id="clip-path">
      <rect id="Rectangle_31" data-name="Rectangle 31" width="109.1" height="104.284" fill="#f28a1d" stroke="#f28a1d" stroke-width="1.3"/>
    </clipPath>
  </defs>
  <g id="Group_61" data-name="Group 61" clip-path="url(#clip-path)">
    <path id="Path_269" data-name="Path 269" d="M2.993,19.256a2.328,2.328,0,0,1,2.254-1.022c.717.1.828-.239.782-.841a3.03,3.03,0,0,1,.125-1.043,1.429,1.429,0,0,1,1.588-1.119,1.474,1.474,0,0,1,1.449,1.424,1.146,1.146,0,0,1,.019.317c-.178,1,.166,1.387,1.228,1.28a1.6,1.6,0,0,1,1.225,2.82,1.607,1.607,0,0,1-1.3.341c-.918-.131-1.284.165-1.166,1.138A1.508,1.508,0,0,1,8,24.393a1.545,1.545,0,0,1-1.949-1.741c.04-1.044-.268-1.388-1.281-1.24-.862.126-1.345-.465-1.778-1.089Z" transform="translate(0 -5.78)" fill="#f28a1d" stroke="#f28a1d" stroke-width="0.6"/>
    <path id="Path_270" data-name="Path 270" d="M100.191,43.8a75.951,75.951,0,0,1-3.569,24.608c-5.263,15.82-15.667,26.572-31.6,31.828a4.941,4.941,0,0,1-3.281.008Q40.458,93.3,31.725,72.7a2.163,2.163,0,0,1-.163-1.841,1.49,1.49,0,0,1,1.355-.886,1.59,1.59,0,0,1,1.565,1.068c.836,1.875,1.684,3.741,2.687,5.538C42.936,86.9,51.637,93.574,62.781,97.222a2.146,2.146,0,0,0,1.424-.1c14.851-4.894,24.528-14.9,29.361-29.7a75.63,75.63,0,0,0,3.246-28.37,3.256,3.256,0,0,0-2.158-3.119Q79.671,28.375,64.178,21.928a1.849,1.849,0,0,0-1.586-.005C51.975,26.36,41.515,31.137,31.269,36.381a2.037,2.037,0,0,0-1.255,1.935A78.009,78.009,0,0,0,32.4,64.9a6.767,6.767,0,0,1,.182.828,1.566,1.566,0,0,1-3.054.7c-.519-1.913-1.043-3.83-1.434-5.771a81.355,81.355,0,0,1-1.28-22.361c.057-.743.157-1.482.224-2.225A2.33,2.33,0,0,1,28.572,34.2c6.842-3.574,13.8-6.9,20.853-10.039,4.234-1.886,8.508-3.684,12.758-5.535a2.822,2.822,0,0,1,2.353-.016c11.465,4.8,22.778,9.921,33.8,15.671a2.425,2.425,0,0,1,1.406,2.057,74,74,0,0,1,.449,7.46" transform="translate(-9.327 -6.449)" fill="#f28a1d" stroke="#f28a1d" stroke-width="1.3"/>
    <path id="Path_271" data-name="Path 271" d="M12.5,37.211c.065-2.814.245-5.967.611-9.109a2.438,2.438,0,0,1,1.569-1.951C23,21.8,31.447,17.733,40,13.875c.613-.276,1.218-.571,1.835-.836,1.15-.494,2.027-.235,2.43.7.378.88,0,1.706-1.08,2.208-3.146,1.458-6.315,2.869-9.457,4.337q-8.418,3.933-16.66,8.224a1.41,1.41,0,0,0-.932,1.243,99.92,99.92,0,0,0,1.04,26.418,72.331,72.331,0,0,0,8.2,23.666A53.776,53.776,0,0,0,47.854,101.4a66.752,66.752,0,0,0,9.906,4.073,1.855,1.855,0,0,0,1.224.056,57.531,57.531,0,0,0,24.248-14.6,58.646,58.646,0,0,0,13-21.356,83.16,83.16,0,0,0,4.508-21.147c.046-.531.113-1.059.173-1.588.133-1.174.76-1.787,1.748-1.708a1.612,1.612,0,0,1,1.43,1.99c-.269,2.718-.546,5.433-.973,8.135a79.244,79.244,0,0,1-6.268,21.11,58.131,58.131,0,0,1-33.494,31.022c-5.076,1.909-5.066,1.846-10.2-.14C35.882,100.559,24.264,88.364,17.843,71.09a85.34,85.34,0,0,1-4.716-20.67A108.163,108.163,0,0,1,12.5,37.211" transform="translate(-4.388 -4.494)" fill="#f28a1d" stroke="#f28a1d" stroke-width="1.3"/>
    <path id="Path_272" data-name="Path 272" d="M123.168,33.658c0,1.03.012,2.059,0,3.089a1.58,1.58,0,1,1-3.156.145c-.082-1.024-.053-2.058-.044-3.087.022-2.631-.263-5.245-.431-7.865-.039-.6-.413-.751-.821-.964-10.138-5.288-20.5-10.109-30.972-14.688C84.5,8.87,81.23,7.516,77.985,6.107a1.711,1.711,0,0,0-1.49.017c-2.565,1.111-5.146,2.182-7.721,3.269a2.412,2.412,0,0,1-1.545.249A1.5,1.5,0,0,1,66.074,8.39a1.394,1.394,0,0,1,.69-1.547A11.7,11.7,0,0,1,68.2,6.169c2.6-1.105,5.219-2.188,7.816-3.314a2.936,2.936,0,0,1,2.448-.01c14.479,6.021,28.745,12.5,42.649,19.768a2.477,2.477,0,0,1,1.479,2.125c.319,2.967.532,5.937.575,8.92" transform="translate(-23.197 -0.907)" fill="#f28a1d" stroke="#f28a1d" stroke-width="1.3"/>
    <path id="Path_273" data-name="Path 273" d="M25.012,7.726c-.831.007-1.367-.525-1.317-1.538.041-.837-.23-1.053-1.032-1.01a1.333,1.333,0,1,1-.04-2.634c.853.049,1.125-.18,1.075-1.057A1.265,1.265,0,0,1,24.984,0a1.279,1.279,0,0,1,1.333,1.452c-.048.917.239,1.14,1.118,1.095A1.317,1.317,0,0,1,28.886,3.9a1.3,1.3,0,0,1-1.517,1.272c-.906-.074-1.072.258-1.047,1.081a1.278,1.278,0,0,1-1.311,1.472" transform="translate(-4.414 4.186)" fill="#f28a1d" stroke="#f28a1d" stroke-width="0.6"/>
    <path id="Path_274" data-name="Path 274" d="M159.579,15.02c.021.973-.721,1.68-1.944,1.625-.895-.04-1.129.212-1.093,1.1.05,1.224-.656,1.962-1.63,1.937-.934-.023-1.575-.736-1.518-1.908.042-.864-.163-1.17-1.084-1.126-1.244.06-1.978-.609-1.985-1.58-.007-.993.7-1.628,1.96-1.57.886.042,1.149-.222,1.109-1.109-.058-1.274.566-1.961,1.573-1.952.98.008,1.635.727,1.576,1.983-.043.928.274,1.119,1.131,1.078a1.607,1.607,0,0,1,1.907,1.524" transform="translate(-54.059 -4.914)" fill="#f28a1d" stroke="#f28a1d" stroke-width="0.6"/>
    <path id="Path_275" data-name="Path 275" d="M13.575,127.7a8.088,8.088,0,0,1-.851,0,1.58,1.58,0,0,1-.023-3.156,10.2,10.2,0,0,1,1.808-.007A1.6,1.6,0,0,1,16.08,126.1a1.624,1.624,0,0,1-1.653,1.6c-.283.019-.568,0-.852,0V127.7" transform="translate(-3.937 -43.729)" fill="#f28a1d" stroke="#f28a1d" stroke-width="1.3"/>
    <path id="Path_276" data-name="Path 276" d="M13.594,137.907c-.142,0-.284,0-.426,0-1.236-.023-1.985-.634-1.973-1.609s.749-1.563,2.008-1.587a10.879,10.879,0,0,1,1.277.014,1.587,1.587,0,1,1-.033,3.174c-.283.02-.568,0-.852,0v.005" transform="translate(-3.932 -47.313)" fill="#f28a1d" stroke="#f28a1d" stroke-width="1.3"/>
    <path id="Path_277" data-name="Path 277" d="M13.631,148.1c-1.638,0-2.417-.5-2.432-1.572s.786-1.625,2.4-1.627c1.7,0,2.5.529,2.478,1.643-.025,1.065-.8,1.556-2.441,1.556" transform="translate(-3.934 -50.897)" fill="#f28a1d" stroke="#f28a1d" stroke-width="1.3"/>
    <path id="Path_278" data-name="Path 278" d="M92.431,56.837c-2.81-3.7-7.725-3.982-11.154-.607-2.76,2.715-5.48,5.47-8.216,8.21-2.709,2.713-5.416,5.428-8.449,8.469a72.057,72.057,0,0,0-5.028-5.428,7.136,7.136,0,0,0-9.982,10.1c3.283,3.686,6.822,7.141,10.438,10.5A6.938,6.938,0,0,0,70.083,87.8Q80.926,77.1,91.63,66.253a7.164,7.164,0,0,0,.8-9.417M89.391,64Q78.593,74.809,67.77,85.6a3.9,3.9,0,0,1-5.8-.033Q57.142,80.833,52.409,76A4.017,4.017,0,1,1,58.151,70.4c1.727,1.687,3.417,3.411,5.127,5.115,1.275,1.27,1.949,1.274,3.213.01q8.474-8.469,16.94-16.947a4.117,4.117,0,0,1,4.421-1.3,4.011,4.011,0,0,1,2.762,4A3.76,3.76,0,0,1,89.391,64" transform="translate(-16.83 -18.922)" fill="#f28a1d" stroke="#f28a1d" stroke-width="1.3"/>
  </g>
</svg>
