<svg xmlns="http://www.w3.org/2000/svg" xmlns:xlink="http://www.w3.org/1999/xlink" width="105.787" height="105.958" viewBox="0 0 105.787 105.958">
  <defs>
    <clipPath id="clip-path">
      <rect id="Rectangle_30" data-name="Rectangle 30" width="105.787" height="105.958" fill="#f28a1d"/>
    </clipPath>
  </defs>
  <g id="Group_60" data-name="Group 60" clip-path="url(#clip-path)">
    <path id="Path_263" data-name="Path 263" d="M83.728,0a2.669,2.669,0,0,1,1.493,2.768c-.073,2.749-.016,5.5-.024,8.251-.005,1.52-.781,2.424-2.057,2.431-1.26.007-2.091-.929-2.1-2.406-.011-2.75.045-5.5-.025-8.251A2.794,2.794,0,0,1,82.487,0Z" transform="translate(-30.343)" fill="#f28a1d"/>
    <path id="Path_264" data-name="Path 264" d="M27.069,3.244a2.052,2.052,0,0,1,1.173-2.11,1.987,1.987,0,0,1,2.376.407c1.163,1.124,2.3,2.278,3.444,3.42,1.293,1.288,2.593,2.569,3.874,3.868,1.055,1.068,1.148,2.3.27,3.2a2.141,2.141,0,0,1-3.192-.221q-3.594-3.562-7.167-7.147a2.089,2.089,0,0,1-.777-1.412" transform="translate(-10.137 -0.341)" fill="#f28a1d"/>
    <path id="Path_265" data-name="Path 265" d="M122.986,10.5a2.046,2.046,0,0,1,.731-1.537c2.436-2.431,4.861-4.873,7.312-7.289a2.084,2.084,0,1,1,2.928,2.944c-2.421,2.445-4.867,4.866-7.3,7.3a2.1,2.1,0,0,1-2.447.55,1.968,1.968,0,0,1-1.227-1.971" transform="translate(-46.059 -0.347)" fill="#f28a1d"/>
    <path id="Path_266" data-name="Path 266" d="M21.892,146.453a2.044,2.044,0,0,1-2.048-2.109,2.072,2.072,0,0,1,4.144.049,2.037,2.037,0,0,1-2.1,2.06" transform="translate(-7.432 -53.295)" fill="#f28a1d"/>
    <path id="Path_267" data-name="Path 267" d="M103.774,81.817c-1.233-1.3-2.5-2.574-3.811-3.795A6.728,6.728,0,0,0,92.5,76.6a1.032,1.032,0,0,1-1.322-.291c-1.86-1.895-3.724-3.786-5.641-5.621-.589-.563-.527-.868-.024-1.453a7.146,7.146,0,0,0-3.145-11.526c-.574-.2-.758-.362-.661-1.041a7.067,7.067,0,0,0-4.966-8.122c-.509-.176-.592-.323-.5-.845A7.113,7.113,0,0,0,71.5,39.539c-.629-.215-.817-.438-.692-1.141a7.125,7.125,0,0,0-5.648-8.215c-.927-.2-1.861-.031-2.776-.2-4.464-.845-8.922-1.718-13.391-2.536-2.19-.4-4.4-.684-6.277.985-.268.238-.5.1-.761.044-5.425-1.23-9.83,2.81-9.01,8.309.094.631-.122.727-.584.886a7.092,7.092,0,0,0-4.88,8.075c.091.556.034.819-.575,1.03a7.133,7.133,0,0,0-4.113,10.3c.271.52.244.655-.3.917a7.139,7.139,0,0,0-2.278,11.433c.423.479.411.7-.034,1.132Q17.25,73.4,14.394,76.319a1.082,1.082,0,0,1-1.334.314,5.993,5.993,0,0,0-6.165.89c-2.815,2.524-6.228,4.7-6.8,8.96,0,.015-.061.023-.094.034v.62c.342.1.194.4.228.606A7.078,7.078,0,0,0,2.2,91.749q2.228,2.233,4.464,4.46a2.337,2.337,0,0,0,1.025.663A2.107,2.107,0,0,0,10.04,96a2.01,2.01,0,0,0-.29-2.56C8.289,91.929,6.77,90.472,5.3,88.964a2.692,2.692,0,0,1-.266-3.892c1.283-1.392,2.635-2.73,4.029-4.011a2.514,2.514,0,0,1,3.455.066c2.252,1.883,4.228,4.051,6.289,6.128,5.29,5.335,10.738,10.511,15.878,16,1.609,1.717,1.67,2.954-.016,4.644-.974.976-1.943,1.958-2.927,2.924-1.548,1.518-3.031,1.514-4.58-.016-1.4-1.381-2.767-2.793-4.176-4.161a2.078,2.078,0,1,0-2.91,2.953c1.495,1.527,2.993,3.055,4.535,4.534a6.891,6.891,0,0,0,9.62.074c1.362-1.266,2.674-2.593,3.951-3.946a6.757,6.757,0,0,0,1.206-7.755.934.934,0,0,1,.223-1.3c2.24-2.2,4.476-4.4,6.656-6.655A3.713,3.713,0,0,1,49.1,93.3c.414,0,.828-.024,1.241-.019,2.479.029,4.951.452,7.436.17.423-.048.622.232.86.47,2.515,2.507,5.023,5.022,7.548,7.52a.88.88,0,0,1,.253,1.142,6.737,6.737,0,0,0,1.521,7.7c1.167,1.22,2.372,2.406,3.585,3.583a6.866,6.866,0,0,0,9.841.012q11.2-11.108,22.32-22.3a6.841,6.841,0,0,0,.072-9.763M46.754,31.346c2.778.454,5.547.98,8.318,1.481.732.133,1.461.28,2.414.463-1.832,1.821-3.53,3.5-5.221,5.195-.236.236-.452.093-.64-.023a13.678,13.678,0,0,1-5.671-6.087c-.427-.976-.261-1.2.8-1.028m-5.648,1.221a1.313,1.313,0,0,1,.8.845,16.75,16.75,0,0,0,9.424,9.439A1.559,1.559,0,0,1,52.359,44,3.1,3.1,0,0,1,51.1,47.353a3.049,3.049,0,0,1-3.567-.168,20.344,20.344,0,0,1-1.491-1.43q-3.956-3.941-7.906-7.885A3.146,3.146,0,0,1,37,35.459a3.052,3.052,0,0,1,4.109-2.892M32.388,42.4a2.994,2.994,0,0,1,4.343-.024q3.848,3.741,7.6,7.578A3.039,3.039,0,0,1,42.166,55.1a2.833,2.833,0,0,1-2.147-.846c-2.538-2.522-5.086-5.033-7.588-7.59a2.983,2.983,0,0,1-.043-4.266M26.96,51.459a3.027,3.027,0,0,1,4.351.036c1.923,1.87,3.812,3.777,5.693,5.689a2.9,2.9,0,0,1,.623,3.42,2.855,2.855,0,0,1-2.788,1.762,2.77,2.77,0,0,1-2.06-.8c-1.96-1.932-3.934-3.85-5.838-5.836a2.988,2.988,0,0,1,.02-4.269M23.143,62.59a2.9,2.9,0,0,1,3.72-.746,11.8,11.8,0,0,1,3.418,3.381,2.217,2.217,0,0,1,.352,1.382,2.937,2.937,0,0,1-1.7,2.728,2.8,2.8,0,0,1-3.2-.325A23.044,23.044,0,0,1,23.1,66.4a3,3,0,0,1,.044-3.81M68.905,98.3q-2.841-2.936-5.782-5.774c-.486-.47-.422-.649.073-1.058a29.53,29.53,0,0,0,2.539-2.428,2.024,2.024,0,0,0,.066-2.96,2.1,2.1,0,0,0-3.044.069,2.181,2.181,0,0,0-.291.292c-2.039,2.754-4.906,3.144-8.042,2.891a35.087,35.087,0,0,0-6.2-.147,6.988,6.988,0,0,0-4.5,2.038c-2.3,2.332-4.644,4.623-6.938,6.962-.442.451-.665.469-1.124.009Q26.646,89.14,17.576,80.141c-.5-.5-.425-.746.037-1.195q2.855-2.775,5.634-5.63a.891.891,0,0,1,1.226-.21A7.164,7.164,0,0,0,34.761,67.25c.044-.435.1-.711.612-.725a7.127,7.127,0,0,0,6.67-6.676c.009-.453.226-.59.641-.6a7.1,7.1,0,0,0,6.638-6.6c.036-.554.285-.64.773-.686a7.222,7.222,0,0,0,6.564-7.371,6.985,6.985,0,0,0-.8-3.035.675.675,0,0,1,.16-.966c1.82-1.79,3.6-3.618,5.429-5.4a3.059,3.059,0,1,1,4.3,4.336c-1.157,1.183-2.347,2.334-3.511,3.511-1.052,1.063-1.155,2.3-.286,3.194a2.155,2.155,0,0,0,3.2-.206c.594-.575,1.162-1.179,1.759-1.751a3.052,3.052,0,1,1,4.341,4.284c-1.26,1.324-2.589,2.581-3.857,3.9a1.933,1.933,0,0,0-.295,2.473,1.986,1.986,0,0,0,2.207.975,2.241,2.241,0,0,0,1.225-.716c.662-.655,1.3-1.339,1.988-1.96a3.041,3.041,0,0,1,4.308,4.291c-1.1,1.191-2.281,2.3-3.418,3.458-1.038,1.054-1.138,2.314-.265,3.191.9.9,2.11.812,3.189-.236.52-.5,1.008-1.043,1.543-1.529a3.059,3.059,0,0,1,4.364-.015,3.022,3.022,0,0,1-.08,4.357c-1.412,1.465-2.875,2.88-4.31,4.323-1.095,1.1-1.2,2.373-.286,3.266s2.105.776,3.193-.274c1.157-1.117,1.157-1.116,2.278,0,1.684,1.681,3.351,3.379,5.064,5.031.458.442.462.666,0,1.122q-9.066,9-18.083,18.055c-.421.423-.646.519-1.12.029m31.522-9.307q-7.931,7.933-15.87,15.855-2.854,2.849-5.706,5.7c-1.635,1.628-3.08,1.632-4.726.012-1.031-1.015-2.06-2.033-3.073-3.066a2.8,2.8,0,0,1-.02-4.355Q81.992,92.165,92.969,81.213a2.755,2.755,0,0,1,2.144-.955,2.715,2.715,0,0,1,2.078.875c1.074,1.071,2.154,2.134,3.223,3.209,1.579,1.586,1.589,3.072.013,4.65" transform="translate(0 -10.163)" fill="#f28a1d"/>
    <path id="Path_268" data-name="Path 268" d="M112.107,114.011a2.037,2.037,0,0,1-2.078-2.079,2.09,2.09,0,0,1,2.008-2.071,2.136,2.136,0,0,1,2.152,2.05,2.089,2.089,0,0,1-2.082,2.1" transform="translate(-41.208 -41.145)" fill="#f28a1d"/>
  </g>
</svg>
