<svg xmlns="http://www.w3.org/2000/svg" xmlns:xlink="http://www.w3.org/1999/xlink" width="218" height="173" viewBox="0 0 218 173">
  <defs>
    <clipPath id="clip-path">
      <rect width="218" height="173" fill="none"/>
    </clipPath>
  </defs>
  <g id="Repeat_Grid_13" data-name="Repeat Grid 13" clip-path="url(#clip-path)">
    <g transform="translate(-1621 -3053)">
      <circle id="Ellipse_5" data-name="Ellipse 5" cx="4" cy="4" r="4" transform="translate(1621 3053)" fill="#fcf3eb"/>
    </g>
    <g transform="translate(-1605 -3053)">
      <circle id="Ellipse_5-2" data-name="Ellipse 5" cx="4" cy="4" r="4" transform="translate(1621 3053)" fill="#fcf3eb"/>
    </g>
    <g transform="translate(-1589 -3053)">
      <circle id="Ellipse_5-3" data-name="Ellipse 5" cx="4" cy="4" r="4" transform="translate(1621 3053)" fill="#fcf3eb"/>
    </g>
    <g transform="translate(-1573 -3053)">
      <circle id="Ellipse_5-4" data-name="Ellipse 5" cx="4" cy="4" r="4" transform="translate(1621 3053)" fill="#fcf3eb"/>
    </g>
    <g transform="translate(-1557 -3053)">
      <circle id="Ellipse_5-5" data-name="Ellipse 5" cx="4" cy="4" r="4" transform="translate(1621 3053)" fill="#fcf3eb"/>
    </g>
    <g transform="translate(-1541 -3053)">
      <circle id="Ellipse_5-6" data-name="Ellipse 5" cx="4" cy="4" r="4" transform="translate(1621 3053)" fill="#fcf3eb"/>
    </g>
    <g transform="translate(-1525 -3053)">
      <circle id="Ellipse_5-7" data-name="Ellipse 5" cx="4" cy="4" r="4" transform="translate(1621 3053)" fill="#fcf3eb"/>
    </g>
    <g transform="translate(-1509 -3053)">
      <circle id="Ellipse_5-8" data-name="Ellipse 5" cx="4" cy="4" r="4" transform="translate(1621 3053)" fill="#fcf3eb"/>
    </g>
    <g transform="translate(-1493 -3053)">
      <circle id="Ellipse_5-9" data-name="Ellipse 5" cx="4" cy="4" r="4" transform="translate(1621 3053)" fill="#fcf3eb"/>
    </g>
    <g transform="translate(-1477 -3053)">
      <circle id="Ellipse_5-10" data-name="Ellipse 5" cx="4" cy="4" r="4" transform="translate(1621 3053)" fill="#fcf3eb"/>
    </g>
    <g transform="translate(-1461 -3053)">
      <circle id="Ellipse_5-11" data-name="Ellipse 5" cx="4" cy="4" r="4" transform="translate(1621 3053)" fill="#fcf3eb"/>
    </g>
    <g transform="translate(-1445 -3053)">
      <circle id="Ellipse_5-12" data-name="Ellipse 5" cx="4" cy="4" r="4" transform="translate(1621 3053)" fill="#fcf3eb"/>
    </g>
    <g transform="translate(-1429 -3053)">
      <circle id="Ellipse_5-13" data-name="Ellipse 5" cx="4" cy="4" r="4" transform="translate(1621 3053)" fill="#fcf3eb"/>
    </g>
    <g transform="translate(-1413 -3053)">
      <circle id="Ellipse_5-14" data-name="Ellipse 5" cx="4" cy="4" r="4" transform="translate(1621 3053)" fill="#fcf3eb"/>
    </g>
    <g transform="translate(-1621 -3037)">
      <circle id="Ellipse_5-15" data-name="Ellipse 5" cx="4" cy="4" r="4" transform="translate(1621 3053)" fill="#fcf3eb"/>
    </g>
    <g transform="translate(-1605 -3037)">
      <circle id="Ellipse_5-16" data-name="Ellipse 5" cx="4" cy="4" r="4" transform="translate(1621 3053)" fill="#fcf3eb"/>
    </g>
    <g transform="translate(-1589 -3037)">
      <circle id="Ellipse_5-17" data-name="Ellipse 5" cx="4" cy="4" r="4" transform="translate(1621 3053)" fill="#fcf3eb"/>
    </g>
    <g transform="translate(-1573 -3037)">
      <circle id="Ellipse_5-18" data-name="Ellipse 5" cx="4" cy="4" r="4" transform="translate(1621 3053)" fill="#fcf3eb"/>
    </g>
    <g transform="translate(-1557 -3037)">
      <circle id="Ellipse_5-19" data-name="Ellipse 5" cx="4" cy="4" r="4" transform="translate(1621 3053)" fill="#fcf3eb"/>
    </g>
    <g transform="translate(-1541 -3037)">
      <circle id="Ellipse_5-20" data-name="Ellipse 5" cx="4" cy="4" r="4" transform="translate(1621 3053)" fill="#fcf3eb"/>
    </g>
    <g transform="translate(-1525 -3037)">
      <circle id="Ellipse_5-21" data-name="Ellipse 5" cx="4" cy="4" r="4" transform="translate(1621 3053)" fill="#fcf3eb"/>
    </g>
    <g transform="translate(-1509 -3037)">
      <circle id="Ellipse_5-22" data-name="Ellipse 5" cx="4" cy="4" r="4" transform="translate(1621 3053)" fill="#fcf3eb"/>
    </g>
    <g transform="translate(-1493 -3037)">
      <circle id="Ellipse_5-23" data-name="Ellipse 5" cx="4" cy="4" r="4" transform="translate(1621 3053)" fill="#fcf3eb"/>
    </g>
    <g transform="translate(-1477 -3037)">
      <circle id="Ellipse_5-24" data-name="Ellipse 5" cx="4" cy="4" r="4" transform="translate(1621 3053)" fill="#fcf3eb"/>
    </g>
    <g transform="translate(-1461 -3037)">
      <circle id="Ellipse_5-25" data-name="Ellipse 5" cx="4" cy="4" r="4" transform="translate(1621 3053)" fill="#fcf3eb"/>
    </g>
    <g transform="translate(-1445 -3037)">
      <circle id="Ellipse_5-26" data-name="Ellipse 5" cx="4" cy="4" r="4" transform="translate(1621 3053)" fill="#fcf3eb"/>
    </g>
    <g transform="translate(-1429 -3037)">
      <circle id="Ellipse_5-27" data-name="Ellipse 5" cx="4" cy="4" r="4" transform="translate(1621 3053)" fill="#fcf3eb"/>
    </g>
    <g transform="translate(-1413 -3037)">
      <circle id="Ellipse_5-28" data-name="Ellipse 5" cx="4" cy="4" r="4" transform="translate(1621 3053)" fill="#fcf3eb"/>
    </g>
    <g transform="translate(-1621 -3021)">
      <circle id="Ellipse_5-29" data-name="Ellipse 5" cx="4" cy="4" r="4" transform="translate(1621 3053)" fill="#fcf3eb"/>
    </g>
    <g transform="translate(-1605 -3021)">
      <circle id="Ellipse_5-30" data-name="Ellipse 5" cx="4" cy="4" r="4" transform="translate(1621 3053)" fill="#fcf3eb"/>
    </g>
    <g transform="translate(-1589 -3021)">
      <circle id="Ellipse_5-31" data-name="Ellipse 5" cx="4" cy="4" r="4" transform="translate(1621 3053)" fill="#fcf3eb"/>
    </g>
    <g transform="translate(-1573 -3021)">
      <circle id="Ellipse_5-32" data-name="Ellipse 5" cx="4" cy="4" r="4" transform="translate(1621 3053)" fill="#fcf3eb"/>
    </g>
    <g transform="translate(-1557 -3021)">
      <circle id="Ellipse_5-33" data-name="Ellipse 5" cx="4" cy="4" r="4" transform="translate(1621 3053)" fill="#fcf3eb"/>
    </g>
    <g transform="translate(-1541 -3021)">
      <circle id="Ellipse_5-34" data-name="Ellipse 5" cx="4" cy="4" r="4" transform="translate(1621 3053)" fill="#fcf3eb"/>
    </g>
    <g transform="translate(-1525 -3021)">
      <circle id="Ellipse_5-35" data-name="Ellipse 5" cx="4" cy="4" r="4" transform="translate(1621 3053)" fill="#fcf3eb"/>
    </g>
    <g transform="translate(-1509 -3021)">
      <circle id="Ellipse_5-36" data-name="Ellipse 5" cx="4" cy="4" r="4" transform="translate(1621 3053)" fill="#fcf3eb"/>
    </g>
    <g transform="translate(-1493 -3021)">
      <circle id="Ellipse_5-37" data-name="Ellipse 5" cx="4" cy="4" r="4" transform="translate(1621 3053)" fill="#fcf3eb"/>
    </g>
    <g transform="translate(-1477 -3021)">
      <circle id="Ellipse_5-38" data-name="Ellipse 5" cx="4" cy="4" r="4" transform="translate(1621 3053)" fill="#fcf3eb"/>
    </g>
    <g transform="translate(-1461 -3021)">
      <circle id="Ellipse_5-39" data-name="Ellipse 5" cx="4" cy="4" r="4" transform="translate(1621 3053)" fill="#fcf3eb"/>
    </g>
    <g transform="translate(-1445 -3021)">
      <circle id="Ellipse_5-40" data-name="Ellipse 5" cx="4" cy="4" r="4" transform="translate(1621 3053)" fill="#fcf3eb"/>
    </g>
    <g transform="translate(-1429 -3021)">
      <circle id="Ellipse_5-41" data-name="Ellipse 5" cx="4" cy="4" r="4" transform="translate(1621 3053)" fill="#fcf3eb"/>
    </g>
    <g transform="translate(-1413 -3021)">
      <circle id="Ellipse_5-42" data-name="Ellipse 5" cx="4" cy="4" r="4" transform="translate(1621 3053)" fill="#fcf3eb"/>
    </g>
    <g transform="translate(-1621 -3005)">
      <circle id="Ellipse_5-43" data-name="Ellipse 5" cx="4" cy="4" r="4" transform="translate(1621 3053)" fill="#fcf3eb"/>
    </g>
    <g transform="translate(-1605 -3005)">
      <circle id="Ellipse_5-44" data-name="Ellipse 5" cx="4" cy="4" r="4" transform="translate(1621 3053)" fill="#fcf3eb"/>
    </g>
    <g transform="translate(-1589 -3005)">
      <circle id="Ellipse_5-45" data-name="Ellipse 5" cx="4" cy="4" r="4" transform="translate(1621 3053)" fill="#fcf3eb"/>
    </g>
    <g transform="translate(-1573 -3005)">
      <circle id="Ellipse_5-46" data-name="Ellipse 5" cx="4" cy="4" r="4" transform="translate(1621 3053)" fill="#fcf3eb"/>
    </g>
    <g transform="translate(-1557 -3005)">
      <circle id="Ellipse_5-47" data-name="Ellipse 5" cx="4" cy="4" r="4" transform="translate(1621 3053)" fill="#fcf3eb"/>
    </g>
    <g transform="translate(-1541 -3005)">
      <circle id="Ellipse_5-48" data-name="Ellipse 5" cx="4" cy="4" r="4" transform="translate(1621 3053)" fill="#fcf3eb"/>
    </g>
    <g transform="translate(-1525 -3005)">
      <circle id="Ellipse_5-49" data-name="Ellipse 5" cx="4" cy="4" r="4" transform="translate(1621 3053)" fill="#fcf3eb"/>
    </g>
    <g transform="translate(-1509 -3005)">
      <circle id="Ellipse_5-50" data-name="Ellipse 5" cx="4" cy="4" r="4" transform="translate(1621 3053)" fill="#fcf3eb"/>
    </g>
    <g transform="translate(-1493 -3005)">
      <circle id="Ellipse_5-51" data-name="Ellipse 5" cx="4" cy="4" r="4" transform="translate(1621 3053)" fill="#fcf3eb"/>
    </g>
    <g transform="translate(-1477 -3005)">
      <circle id="Ellipse_5-52" data-name="Ellipse 5" cx="4" cy="4" r="4" transform="translate(1621 3053)" fill="#fcf3eb"/>
    </g>
    <g transform="translate(-1461 -3005)">
      <circle id="Ellipse_5-53" data-name="Ellipse 5" cx="4" cy="4" r="4" transform="translate(1621 3053)" fill="#fcf3eb"/>
    </g>
    <g transform="translate(-1445 -3005)">
      <circle id="Ellipse_5-54" data-name="Ellipse 5" cx="4" cy="4" r="4" transform="translate(1621 3053)" fill="#fcf3eb"/>
    </g>
    <g transform="translate(-1429 -3005)">
      <circle id="Ellipse_5-55" data-name="Ellipse 5" cx="4" cy="4" r="4" transform="translate(1621 3053)" fill="#fcf3eb"/>
    </g>
    <g transform="translate(-1413 -3005)">
      <circle id="Ellipse_5-56" data-name="Ellipse 5" cx="4" cy="4" r="4" transform="translate(1621 3053)" fill="#fcf3eb"/>
    </g>
    <g transform="translate(-1621 -2989)">
      <circle id="Ellipse_5-57" data-name="Ellipse 5" cx="4" cy="4" r="4" transform="translate(1621 3053)" fill="#fcf3eb"/>
    </g>
    <g transform="translate(-1605 -2989)">
      <circle id="Ellipse_5-58" data-name="Ellipse 5" cx="4" cy="4" r="4" transform="translate(1621 3053)" fill="#fcf3eb"/>
    </g>
    <g transform="translate(-1589 -2989)">
      <circle id="Ellipse_5-59" data-name="Ellipse 5" cx="4" cy="4" r="4" transform="translate(1621 3053)" fill="#fcf3eb"/>
    </g>
    <g transform="translate(-1573 -2989)">
      <circle id="Ellipse_5-60" data-name="Ellipse 5" cx="4" cy="4" r="4" transform="translate(1621 3053)" fill="#fcf3eb"/>
    </g>
    <g transform="translate(-1557 -2989)">
      <circle id="Ellipse_5-61" data-name="Ellipse 5" cx="4" cy="4" r="4" transform="translate(1621 3053)" fill="#fcf3eb"/>
    </g>
    <g transform="translate(-1541 -2989)">
      <circle id="Ellipse_5-62" data-name="Ellipse 5" cx="4" cy="4" r="4" transform="translate(1621 3053)" fill="#fcf3eb"/>
    </g>
    <g transform="translate(-1525 -2989)">
      <circle id="Ellipse_5-63" data-name="Ellipse 5" cx="4" cy="4" r="4" transform="translate(1621 3053)" fill="#fcf3eb"/>
    </g>
    <g transform="translate(-1509 -2989)">
      <circle id="Ellipse_5-64" data-name="Ellipse 5" cx="4" cy="4" r="4" transform="translate(1621 3053)" fill="#fcf3eb"/>
    </g>
    <g transform="translate(-1493 -2989)">
      <circle id="Ellipse_5-65" data-name="Ellipse 5" cx="4" cy="4" r="4" transform="translate(1621 3053)" fill="#fcf3eb"/>
    </g>
    <g transform="translate(-1477 -2989)">
      <circle id="Ellipse_5-66" data-name="Ellipse 5" cx="4" cy="4" r="4" transform="translate(1621 3053)" fill="#fcf3eb"/>
    </g>
    <g transform="translate(-1461 -2989)">
      <circle id="Ellipse_5-67" data-name="Ellipse 5" cx="4" cy="4" r="4" transform="translate(1621 3053)" fill="#fcf3eb"/>
    </g>
    <g transform="translate(-1445 -2989)">
      <circle id="Ellipse_5-68" data-name="Ellipse 5" cx="4" cy="4" r="4" transform="translate(1621 3053)" fill="#fcf3eb"/>
    </g>
    <g transform="translate(-1429 -2989)">
      <circle id="Ellipse_5-69" data-name="Ellipse 5" cx="4" cy="4" r="4" transform="translate(1621 3053)" fill="#fcf3eb"/>
    </g>
    <g transform="translate(-1413 -2989)">
      <circle id="Ellipse_5-70" data-name="Ellipse 5" cx="4" cy="4" r="4" transform="translate(1621 3053)" fill="#fcf3eb"/>
    </g>
    <g transform="translate(-1621 -2973)">
      <circle id="Ellipse_5-71" data-name="Ellipse 5" cx="4" cy="4" r="4" transform="translate(1621 3053)" fill="#fcf3eb"/>
    </g>
    <g transform="translate(-1605 -2973)">
      <circle id="Ellipse_5-72" data-name="Ellipse 5" cx="4" cy="4" r="4" transform="translate(1621 3053)" fill="#fcf3eb"/>
    </g>
    <g transform="translate(-1589 -2973)">
      <circle id="Ellipse_5-73" data-name="Ellipse 5" cx="4" cy="4" r="4" transform="translate(1621 3053)" fill="#fcf3eb"/>
    </g>
    <g transform="translate(-1573 -2973)">
      <circle id="Ellipse_5-74" data-name="Ellipse 5" cx="4" cy="4" r="4" transform="translate(1621 3053)" fill="#fcf3eb"/>
    </g>
    <g transform="translate(-1557 -2973)">
      <circle id="Ellipse_5-75" data-name="Ellipse 5" cx="4" cy="4" r="4" transform="translate(1621 3053)" fill="#fcf3eb"/>
    </g>
    <g transform="translate(-1541 -2973)">
      <circle id="Ellipse_5-76" data-name="Ellipse 5" cx="4" cy="4" r="4" transform="translate(1621 3053)" fill="#fcf3eb"/>
    </g>
    <g transform="translate(-1525 -2973)">
      <circle id="Ellipse_5-77" data-name="Ellipse 5" cx="4" cy="4" r="4" transform="translate(1621 3053)" fill="#fcf3eb"/>
    </g>
    <g transform="translate(-1509 -2973)">
      <circle id="Ellipse_5-78" data-name="Ellipse 5" cx="4" cy="4" r="4" transform="translate(1621 3053)" fill="#fcf3eb"/>
    </g>
    <g transform="translate(-1493 -2973)">
      <circle id="Ellipse_5-79" data-name="Ellipse 5" cx="4" cy="4" r="4" transform="translate(1621 3053)" fill="#fcf3eb"/>
    </g>
    <g transform="translate(-1477 -2973)">
      <circle id="Ellipse_5-80" data-name="Ellipse 5" cx="4" cy="4" r="4" transform="translate(1621 3053)" fill="#fcf3eb"/>
    </g>
    <g transform="translate(-1461 -2973)">
      <circle id="Ellipse_5-81" data-name="Ellipse 5" cx="4" cy="4" r="4" transform="translate(1621 3053)" fill="#fcf3eb"/>
    </g>
    <g transform="translate(-1445 -2973)">
      <circle id="Ellipse_5-82" data-name="Ellipse 5" cx="4" cy="4" r="4" transform="translate(1621 3053)" fill="#fcf3eb"/>
    </g>
    <g transform="translate(-1429 -2973)">
      <circle id="Ellipse_5-83" data-name="Ellipse 5" cx="4" cy="4" r="4" transform="translate(1621 3053)" fill="#fcf3eb"/>
    </g>
    <g transform="translate(-1413 -2973)">
      <circle id="Ellipse_5-84" data-name="Ellipse 5" cx="4" cy="4" r="4" transform="translate(1621 3053)" fill="#fcf3eb"/>
    </g>
    <g transform="translate(-1621 -2957)">
      <circle id="Ellipse_5-85" data-name="Ellipse 5" cx="4" cy="4" r="4" transform="translate(1621 3053)" fill="#fcf3eb"/>
    </g>
    <g transform="translate(-1605 -2957)">
      <circle id="Ellipse_5-86" data-name="Ellipse 5" cx="4" cy="4" r="4" transform="translate(1621 3053)" fill="#fcf3eb"/>
    </g>
    <g transform="translate(-1589 -2957)">
      <circle id="Ellipse_5-87" data-name="Ellipse 5" cx="4" cy="4" r="4" transform="translate(1621 3053)" fill="#fcf3eb"/>
    </g>
    <g transform="translate(-1573 -2957)">
      <circle id="Ellipse_5-88" data-name="Ellipse 5" cx="4" cy="4" r="4" transform="translate(1621 3053)" fill="#fcf3eb"/>
    </g>
    <g transform="translate(-1557 -2957)">
      <circle id="Ellipse_5-89" data-name="Ellipse 5" cx="4" cy="4" r="4" transform="translate(1621 3053)" fill="#fcf3eb"/>
    </g>
    <g transform="translate(-1541 -2957)">
      <circle id="Ellipse_5-90" data-name="Ellipse 5" cx="4" cy="4" r="4" transform="translate(1621 3053)" fill="#fcf3eb"/>
    </g>
    <g transform="translate(-1525 -2957)">
      <circle id="Ellipse_5-91" data-name="Ellipse 5" cx="4" cy="4" r="4" transform="translate(1621 3053)" fill="#fcf3eb"/>
    </g>
    <g transform="translate(-1509 -2957)">
      <circle id="Ellipse_5-92" data-name="Ellipse 5" cx="4" cy="4" r="4" transform="translate(1621 3053)" fill="#fcf3eb"/>
    </g>
    <g transform="translate(-1493 -2957)">
      <circle id="Ellipse_5-93" data-name="Ellipse 5" cx="4" cy="4" r="4" transform="translate(1621 3053)" fill="#fcf3eb"/>
    </g>
    <g transform="translate(-1477 -2957)">
      <circle id="Ellipse_5-94" data-name="Ellipse 5" cx="4" cy="4" r="4" transform="translate(1621 3053)" fill="#fcf3eb"/>
    </g>
    <g transform="translate(-1461 -2957)">
      <circle id="Ellipse_5-95" data-name="Ellipse 5" cx="4" cy="4" r="4" transform="translate(1621 3053)" fill="#fcf3eb"/>
    </g>
    <g transform="translate(-1445 -2957)">
      <circle id="Ellipse_5-96" data-name="Ellipse 5" cx="4" cy="4" r="4" transform="translate(1621 3053)" fill="#fcf3eb"/>
    </g>
    <g transform="translate(-1429 -2957)">
      <circle id="Ellipse_5-97" data-name="Ellipse 5" cx="4" cy="4" r="4" transform="translate(1621 3053)" fill="#fcf3eb"/>
    </g>
    <g transform="translate(-1413 -2957)">
      <circle id="Ellipse_5-98" data-name="Ellipse 5" cx="4" cy="4" r="4" transform="translate(1621 3053)" fill="#fcf3eb"/>
    </g>
    <g transform="translate(-1621 -2941)">
      <circle id="Ellipse_5-99" data-name="Ellipse 5" cx="4" cy="4" r="4" transform="translate(1621 3053)" fill="#fcf3eb"/>
    </g>
    <g transform="translate(-1605 -2941)">
      <circle id="Ellipse_5-100" data-name="Ellipse 5" cx="4" cy="4" r="4" transform="translate(1621 3053)" fill="#fcf3eb"/>
    </g>
    <g transform="translate(-1589 -2941)">
      <circle id="Ellipse_5-101" data-name="Ellipse 5" cx="4" cy="4" r="4" transform="translate(1621 3053)" fill="#fcf3eb"/>
    </g>
    <g transform="translate(-1573 -2941)">
      <circle id="Ellipse_5-102" data-name="Ellipse 5" cx="4" cy="4" r="4" transform="translate(1621 3053)" fill="#fcf3eb"/>
    </g>
    <g transform="translate(-1557 -2941)">
      <circle id="Ellipse_5-103" data-name="Ellipse 5" cx="4" cy="4" r="4" transform="translate(1621 3053)" fill="#fcf3eb"/>
    </g>
    <g transform="translate(-1541 -2941)">
      <circle id="Ellipse_5-104" data-name="Ellipse 5" cx="4" cy="4" r="4" transform="translate(1621 3053)" fill="#fcf3eb"/>
    </g>
    <g transform="translate(-1525 -2941)">
      <circle id="Ellipse_5-105" data-name="Ellipse 5" cx="4" cy="4" r="4" transform="translate(1621 3053)" fill="#fcf3eb"/>
    </g>
    <g transform="translate(-1509 -2941)">
      <circle id="Ellipse_5-106" data-name="Ellipse 5" cx="4" cy="4" r="4" transform="translate(1621 3053)" fill="#fcf3eb"/>
    </g>
    <g transform="translate(-1493 -2941)">
      <circle id="Ellipse_5-107" data-name="Ellipse 5" cx="4" cy="4" r="4" transform="translate(1621 3053)" fill="#fcf3eb"/>
    </g>
    <g transform="translate(-1477 -2941)">
      <circle id="Ellipse_5-108" data-name="Ellipse 5" cx="4" cy="4" r="4" transform="translate(1621 3053)" fill="#fcf3eb"/>
    </g>
    <g transform="translate(-1461 -2941)">
      <circle id="Ellipse_5-109" data-name="Ellipse 5" cx="4" cy="4" r="4" transform="translate(1621 3053)" fill="#fcf3eb"/>
    </g>
    <g transform="translate(-1445 -2941)">
      <circle id="Ellipse_5-110" data-name="Ellipse 5" cx="4" cy="4" r="4" transform="translate(1621 3053)" fill="#fcf3eb"/>
    </g>
    <g transform="translate(-1429 -2941)">
      <circle id="Ellipse_5-111" data-name="Ellipse 5" cx="4" cy="4" r="4" transform="translate(1621 3053)" fill="#fcf3eb"/>
    </g>
    <g transform="translate(-1413 -2941)">
      <circle id="Ellipse_5-112" data-name="Ellipse 5" cx="4" cy="4" r="4" transform="translate(1621 3053)" fill="#fcf3eb"/>
    </g>
    <g transform="translate(-1621 -2925)">
      <circle id="Ellipse_5-113" data-name="Ellipse 5" cx="4" cy="4" r="4" transform="translate(1621 3053)" fill="#fcf3eb"/>
    </g>
    <g transform="translate(-1605 -2925)">
      <circle id="Ellipse_5-114" data-name="Ellipse 5" cx="4" cy="4" r="4" transform="translate(1621 3053)" fill="#fcf3eb"/>
    </g>
    <g transform="translate(-1589 -2925)">
      <circle id="Ellipse_5-115" data-name="Ellipse 5" cx="4" cy="4" r="4" transform="translate(1621 3053)" fill="#fcf3eb"/>
    </g>
    <g transform="translate(-1573 -2925)">
      <circle id="Ellipse_5-116" data-name="Ellipse 5" cx="4" cy="4" r="4" transform="translate(1621 3053)" fill="#fcf3eb"/>
    </g>
    <g transform="translate(-1557 -2925)">
      <circle id="Ellipse_5-117" data-name="Ellipse 5" cx="4" cy="4" r="4" transform="translate(1621 3053)" fill="#fcf3eb"/>
    </g>
    <g transform="translate(-1541 -2925)">
      <circle id="Ellipse_5-118" data-name="Ellipse 5" cx="4" cy="4" r="4" transform="translate(1621 3053)" fill="#fcf3eb"/>
    </g>
    <g transform="translate(-1525 -2925)">
      <circle id="Ellipse_5-119" data-name="Ellipse 5" cx="4" cy="4" r="4" transform="translate(1621 3053)" fill="#fcf3eb"/>
    </g>
    <g transform="translate(-1509 -2925)">
      <circle id="Ellipse_5-120" data-name="Ellipse 5" cx="4" cy="4" r="4" transform="translate(1621 3053)" fill="#fcf3eb"/>
    </g>
    <g transform="translate(-1493 -2925)">
      <circle id="Ellipse_5-121" data-name="Ellipse 5" cx="4" cy="4" r="4" transform="translate(1621 3053)" fill="#fcf3eb"/>
    </g>
    <g transform="translate(-1477 -2925)">
      <circle id="Ellipse_5-122" data-name="Ellipse 5" cx="4" cy="4" r="4" transform="translate(1621 3053)" fill="#fcf3eb"/>
    </g>
    <g transform="translate(-1461 -2925)">
      <circle id="Ellipse_5-123" data-name="Ellipse 5" cx="4" cy="4" r="4" transform="translate(1621 3053)" fill="#fcf3eb"/>
    </g>
    <g transform="translate(-1445 -2925)">
      <circle id="Ellipse_5-124" data-name="Ellipse 5" cx="4" cy="4" r="4" transform="translate(1621 3053)" fill="#fcf3eb"/>
    </g>
    <g transform="translate(-1429 -2925)">
      <circle id="Ellipse_5-125" data-name="Ellipse 5" cx="4" cy="4" r="4" transform="translate(1621 3053)" fill="#fcf3eb"/>
    </g>
    <g transform="translate(-1413 -2925)">
      <circle id="Ellipse_5-126" data-name="Ellipse 5" cx="4" cy="4" r="4" transform="translate(1621 3053)" fill="#fcf3eb"/>
    </g>
    <g transform="translate(-1621 -2909)">
      <circle id="Ellipse_5-127" data-name="Ellipse 5" cx="4" cy="4" r="4" transform="translate(1621 3053)" fill="#fcf3eb"/>
    </g>
    <g transform="translate(-1605 -2909)">
      <circle id="Ellipse_5-128" data-name="Ellipse 5" cx="4" cy="4" r="4" transform="translate(1621 3053)" fill="#fcf3eb"/>
    </g>
    <g transform="translate(-1589 -2909)">
      <circle id="Ellipse_5-129" data-name="Ellipse 5" cx="4" cy="4" r="4" transform="translate(1621 3053)" fill="#fcf3eb"/>
    </g>
    <g transform="translate(-1573 -2909)">
      <circle id="Ellipse_5-130" data-name="Ellipse 5" cx="4" cy="4" r="4" transform="translate(1621 3053)" fill="#fcf3eb"/>
    </g>
    <g transform="translate(-1557 -2909)">
      <circle id="Ellipse_5-131" data-name="Ellipse 5" cx="4" cy="4" r="4" transform="translate(1621 3053)" fill="#fcf3eb"/>
    </g>
    <g transform="translate(-1541 -2909)">
      <circle id="Ellipse_5-132" data-name="Ellipse 5" cx="4" cy="4" r="4" transform="translate(1621 3053)" fill="#fcf3eb"/>
    </g>
    <g transform="translate(-1525 -2909)">
      <circle id="Ellipse_5-133" data-name="Ellipse 5" cx="4" cy="4" r="4" transform="translate(1621 3053)" fill="#fcf3eb"/>
    </g>
    <g transform="translate(-1509 -2909)">
      <circle id="Ellipse_5-134" data-name="Ellipse 5" cx="4" cy="4" r="4" transform="translate(1621 3053)" fill="#fcf3eb"/>
    </g>
    <g transform="translate(-1493 -2909)">
      <circle id="Ellipse_5-135" data-name="Ellipse 5" cx="4" cy="4" r="4" transform="translate(1621 3053)" fill="#fcf3eb"/>
    </g>
    <g transform="translate(-1477 -2909)">
      <circle id="Ellipse_5-136" data-name="Ellipse 5" cx="4" cy="4" r="4" transform="translate(1621 3053)" fill="#fcf3eb"/>
    </g>
    <g transform="translate(-1461 -2909)">
      <circle id="Ellipse_5-137" data-name="Ellipse 5" cx="4" cy="4" r="4" transform="translate(1621 3053)" fill="#fcf3eb"/>
    </g>
    <g transform="translate(-1445 -2909)">
      <circle id="Ellipse_5-138" data-name="Ellipse 5" cx="4" cy="4" r="4" transform="translate(1621 3053)" fill="#fcf3eb"/>
    </g>
    <g transform="translate(-1429 -2909)">
      <circle id="Ellipse_5-139" data-name="Ellipse 5" cx="4" cy="4" r="4" transform="translate(1621 3053)" fill="#fcf3eb"/>
    </g>
    <g transform="translate(-1413 -2909)">
      <circle id="Ellipse_5-140" data-name="Ellipse 5" cx="4" cy="4" r="4" transform="translate(1621 3053)" fill="#fcf3eb"/>
    </g>
    <g transform="translate(-1621 -2893)">
      <circle id="Ellipse_5-141" data-name="Ellipse 5" cx="4" cy="4" r="4" transform="translate(1621 3053)" fill="#fcf3eb"/>
    </g>
    <g transform="translate(-1605 -2893)">
      <circle id="Ellipse_5-142" data-name="Ellipse 5" cx="4" cy="4" r="4" transform="translate(1621 3053)" fill="#fcf3eb"/>
    </g>
    <g transform="translate(-1589 -2893)">
      <circle id="Ellipse_5-143" data-name="Ellipse 5" cx="4" cy="4" r="4" transform="translate(1621 3053)" fill="#fcf3eb"/>
    </g>
    <g transform="translate(-1573 -2893)">
      <circle id="Ellipse_5-144" data-name="Ellipse 5" cx="4" cy="4" r="4" transform="translate(1621 3053)" fill="#fcf3eb"/>
    </g>
    <g transform="translate(-1557 -2893)">
      <circle id="Ellipse_5-145" data-name="Ellipse 5" cx="4" cy="4" r="4" transform="translate(1621 3053)" fill="#fcf3eb"/>
    </g>
    <g transform="translate(-1541 -2893)">
      <circle id="Ellipse_5-146" data-name="Ellipse 5" cx="4" cy="4" r="4" transform="translate(1621 3053)" fill="#fcf3eb"/>
    </g>
    <g transform="translate(-1525 -2893)">
      <circle id="Ellipse_5-147" data-name="Ellipse 5" cx="4" cy="4" r="4" transform="translate(1621 3053)" fill="#fcf3eb"/>
    </g>
    <g transform="translate(-1509 -2893)">
      <circle id="Ellipse_5-148" data-name="Ellipse 5" cx="4" cy="4" r="4" transform="translate(1621 3053)" fill="#fcf3eb"/>
    </g>
    <g transform="translate(-1493 -2893)">
      <circle id="Ellipse_5-149" data-name="Ellipse 5" cx="4" cy="4" r="4" transform="translate(1621 3053)" fill="#fcf3eb"/>
    </g>
    <g transform="translate(-1477 -2893)">
      <circle id="Ellipse_5-150" data-name="Ellipse 5" cx="4" cy="4" r="4" transform="translate(1621 3053)" fill="#fcf3eb"/>
    </g>
    <g transform="translate(-1461 -2893)">
      <circle id="Ellipse_5-151" data-name="Ellipse 5" cx="4" cy="4" r="4" transform="translate(1621 3053)" fill="#fcf3eb"/>
    </g>
    <g transform="translate(-1445 -2893)">
      <circle id="Ellipse_5-152" data-name="Ellipse 5" cx="4" cy="4" r="4" transform="translate(1621 3053)" fill="#fcf3eb"/>
    </g>
    <g transform="translate(-1429 -2893)">
      <circle id="Ellipse_5-153" data-name="Ellipse 5" cx="4" cy="4" r="4" transform="translate(1621 3053)" fill="#fcf3eb"/>
    </g>
    <g transform="translate(-1413 -2893)">
      <circle id="Ellipse_5-154" data-name="Ellipse 5" cx="4" cy="4" r="4" transform="translate(1621 3053)" fill="#fcf3eb"/>
    </g>
  </g>
</svg>
