<svg xmlns="http://www.w3.org/2000/svg" width="280" height="152" viewBox="0 0 280 152">
  <g id="Group_693" data-name="Group 693" transform="translate(-1636 -7030)">
    <circle id="Ellipse_5" data-name="Ellipse 5" cx="4" cy="4" r="4" transform="translate(1636 7030)" fill="#fcf6ef"/>
    <circle id="Ellipse_5-2" data-name="Ellipse 5" cx="4" cy="4" r="4" transform="translate(1652 7030)" fill="#fcf6ef"/>
    <circle id="Ellipse_5-3" data-name="Ellipse 5" cx="4" cy="4" r="4" transform="translate(1668 7030)" fill="#fcf6ef"/>
    <circle id="Ellipse_5-4" data-name="Ellipse 5" cx="4" cy="4" r="4" transform="translate(1684 7030)" fill="#fcf6ef"/>
    <circle id="Ellipse_5-5" data-name="Ellipse 5" cx="4" cy="4" r="4" transform="translate(1700 7030)" fill="#fcf6ef"/>
    <circle id="Ellipse_5-6" data-name="Ellipse 5" cx="4" cy="4" r="4" transform="translate(1716 7030)" fill="#fcf6ef"/>
    <circle id="Ellipse_5-7" data-name="Ellipse 5" cx="4" cy="4" r="4" transform="translate(1732 7030)" fill="#fcf6ef"/>
    <circle id="Ellipse_5-8" data-name="Ellipse 5" cx="4" cy="4" r="4" transform="translate(1748 7030)" fill="#fcf6ef"/>
    <circle id="Ellipse_5-9" data-name="Ellipse 5" cx="4" cy="4" r="4" transform="translate(1764 7030)" fill="#fcf6ef"/>
    <circle id="Ellipse_5-10" data-name="Ellipse 5" cx="4" cy="4" r="4" transform="translate(1780 7030)" fill="#fcf6ef"/>
    <circle id="Ellipse_5-11" data-name="Ellipse 5" cx="4" cy="4" r="4" transform="translate(1796 7030)" fill="#fcf6ef"/>
    <circle id="Ellipse_5-12" data-name="Ellipse 5" cx="4" cy="4" r="4" transform="translate(1812 7030)" fill="#fcf6ef"/>
    <circle id="Ellipse_5-13" data-name="Ellipse 5" cx="4" cy="4" r="4" transform="translate(1828 7030)" fill="#fcf6ef"/>
    <circle id="Ellipse_5-14" data-name="Ellipse 5" cx="4" cy="4" r="4" transform="translate(1844 7030)" fill="#fcf6ef"/>
    <circle id="Ellipse_5-15" data-name="Ellipse 5" cx="4" cy="4" r="4" transform="translate(1860 7030)" fill="#fcf6ef"/>
    <circle id="Ellipse_5-16" data-name="Ellipse 5" cx="4" cy="4" r="4" transform="translate(1876 7030)" fill="#fcf6ef"/>
    <circle id="Ellipse_5-17" data-name="Ellipse 5" cx="4" cy="4" r="4" transform="translate(1892 7030)" fill="#fcf6ef"/>
    <circle id="Ellipse_5-18" data-name="Ellipse 5" cx="4" cy="4" r="4" transform="translate(1908 7030)" fill="#fcf6ef"/>
    <circle id="Ellipse_5-19" data-name="Ellipse 5" cx="4" cy="4" r="4" transform="translate(1636 7046)" fill="#fcf6ef"/>
    <circle id="Ellipse_5-20" data-name="Ellipse 5" cx="4" cy="4" r="4" transform="translate(1652 7046)" fill="#fcf6ef"/>
    <circle id="Ellipse_5-21" data-name="Ellipse 5" cx="4" cy="4" r="4" transform="translate(1668 7046)" fill="#fcf6ef"/>
    <circle id="Ellipse_5-22" data-name="Ellipse 5" cx="4" cy="4" r="4" transform="translate(1684 7046)" fill="#fcf6ef"/>
    <circle id="Ellipse_5-23" data-name="Ellipse 5" cx="4" cy="4" r="4" transform="translate(1700 7046)" fill="#fcf6ef"/>
    <circle id="Ellipse_5-24" data-name="Ellipse 5" cx="4" cy="4" r="4" transform="translate(1716 7046)" fill="#fcf6ef"/>
    <circle id="Ellipse_5-25" data-name="Ellipse 5" cx="4" cy="4" r="4" transform="translate(1732 7046)" fill="#fcf6ef"/>
    <circle id="Ellipse_5-26" data-name="Ellipse 5" cx="4" cy="4" r="4" transform="translate(1748 7046)" fill="#fcf6ef"/>
    <circle id="Ellipse_5-27" data-name="Ellipse 5" cx="4" cy="4" r="4" transform="translate(1764 7046)" fill="#fcf6ef"/>
    <circle id="Ellipse_5-28" data-name="Ellipse 5" cx="4" cy="4" r="4" transform="translate(1780 7046)" fill="#fcf6ef"/>
    <circle id="Ellipse_5-29" data-name="Ellipse 5" cx="4" cy="4" r="4" transform="translate(1796 7046)" fill="#fcf6ef"/>
    <circle id="Ellipse_5-30" data-name="Ellipse 5" cx="4" cy="4" r="4" transform="translate(1812 7046)" fill="#fcf6ef"/>
    <circle id="Ellipse_5-31" data-name="Ellipse 5" cx="4" cy="4" r="4" transform="translate(1828 7046)" fill="#fcf6ef"/>
    <circle id="Ellipse_5-32" data-name="Ellipse 5" cx="4" cy="4" r="4" transform="translate(1844 7046)" fill="#fcf6ef"/>
    <circle id="Ellipse_5-33" data-name="Ellipse 5" cx="4" cy="4" r="4" transform="translate(1860 7046)" fill="#fcf6ef"/>
    <circle id="Ellipse_5-34" data-name="Ellipse 5" cx="4" cy="4" r="4" transform="translate(1876 7046)" fill="#fcf6ef"/>
    <circle id="Ellipse_5-35" data-name="Ellipse 5" cx="4" cy="4" r="4" transform="translate(1892 7046)" fill="#fcf6ef"/>
    <circle id="Ellipse_5-36" data-name="Ellipse 5" cx="4" cy="4" r="4" transform="translate(1908 7046)" fill="#fcf6ef"/>
    <circle id="Ellipse_5-37" data-name="Ellipse 5" cx="4" cy="4" r="4" transform="translate(1636 7062)" fill="#fcf6ef"/>
    <circle id="Ellipse_5-38" data-name="Ellipse 5" cx="4" cy="4" r="4" transform="translate(1652 7062)" fill="#fcf6ef"/>
    <circle id="Ellipse_5-39" data-name="Ellipse 5" cx="4" cy="4" r="4" transform="translate(1668 7062)" fill="#fcf6ef"/>
    <circle id="Ellipse_5-40" data-name="Ellipse 5" cx="4" cy="4" r="4" transform="translate(1684 7062)" fill="#fcf6ef"/>
    <circle id="Ellipse_5-41" data-name="Ellipse 5" cx="4" cy="4" r="4" transform="translate(1700 7062)" fill="#fcf6ef"/>
    <circle id="Ellipse_5-42" data-name="Ellipse 5" cx="4" cy="4" r="4" transform="translate(1716 7062)" fill="#fcf6ef"/>
    <circle id="Ellipse_5-43" data-name="Ellipse 5" cx="4" cy="4" r="4" transform="translate(1732 7062)" fill="#fcf6ef"/>
    <circle id="Ellipse_5-44" data-name="Ellipse 5" cx="4" cy="4" r="4" transform="translate(1748 7062)" fill="#fcf6ef"/>
    <circle id="Ellipse_5-45" data-name="Ellipse 5" cx="4" cy="4" r="4" transform="translate(1764 7062)" fill="#fcf6ef"/>
    <circle id="Ellipse_5-46" data-name="Ellipse 5" cx="4" cy="4" r="4" transform="translate(1780 7062)" fill="#fcf6ef"/>
    <circle id="Ellipse_5-47" data-name="Ellipse 5" cx="4" cy="4" r="4" transform="translate(1796 7062)" fill="#fcf6ef"/>
    <circle id="Ellipse_5-48" data-name="Ellipse 5" cx="4" cy="4" r="4" transform="translate(1812 7062)" fill="#fcf6ef"/>
    <circle id="Ellipse_5-49" data-name="Ellipse 5" cx="4" cy="4" r="4" transform="translate(1828 7062)" fill="#fcf6ef"/>
    <circle id="Ellipse_5-50" data-name="Ellipse 5" cx="4" cy="4" r="4" transform="translate(1844 7062)" fill="#fcf6ef"/>
    <circle id="Ellipse_5-51" data-name="Ellipse 5" cx="4" cy="4" r="4" transform="translate(1860 7062)" fill="#fcf6ef"/>
    <circle id="Ellipse_5-52" data-name="Ellipse 5" cx="4" cy="4" r="4" transform="translate(1876 7062)" fill="#fcf6ef"/>
    <circle id="Ellipse_5-53" data-name="Ellipse 5" cx="4" cy="4" r="4" transform="translate(1892 7062)" fill="#fcf6ef"/>
    <circle id="Ellipse_5-54" data-name="Ellipse 5" cx="4" cy="4" r="4" transform="translate(1908 7062)" fill="#fcf6ef"/>
    <circle id="Ellipse_5-55" data-name="Ellipse 5" cx="4" cy="4" r="4" transform="translate(1636 7078)" fill="#fcf6ef"/>
    <circle id="Ellipse_5-56" data-name="Ellipse 5" cx="4" cy="4" r="4" transform="translate(1652 7078)" fill="#fcf6ef"/>
    <circle id="Ellipse_5-57" data-name="Ellipse 5" cx="4" cy="4" r="4" transform="translate(1668 7078)" fill="#fcf6ef"/>
    <circle id="Ellipse_5-58" data-name="Ellipse 5" cx="4" cy="4" r="4" transform="translate(1684 7078)" fill="#fcf6ef"/>
    <circle id="Ellipse_5-59" data-name="Ellipse 5" cx="4" cy="4" r="4" transform="translate(1700 7078)" fill="#fcf6ef"/>
    <circle id="Ellipse_5-60" data-name="Ellipse 5" cx="4" cy="4" r="4" transform="translate(1716 7078)" fill="#fcf6ef"/>
    <circle id="Ellipse_5-61" data-name="Ellipse 5" cx="4" cy="4" r="4" transform="translate(1732 7078)" fill="#fcf6ef"/>
    <circle id="Ellipse_5-62" data-name="Ellipse 5" cx="4" cy="4" r="4" transform="translate(1748 7078)" fill="#fcf6ef"/>
    <circle id="Ellipse_5-63" data-name="Ellipse 5" cx="4" cy="4" r="4" transform="translate(1764 7078)" fill="#fcf6ef"/>
    <circle id="Ellipse_5-64" data-name="Ellipse 5" cx="4" cy="4" r="4" transform="translate(1780 7078)" fill="#fcf6ef"/>
    <circle id="Ellipse_5-65" data-name="Ellipse 5" cx="4" cy="4" r="4" transform="translate(1796 7078)" fill="#fcf6ef"/>
    <circle id="Ellipse_5-66" data-name="Ellipse 5" cx="4" cy="4" r="4" transform="translate(1812 7078)" fill="#fcf6ef"/>
    <circle id="Ellipse_5-67" data-name="Ellipse 5" cx="4" cy="4" r="4" transform="translate(1828 7078)" fill="#fcf6ef"/>
    <circle id="Ellipse_5-68" data-name="Ellipse 5" cx="4" cy="4" r="4" transform="translate(1844 7078)" fill="#fcf6ef"/>
    <circle id="Ellipse_5-69" data-name="Ellipse 5" cx="4" cy="4" r="4" transform="translate(1860 7078)" fill="#fcf6ef"/>
    <circle id="Ellipse_5-70" data-name="Ellipse 5" cx="4" cy="4" r="4" transform="translate(1876 7078)" fill="#fcf6ef"/>
    <circle id="Ellipse_5-71" data-name="Ellipse 5" cx="4" cy="4" r="4" transform="translate(1892 7078)" fill="#fcf6ef"/>
    <circle id="Ellipse_5-72" data-name="Ellipse 5" cx="4" cy="4" r="4" transform="translate(1908 7078)" fill="#fcf6ef"/>
    <circle id="Ellipse_5-73" data-name="Ellipse 5" cx="4" cy="4" r="4" transform="translate(1636 7094)" fill="#fcf6ef"/>
    <circle id="Ellipse_5-74" data-name="Ellipse 5" cx="4" cy="4" r="4" transform="translate(1652 7094)" fill="#fcf6ef"/>
    <circle id="Ellipse_5-75" data-name="Ellipse 5" cx="4" cy="4" r="4" transform="translate(1668 7094)" fill="#fcf6ef"/>
    <circle id="Ellipse_5-76" data-name="Ellipse 5" cx="4" cy="4" r="4" transform="translate(1684 7094)" fill="#fcf6ef"/>
    <circle id="Ellipse_5-77" data-name="Ellipse 5" cx="4" cy="4" r="4" transform="translate(1700 7094)" fill="#fcf6ef"/>
    <circle id="Ellipse_5-78" data-name="Ellipse 5" cx="4" cy="4" r="4" transform="translate(1716 7094)" fill="#fcf6ef"/>
    <circle id="Ellipse_5-79" data-name="Ellipse 5" cx="4" cy="4" r="4" transform="translate(1732 7094)" fill="#fcf6ef"/>
    <circle id="Ellipse_5-80" data-name="Ellipse 5" cx="4" cy="4" r="4" transform="translate(1748 7094)" fill="#fcf6ef"/>
    <circle id="Ellipse_5-81" data-name="Ellipse 5" cx="4" cy="4" r="4" transform="translate(1764 7094)" fill="#fcf6ef"/>
    <circle id="Ellipse_5-82" data-name="Ellipse 5" cx="4" cy="4" r="4" transform="translate(1780 7094)" fill="#fcf6ef"/>
    <circle id="Ellipse_5-83" data-name="Ellipse 5" cx="4" cy="4" r="4" transform="translate(1796 7094)" fill="#fcf6ef"/>
    <circle id="Ellipse_5-84" data-name="Ellipse 5" cx="4" cy="4" r="4" transform="translate(1812 7094)" fill="#fcf6ef"/>
    <circle id="Ellipse_5-85" data-name="Ellipse 5" cx="4" cy="4" r="4" transform="translate(1828 7094)" fill="#fcf6ef"/>
    <circle id="Ellipse_5-86" data-name="Ellipse 5" cx="4" cy="4" r="4" transform="translate(1844 7094)" fill="#fcf6ef"/>
    <circle id="Ellipse_5-87" data-name="Ellipse 5" cx="4" cy="4" r="4" transform="translate(1860 7094)" fill="#fcf6ef"/>
    <circle id="Ellipse_5-88" data-name="Ellipse 5" cx="4" cy="4" r="4" transform="translate(1876 7094)" fill="#fcf6ef"/>
    <circle id="Ellipse_5-89" data-name="Ellipse 5" cx="4" cy="4" r="4" transform="translate(1892 7094)" fill="#fcf6ef"/>
    <circle id="Ellipse_5-90" data-name="Ellipse 5" cx="4" cy="4" r="4" transform="translate(1908 7094)" fill="#fcf6ef"/>
    <circle id="Ellipse_5-91" data-name="Ellipse 5" cx="4" cy="4" r="4" transform="translate(1636 7110)" fill="#fcf6ef"/>
    <circle id="Ellipse_5-92" data-name="Ellipse 5" cx="4" cy="4" r="4" transform="translate(1652 7110)" fill="#fcf6ef"/>
    <circle id="Ellipse_5-93" data-name="Ellipse 5" cx="4" cy="4" r="4" transform="translate(1668 7110)" fill="#fcf6ef"/>
    <circle id="Ellipse_5-94" data-name="Ellipse 5" cx="4" cy="4" r="4" transform="translate(1684 7110)" fill="#fcf6ef"/>
    <circle id="Ellipse_5-95" data-name="Ellipse 5" cx="4" cy="4" r="4" transform="translate(1700 7110)" fill="#fcf6ef"/>
    <circle id="Ellipse_5-96" data-name="Ellipse 5" cx="4" cy="4" r="4" transform="translate(1716 7110)" fill="#fcf6ef"/>
    <circle id="Ellipse_5-97" data-name="Ellipse 5" cx="4" cy="4" r="4" transform="translate(1732 7110)" fill="#fcf6ef"/>
    <circle id="Ellipse_5-98" data-name="Ellipse 5" cx="4" cy="4" r="4" transform="translate(1748 7110)" fill="#fcf6ef"/>
    <circle id="Ellipse_5-99" data-name="Ellipse 5" cx="4" cy="4" r="4" transform="translate(1764 7110)" fill="#fcf6ef"/>
    <circle id="Ellipse_5-100" data-name="Ellipse 5" cx="4" cy="4" r="4" transform="translate(1780 7110)" fill="#fcf6ef"/>
    <circle id="Ellipse_5-101" data-name="Ellipse 5" cx="4" cy="4" r="4" transform="translate(1796 7110)" fill="#fcf6ef"/>
    <circle id="Ellipse_5-102" data-name="Ellipse 5" cx="4" cy="4" r="4" transform="translate(1812 7110)" fill="#fcf6ef"/>
    <circle id="Ellipse_5-103" data-name="Ellipse 5" cx="4" cy="4" r="4" transform="translate(1828 7110)" fill="#fcf6ef"/>
    <circle id="Ellipse_5-104" data-name="Ellipse 5" cx="4" cy="4" r="4" transform="translate(1844 7110)" fill="#fcf6ef"/>
    <circle id="Ellipse_5-105" data-name="Ellipse 5" cx="4" cy="4" r="4" transform="translate(1860 7110)" fill="#fcf6ef"/>
    <circle id="Ellipse_5-106" data-name="Ellipse 5" cx="4" cy="4" r="4" transform="translate(1876 7110)" fill="#fcf6ef"/>
    <circle id="Ellipse_5-107" data-name="Ellipse 5" cx="4" cy="4" r="4" transform="translate(1892 7110)" fill="#fcf6ef"/>
    <circle id="Ellipse_5-108" data-name="Ellipse 5" cx="4" cy="4" r="4" transform="translate(1908 7110)" fill="#fcf6ef"/>
    <circle id="Ellipse_5-109" data-name="Ellipse 5" cx="4" cy="4" r="4" transform="translate(1636 7126)" fill="#fcf6ef"/>
    <circle id="Ellipse_5-110" data-name="Ellipse 5" cx="4" cy="4" r="4" transform="translate(1652 7126)" fill="#fcf6ef"/>
    <circle id="Ellipse_5-111" data-name="Ellipse 5" cx="4" cy="4" r="4" transform="translate(1668 7126)" fill="#fcf6ef"/>
    <circle id="Ellipse_5-112" data-name="Ellipse 5" cx="4" cy="4" r="4" transform="translate(1684 7126)" fill="#fcf6ef"/>
    <circle id="Ellipse_5-113" data-name="Ellipse 5" cx="4" cy="4" r="4" transform="translate(1700 7126)" fill="#fcf6ef"/>
    <circle id="Ellipse_5-114" data-name="Ellipse 5" cx="4" cy="4" r="4" transform="translate(1716 7126)" fill="#fcf6ef"/>
    <circle id="Ellipse_5-115" data-name="Ellipse 5" cx="4" cy="4" r="4" transform="translate(1732 7126)" fill="#fcf6ef"/>
    <circle id="Ellipse_5-116" data-name="Ellipse 5" cx="4" cy="4" r="4" transform="translate(1748 7126)" fill="#fcf6ef"/>
    <circle id="Ellipse_5-117" data-name="Ellipse 5" cx="4" cy="4" r="4" transform="translate(1764 7126)" fill="#fcf6ef"/>
    <circle id="Ellipse_5-118" data-name="Ellipse 5" cx="4" cy="4" r="4" transform="translate(1780 7126)" fill="#fcf6ef"/>
    <circle id="Ellipse_5-119" data-name="Ellipse 5" cx="4" cy="4" r="4" transform="translate(1796 7126)" fill="#fcf6ef"/>
    <circle id="Ellipse_5-120" data-name="Ellipse 5" cx="4" cy="4" r="4" transform="translate(1812 7126)" fill="#fcf6ef"/>
    <circle id="Ellipse_5-121" data-name="Ellipse 5" cx="4" cy="4" r="4" transform="translate(1828 7126)" fill="#fcf6ef"/>
    <circle id="Ellipse_5-122" data-name="Ellipse 5" cx="4" cy="4" r="4" transform="translate(1844 7126)" fill="#fcf6ef"/>
    <circle id="Ellipse_5-123" data-name="Ellipse 5" cx="4" cy="4" r="4" transform="translate(1860 7126)" fill="#fcf6ef"/>
    <circle id="Ellipse_5-124" data-name="Ellipse 5" cx="4" cy="4" r="4" transform="translate(1876 7126)" fill="#fcf6ef"/>
    <circle id="Ellipse_5-125" data-name="Ellipse 5" cx="4" cy="4" r="4" transform="translate(1892 7126)" fill="#fcf6ef"/>
    <circle id="Ellipse_5-126" data-name="Ellipse 5" cx="4" cy="4" r="4" transform="translate(1908 7126)" fill="#fcf6ef"/>
    <circle id="Ellipse_5-127" data-name="Ellipse 5" cx="4" cy="4" r="4" transform="translate(1636 7142)" fill="#fcf6ef"/>
    <circle id="Ellipse_5-128" data-name="Ellipse 5" cx="4" cy="4" r="4" transform="translate(1652 7142)" fill="#fcf6ef"/>
    <circle id="Ellipse_5-129" data-name="Ellipse 5" cx="4" cy="4" r="4" transform="translate(1668 7142)" fill="#fcf6ef"/>
    <circle id="Ellipse_5-130" data-name="Ellipse 5" cx="4" cy="4" r="4" transform="translate(1684 7142)" fill="#fcf6ef"/>
    <circle id="Ellipse_5-131" data-name="Ellipse 5" cx="4" cy="4" r="4" transform="translate(1700 7142)" fill="#fcf6ef"/>
    <circle id="Ellipse_5-132" data-name="Ellipse 5" cx="4" cy="4" r="4" transform="translate(1716 7142)" fill="#fcf6ef"/>
    <circle id="Ellipse_5-133" data-name="Ellipse 5" cx="4" cy="4" r="4" transform="translate(1732 7142)" fill="#fcf6ef"/>
    <circle id="Ellipse_5-134" data-name="Ellipse 5" cx="4" cy="4" r="4" transform="translate(1748 7142)" fill="#fcf6ef"/>
    <circle id="Ellipse_5-135" data-name="Ellipse 5" cx="4" cy="4" r="4" transform="translate(1764 7142)" fill="#fcf6ef"/>
    <circle id="Ellipse_5-136" data-name="Ellipse 5" cx="4" cy="4" r="4" transform="translate(1780 7142)" fill="#fcf6ef"/>
    <circle id="Ellipse_5-137" data-name="Ellipse 5" cx="4" cy="4" r="4" transform="translate(1796 7142)" fill="#fcf6ef"/>
    <circle id="Ellipse_5-138" data-name="Ellipse 5" cx="4" cy="4" r="4" transform="translate(1812 7142)" fill="#fcf6ef"/>
    <circle id="Ellipse_5-139" data-name="Ellipse 5" cx="4" cy="4" r="4" transform="translate(1828 7142)" fill="#fcf6ef"/>
    <circle id="Ellipse_5-140" data-name="Ellipse 5" cx="4" cy="4" r="4" transform="translate(1844 7142)" fill="#fcf6ef"/>
    <circle id="Ellipse_5-141" data-name="Ellipse 5" cx="4" cy="4" r="4" transform="translate(1860 7142)" fill="#fcf6ef"/>
    <circle id="Ellipse_5-142" data-name="Ellipse 5" cx="4" cy="4" r="4" transform="translate(1876 7142)" fill="#fcf6ef"/>
    <circle id="Ellipse_5-143" data-name="Ellipse 5" cx="4" cy="4" r="4" transform="translate(1892 7142)" fill="#fcf6ef"/>
    <circle id="Ellipse_5-144" data-name="Ellipse 5" cx="4" cy="4" r="4" transform="translate(1908 7142)" fill="#fcf6ef"/>
    <circle id="Ellipse_5-145" data-name="Ellipse 5" cx="4" cy="4" r="4" transform="translate(1636 7158)" fill="#fcf6ef"/>
    <circle id="Ellipse_5-146" data-name="Ellipse 5" cx="4" cy="4" r="4" transform="translate(1652 7158)" fill="#fcf6ef"/>
    <circle id="Ellipse_5-147" data-name="Ellipse 5" cx="4" cy="4" r="4" transform="translate(1668 7158)" fill="#fcf6ef"/>
    <circle id="Ellipse_5-148" data-name="Ellipse 5" cx="4" cy="4" r="4" transform="translate(1684 7158)" fill="#fcf6ef"/>
    <circle id="Ellipse_5-149" data-name="Ellipse 5" cx="4" cy="4" r="4" transform="translate(1700 7158)" fill="#fcf6ef"/>
    <circle id="Ellipse_5-150" data-name="Ellipse 5" cx="4" cy="4" r="4" transform="translate(1716 7158)" fill="#fcf6ef"/>
    <circle id="Ellipse_5-151" data-name="Ellipse 5" cx="4" cy="4" r="4" transform="translate(1732 7158)" fill="#fcf6ef"/>
    <circle id="Ellipse_5-152" data-name="Ellipse 5" cx="4" cy="4" r="4" transform="translate(1748 7158)" fill="#fcf6ef"/>
    <circle id="Ellipse_5-153" data-name="Ellipse 5" cx="4" cy="4" r="4" transform="translate(1764 7158)" fill="#fcf6ef"/>
    <circle id="Ellipse_5-154" data-name="Ellipse 5" cx="4" cy="4" r="4" transform="translate(1780 7158)" fill="#fcf6ef"/>
    <circle id="Ellipse_5-155" data-name="Ellipse 5" cx="4" cy="4" r="4" transform="translate(1796 7158)" fill="#fcf6ef"/>
    <circle id="Ellipse_5-156" data-name="Ellipse 5" cx="4" cy="4" r="4" transform="translate(1812 7158)" fill="#fcf6ef"/>
    <circle id="Ellipse_5-157" data-name="Ellipse 5" cx="4" cy="4" r="4" transform="translate(1828 7158)" fill="#fcf6ef"/>
    <circle id="Ellipse_5-158" data-name="Ellipse 5" cx="4" cy="4" r="4" transform="translate(1844 7158)" fill="#fcf6ef"/>
    <circle id="Ellipse_5-159" data-name="Ellipse 5" cx="4" cy="4" r="4" transform="translate(1860 7158)" fill="#fcf6ef"/>
    <circle id="Ellipse_5-160" data-name="Ellipse 5" cx="4" cy="4" r="4" transform="translate(1876 7158)" fill="#fcf6ef"/>
    <circle id="Ellipse_5-161" data-name="Ellipse 5" cx="4" cy="4" r="4" transform="translate(1892 7158)" fill="#fcf6ef"/>
    <circle id="Ellipse_5-162" data-name="Ellipse 5" cx="4" cy="4" r="4" transform="translate(1908 7158)" fill="#fcf6ef"/>
    <circle id="Ellipse_5-163" data-name="Ellipse 5" cx="4" cy="4" r="4" transform="translate(1636 7174)" fill="#fcf6ef"/>
    <circle id="Ellipse_5-164" data-name="Ellipse 5" cx="4" cy="4" r="4" transform="translate(1652 7174)" fill="#fcf6ef"/>
    <circle id="Ellipse_5-165" data-name="Ellipse 5" cx="4" cy="4" r="4" transform="translate(1668 7174)" fill="#fcf6ef"/>
    <circle id="Ellipse_5-166" data-name="Ellipse 5" cx="4" cy="4" r="4" transform="translate(1684 7174)" fill="#fcf6ef"/>
    <circle id="Ellipse_5-167" data-name="Ellipse 5" cx="4" cy="4" r="4" transform="translate(1700 7174)" fill="#fcf6ef"/>
    <circle id="Ellipse_5-168" data-name="Ellipse 5" cx="4" cy="4" r="4" transform="translate(1716 7174)" fill="#fcf6ef"/>
    <circle id="Ellipse_5-169" data-name="Ellipse 5" cx="4" cy="4" r="4" transform="translate(1732 7174)" fill="#fcf6ef"/>
    <circle id="Ellipse_5-170" data-name="Ellipse 5" cx="4" cy="4" r="4" transform="translate(1748 7174)" fill="#fcf6ef"/>
    <circle id="Ellipse_5-171" data-name="Ellipse 5" cx="4" cy="4" r="4" transform="translate(1764 7174)" fill="#fcf6ef"/>
    <circle id="Ellipse_5-172" data-name="Ellipse 5" cx="4" cy="4" r="4" transform="translate(1780 7174)" fill="#fcf6ef"/>
    <circle id="Ellipse_5-173" data-name="Ellipse 5" cx="4" cy="4" r="4" transform="translate(1796 7174)" fill="#fcf6ef"/>
    <circle id="Ellipse_5-174" data-name="Ellipse 5" cx="4" cy="4" r="4" transform="translate(1812 7174)" fill="#fcf6ef"/>
    <circle id="Ellipse_5-175" data-name="Ellipse 5" cx="4" cy="4" r="4" transform="translate(1828 7174)" fill="#fcf6ef"/>
    <circle id="Ellipse_5-176" data-name="Ellipse 5" cx="4" cy="4" r="4" transform="translate(1844 7174)" fill="#fcf6ef"/>
    <circle id="Ellipse_5-177" data-name="Ellipse 5" cx="4" cy="4" r="4" transform="translate(1860 7174)" fill="#fcf6ef"/>
    <circle id="Ellipse_5-178" data-name="Ellipse 5" cx="4" cy="4" r="4" transform="translate(1876 7174)" fill="#fcf6ef"/>
    <circle id="Ellipse_5-179" data-name="Ellipse 5" cx="4" cy="4" r="4" transform="translate(1892 7174)" fill="#fcf6ef"/>
    <circle id="Ellipse_5-180" data-name="Ellipse 5" cx="4" cy="4" r="4" transform="translate(1908 7174)" fill="#fcf6ef"/>
  </g>
</svg>
