<svg xmlns="http://www.w3.org/2000/svg" width="269.876" height="269.878" viewBox="0 0 269.876 269.878">
  <path id="Subtraction_2" data-name="Subtraction 2" d="M-1841.933,323.9h-.012a135.882,135.882,0,0,1-30.385-3.447,135.269,135.269,0,0,1-28.939-10.222,134.178,134.178,0,0,1-26.24-16.822,135.587,135.587,0,0,1-22.286-23.245,135.925,135.925,0,0,1-14.176-23.367,134.257,134.257,0,0,1-8.964-24.959,134.958,134.958,0,0,1-3.858-25.792,135.9,135.9,0,0,1,1.141-25.864,135.9,135.9,0,0,1,6.033-25.177A134.945,134.945,0,0,1-1958.8,121.28a134.258,134.258,0,0,1,15.5-21.522A135.929,135.929,0,0,1-1923.239,81.2a134.707,134.707,0,0,1,39.068-20.46,134.376,134.376,0,0,1,42.033-6.718,135.917,135.917,0,0,1,30.387,3.446,135.292,135.292,0,0,1,28.943,10.222,134.185,134.185,0,0,1,26.244,16.822,135.563,135.563,0,0,1,22.289,23.245,135.914,135.914,0,0,1,14.176,23.368,134.249,134.249,0,0,1,8.964,24.96,134.958,134.958,0,0,1,3.858,25.792,135.9,135.9,0,0,1-1.141,25.864,135.9,135.9,0,0,1-6.033,25.177,134.936,134.936,0,0,1-10.818,23.729,134.249,134.249,0,0,1-15.5,21.522,135.928,135.928,0,0,1-20.068,18.555,134.7,134.7,0,0,1-39.068,20.46A134.42,134.42,0,0,1-1841.933,323.9Zm-.166-218.4a82.744,82.744,0,0,0-50.161,16.81,82.908,82.908,0,0,0-32.418,55.035,82.91,82.91,0,0,0,15.993,61.839,82.83,82.83,0,0,0,66.7,33.235h.009a82.744,82.744,0,0,0,50.161-16.809,82.908,82.908,0,0,0,32.418-55.035,82.906,82.906,0,0,0-15.993-61.839,82.83,82.83,0,0,0-66.706-33.235Z" transform="translate(1976.974 -54.026)" fill="#f28a1d" opacity="0.2"/>
</svg>
