<?xml version="1.0" encoding="UTF-8"?>
<svg id="Layer_1" data-name="Layer 1" xmlns="http://www.w3.org/2000/svg" viewBox="0 0 32 32">
  <defs>
    <style>
      .cls-1 {
        fill: #f28a1d;
      }
    </style>
  </defs>
  <path class="cls-1" d="m.73,18.47c.15-.59.44-1.14.82-1.61.1-.13.44-.37.45-.54.03-.26-.34-.48-.5-.65-.29-.28-1.02-.82-.61-1.28.44-.5,1.08.39,1.37.67.62.62.8.04,1.29-.53.52-.61,1.04-1.22,1.56-1.83.8-.95,1.55-1.98,2.84-2.23,1.36-.26,2.95-.09,4.34-.06.38,0,1.16.19.72.75-.33.42-1.36.22-1.83.22-1.25,0-2.9-.32-3.98.46-1.08.78-1.91,2.13-2.78,3.14-.3.35-1.05.91-.88,1.36.13.33.77.78,1.1.84.5.1.95-.11,1.44.12.5.23.88.69,1.03,1.22.72,2.62-3.53,3.45-3.8.73-.06-.6.49-1.16.13-1.65-.08-.12-.5-.56-.61-.58-.25-.04-.46.31-.6.51-.87,1.14-.65,2.29.23,3.34.97,1.15,1.96,2.3,2.94,3.44.82.96,1.58,2.25,2.93,2.44,1.5.21,3.14.03,4.65.03,1.53,0,3.07,0,4.6,0,3.07,0,6.14,0,9.21,0,1.09,0,2.25.06,2.99-.9.74-.97.5-2.41.5-3.54,0-1.58,0-3.16,0-4.75,0-1.39.22-2.98-.06-4.34-.22-1.04-1.05-1.74-2.09-1.86-1.44-.16-2.97,0-4.42,0-.49,0-1.6.2-2.02-.1-.68-.48.14-.86.61-.87,1.53-.02,3.07,0,4.6,0,1.13,0,2.22,0,3.14.75.79.65,1.15,1.61,1.18,2.61.1,3.08,0,6.18,0,9.27,0,1.2.09,2.41-.68,3.42-.62.8-1.55,1.2-2.54,1.25-3.07.15-6.18,0-9.26,0-3.16,0-6.32,0-9.47,0-1.3,0-2.31-.19-3.22-1.19-1.02-1.12-1.97-2.3-2.95-3.45-.89-1.04-2.01-2.04-2.36-3.42v-1.19Zm4.53-.36c-.57,0-.96.4-.95.98.01.86,1.06,1.26,1.65.65.59-.61.16-1.63-.69-1.63Z"/>
  <path class="cls-1" d="m21.9,4.22c1.15.05,2.04,1.09,2.06,2.22.02,1.4-1.48,2.42-2.37,3.31-2.23,2.23-4.45,4.45-6.68,6.68-.97.97-1.88,2.11-3.17,2.66-.62.26-1.27.49-1.9.73-.51.2-1.21.58-1.65.05-.43-.51.05-1.25.24-1.76.28-.72.51-1.49.87-2.17.68-1.27,2.04-2.28,3.04-3.29,2.58-2.58,5.15-5.15,7.73-7.73.46-.46.99-.71,1.84-.71Zm-.62,4.42c-.05-.13-.16-.2-.25-.29-.34-.34-.27-.34-.61,0-2.69,2.69-5.38,5.38-8.07,8.07-.43.43-.46.3,0,.78.16.17.27.17.43,0,.73-.75,1.48-1.49,2.23-2.23,2.03-2.03,4.06-4.07,6.1-6.1.07-.07.16-.12.18-.23Zm-1.26-1.32c-.14-.13-.28-.3-.46-.42-.13-.09-.2.09-.27.16-2.74,2.74-5.49,5.48-8.23,8.23-.33.33-.36.23,0,.63.18.2.29.17.47,0,1.28-1.3,2.58-2.58,3.87-3.88,1.48-1.48,2.96-2.96,4.44-4.44.07-.07.16-.12.18-.27Zm2.97-.85c0-.87-.8-1.49-1.64-1.25-.36.1-1.08.65-1.03,1.02.03.28.93.97,1.13,1.17.35.34.45.56.86.27.37-.26.68-.75.68-1.21Zm-13.82,12.58c.81-.32,1.63-.63,2.45-.95.25-.1-1.22-1.71-1.46-1.62-.24.09-1.12,2.3-.98,2.57Z"/>
  <path class="cls-1" d="m18.85,21.19c1.44,0,2.88,0,4.31,0,.52,0,2.69-.37,2.71.47.02.87-2.39.5-2.88.5-1.38,0-2.76,0-4.14,0-1.32,0-2.65,0-3.97,0-.51,0-3.11.39-3.05-.52.06-.82,2.21-.45,2.74-.45,1.42,0,2.85,0,4.27,0Z"/>
  <path class="cls-1" d="m21.71,19.55c-.65,0-4.13.41-4.14-.48-.01-.91,3.52-.5,4.17-.5.83,0,1.65,0,2.48,0,.42,0,1.67-.23,1.66.49,0,.71-1.23.48-1.66.48-.84,0-1.67,0-2.51,0Z"/>
  <path class="cls-1" d="m21.72,16.94c-.61,0-4.31.39-4.14-.55.12-.65,1.4-.41,1.84-.41.83,0,1.66,0,2.49,0,.61,0,4.04-.41,3.97.53-.05.67-1.16.44-1.59.44-.86,0-1.71,0-2.57,0Z"/>
</svg>