<?xml version="1.0" encoding="UTF-8"?>
<svg id="Layer_1" data-name="Layer 1" xmlns="http://www.w3.org/2000/svg" viewBox="0 0 21 13.27">
  <defs>
    <style>
      .cls-1, .cls-2, .cls-3 {
        fill: none;
      }

      .cls-2 {
        stroke-linecap: round;
      }

      .cls-2, .cls-3 {
        stroke: #f28a1d;
      }
    </style>
  </defs>
  <g id="Group_748" data-name="Group 748">
    <g id="Rectangle_103" data-name="Rectangle 103">
      <path class="cls-1" d="m3.03.34h0c1.52,0,2.75,1.23,2.75,2.75h0c0,1.52-1.23,2.75-2.75,2.75h0C1.52,5.83.29,4.6.29,3.09H.29C.29,1.57,1.52.34,3.03.34Z"/>
      <path class="cls-3" d="m3.03.73h0c1.3,0,2.35,1.05,2.35,2.35h0c0,1.3-1.05,2.35-2.35,2.35h0c-1.3,0-2.35-1.05-2.35-2.35h0C.68,1.79,1.73.73,3.03.73Z"/>
    </g>
    <g>
      <line id="Line_9" data-name="Line 9" class="cls-2" x1="7.49" y1=".55" x2="9.85" y2=".55"/>
      <line id="Line_10" data-name="Line 10" class="cls-2" x1="7.49" y1="2.1" x2="9.85" y2="2.1"/>
      <line id="Line_11" data-name="Line 11" class="cls-2" x1="7.49" y1="3.64" x2="9.85" y2="3.64"/>
      <line id="Line_12" data-name="Line 12" class="cls-2" x1="7.49" y1="5.19" x2="9.85" y2="5.19"/>
    </g>
    <g id="Rectangle_103-2" data-name="Rectangle 103-2">
      <path class="cls-1" d="m13.96.34h0c1.36,0,2.46,1.1,2.46,2.46v.35c0,1.36-1.1,2.46-2.46,2.46h0c-1.36,0-2.46-1.1-2.46-2.46v-.35c0-1.36,1.1-2.46,2.46-2.46Z"/>
      <path class="cls-3" d="m13.96.73h0c1.14,0,2.07.93,2.07,2.07v.35c0,1.14-.93,2.07-2.07,2.07h0c-1.14,0-2.07-.93-2.07-2.07v-.35c0-1.14.93-2.07,2.07-2.07Z"/>
    </g>
    <g>
      <line id="Line_9-2" data-name="Line 9-2" class="cls-2" x1="18.08" y1=".55" x2="20.44" y2=".55"/>
      <line id="Line_10-2" data-name="Line 10-2" class="cls-2" x1="18.08" y1="2.1" x2="20.44" y2="2.1"/>
      <line id="Line_11-2" data-name="Line 11-2" class="cls-2" x1="18.08" y1="3.64" x2="20.44" y2="3.64"/>
      <line id="Line_12-2" data-name="Line 12-2" class="cls-2" x1="18.08" y1="5.19" x2="20.44" y2="5.19"/>
    </g>
    <g id="Rectangle_103-3" data-name="Rectangle 103-3">
      <path class="cls-1" d="m3.03,7.4h0c1.52,0,2.75,1.23,2.75,2.75h0c0,1.52-1.23,2.75-2.75,2.75h0c-1.52,0-2.75-1.23-2.75-2.75H.29c0-1.52,1.23-2.75,2.75-2.75Z"/>
      <path class="cls-3" d="m3.03,7.79h0c1.3,0,2.35,1.05,2.35,2.35h0c0,1.3-1.05,2.35-2.35,2.35h0c-1.3,0-2.35-1.05-2.35-2.35h0c0-1.3,1.05-2.35,2.35-2.35Z"/>
    </g>
    <g>
      <line id="Line_9-3" data-name="Line 9-3" class="cls-2" x1="7.49" y1="7.87" x2="9.85" y2="7.87"/>
      <line id="Line_10-3" data-name="Line 10-3" class="cls-2" x1="7.49" y1="9.42" x2="9.85" y2="9.42"/>
      <line id="Line_11-3" data-name="Line 11-3" class="cls-2" x1="7.49" y1="10.96" x2="9.85" y2="10.96"/>
      <line id="Line_12-3" data-name="Line 12-3" class="cls-2" x1="7.49" y1="12.51" x2="9.85" y2="12.51"/>
    </g>
    <g id="Rectangle_103-4" data-name="Rectangle 103-4">
      <path class="cls-1" d="m13.96,7.23h0c1.36,0,2.46,1.1,2.46,2.46v.35c0,1.36-1.1,2.46-2.46,2.46h0c-1.36,0-2.46-1.1-2.46-2.46v-.35c0-1.36,1.1-2.46,2.46-2.46Z"/>
      <path class="cls-3" d="m13.96,7.62h0c1.14,0,2.07.93,2.07,2.07v.35c0,1.14-.93,2.07-2.07,2.07h0c-1.14,0-2.07-.93-2.07-2.07v-.35c0-1.14.93-2.07,2.07-2.07Z"/>
    </g>
    <g>
      <line id="Line_9-4" data-name="Line 9-4" class="cls-2" x1="18.08" y1="7.87" x2="20.44" y2="7.87"/>
      <line id="Line_10-4" data-name="Line 10-4" class="cls-2" x1="18.08" y1="9.42" x2="20.44" y2="9.42"/>
      <line id="Line_11-4" data-name="Line 11-4" class="cls-2" x1="18.08" y1="10.96" x2="20.44" y2="10.96"/>
      <line id="Line_12-4" data-name="Line 12-4" class="cls-2" x1="18.08" y1="12.51" x2="20.44" y2="12.51"/>
    </g>
  </g>
</svg>