<?xml version="1.0" encoding="UTF-8"?>
<svg id="Layer_1" data-name="Layer 1" xmlns="http://www.w3.org/2000/svg" viewBox="0 0 21 21">
  <defs>
    <style>
      .cls-1 {
        fill: #c5c5c5;
      }
    </style>
  </defs>
  <path class="cls-1" d="m20.99,7.14c0,1.09,0,2.18,0,3.27,0,.53-.25.82-.78.85-1.33.09-1.95.95-2.13,1.69-.33,1.31.56,2.59,1.9,2.74.11.01.22.02.33.04.37.04.68.34.68.71,0,1.28,0,2.56,0,3.84,0,.4-.34.71-.75.71-1.26,0-2.51,0-3.77,0-.41,0-.72-.31-.74-.72-.04-.74-.3-1.36-.91-1.82-1.36-1.02-3.31-.19-3.52,1.5-.12.92-.26,1.04-1.18,1.04-2.07,0-4.15,0-6.22,0-.61,0-.89-.28-.89-.88,0-.88,0-1.76,0-2.64,0-.21-.06-.29-.26-.36-1.48-.46-2.4-1.46-2.68-2.98-.35-1.88.78-3.67,2.64-4.24.25-.07.28-.19.31-.42.06-.51-.12-.76-.6-1C.67,7.63-.26,5.66.07,3.73.39,1.85,1.95.33,3.83.06c2.07-.3,4.02.8,4.84,2.73.07.16.15.23.33.22.25-.02.53.06.74-.03.22-.1.19-.42.28-.64C10.56,1,11.98-.1,13.8.01c1.45.09,2.83,1.18,3.29,2.69.08.26.19.32.44.31.84-.01,1.68.02,2.53-.01.61-.02.97.35.95.96-.03,1.06,0,2.12,0,3.18Zm-1.52.04c0-.8,0-1.59,0-2.39,0-.2-.06-.27-.27-.27-.87,0-1.75,0-2.62,0-.54,0-.82-.26-.86-.79-.12-1.53-1.42-2.49-2.83-2.1-.93.25-1.54,1.04-1.63,2.11-.04.52-.32.78-.85.79-.39,0-.78,0-1.17,0-.17,0-.23.05-.23.23-.1,2.29-1.96,4.15-4.27,4.26-.18,0-.22.08-.22.24,0,.42,0,.84,0,1.26,0,.4-.3.7-.7.74-.11.01-.22.02-.33.04-1.31.14-2.2,1.42-1.9,2.71.18.75.8,1.62,2.13,1.72.54.04.79.32.79.87,0,.86,0,1.72,0,2.57,0,.23.06.31.3.31,1.55-.01,3.1-.01,4.65,0,.24,0,.35-.06.42-.31.56-1.86,2.36-2.99,4.24-2.64,1.53.29,2.52,1.22,2.98,2.7.05.17.12.24.3.24.6-.01,1.2-.01,1.8,0,.2,0,.25-.07.25-.26,0-.56-.01-1.12,0-1.68,0-.24-.05-.36-.31-.44-1.86-.57-2.98-2.36-2.63-4.24.29-1.52,1.21-2.51,2.69-2.97.19-.06.26-.14.25-.34,0-.79,0-1.57,0-2.36ZM4.51,1.54c-1.62,0-2.99,1.38-2.97,2.99.02,2.59,3.24,3.92,5.07,2.09,1.82-1.83.52-5.09-2.1-5.08Z"/>
  <path class="cls-1" d="m6.77,4.52c0,.32-.19.59-.48.7-.22.09-.79-.07-.94.07-.18.17-.04.6-.09.83-.07.31-.26.55-.58.63-.27.06-.58-.03-.76-.25-.25-.29-.1-.6-.18-.93-.09-.37-.17-.28-.56-.3-.33-.01-.63-.05-.82-.36-.34-.55.06-1.09.63-1.17.25-.03.62.11.74-.14.13-.25-.06-.64.07-.92.26-.55,1.09-.59,1.37-.03.15.28-.01.6.08.86.12.34.43.21.77.23.41.02.73.35.73.76Z"/>
</svg>