<?xml version="1.0" encoding="UTF-8"?>
<svg id="Layer_1" data-name="Layer 1" xmlns="http://www.w3.org/2000/svg" viewBox="0 0 32 32">
  <defs>
    <style>
      .cls-1 {
        fill: #c5c5c5;
        stroke: #212427;
        stroke-miterlimit: 10;
        stroke-width: .75px;
      }
    </style>
  </defs>
  <path class="cls-1" d="m30.59,11.31c0,1.57,0,3.14,0,4.71,0,.77-.36,1.17-1.12,1.22-1.88.12-2.81,1.37-3.08,2.46-.44,1.85.83,3.72,2.72,3.89,1.28.11,1.51.6,1.49,1.67-.04,1.58,0,3.16,0,4.74,0,.83-.41,1.23-1.24,1.23-1.7,0-3.41,0-5.11,0-.76,0-1.16-.37-1.23-1.12-.15-1.63-1.03-2.73-2.46-3.08-1.85-.45-3.69.84-3.9,2.72-.02.16-.04.31-.05.47-.05.58-.48,1.01-1.06,1.01-3.25,0-6.5,0-9.75,0-.62,0-1.07-.47-1.07-1.1,0-1.33,0-2.67,0-4,0-.27-.08-.39-.34-.47-2.39-.68-3.97-2.77-3.97-5.23,0-2.43,1.59-4.53,3.96-5.2.26-.07.32-.19.36-.46.12-.8-.18-1.2-.93-1.59C1.29,11.9,0,9.12.49,6.37.97,3.64,3.17,1.52,5.95,1.1c2.9-.44,5.76,1.17,6.9,3.9.11.26.24.37.52.35.35-.03.74.08,1.03-.05.29-.13.26-.58.38-.89.79-1.94,2.83-3.56,5.53-3.37,2.12.15,4.09,1.78,4.7,3.94.08.28.2.37.48.37,1.3-.01,2.6,0,3.9,0,.75,0,1.19.43,1.19,1.18,0,1.59,0,3.18,0,4.78Zm-2.2.05c0-1.11,0-2.22,0-3.33q0-.48-.47-.48c-1.27,0-2.53,0-3.8,0-.62,0-1.06-.42-1.11-1.03-.01-.14-.03-.29-.05-.43-.21-1.9-2.03-3.18-3.89-2.74-1.44.34-2.33,1.46-2.47,3.1-.06.72-.47,1.1-1.18,1.1-.58,0-1.17,0-1.75,0-.24,0-.32.08-.31.31,0,.22-.03.45-.06.67-.41,2.97-3.06,5.36-6.06,5.47-.28.01-.34.12-.33.36.01.61.01,1.21,0,1.82-.01.57-.42,1-.98,1.05-.16.02-.31.03-.47.05-1.95.22-3.22,2.07-2.73,3.97.28,1.08,1.21,2.27,3.06,2.39.75.05,1.12.47,1.12,1.23,0,1.26.01,2.51,0,3.77,0,.32.1.39.41.39,2.25-.01,4.51-.01,6.76,0,.33,0,.45-.11.54-.42.75-2.63,3.39-4.3,6.08-3.82,2.21.4,3.64,1.73,4.31,3.86.09.29.21.38.51.38.83-.02,1.66-.02,2.49,0,.32,0,.4-.1.39-.41-.02-.84-.02-1.68,0-2.52,0-.28-.1-.38-.36-.46-2.37-.67-3.95-2.77-3.95-5.2,0-2.44,1.58-4.55,3.94-5.21.3-.08.38-.22.37-.51-.02-1.12,0-2.24,0-3.36Zm-21.5.44c2.32-.01,4.28-1.94,4.26-4.27-.02-2.41-1.89-4.28-4.28-4.28-2.41,0-4.26,1.89-4.26,4.26,0,2.42,1.89,4.23,4.27,4.29Z"/>
  <path class="cls-1" d="m3.64,7.52c0-.62.45-1.08,1.08-1.09.26,0,.52-.01.77,0,.24.01.32-.09.31-.32-.01-.26,0-.52,0-.77.02-.62.48-1.07,1.1-1.07.61,0,1.08.46,1.09,1.08,0,.26.01.52,0,.77,0,.21.07.31.29.3.27-.01.54,0,.81,0,.6.02,1.05.49,1.06,1.08,0,.62-.44,1.09-1.06,1.11-.27,0-.54.01-.81,0-.22,0-.3.09-.29.3.01.23,0,.47,0,.71,0,.68-.45,1.15-1.09,1.15-.65,0-1.1-.47-1.11-1.17,0-.24,0-.47,0-.71,0-.2-.07-.29-.27-.28-.27,0-.54,0-.81,0-.62-.02-1.07-.49-1.07-1.1Z"/>
</svg>