<?xml version="1.0" encoding="UTF-8"?>
<svg id="Layer_1" data-name="Layer 1" xmlns="http://www.w3.org/2000/svg" viewBox="0 0 28.22 32">
  <defs>
    <style>
      .cls-1 {
        fill: #c5c5c5;
      }
    </style>
  </defs>
  <path class="cls-1" d="m13.26,31.96c-3.41,0-6.81,0-10.22,0-1.79,0-3-1.2-3.01-2.99-.01-1.23-.01-2.46,0-3.68.01-1.61,1.16-2.45,2.71-2,2.13.62,4.23-.57,4.72-2.67.49-2.12-.88-4.13-3.08-4.5-.6-.1-1.19,0-1.77.18-1.29.38-2.46-.35-2.54-1.69-.09-1.46-.1-2.93,0-4.38.12-1.66,1.34-2.66,3.02-2.67,1.72-.01,3.45-.01,5.17,0,.43,0,.47-.11.38-.5C7.88,3.92,9.87.77,12.96.16c3.23-.64,6.23,1.44,6.76,4.68.12.7.08,1.4-.07,2.09-.13.61-.14.61.51.61,1.67,0,3.33,0,5,0,1.6.01,2.75.95,3.01,2.45.03.19.04.38.04.57,0,5.52,0,11.05,0,16.57,0,2.43-1.58,4.32-3.95,4.77-.3.06-.61.05-.92.05-3.36,0-6.72,0-10.08,0Zm.06-1.97c3.32,0,6.64-.04,9.95.02,1.72.03,2.99-1.31,2.98-3-.05-5.41-.02-10.81-.02-16.22,0-.99-.29-1.28-1.28-1.28-1.86,0-3.71,0-5.57,0-.88,0-1.58-.55-1.83-1.37-.14-.48-.04-.92.09-1.37.79-2.73-1.63-5.29-4.38-4.64-2.12.51-3.3,2.61-2.66,4.76.44,1.46-.41,2.62-1.94,2.62-1.8,0-3.59,0-5.39,0-.98,0-1.29.31-1.3,1.28,0,1.05.01,2.1,0,3.16,0,.38.05.47.46.36,3.8-1.06,7.57,2.19,6.96,6.29-.5,3.34-3.62,5.4-6.91,4.66-.35-.08-.43-.02-.43.33,0,1.04.03,2.07-.06,3.11-.08.95.26,1.3,1.23,1.3,3.36,0,6.72,0,10.08,0Z"/>
</svg>