<?xml version="1.0" encoding="UTF-8"?>
<svg id="Layer_1" data-name="Layer 1" xmlns="http://www.w3.org/2000/svg" viewBox="0 0 32 32">
  <defs>
    <style>
      .cls-1 {
        fill: #f28a1d;
      }
    </style>
  </defs>
  <path class="cls-1" d="m.11,13.58c.28-.81.82-1.32,1.69-1.43.21-.03.22-.19.26-.34.38-1.34.93-2.6,1.66-3.79.21-.34.44-.42.71-.25.28.17.34.44.14.77-.63,1.03-1.1,2.12-1.47,3.26-.12.36-.11.6.2.91.31.31.56.38.98.29,1.61-.32,3.24-.49,4.88-.5.18,0,.3-.05.41-.21.46-.67,1.09-.98,1.91-.86.16.02.27-.03.37-.16.86-1.15,1.83-2.21,2.91-3.16.13-.12.19-.22.12-.4-.12-.28-.13-.59-.09-.88.02-.18-.02-.28-.18-.37-1.34-.77-2.75-1.37-4.22-1.83-.17-.05-.27-.03-.39.13-.59.81-1.53,1.04-2.44.61-.18-.09-.3-.06-.43.07-.34.36-.7.7-1.04,1.06-.26.26-.53.3-.76.09-.23-.21-.23-.48.03-.76.36-.4.73-.79,1.13-1.14.15-.13.19-.25.13-.46-.25-.86.04-1.65.76-2.14.71-.48,1.53-.46,2.24.09.16.12.28.15.47.05,2.34-1.14,4.82-1.62,7.41-1.49,1.93.1,3.79.54,5.55,1.38.24.11.41.12.64-.05.61-.45,1.42-.43,2.06,0,.66.43,1.01,1.2.84,1.95-.06.26-.03.44.2.57.04.03.08.06.11.1.33.43.69.54,1.26.42.7-.15,1.3.22,1.71.82.43.64.49,1.32.09,1.98-.15.25-.14.42,0,.67,1.47,2.63,2.07,5.47,1.86,8.46-.28,3.97-1.9,7.33-4.78,10.07-.19.18-.26.33-.18.61.22.75-.11,1.55-.76,2-.67.46-1.48.48-2.14,0-.23-.17-.4-.16-.64-.04-1.71.84-3.52,1.33-5.43,1.47-2.78.21-5.42-.29-7.92-1.51-.19-.09-.32-.09-.51.03-.7.45-1.42.43-2.09-.03-.66-.45-.96-1.1-.81-1.9.05-.26,0-.42-.19-.59-2.69-2.53-4.25-5.64-4.76-9.29-.08-.57-.09-1.15-.13-1.73,0-.16-.04-.27-.2-.34-.61-.24-.97-.71-1.16-1.32v-.93Zm8.44,10.69c-.03.42.06.98.07,1.55,0,.25.09.4.36.46.34.08.63.27.85.54.16.21.31.2.53.12,4.77-1.81,8.74-4.72,11.96-8.66.11-.14.14-.25.04-.41-.18-.3-.28-.64-.23-.98.05-.33-.08-.45-.35-.58-2.66-1.28-5.44-2.14-8.37-2.54-.27-.04-.37.01-.47.27-.3.81-1.15,1.29-2.03,1.18-.21-.03-.32.04-.41.23-1.29,2.75-1.93,5.64-1.95,8.83Zm8.25,5.97c.57,0,1.27-.03,1.98-.14,1.22-.19,2.42-.53,3.55-1.02.62-.27.72-.25.77-.86.04-.46.11-.85.41-1.22.27-.34.82-.41,1.06-.7.25-.31.17-.93.19-1.32.02-.36-.13-1.14.12-1.44.37-.45.78-.11.88.31.12.51-.48,2.78.38,2.74.23-.01.71-.66.83-.79.33-.36.65-.73.95-1.12.36-.47.68-.95.98-1.46.18-.3.62-.87.61-1.21-.01-.61-1.52-1.59-1.97-1.97-.3-.25-2-1.86-2.33-1.6-.43.34.38,2.05.32,2.58-.03.33-.2.65-.6.55-.43-.11-.43-.74-.5-1.09-.11-.59-.07-1.68-.9-1.69-.78,0-1.64,1.5-2.15,2.04-.71.74-1.46,1.44-2.24,2.1-1.61,1.35-3.36,2.53-5.22,3.5-.99.52-2.02.94-3.05,1.38-.36.15-.59.2-.59.65,0,.4.12.37.52.54,1.91.82,3.9,1.27,5.99,1.26ZM2.47,16.21c.04.42.05.75.1,1.08.36,2.86,1.51,5.69,3.33,7.93.26.32.96,1.38,1.4,1.3.64-.12.28-1.29.26-1.72-.06-1.52.08-3.05.35-4.54.27-1.44.68-2.85,1.24-4.21.22-.52.66-1.08.47-1.62-.15-.42-.3-.82-.73-.9-.7-.13-1.65.13-2.35.21-.34.04-.67.09-1,.13-.35.05-1.03.01-1.34.18-.45.25-.36.78-.67,1.19-.22.28-1.15.6-1.04.98Zm21.71-1.18c.31.14.43-.06.56-.3,1.05-1.81,1.88-3.72,2.51-5.71.07-.23.06-.36-.15-.52-.63-.49-.87-1.38-.6-2.12q.18-.51-.23-.88c-.07-.06-.15-.11-.21-.18-.11-.11-.2-.09-.32-.02-.95.54-1.93.36-2.58-.5-.1-.13-.19-.16-.34-.11-1.43.45-2.8,1.05-4.1,1.8-.15.09-.19.18-.16.35.05.28.03.56-.08.82-.1.24-.02.36.15.52,2.06,1.85,3.71,4.01,4.93,6.49.14.28.28.45.61.36Zm6.69.78c-.03-.33-.06-.88-.11-1.42-.19-1.87-.75-3.63-1.65-5.28-.06-.11-.1-.3-.3-.24-.21.06-.47,0-.56.33-.66,2.17-1.58,4.23-2.73,6.19-.09.15-.09.26.02.41.32.43.47.92.36,1.45-.04.2.03.32.19.43,1.31.9,2.54,1.9,3.68,3.02.18.18.24.18.33-.07.52-1.5.74-3.04.77-4.83Zm-8.06-.4c-.02-.06-.04-.12-.07-.17-1.19-2.44-2.79-4.57-4.82-6.37-.13-.12-.24-.14-.41-.06-.53.27-1.08.28-1.61.03-.23-.11-.37-.07-.54.09-.91.85-1.78,1.75-2.54,2.75-.09.12-.31.25-.17.42.19.24.21.62.64.67,2.78.33,5.45,1.09,8.01,2.23.4.18.78.37,1.17.55.17.08.27.04.33-.14ZM16.68,1.75c-1.23.04-2.41.13-3.6.44-.44.12-3.08.78-2.68,1.37.21.31,1.27.45,1.63.58.57.22,1.14.46,1.69.73.39.19,1.15.8,1.58.79.46-.02.85-.48,1.37-.48.52,0,1.06.52,1.5.44.49-.08,1.15-.61,1.61-.83.51-.24,1.03-.46,1.55-.66.3-.11,1.31-.28,1.45-.6.51-1.18-5.32-1.8-6.11-1.79ZM1.98,13.15c-.5,0-.91.4-.91.89,0,.8,1,1.23,1.56.65.55-.58.15-1.54-.65-1.55Zm27.23-6.14c0-.5-.4-.91-.89-.91-.8,0-1.23,1-.65,1.56.57.56,1.55.15,1.55-.65Zm-4.2,20.27c-.53,0-.91.38-.91.92,0,.86,1.1,1.2,1.61.55.46-.59.05-1.46-.7-1.46ZM8.41,4.59c.51,0,.9-.38.91-.88.02-.81-.96-1.24-1.54-.67-.56.56-.17,1.54.63,1.55Zm17.2-.92c0-.49-.42-.9-.91-.9-.83,0-1.23,1.12-.58,1.63.6.48,1.49.04,1.48-.72Zm-15.34,9.65c0,.53.37.91.88.92.8.01,1.21-1,.65-1.56-.56-.56-1.53-.14-1.53.64Zm13.72,4.53c.53,0,.91-.36.93-.87.02-.8-.96-1.25-1.54-.68-.56.55-.19,1.55.61,1.55Zm-6.44-10.76c0-.54-.39-.93-.91-.92-.79,0-1.16,1.02-.61,1.56.57.56,1.53.15,1.53-.64Zm-8.24,21.03c0-.52-.4-.92-.92-.91-.75,0-1.14.87-.7,1.45.51.66,1.62.33,1.62-.54Z"/>
</svg>