<?xml version="1.0" encoding="UTF-8"?>
<svg id="Layer_1" data-name="Layer 1" xmlns="http://www.w3.org/2000/svg" viewBox="0 0 32 32">
  <defs>
    <style>
      .cls-1 {
        fill: #232323;
      }
    </style>
  </defs>
  <path class="cls-1" d="m29.72,31.25h-.89c-1.34-.36-1.89-1.75-1.35-2.8.08-.15,0-.24-.09-.34-.61-.61-1.22-1.22-1.83-1.83-.14-.14-.24-.16-.39-.02-2.01,1.78-4.33,2.9-6.98,3.34-.15.03-.25.09-.3.24-.23.74-.75,1.19-1.49,1.4h-.83c-.74-.21-1.25-.66-1.49-1.4-.05-.16-.15-.22-.3-.24-2.65-.44-4.98-1.56-6.98-3.34-.16-.14-.25-.13-.39.02-.6.61-1.2,1.21-1.81,1.81-.15.14-.16.26-.08.44.14.32.21.66.15,1.01-.14.9-.68,1.44-1.54,1.71h-.89c-.75-.24-1.25-.73-1.49-1.49v-.89c.33-1.28,1.7-1.91,2.8-1.35.15.07.24,0,.34-.09.61-.61,1.22-1.22,1.83-1.83.14-.14.15-.24.01-.39-1.78-2.01-2.9-4.33-3.34-6.98-.02-.14-.07-.24-.22-.29-.74-.22-1.18-.73-1.43-1.44v-.95c.25-.71.69-1.22,1.43-1.44.15-.04.2-.15.22-.29.44-2.65,1.56-4.98,3.34-6.98.14-.16.13-.25-.01-.39-.61-.6-1.21-1.2-1.81-1.81-.14-.15-.26-.16-.44-.08-.32.15-.66.21-1.01.15-.9-.14-1.44-.68-1.71-1.54,0-.3,0-.59,0-.89.03-.07.06-.15.09-.22C1.27,1,2.39.49,3.42.89c1.05.41,1.53,1.56,1.09,2.63-.08.19-.05.3.09.44.58.57,1.16,1.14,1.72,1.73.2.21.32.23.55.02,1.97-1.74,4.26-2.83,6.86-3.27.19-.03.29-.11.36-.29.32-.88,1-1.38,1.87-1.38.89,0,1.57.48,1.9,1.39.06.17.15.26.33.29,2.63.44,4.94,1.55,6.93,3.31.19.17.3.15.46-.02.56-.58,1.12-1.15,1.7-1.7.19-.19.22-.34.12-.59-.29-.71-.16-1.39.34-1.97.5-.6,1.17-.81,1.93-.65,1.15.24,1.82,1.42,1.47,2.54-.35,1.1-1.55,1.66-2.64,1.22-.21-.09-.34-.06-.49.1-.57.59-1.15,1.17-1.75,1.74-.19.18-.17.29,0,.48,1.75,1.98,2.84,4.28,3.29,6.88.03.19.1.29.29.36.89.33,1.38,1,1.39,1.87,0,.89-.48,1.57-1.38,1.9-.18.07-.26.17-.29.36-.45,2.6-1.54,4.9-3.29,6.88-.19.21-.16.33.02.5.58.56,1.14,1.13,1.7,1.7.17.17.3.21.54.11.76-.31,1.47-.17,2.07.38.6.55.77,1.26.55,2.04-.21.72-.74,1.13-1.42,1.36ZM13.94,3.39c-.19.03-.37.06-.55.1-5.1,1.06-9.22,5.33-10.02,10.38-.03.18,0,.27.17.35.75.37,1.15.98,1.15,1.8,0,.82-.41,1.43-1.16,1.8-.15.07-.19.16-.16.33.1.55.21,1.09.39,1.62,1.69,4.86,5.03,7.83,10.08,8.87.2.04.28-.02.37-.19.37-.73.98-1.12,1.79-1.12.81,0,1.42.4,1.78,1.13.09.17.18.22.37.18,1.82-.32,3.51-.99,5.02-2.05,2.94-2.06,4.76-4.85,5.43-8.38.05-.25-.06-.33-.24-.42-1.35-.73-1.44-2.58-.17-3.41q.46-.31.35-.85s0-.06-.02-.09c-1.06-5.1-5.28-9.18-10.35-10.01-.18-.03-.29-.03-.38.16-.36.75-.98,1.15-1.8,1.15-.82,0-1.43-.41-1.8-1.16-.05-.1-.1-.2-.24-.17ZM3.71,29.31c0-.58-.43-1.02-1-1.02-.85,0-1.33.99-.79,1.65.59.72,1.79.32,1.8-.62Zm24.54-.02c0,.56.46,1.04,1.01,1.03.93-.01,1.37-1.23.64-1.81-.66-.52-1.65-.06-1.65.78Zm0-26.56c0,.58.43,1.02,1.01,1.02.85,0,1.32-1,.78-1.65-.59-.72-1.79-.31-1.79.63Zm-24.54.01c0-.56-.46-1.04-1.01-1.03-.93.01-1.37,1.23-.64,1.81.66.52,1.65.05,1.65-.78Zm25.55,14.28c.57,0,1.03-.45,1.03-1.01,0-.92-1.22-1.34-1.8-.65-.55.65-.07,1.65.77,1.66Zm-12.27,12.29c0-.59-.42-1.02-1-1.02-.89,0-1.33,1.09-.72,1.73.62.64,1.71.17,1.72-.71ZM2.69,15.01c-.56,0-1.03.47-1.02,1.02.02.86,1.13,1.32,1.75.7.64-.63.15-1.73-.73-1.72ZM14.98,2.73c0,.59.43,1.02,1.01,1.01.89,0,1.33-1.1.71-1.73-.62-.64-1.71-.16-1.71.72Z"/>
  <path class="cls-1" d="m8.96,15.53c.55,0,1.56.24,1.77-.34.12-.34.04-.85.08-1.22.06-.51.16-1.01.25-1.51.08-.49.13-.51-.27-.75-.36-.21-.78-.35-1.15-.56-.23-.13-.5-.41-.77-.33-.29.09-.31.64-.68.72-1.05.22-.22-1.17,0-1.46.48-.65,1.09-1.22,1.71-1.72,1.13-.92,2.44-1.61,3.87-1.94,5.68-1.31,11.24,2.77,11.97,8.46.1.82.19,1.92-.08,2.71-.24.71-.9.57-.94-.13-.01-.25.18-.67,0-.88-.17-.21-.97-.07-1.19-.07-.58,0-2.03-.3-2.28.29-.15.35-.06,1.04-.1,1.41-.06.47-.15.93-.23,1.4-.06.32-.13.42.1.64.3.29.97.44,1.34.64.33.19.52.42.85.22.26-.16.54-.86.67-1.13.11-.22.22-.62.45-.75.32-.17.67.05.71.39.07.62-.74,1.6-1.08,2.07-.41.58-.88,1.11-1.4,1.6-1.01.94-2.22,1.63-3.54,2.04-2.63.82-5.54.55-7.93-.83-2.65-1.53-4.45-4.29-4.83-7.32-.12-1-.09-2.02.1-3.02.07-.37.15-1.06.38-1.38.24-.32.74-.44.89.06.21.72-.68,1.66-.45,2.41.16.51,1.36.27,1.77.27Zm14.05,0c.34,0,1.55.2,1.75-.12.23-.37-.17-1.46-.3-1.88-.19-.64-.45-1.25-.77-1.83-.35-.62-.44-1.05-1.11-.69-.34.19-1.44.54-1.66.84-.27.36.15,1.41.2,1.82.05.36-.05,1.54.2,1.78.29.28,1.31.08,1.69.08Zm-14.07.98c-.35,0-1.51-.21-1.73.12-.23.35.18,1.5.3,1.89.19.63.45,1.24.77,1.81.26.46.41.99.96.78.31-.12.6-.35.89-.5.21-.1.63-.19.8-.36.36-.36.03-1.1-.05-1.59-.06-.41.04-1.7-.2-2.02-.25-.35-1.36-.14-1.75-.14Zm9.46,0c-.32,0-1.52-.18-1.79.04-.29.23-.13,1.03-.13,1.35,0,.39-.17,1.15.21,1.36.39.22,1.34.15,1.8.23.37.07,1.12.47,1.42.16.25-.25.25-1.29.28-1.63.04-.33.29-1.24,0-1.48-.24-.2-1.46-.03-1.79-.03Zm-4.85-.98c.31,0,1.65.18,1.87-.08.24-.28.08-1.1.08-1.46,0-.51.16-1.01-.3-1.24-.44-.22-1.36-.14-1.86-.24-.36-.07-.98-.42-1.27-.12-.28.29-.24,1.24-.28,1.63-.04.35-.31,1.25,0,1.48.28.2,1.41.03,1.76.03Zm4.86,0c.28,0,1.63.17,1.83-.07.24-.28,0-1.11-.04-1.46-.04-.32-.05-1.47-.31-1.68-.29-.23-1.18.18-1.52.24-.43.08-1.44-.03-1.77.23-.3.25-.11,1.13-.11,1.49,0,.37-.17,1.02.19,1.23.31.18,1.36,0,1.73,0Zm-4.81.98c-.31,0-1.61-.18-1.85.06-.25.25,0,1.13.04,1.45.04.31.05,1.48.31,1.68.27.22,1.08-.15,1.4-.21.51-.09,1.29,0,1.75-.22.43-.2.26-.79.26-1.22,0-.36.19-1.3-.13-1.52-.29-.2-1.41-.02-1.78-.02Zm1.91,6.04c0-.4.21-1.79-.01-2.12-.22-.33-.86-.13-1.19-.09-.45.06-1.31.07-1.68.35-.37.27-.04.71.12,1.08.42.98,1.01,2.01,1.91,2.62.28.19.67.52.85.17.2-.39,0-1.55,0-2.01Zm0-13.04c0-.32.2-1.88-.01-2.12-.21-.24-.74.16-.95.32-.84.62-1.4,1.61-1.8,2.55-.17.39-.46.8-.12,1.08.34.28,1.41.31,1.82.36.4.05.89.23,1.05-.19.19-.48,0-1.48,0-2.01Zm.98,13c0,.46-.2,1.63,0,2.05.18.36.58.02.88-.19.91-.63,1.49-1.68,1.91-2.68.25-.6.51-.87-.18-1.07-.55-.16-1.14-.25-1.71-.31-.5-.05-.73-.17-.91.27-.19.44,0,1.44,0,1.93Zm0-13.03c0,.48-.2,1.65.01,2.08.19.4.94.17,1.32.12.28-.04,1.46-.13,1.64-.37.22-.31-.12-.84-.27-1.17-.44-1.01-1.09-2.09-2.09-2.64-.44-.24-.49-.29-.62.11-.16.49,0,1.35,0,1.87Zm-3.35-1.76s-.07-.03-.08-.02c-1.3.44-2.42,1.17-3.38,2.14-.14.14-.03.2.07.26.43.26.88.5,1.34.7.35.15.35.15.48-.2.31-.87.71-1.7,1.25-2.46.1-.14.21-.28.32-.43Zm5.74,16.61c1.33-.42,2.47-1.15,3.44-2.14.23-.23-.86-.69-1.04-.78-.52-.25-.67-.39-.91.16-.42.98-.83,1.9-1.49,2.75Zm-.02-16.66c.02.07.03.1.04.12.7.87,1.19,1.86,1.55,2.92.07.19.16.22.33.14.47-.2.93-.44,1.38-.7.23-.13.24-.23.05-.42-.82-.79-1.75-1.42-2.8-1.86-.17-.07-.34-.13-.55-.21Zm-5.67,16.7c-.79-.96-1.29-1.98-1.66-3.06-.14-.41-1.06.22-1.28.34-.61.33-.75.4-.2.9.88.79,1.98,1.53,3.13,1.82Z"/>
</svg>