<?xml version="1.0" encoding="UTF-8"?>
<svg id="Layer_1" data-name="Layer 1" xmlns="http://www.w3.org/2000/svg" viewBox="0 0 40 40">
  <defs>
    <style>
      .cls-1 {
        fill: #f28a1d;
        stroke: #fff;
        stroke-miterlimit: 10;
        stroke-width: .5px;
      }
    </style>
  </defs>
  <path class="cls-1" d="m30.34,15.73c0-.64-.24-.89-.87-.89-6.31,0-12.63,0-18.94,0-.61,0-.87.25-.87.86,0,4.54,0,9.08,0,13.62,0,1.07.39,1.99,1.24,2.68.76.62,1.64.8,2.58.75.25-.01.32.06.32.31-.01,1.21,0,2.43,0,3.64,0,.5.08.99.32,1.44.44.85,1.17,1.28,2.06,1.5h.77c.28-.08.58-.05.85-.18,1.07-.55,1.6-1.43,1.63-2.61.03-1.11,0-2.22,0-3.33q0-.67.68-.67c.45,0,.48.03.48.47,0,1.11,0,2.22,0,3.33,0,1.68.87,2.71,2.49,2.99h.77c.06-.02.11-.05.17-.07,1.21-.29,2.02-1.14,2.15-2.39.13-1.27.03-2.55.05-3.83,0-.61,0-.61.62-.61,2.07-.01,3.5-1.41,3.51-3.48.01-4.51,0-9.03,0-13.54Zm-1.38,13.48c0,1.37-.8,2.16-2.17,2.16-.38,0-.77,0-1.15,0-.56.01-.81.27-.82.83,0,1.53,0,3.07,0,4.6,0,1.04-.92,1.7-1.85,1.37-.55-.2-.9-.7-.9-1.34,0-1.5,0-2.99,0-4.49,0-.76-.22-.99-.98-.99-.75,0-1.51,0-2.26,0-.65,0-.9.25-.9.91,0,1.53,0,3.07,0,4.6,0,.69-.47,1.23-1.12,1.36-.61.12-1.25-.22-1.51-.8-.11-.24-.13-.49-.13-.75,0-1.46,0-2.92,0-4.37,0-.73-.22-.95-.97-.95-.33,0-.66,0-1,0-1.37,0-2.17-.79-2.17-2.16,0-1.69,0-3.38,0-5.06,0-2.52,0-5.04,0-7.56,0-.3.08-.38.38-.38,2.86.01,5.73,0,8.59,0s5.73,0,8.59,0c.3,0,.38.07.38.38-.01,4.21,0,8.42,0,12.62Z"/>
  <path class="cls-1" d="m25.63,4.79c-.28-.19-.79-.29-.82-.56-.03-.28.3-.61.48-.92.37-.63.75-1.25,1.12-1.87.15-.26.18-.54,0-.79-.15-.21-.36-.32-.63-.29-.3.03-.46.24-.61.48-.52.88-1.06,1.75-1.57,2.63-.11.18-.2.25-.42.18-2.13-.71-4.26-.7-6.39,0-.19.06-.29.02-.39-.16-.34-.6-.7-1.19-1.06-1.78-.22-.36-.42-.73-.66-1.07-.21-.3-.59-.36-.89-.19-.3.17-.41.52-.27.87.04.11.1.2.16.3.48.8.95,1.6,1.44,2.4.13.21.09.28-.11.4-3.32,1.94-5.11,4.82-5.35,8.66-.05.83.18,1.07,1.03,1.07,3.09,0,6.19,0,9.28,0s6.27,0,9.4,0c.69,0,.98-.26.95-.89-.16-3.6-1.73-6.42-4.71-8.46Zm2.9,7.98c-2.85-.02-5.7-.01-8.55-.01s-5.67,0-8.51,0c-.33,0-.4-.09-.36-.41.47-4.03,3.74-7.32,7.78-7.8,4.45-.53,8.55,2.19,9.75,6.5.12.42.17.85.26,1.27.07.31.01.44-.37.43Z"/>
  <path class="cls-1" d="m8.96,22.07h-.01c0-1.66.02-3.32,0-4.99-.01-.84-.44-1.49-1.16-1.91-1.66-.97-3.61.17-3.63,2.17-.04,3.14-.02,6.29,0,9.44,0,1.37.94,2.41,2.16,2.5,1.51.11,2.64-.94,2.66-2.49.01-1.57,0-3.15,0-4.72Zm-1.38,4.75c0,.63-.39,1.06-.94,1.09-.56.03-.99-.3-1.09-.86-.02-.1-.03-.2-.03-.3,0-3.12,0-6.24,0-9.36,0-.69.37-1.13.95-1.17.64-.04,1.1.4,1.11,1.08,0,1.6,0,3.2,0,4.79,0,1.57,0,3.14,0,4.72Z"/>
  <path class="cls-1" d="m35.85,17.35c0-1.36-.92-2.39-2.12-2.5-1.52-.13-2.67.9-2.69,2.45-.02,1.59,0,3.17,0,4.76,0,0,0,0,.01,0,0,1.66-.02,3.32,0,4.99.01.84.45,1.49,1.16,1.91,1.65.97,3.61-.17,3.63-2.17.04-3.14.02-6.29,0-9.44Zm-1.37,9.4c0,.63-.34,1.07-.85,1.15-.52.08-.98-.19-1.16-.67-.07-.19-.06-.38-.06-.57,0-1.53,0-3.07,0-4.6h0c0-1.61,0-3.22,0-4.83,0-.5.34-.9.8-.99.49-.09.94.13,1.15.56.09.19.11.39.11.6,0,3.12,0,6.24,0,9.36Z"/>
  <path class="cls-1" d="m16.55,9.09c0,.14,0,.28,0,.42,0,.31-.18.46-.47.5-.05,0-.1,0-.15,0-1.26.03-1.22-.02-1.19-1.35,0-.05.01-.1.03-.15.33-.6.88-.27,1.34-.31.32-.03.45.23.44.55,0,.11,0,.23,0,.34Z"/>
  <path class="cls-1" d="m23.45,9.08c0-.15,0-.31,0-.46.02-.23.15-.4.38-.42.35-.03.74-.09,1.06.01.62.19.32.77.37,1.18.04.31-.09.57-.44.6-.3.03-.61.02-.91,0-.29-.02-.46-.2-.46-.5v-.42s0,0,0,0Z"/>
</svg>