<?xml version="1.0" encoding="UTF-8"?>
<svg id="Layer_1" data-name="Layer 1" xmlns="http://www.w3.org/2000/svg" viewBox="0 0 25.88 32">
  <defs>
    <style>
      .cls-1 {
        fill: #232323;
      }
    </style>
  </defs>
  <path class="cls-1" d="m21.38,12.54c0-.52-.2-.73-.71-.73-5.15,0-10.3,0-15.45,0-.5,0-.71.21-.71.7,0,3.7,0,7.4,0,11.1,0,.87.32,1.62,1.01,2.19.62.51,1.33.65,2.1.61.2-.01.26.05.26.25-.01.99,0,1.98,0,2.97,0,.41.07.81.26,1.18.36.69.95,1.04,1.68,1.23h.63c.23-.07.47-.04.69-.15.87-.45,1.31-1.17,1.33-2.13.02-.91,0-1.81,0-2.72q0-.55.55-.54c.37,0,.39.02.39.39,0,.91,0,1.81,0,2.72,0,1.37.71,2.21,2.03,2.44h.63s.09-.04.14-.05c.99-.24,1.65-.93,1.75-1.95.11-1.04.02-2.08.04-3.12,0-.5,0-.5.51-.5,1.69,0,2.86-1.15,2.86-2.84.01-3.68,0-7.36,0-11.04Zm-1.12,10.99c0,1.12-.65,1.76-1.77,1.76-.31,0-.63,0-.94,0-.46.01-.66.22-.66.68,0,1.25,0,2.5,0,3.75,0,.85-.75,1.39-1.51,1.12-.45-.16-.74-.57-.74-1.09,0-1.22,0-2.44,0-3.66,0-.62-.18-.81-.8-.81-.62,0-1.23,0-1.85,0-.53,0-.73.21-.73.74,0,1.25,0,2.5,0,3.75,0,.56-.38,1-.92,1.11-.5.1-1.02-.18-1.23-.65-.09-.19-.1-.4-.1-.61,0-1.19,0-2.38,0-3.57,0-.6-.18-.78-.79-.78-.27,0-.54,0-.81,0-1.12,0-1.77-.65-1.77-1.76,0-1.38,0-2.75,0-4.13,0-2.05,0-4.11,0-6.16,0-.25.06-.31.31-.31,2.34,0,4.67,0,7.01,0s4.67,0,7.01,0c.24,0,.31.06.31.31,0,3.43,0,6.86,0,10.29Z"/>
  <path class="cls-1" d="m17.53,3.62c-.23-.16-.64-.24-.67-.45-.03-.23.25-.5.4-.75.3-.51.61-1.02.91-1.53.13-.21.14-.44,0-.65-.12-.17-.3-.26-.51-.24-.24.03-.38.19-.5.39-.43.71-.86,1.42-1.28,2.14-.09.15-.16.2-.34.14-1.74-.58-3.48-.57-5.21,0-.16.05-.24.01-.32-.13-.28-.49-.57-.97-.86-1.45-.18-.29-.34-.6-.54-.87-.18-.25-.48-.3-.72-.15-.24.14-.33.43-.22.71.04.09.08.17.13.25.39.65.77,1.31,1.17,1.95.11.17.07.23-.09.32-2.71,1.58-4.17,3.93-4.36,7.06-.04.68.15.87.84.87,2.52,0,5.05,0,7.57,0s5.11,0,7.66,0c.56,0,.8-.22.78-.73-.13-2.94-1.41-5.24-3.84-6.9Zm2.36,6.51c-2.32-.02-4.65,0-6.97,0s-4.63,0-6.94,0c-.27,0-.32-.07-.29-.33.38-3.28,3.05-5.97,6.34-6.36,3.63-.43,6.97,1.79,7.95,5.3.09.34.14.69.21,1.04.05.25,0,.36-.3.35Z"/>
  <path class="cls-1" d="m3.94,17.71h0c0-1.36.02-2.71,0-4.07-.01-.68-.36-1.21-.95-1.56-1.35-.79-2.94.14-2.96,1.77-.03,2.56-.02,5.13,0,7.69,0,1.12.76,1.96,1.76,2.04,1.23.09,2.16-.76,2.17-2.03.01-1.28,0-2.56,0-3.85Zm-1.13,3.87c0,.51-.31.86-.77.89-.45.03-.81-.25-.89-.7-.01-.08-.02-.17-.02-.25,0-2.54,0-5.09,0-7.63,0-.56.31-.92.78-.95.52-.03.9.32.9.88,0,1.3,0,2.61,0,3.91,0,1.28,0,2.56,0,3.85Z"/>
  <path class="cls-1" d="m25.87,13.86c0-1.11-.75-1.95-1.73-2.03-1.24-.11-2.18.74-2.2,2-.02,1.29,0,2.59,0,3.88,0,0,0,0,0,0,0,1.36-.02,2.71,0,4.07.01.68.37,1.21.95,1.56,1.35.79,2.94-.14,2.96-1.77.03-2.56.02-5.13,0-7.69Zm-1.12,7.66c0,.51-.28.87-.69.94-.42.07-.8-.15-.94-.55-.06-.15-.04-.31-.05-.46,0-1.25,0-2.5,0-3.75h0c0-1.31,0-2.63,0-3.94,0-.41.28-.74.65-.81.4-.08.77.1.94.46.07.15.09.32.09.49,0,2.54,0,5.09,0,7.63Z"/>
  <path class="cls-1" d="m10.13,7.12c0,.11,0,.23,0,.34,0,.25-.15.37-.38.4-.04,0-.08,0-.12,0-1.03.02-.99-.01-.97-1.1,0-.04,0-.09.03-.12.27-.49.72-.22,1.09-.25.26-.02.37.19.36.44,0,.09,0,.19,0,.28Z"/>
  <path class="cls-1" d="m15.76,7.11c0-.12,0-.25,0-.37.01-.19.13-.32.31-.34.29-.02.6-.07.86.01.5.16.26.62.3.97.03.25-.07.46-.36.49-.25.02-.5.02-.75,0-.24-.02-.37-.16-.37-.41v-.34s0,0,0,0Z"/>
</svg>