<?xml version="1.0" encoding="UTF-8"?>
<svg id="Layer_1" data-name="Layer 1" xmlns="http://www.w3.org/2000/svg" viewBox="0 0 50 50">
  <path d="m24.12,1.27h2.04c.45.25.88.51,1.28.83,1.19.94,2.39,1.86,3.58,2.81.3.24.6.33.97.33,3.54-.01,7.08,0,10.62,0,1.31,0,1.87.56,1.87,1.85,0,2.58.01,5.17,0,7.75,0,.43.13.72.48.97.66.48,1.28,1.03,1.95,1.5,1.11.8,1.86,1.79,2.01,3.19v26.19c-.34,1.44-1.02,2.08-2.26,2.08-14.35,0-28.7,0-43.04,0-.28,0-.55-.04-.82-.14-.89-.36-1.37-1.11-1.37-2.16,0-8.53,0-17.06-.01-25.59,0-1.37.52-2.42,1.57-3.25.8-.63,1.6-1.27,2.41-1.89.29-.22.4-.46.4-.82-.01-2.6,0-5.2,0-7.8,0-1.33.56-1.89,1.9-1.89,3.48,0,6.97,0,10.45,0,.46,0,.83-.12,1.18-.41,1.1-.89,2.21-1.74,3.32-2.62.46-.37.93-.72,1.48-.94Zm23.2,45.1c.11-.21.08-.36.08-.51,0-8.2,0-16.41,0-24.61,0-.09,0-.19,0-.28,0-.29-.12-.28-.3-.13-.16.12-.32.25-.48.37-4.35,3.4-8.71,6.8-13.06,10.2-.13.1-.27.22-.42.28-.35.15-.68.09-.91-.22-.22-.3-.2-.62.04-.9.14-.16.31-.3.48-.43,3.28-2.57,6.56-5.13,9.84-7.69.31-.24.44-.5.44-.89-.01-4.72,0-9.44,0-14.16,0-.62-.02-.65-.66-.65-11.45,0-22.91,0-34.36,0-.67,0-.7.03-.7.72,0,4.69,0,9.38,0,14.07,0,.45.15.74.5,1.01,3.2,2.49,6.39,5,9.58,7.5.18.14.37.28.54.44.32.31.35.69.11,1-.24.32-.66.38-1.04.14-.16-.1-.3-.22-.44-.33-4.4-3.45-8.79-6.89-13.19-10.34-.12-.09-.23-.28-.38-.2-.16.08-.07.28-.07.43,0,8.17,0,16.34,0,24.51,0,.15-.08.36.06.43.18.1.29-.12.41-.22,6.15-5.1,12.29-10.2,18.43-15.3,2.1-1.74,4.59-1.74,6.69,0,4.93,4.12,9.85,8.24,14.78,12.36,1.34,1.12,2.68,2.24,4.05,3.39Zm-1.28.91c-.21-.19-.34-.3-.46-.41-5.99-5.01-11.99-10.03-17.98-15.04-1.62-1.35-3.25-1.37-4.87-.03-6.1,5.06-12.19,10.12-18.28,15.18-.08.07-.23.11-.19.29h41.79ZM28.83,5.21s.03-.06.05-.09c-.96-.74-2.66-2.68-3.98-2.49-.58.08-3.53,2.06-3.47,2.59h7.4Zm15.66,13.92c0,.27-.17,1.5.06,1.67.19.14,1.42-.98,1.63-1.17.62-.56.42-.65-.18-1.12-.18-.14-1.2-1.13-1.44-1-.25.13-.07,1.37-.07,1.63Zm-38.7.02c0-.25.17-1.52-.07-1.67-.22-.13-1.38.96-1.6,1.15-.64.56-.46.66.16,1.15.18.14,1.2,1.13,1.44.99.25-.14.07-1.37.06-1.63Z"/>
  <path d="m25.11,28.23c-5.09-.05-9.35-4.05-9.35-9.39,0-5.3,4.22-9.36,9.36-9.37,5.22,0,9.37,4.14,9.4,9.38.03,5.16-4.25,9.39-9.42,9.38Zm.04-1.53c4.38,0,7.86-3.5,7.86-7.88-.01-6.86-8.59-10.41-13.44-5.54-4.85,4.87-1.3,13.43,5.58,13.42Z"/>
  <path d="m24.09,19.89c0-.96-.51-3.17.9-3.23,1.51-.07.99,2.32.99,3.28,0,.94.49,3.11-.82,3.27-1.62.2-1.07-2.37-1.07-3.32Z"/>
  <path d="m25.01,13.5c.83,0,1.32.91.69,1.51-.54.53-1.68.22-1.69-.62,0-.48.45-.89,1-.9Z"/>
</svg>