<svg xmlns="http://www.w3.org/2000/svg" xmlns:xlink="http://www.w3.org/1999/xlink" width="17.977" height="15.735" viewBox="0 0 17.977 15.735">
  <defs>
    <clipPath id="clip-path">
      <rect id="Rectangle_36" data-name="Rectangle 36" width="17.977" height="15.735" fill="#f28a1d"/>
    </clipPath>
  </defs>
  <g id="Group_683" data-name="Group 683" transform="translate(0 3)">
    <g id="Group_77" data-name="Group 77" transform="translate(0 -3)" clip-path="url(#clip-path)">
      <path id="Path_289" data-name="Path 289" d="M85.937,9.733c0-1.354,0-2.708,0-4.061A5.623,5.623,0,0,1,89.969.233,5.982,5.982,0,0,1,91.849,0a.834.834,0,0,1,.832.84q.015.844,0,1.689a.826.826,0,0,1-.884.838,2.362,2.362,0,0,0-1.739.582,2.173,2.173,0,0,0-.745,1.633c-.01.713,0,1.426-.006,2.138,0,.117.029.148.147.147.856-.005,1.713,0,2.57,0A1.687,1.687,0,0,1,93.8,9.647q0,2.157,0,4.313a1.689,1.689,0,0,1-1.768,1.775q-2.165,0-4.33,0a1.691,1.691,0,0,1-1.767-1.76c0-1.414,0-2.827,0-4.241" transform="translate(-75.827 -0.001)" fill="#f28a1d"/>
      <path id="Path_290" data-name="Path 290" d="M.005,9.728c0-1.4-.012-2.8,0-4.2A5.607,5.607,0,0,1,4.036.231,6.068,6.068,0,0,1,5.9,0a.824.824,0,0,1,.84.827q.021.862,0,1.725a.81.81,0,0,1-.864.816,2.4,2.4,0,0,0-1.617.47,2.154,2.154,0,0,0-.875,1.712c-.014.725,0,1.449-.008,2.174,0,.125.042.143.152.143.856,0,1.713,0,2.569,0A1.691,1.691,0,0,1,7.87,9.636q0,2.165,0,4.33a1.693,1.693,0,0,1-1.777,1.768q-2.156,0-4.312,0A1.69,1.69,0,0,1,0,13.951q0-2.111,0-4.223Z" transform="translate(0 0)" fill="#f28a1d"/>
    </g>
  </g>
</svg>
