<?xml version="1.0" encoding="UTF-8"?>
<svg id="Layer_1" data-name="Layer 1" xmlns="http://www.w3.org/2000/svg" viewBox="0 0 32 32">
  <defs>
    <style>
      .cls-1 {
        fill: #232323;
      }
    </style>
  </defs>
  <path class="cls-1" d="m27.05.74c.22.13.3.33.3.58,0,1,0,2.01,0,3.01,0,.37-.21.6-.49.6-.29,0-.48-.23-.48-.6,0-.78,0-1.55,0-2.33,0-.25-.06-.35-.33-.35-6.7,0-13.39,0-20.09,0-.33,0-.34.16-.34.4,0,6.69,0,13.37,0,20.06,0,.12,0,.24,0,.36-.03.27-.22.46-.46.47-.24,0-.45-.16-.5-.43-.02-.1-.02-.2-.02-.3,0-6.92,0-13.83,0-20.75,0-.29.02-.56.3-.73h22.1Z"/>
  <path class="cls-1" d="m27.35,18.69c0,3.94,0,7.88,0,11.82,0,.15,0,.3-.03.44-.04.23-.2.36-.44.38-.1,0-.2,0-.3,0-7.06,0-14.11,0-21.17,0-.64,0-.77-.13-.77-.77,0-1.91,0-3.82,0-5.73,0-.13,0-.26.03-.38.06-.24.22-.38.47-.37.26.01.42.18.46.43.02.11,0,.22,0,.33,0,1.72,0,3.44,0,5.17,0,.39,0,.39.4.39,6.65,0,13.3,0,19.94,0q.41,0,.41-.41c0-7.69,0-15.39,0-23.08,0-.13,0-.26,0-.39.03-.26.22-.46.47-.46.26,0,.43.16.48.41.03.13.02.28.02.42,0,3.93,0,7.86,0,11.79Z"/>
  <path class="cls-1" d="m21.3,23.51c0-1.71,0-3.42,0-5.13,0-.63.15-.78.77-.79.78,0,1.55,0,2.33,0,.62,0,.76.14.76.75,0,.42,0,.84,0,1.25,0,.34-.18.54-.46.55-.28,0-.46-.2-.47-.54,0-.25-.01-.5,0-.75.01-.22-.06-.31-.29-.3-.46.01-.92.01-1.37,0-.2,0-.29.07-.28.27.01.38,0,.76,0,1.13,0,2.68,0,5.35,0,8.03q0,.45.46.45c.37,0,.74-.02,1.1,0,.29.02.38-.08.37-.37-.01-2.03,0-4.06,0-6.09,0-.49.16-.72.48-.71.32,0,.46.24.46.73,0,2.25,0,4.5,0,6.75,0,.52-.15.67-.68.67-.83,0-1.65,0-2.48,0-.54,0-.7-.16-.7-.69,0-1.74,0-3.48,0-5.22Z"/>
  <path class="cls-1" d="m10.08,13.54c-3.04,0-4.62-3.81-2.46-5.96,2.16-2.15,5.95-.56,5.95,2.48,0,1.94-1.55,3.48-3.49,3.48Zm-.48-4.62h0c0-.7.25-1.61-.69-1.11-.61.32-1.06.89-1.25,1.55-.4,1.39.47,2.84,1.87,3.15.68.15,1.4.04,1.97-.35.25-.17,1.3-1.18,1.01-1.56-.3-.38-1.93.06-2.39-.08-.72-.2-.52-.99-.52-1.61Zm.98-.37c0,.9-.09,1.01.86,1.01.58,0,1.29.22.98-.55-.19-.47-.63-.9-1.06-1.16-.12-.07-.58-.36-.73-.22-.15.14-.04.74-.04.92Z"/>
  <path class="cls-1" d="m16,2.64c1.54,0,3.08,0,4.63,0,.53,0,.69.17.7.7,0,.52,0,1.03,0,1.55,0,.47-.19.64-.66.65-3.1,0-6.21,0-9.31,0-.47,0-.66-.18-.66-.64,0-.54,0-1.07,0-1.61,0-.47.19-.64.66-.64,1.55,0,3.1,0,4.66,0Zm-.03,1.92c1.01,0,2.02,0,3.03,0,.58,0,1.35.27,1.35-.46,0-.76-.81-.48-1.41-.48-.96,0-1.92,0-2.89,0-1.02,0-2.03,0-3.05,0-.55,0-1.24-.24-1.34.36-.15.83.63.59,1.22.59,1.03,0,2.06,0,3.09,0Z"/>
  <path class="cls-1" d="m16.47,24.71c0-1.31-.11-2.66,0-3.97.08-.99.99-.73,1.79-.73.83,0,1.97-.34,2.09.71.14,1.2,0,2.51,0,3.72,0,1.22,0,2.43,0,3.65,0,.33.1.95-.19,1.21-.32.29-1.2.12-1.59.12-.47,0-1.28.15-1.72-.02-.42-.17-.38-.55-.39-.96-.02-1.24,0-2.49,0-3.73Zm2.91,0c0-1.12,0-2.25,0-3.37,0-.28-.09-.37-.36-.35-.43.02-.86.01-1.28,0-.21,0-.3.06-.3.29,0,2.3,0,4.6,0,6.89,0,.21.08.28.28.28.43,0,.86-.02,1.28,0,.28.01.38-.07.38-.37-.02-1.12,0-2.25,0-3.37Z"/>
  <path class="cls-1" d="m15.53,26.52c0,.74,0,1.47,0,2.21,0,.53-.17.69-.7.69-.85,0-1.69,0-2.54,0-.44,0-.64-.16-.64-.6-.01-1.52-.01-3.04,0-4.57,0-.45.18-.62.62-.63.88-.01,1.75-.02,2.63,0,.46,0,.62.19.63.65,0,.75,0,1.49,0,2.24Zm-2.91-.02c0,.43-.17,1.33,0,1.73.16.36.74.21,1.1.21.43,0,.65.1.83-.27.17-.36,0-1.25,0-1.66,0-.43.18-1.36,0-1.73-.16-.31-.63-.18-.95-.18-.43,0-.82-.14-.98.27-.16.41,0,1.2,0,1.64Z"/>
  <path class="cls-1" d="m20.45,10.58c.71,0,4.95-.41,4.94.49,0,.77-1.54.49-2.01.49-1.03,0-2.06,0-3.09,0-.97,0-1.95,0-2.92,0-.45,0-1.71.25-1.84-.42-.15-.8,1.35-.56,1.75-.56,1.05,0,2.11,0,3.16,0Z"/>
  <path class="cls-1" d="m20.45,9.54c-1.02,0-2.03,0-3.05,0-.43,0-1.82.26-1.87-.45-.05-.78,1.42-.52,1.84-.52,1.02,0,2.05,0,3.07,0,.97,0,1.94,0,2.91,0,.48,0,1.9-.28,2.02.42.14.79-1.28.56-1.7.56-1.08,0-2.16,0-3.24,0Z"/>
  <path class="cls-1" d="m8.76,29.42c-.42,0-1.35.18-1.72-.1-.34-.25-.2-1-.2-1.36,0-.39-.15-1.07.2-1.35.35-.28,1.32-.1,1.72-.1.37,0,1.41-.17,1.72.1.34.29.21.98.21,1.36,0,.39.14,1.08-.21,1.34-.36.28-1.31.09-1.73.09Zm-.02-.98s0,0,0,0c.47,0,.85.16.98-.3.21-.78-.51-.64-1.02-.64-.35,0-.72-.11-.91.17-.07.11-.03.65.05.72.16.15.7.05.91.05Z"/>
  <path class="cls-1" d="m20.46,6.57c.94,0,1.88,0,2.82,0,.45,0,1.87-.26,2.09.29.35.87-1.24.65-1.64.65-1.03,0-2.06,0-3.09,0-.98,0-1.95,0-2.93,0-.47,0-2.03.29-2.16-.39-.16-.83,1.59-.55,2.01-.55.97,0,1.94,0,2.91,0Z"/>
  <path class="cls-1" d="m11.93,17.56c.86,0,1.71,0,2.57,0,.45,0,2.1-.28,1.96.55-.11.66-1.42.42-1.88.42-.93,0-1.87,0-2.8,0-.88,0-1.76,0-2.64,0-.42,0-1.57.21-1.74-.36-.25-.87,1.38-.61,1.81-.61.91,0,1.82,0,2.73,0Z"/>
  <path class="cls-1" d="m11.91,15.54c.63,0,4.59-.4,4.57.49-.01.73-1.38.49-1.8.49-.92,0-1.84,0-2.76,0-.87,0-1.73,0-2.6,0-.44,0-1.81.26-1.92-.42-.13-.81,1.3-.56,1.74-.56.92,0,1.84,0,2.77,0Z"/>
  <path class="cls-1" d="m18.66,13.54c-.54,0-3.15.36-3.14-.48.01-.82,2.57-.46,3.13-.46.56,0,3.1-.37,3.14.45.04.84-2.61.48-3.12.48Z"/>
  <path class="cls-1" d="m10.1,20.53c-.52,0-2.7.35-2.72-.47-.02-.85,2.21-.5,2.73-.5.52,0,2.75-.35,2.73.5-.02.83-2.24.47-2.75.47Z"/>
</svg>