<?xml version="1.0" encoding="UTF-8"?>
<svg id="Layer_1" data-name="Layer 1" xmlns="http://www.w3.org/2000/svg" viewBox="0 0 21 21">
  <defs>
    <style>
      .cls-1 {
        fill: #a6d864;
      }
    </style>
  </defs>
  <path class="cls-1" d="m8.04,21.05c-.11-.05-.21-.09-.32-.14-.52-.28-.74-.74-.75-1.31,0-.88,0-1.76,0-2.64,0-.27,0-.28-.27-.28-.2,0-.41,0-.61,0-.5-.01-.84-.34-.84-.84,0-2.85,0-5.7,0-8.55,0-.18.06-.24.24-.24,3.34,0,6.68,0,10.03,0,.18,0,.24.06.24.24,0,2.85,0,5.7,0,8.55,0,.5-.34.83-.84.84-.22,0-.44.01-.65,0-.18,0-.24.06-.24.24,0,.89,0,1.79,0,2.68,0,.58-.22,1.03-.75,1.31-.1.05-.21.1-.32.14h-.53c-.31-.19-.63-.29-.84-.61-.23-.35-.22-.76-.23-1.16,0-.57,0-1.14,0-1.7,0-.53.15-.9-.46-.9-.34,0-1.12-.17-1.25.2-.08.22,0,.61,0,.84,0,.3,0,.59,0,.89,0,1.05.07,2.02-1.07,2.45h-.53Z"/>
  <path class="cls-1" d="m10.48,6.19c-1.64,0-3.29,0-4.93,0-.29,0-.3,0-.29-.3.05-1.15.46-2.16,1.2-3.05.24-.29.51-.55.82-.76.14-.1.12-.16.01-.26-.29-.27-.57-.55-.85-.82-.07-.07-.13-.14-.18-.22-.13-.2-.11-.4.05-.56.16-.16.36-.17.56-.03.06.04.12.1.17.15.33.33.66.65.98.98.08.08.16.12.27.06.64-.31,1.33-.44,2.04-.46.79-.02,1.57.08,2.29.42.18.08.29.06.42-.08.32-.34.66-.67,1-1,.29-.28.68-.19.78.17.06.21-.05.36-.18.49-.24.25-.5.48-.75.73-.31.3-.3.3.02.57,1.14.97,1.76,2.2,1.84,3.7.01.26,0,.28-.27.28-1.66,0-3.33,0-4.99,0Zm-2.8-2.2c0,.36.28.64.63.64.56,0,.84-.72.44-1.1-.4-.39-1.08-.09-1.07.46Zm5.65,0c0-.36-.27-.64-.63-.65-.56-.01-.85.7-.46,1.1.39.4,1.08.11,1.09-.45Z"/>
  <path class="cls-1" d="m19.26,11.42c0,.99.05,2,0,2.99-.04.69-.47,1.31-1.2,1.38-.7.07-1.29-.44-1.42-1.11-.17-.94-.04-2.02-.04-2.97,0-1.03-.03-2.06,0-3.08.02-.79.45-1.6,1.35-1.59.74.01,1.26.63,1.31,1.33.06,1.01,0,2.04,0,3.05Z"/>
  <path class="cls-1" d="m1.74,11.42c0-1-.06-2.01,0-3.01.04-.69.48-1.3,1.21-1.36.78-.07,1.35.56,1.43,1.29.1.95.02,1.95.02,2.9,0,.99.02,1.98,0,2.97-.02.77-.42,1.56-1.29,1.59-.77.02-1.32-.62-1.36-1.35-.06-1,0-2.03,0-3.03Z"/>
</svg>