<?xml version="1.0" encoding="UTF-8"?>
<svg id="Layer_1" data-name="Layer 1" xmlns="http://www.w3.org/2000/svg" viewBox="0 0 32 32">
  <defs>
    <style>
      .cls-1 {
        fill: #fff;
      }
    </style>
  </defs>
  <path class="cls-1" d="m25.96,5.54c.48-.73,1.03-2.07,1.91-2.41.82-.31,1.75.43,2.36.9,2.03,1.57-1.18,3.47-1.36,5.14-.12,1.17,0,2.42,0,3.6,0,1.25,0,2.51,0,3.76,0,2.35.2,4.81,0,7.15-.07.84-.55,1.45-1.4,1.56-1.2.15-2.54,0-3.75,0-1.17,0-2.33,0-3.5,0-.49,0-1.2-.14-1.66,0-.46.14-.3.22-.16.74.15.57.16.64.76.65.49,0,1-.04,1.48.01.83.1,1.5.63,1.72,1.45.18.66.22,1.7-.39,2.17-.78.6-2.42.27-3.33.27-2.4,0-4.79,0-7.19,0-.9,0-2.3.28-3.13-.15-.81-.43-.76-1.73-.5-2.47.25-.69.86-1.15,1.57-1.25.55-.08,1.13.04,1.68-.02.19-.02.33.03.48-.12.1-.1.32-.89.29-1.02-.1-.41-.42-.26-.87-.26-.55,0-1.1,0-1.66,0-1.29,0-2.58,0-3.87,0-.96,0-2.07.17-3.01-.04-.96-.22-1.17-1.02-1.18-1.89-.02-2.42,0-4.85,0-7.27,0-2.41-.14-4.86,0-7.27.04-.67.3-1.26.98-1.51.65-.23,2.27.27,2.48-.44.15-.5,0-1.37,0-1.9,0-.63-.04-1.27-.02-1.89.04-1,.62-1.38,1.58-1.4,2.68-.08,5.37,0,8.04,0,2.74,0,5.49,0,8.23,0,.88,0,2.39-.33,3.05.4.31.34.29.79.29,1.22,0,.75,0,1.5,0,2.25.02.01.04.02.06.03Zm-1.1,9.46s-.04,0-.06-.01c-.43.66-.86,1.31-1.29,1.97-.1.15-.21.29-.36.39-.98.62-1.97,1.24-2.95,1.86-.18.11-.37.17-.57.1-.18-.06-.35-.05-.53-.05-3.41,0-6.83,0-10.24,0-.49,0-.76-.19-.76-.52,0-.33.27-.51.77-.51,2.33,0,4.66,0,6.99,0,1.01,0,2.03,0,3.04,0,.27,0,.42-.05.44-.36.04-.42.13-.84.2-1.27.06-.38.06-.39-.34-.39-3.42,0-6.85,0-10.27,0-.11,0-.22,0-.33,0-.27-.03-.48-.23-.49-.48-.01-.25.16-.47.44-.52.14-.03.3-.03.45-.03,3.42,0,6.85,0,10.27,0,.29,0,.56.02.62-.37.02-.1.11-.19.17-.28.26-.39.51-.78.77-1.17.09-.13.07-.2-.1-.19-.08,0-.16,0-.24,0-3.86,0-7.72,0-11.58,0-.12,0-.24,0-.36,0-.25-.03-.43-.25-.43-.49,0-.25.18-.45.44-.48.12-.01.24,0,.36,0,4.11,0,8.22,0,12.33,0,.27,0,.43-.09.58-.31.96-1.48,1.93-2.95,2.9-4.42.11-.17.17-.35.17-.56,0-1.27,0-2.55,0-3.82,0-.39-.02-.41-.4-.41-6.11,0-12.22,0-18.33,0-.39,0-.42.03-.42.43,0,6.03,0,12.06,0,18.09,0,.31.09.39.39.38,6.12,0,12.24,0,18.36,0,.4,0,.41,0,.41-.39,0-1.97,0-3.94,0-5.91,0-.09,0-.17-.01-.26Zm-9.78,7.6c-3.94,0-7.88,0-11.82,0-.25,0-.5,0-.75,0-.17,0-.26.05-.26.24,0,.27,0,.54,0,.81.02.39.21.57.6.59.09,0,.18,0,.27,0,7.96,0,15.92,0,23.87,0,.1,0,.2,0,.3,0,.33-.03.52-.23.53-.56,0-.21,0-.42,0-.63q0-.44-.44-.44c-4.11,0-8.22,0-12.32,0Zm-10.36-7.74c0-2.12,0-4.24,0-6.35,0-.27-.08-.37-.35-.36-.48.02-.95,0-1.43,0-.48,0-.68.2-.68.67,0,4.15,0,8.29,0,12.44,0,.22.07.3.29.3.6-.01,1.19-.02,1.79,0,.3.01.39-.07.39-.38-.01-2.11,0-4.22,0-6.32ZM28.44,4.11c-.35-.01-.44.18-.54.35-1.76,2.68-3.52,5.35-5.28,8.03-.49.75-.98,1.5-1.48,2.24-.11.17-.1.27.08.38.44.27.88.55,1.3.85.23.17.35.13.51-.11,1.82-2.78,3.65-5.55,5.48-8.33.42-.64.84-1.28,1.26-1.92.1-.15.23-.34.1-.49-.41-.47-.98-.72-1.42-1Zm-13.36,25.4c1,0,2.01,0,3.01,0,.98,0,1.97,0,2.95,0,.13,0,.32.04.33-.16.02-.35.07-.7-.03-1.04-.13-.44-.46-.63-1.03-.63-3.35,0-6.7,0-10.06,0-.23,0-.46,0-.69,0-.4.02-.71.28-.82.66-.07.24-.04.49-.04.74,0,.39.03.42.43.42,1.98,0,3.96,0,5.94,0Zm12.76-19.03s-.04-.02-.06-.02c-.61.92-1.21,1.84-1.82,2.76-.06.09-.06.19-.06.29,0,2.6,0,5.19,0,7.79,0,.2.07.29.28.28.42,0,.84,0,1.25,0,.41,0,.41,0,.41-.41,0-3.36,0-6.72,0-10.09,0-.2,0-.4,0-.6Zm-12.81,16.16c.63,0,1.26.01,1.89,0,.56,0,.57-.03.44-.56-.17-.68-.17-.83-.9-.83-.52,0-1.04,0-1.55,0-.46,0-1.28-.16-1.71,0-.36.13-.35.46-.44.83-.16.62-.05.57.58.57.56,0,1.13,0,1.69,0Zm5.33-8.74c.53-.33.99-.63,1.46-.92.31-.19-.96-1-1.12-.93-.24.12-.3,1.57-.34,1.85Z"/>
  <path class="cls-1" d="m8.08,7.51c0-1.33-.2-2.47,1.51-2.23.45.06.86.27,1.07.68.24.46,0,.9.14,1.35.21.67.64.92.26,1.68-.26.53-.68.69-1.23.72-.45.03-1.26.15-1.6-.25-.36-.43-.15-1.44-.15-1.96Zm1.5,1.22c.74,0,.75-.71.01-.69-.63.01-.67.69-.01.69Zm-.46-2.09c-.02.21-.02.38.28.37,1.16-.07-.4-1.27-.28-.37Z"/>
  <path class="cls-1" d="m19.42,7.53c0-.96-.07-2.04,1.11-2.25.35-.06,1.25-.15,1.57.08.3.21.33.62.02.84-.42.3-1.06-.1-1.47.12-.38.2-.19,1-.19,1.36,0,.61-.18,1.01.5,1.05.34.02.75-.04.66-.5-.09-.45-.55-.19-.77-.53-.22-.33,0-.67.34-.78,1.05-.33,1.53.85,1.42,1.66-.14,1.05-1.06,1.21-1.97,1.15-1.28-.1-1.22-1.16-1.22-2.19Z"/>
  <path class="cls-1" d="m15.42,7.49c0-1.21.08-2.38,1.64-2.22,1.22.13,1.24,1.1,1.24,2.11,0,1.1.04,2.31-1.36,2.34-1.49.02-1.52-1-1.52-2.23Zm1.85.02c0-.47.21-1.15-.37-1.2-.65-.06-.43.78-.43,1.2,0,.45-.23,1.22.4,1.22.62,0,.41-.77.41-1.22Z"/>
  <path class="cls-1" d="m12.26,7.48c0-.47-.19-1.55.09-1.93.36-.5.84-.2.94.29.13.66-.41,2.7.34,2.9.38.1,1.05-.15,1.05.5,0,.57-.64.5-1.04.5-.4,0-1,.12-1.28-.24-.29-.37-.09-1.58-.09-2.01h0Z"/>
</svg>