<?xml version="1.0" encoding="UTF-8"?>
<svg id="Layer_1" data-name="Layer 1" xmlns="http://www.w3.org/2000/svg" viewBox="0 0 32 32">
  <defs>
    <style>
      .cls-1 {
        fill: none;
        stroke: #fff;
        stroke-miterlimit: 10;
        stroke-width: .5px;
      }
    </style>
  </defs>
  <path class="cls-1" d="m6.3,3.25c6.46,0,12.93,0,19.39,0,.02,0,.04.01.06.02,1.37.18,2.43,1.29,2.67,2.63.07.41.04.82.04,1.23-.02,1.29.04,2.57.28,3.84.17.87.4,1.72.84,2.5.5.9,1.21,1.53,2.27,1.68.12.02.15.07.15.18,0,.44,0,.88,0,1.32,0,.11-.03.16-.15.18-.9.13-1.57.61-2.07,1.36-.29.43-.49.89-.65,1.37-.44,1.31-.59,2.66-.65,4.03-.03.64,0,1.28,0,1.92,0,.28-.03.55-.1.82-.37,1.42-1.62,2.42-3.09,2.42-6.2-.01-12.4,0-18.59,0-1.01,0-1.83-.41-2.46-1.19-.47-.59-.71-1.28-.71-2.04,0-.9.02-1.8-.05-2.7-.07-.88-.18-1.76-.41-2.61-.19-.74-.45-1.45-.89-2.08C1.64,17.37.94,16.9,0,16.82v-1.65c.35-.03.68-.12.99-.27.63-.31,1.06-.8,1.4-1.4.42-.74.65-1.56.82-2.39.14-.7.22-1.41.27-2.13.04-.57.05-1.15.04-1.72,0-.4-.04-.79.01-1.19.15-1.07.68-1.89,1.61-2.44.35-.21.74-.31,1.14-.38Zm12.02,12.34s.06-.04.1-.05c1.49-.36,2.47-1.72,2.33-3.26-.11-1.18-.71-2.03-1.75-2.58-.66-.34-1.37-.5-2.11-.5-1.87,0-3.75,0-5.62,0-.16,0-.17.01-.17.17,0,4.41,0,8.83,0,13.24,0,.16,0,.17.17.17,1.9,0,3.81,0,5.71,0,.72,0,1.43-.13,2.1-.39.82-.32,1.49-.82,1.92-1.61.34-.63.46-1.31.43-2.01-.03-.64-.21-1.24-.59-1.76-.56-.77-1.33-1.17-2.24-1.35-.09-.02-.19-.01-.28-.06Z"/>
  <path class="cls-1" d="m13.29,18.8c0-.67,0-1.34,0-2.01,0-.18,0-.18.18-.18.98,0,1.97,0,2.95,0,.55,0,1.1.09,1.61.32.76.34,1.14.93,1.17,1.75.01.23,0,.47-.06.69-.18.76-.69,1.2-1.4,1.44-.39.13-.79.19-1.2.2-1.02,0-2.05,0-3.07,0-.16,0-.17,0-.17-.17,0-.68,0-1.37,0-2.05Z"/>
  <path class="cls-1" d="m13.29,12.95c0-.61,0-1.22,0-1.84,0-.12.04-.17.16-.17.91,0,1.82,0,2.72,0,.43,0,.86.06,1.26.22.82.33,1.18,1.02,1.12,1.88-.06.89-.58,1.42-1.39,1.7-.34.12-.69.18-1.04.2-.89.04-1.78.01-2.67.02-.12,0-.17-.04-.17-.17,0-.62,0-1.23,0-1.85Z"/>
</svg>