<?xml version="1.0" encoding="UTF-8"?>
<svg id="Layer_1" data-name="Layer 1" xmlns="http://www.w3.org/2000/svg" viewBox="0 0 32 32">
  <defs>
    <style>
      .cls-1 {
        fill: none;
        stroke: #fff;
        stroke-miterlimit: 10;
        stroke-width: .5px;
      }
    </style>
  </defs>
  <path class="cls-1" d="m28.38,31.11H3.6c-1.47-.34-2.38-1.24-2.71-2.71,0-8.26,0-16.52,0-24.77.04-.13.07-.27.11-.4.41-1.36,1.67-2.33,3.07-2.34,7.95,0,15.9,0,23.86,0,1.72,0,3.19,1.46,3.19,3.19,0,7.95,0,15.9,0,23.86,0,.34-.06.67-.17.98-.44,1.21-1.32,1.92-2.56,2.2Zm-3.36-15.09c0-1.94,0-3.87,0-5.81,0-.27,0-.55-.05-.82-.27-1.39-1.43-2.39-2.85-2.4-4.09-.02-8.18,0-12.27,0-.18,0-.35.02-.53.05-1.2.23-2.38,1.36-2.37,3.07.03,3.93,0,7.86.01,11.79,0,.25,0,.51.05.76.31,1.39,1.44,2.35,2.86,2.36,4.08.02,8.16,0,12.24,0,.18,0,.35-.02.53-.05,1.27-.25,2.4-1.42,2.38-3-.02-1.99,0-3.97,0-5.96Z"/>
  <path class="cls-1" d="m18.79,15.77c1.78.55,2.42,2.9,1.36,4.39-.69.97-2,1.29-3.12,1.33-1.46.06-2.93,0-4.39.01-.68,0-.84,0-.85-.71,0-.77,0-1.54,0-2.31,0-1.54,0-3.08,0-4.62,0-.72,0-1.43,0-2.15,0-.9.14-.87,1.01-.86,1.43,0,2.85-.02,4.28,0,1.22.02,2.56.46,2.96,1.74.41,1.32-.14,2.4-1.23,3.13,0,0,0,.02-.02.05Zm-3.13,4.13v-.02c1.21,0,2.77.25,3.06-1.31.22-1.18-.71-1.85-1.78-1.9-.75-.03-1.51,0-2.26,0-.92,0-.94.03-.94.96,0,.32,0,.64,0,.96,0,.26-.13.9.01,1.12.26.41,1.45.18,1.9.18Zm-.03-7.48c-.58,0-1.05.01-1.52,0-.57-.02-.35.92-.35,1.27,0,.34-.17,1.32.12,1.54.33.25,1.38.04,1.82.05.52,0,1.12.07,1.63-.1.78-.27,1.11-1.21.83-1.97-.37-1.04-1.67-.72-2.53-.78Z"/>
</svg>