<?xml version="1.0" encoding="UTF-8"?>
<svg id="Layer_1" data-name="Layer 1" xmlns="http://www.w3.org/2000/svg" viewBox="0 0 40 40">
  <defs>
    <style>
      .cls-1 {
        fill: #f28a1d;
        stroke: #fff;
        stroke-miterlimit: 10;
        stroke-width: .5px;
      }
    </style>
  </defs>
  <path class="cls-1" d="m39.13,1.9c0-.81-.22-1.03-1.04-1.03-12.06,0-24.12,0-36.18,0-.82,0-1.04.22-1.04,1.03,0,12.07,0,24.15,0,36.22,0,.78.23,1.01,1.02,1.01,6.04,0,12.07,0,18.11,0s12.05,0,18.07,0c.85,0,1.06-.21,1.06-1.05,0-12.06,0-24.12,0-36.18ZM2.88,2.39c9.25.01,18.49.01,27.74.01,2.2,0,4.4,0,6.6,0,.31,0,.39.08.38.38-.02,1.28-.02,2.56,0,3.85,0,.32-.1.38-.4.38-5.74,0-11.47,0-17.21,0s-11.45,0-17.17,0c-.36,0-.45-.1-.44-.45.02-1.22.02-2.43,0-3.65,0-.39.07-.51.49-.51Zm34.72,34.79c0,.33-.06.43-.42.43-11.46-.01-22.93-.01-34.39,0-.31,0-.41-.06-.41-.4,0-9.43.01-18.86,0-28.29,0-.36.11-.42.44-.42,5.73,0,11.45,0,17.18,0s11.45,0,17.18,0c.33,0,.43.07.43.42-.01,9.42-.01,18.83,0,28.25Z"/>
  <path class="cls-1" d="m13.87,17.06c0,.21-.19.4-.4.58-1.94,1.72-3.87,3.45-5.81,5.16-.25.22-.24.32,0,.53,1.92,1.68,3.82,3.38,5.73,5.08.08.07.16.13.23.21.31.32.33.77.05,1.08-.29.31-.73.34-1.08.04-.6-.51-1.18-1.04-1.78-1.57-1.65-1.46-3.29-2.92-4.94-4.39-.57-.51-.58-.92-.02-1.42,2.2-1.96,4.41-3.92,6.62-5.89.28-.25.58-.39.95-.22.3.14.44.38.44.81Z"/>
  <path class="cls-1" d="m26.13,29.18c0-.31.17-.5.38-.68,1.9-1.68,3.79-3.37,5.69-5.06.42-.37.42-.37,0-.75-1.89-1.68-3.77-3.36-5.66-5.03-.17-.16-.36-.31-.39-.56-.05-.34.05-.62.35-.8.33-.19.65-.15.93.1.7.62,1.4,1.24,2.09,1.86,1.53,1.36,3.06,2.72,4.59,4.08.6.54.6.94,0,1.48-2.2,1.95-4.4,3.9-6.59,5.86-.27.24-.56.38-.92.22-.3-.14-.45-.37-.45-.7Z"/>
  <path class="cls-1" d="m23.82,16.96c0,.16-.06.3-.13.44-2,4-4,8.01-6.01,12.01-.25.49-.66.66-1.07.46-.42-.21-.54-.65-.3-1.13,2-4,4-8.01,6.01-12.01.23-.46.56-.64.96-.53.33.09.55.41.54.76Z"/>
  <path class="cls-1" d="m29.95,4.7q0,.76-.75.76t-.79-.77.76-.77.78.78Z"/>
  <path class="cls-1" d="m35.28,5.46q-.75,0-.75-.73t.79-.81.75.74-.79.8Z"/>
  <path class="cls-1" d="m32.24,5.46q-.75,0-.75-.76t.78-.78.74.75v.04q0,.75-.77.75Z"/>
</svg>