<svg id="Group_35" data-name="Group 35" xmlns="http://www.w3.org/2000/svg" xmlns:xlink="http://www.w3.org/1999/xlink" width="15.671" height="15.671" viewBox="0 0 15.671 15.671">
  <defs>
    <clipPath id="clip-path">
      <rect id="Rectangle_16" data-name="Rectangle 16" width="15.671" height="15.671" fill="#fff" stroke="#fff" stroke-width="0.25"/>
    </clipPath>
  </defs>
  <g id="Group_35-2" data-name="Group 35" clip-path="url(#clip-path)">
    <path id="Path_251" data-name="Path 251" d="M14.944,8.555c-.019.046-.037.092-.057.137a.58.58,0,0,1-.625.342.6.6,0,0,1-.484-.569c-.007-.162,0-.325,0-.487q0-2.724,0-5.448a1.2,1.2,0,0,0-1.255-1.312H2.425a1.2,1.2,0,0,0-1.257,1.31q0,4.642,0,9.283a1.2,1.2,0,0,0,1.257,1.309q2.524,0,5.048,0a.6.6,0,0,1,.58.805.587.587,0,0,1-.571.411c-.589,0-1.177,0-1.766,0-1.119,0-2.237,0-3.356,0a2.356,2.356,0,0,1-2.314-1.96,2.46,2.46,0,0,1-.047-.5Q0,7.17,0,2.46A2.38,2.38,0,0,1,2.36,0Q7.474,0,12.589,0a2.357,2.357,0,0,1,2.328,2.084c0,.02,0,.04.027.046Z" transform="translate(0.34 0.226)" fill="#fff" stroke="#fff" stroke-width="0.25"/>
    <path id="Path_252" data-name="Path 252" d="M20.406,20.592a.609.609,0,1,1-.589.6.6.6,0,0,1,.589-.6" transform="translate(-17.228 -17.928)" fill="#fff" stroke="#fff" stroke-width="0.25"/>
    <path id="Path_253" data-name="Path 253" d="M40.982,21.809a.609.609,0,1,1,.584-.608.6.6,0,0,1-.584.608" transform="translate(-35.476 -17.929)" fill="#fff" stroke="#fff" stroke-width="0.25"/>
    <path id="Path_254" data-name="Path 254" d="M62.148,21.2a.584.584,0,1,1-.581-.611.6.6,0,0,1,.581.611" transform="translate(-53.723 -17.929)" fill="#fff" stroke="#fff" stroke-width="0.25"/>
    <path id="Path_255" data-name="Path 255" d="M82.14,20.592a.609.609,0,1,1-.577.615.6.6,0,0,1,.577-.615" transform="translate(-71.969 -17.928)" fill="#fff" stroke="#fff" stroke-width="0.25"/>
    <path id="Path_256" data-name="Path 256" d="M102.725,21.809a.609.609,0,1,1,.585-.606.6.6,0,0,1-.585.606" transform="translate(-90.216 -17.929)" fill="#fff" stroke="#fff" stroke-width="0.25"/>
    <path id="Path_257" data-name="Path 257" d="M20.984,90.925a.584.584,0,1,1-.58-.612.6.6,0,0,1,.58.612" transform="translate(-17.229 -79.4)" fill="#fff" stroke="#fff" stroke-width="0.25"/>
    <path id="Path_258" data-name="Path 258" d="M41.566,90.918a.584.584,0,1,1-.587-.6.6.6,0,0,1,.587.6" transform="translate(-35.475 -79.4)" fill="#fff" stroke="#fff" stroke-width="0.25"/>
    <path id="Path_259" data-name="Path 259" d="M61.569,91.53a.609.609,0,1,1,.579-.613.6.6,0,0,1-.579.613" transform="translate(-53.722 -79.4)" fill="#fff" stroke="#fff" stroke-width="0.25"/>
    <path id="Path_260" data-name="Path 260" d="M86.558,74.331q-1.533-.935-3.077-1.848a1.272,1.272,0,0,0-1.926,1.177c0,.609,0,1.217,0,1.826s0,1.217,0,1.826A1.274,1.274,0,0,0,83.5,78.489q1.529-.91,3.051-1.833a1.345,1.345,0,0,0,.007-2.324m-.63,1.294-2.974,1.786c-.173.1-.232.067-.232-.146q0-.89,0-1.779t0-1.779c0-.2.061-.237.228-.138l2.975,1.784c.172.1.173.17,0,.272" transform="translate(-71.962 -63.513)" fill="#fff" stroke="#fff" stroke-width="0.25"/>
  </g>
</svg>
