<?xml version="1.0" encoding="UTF-8"?>
<svg id="Layer_1" data-name="Layer 1" xmlns="http://www.w3.org/2000/svg" viewBox="0 0 32 32">
  <defs>
    <style>
      .cls-1 {
        fill: #fff;
      }
    </style>
  </defs>
  <path class="cls-1" d="m1.17,5.87c.12-.22.31-.33.53-.41,3.78-1.39,7.57-2.78,11.35-4.18.32-.12.6-.13.92,0,3.8,1.41,7.6,2.8,11.4,4.2.38.14.53.34.53.73,0,1.78,0,3.57,0,5.35,0,.41-.19.68-.51.75-.42.09-.79-.21-.79-.69,0-.92,0-1.83,0-2.75,0-.5-.01-1,0-1.5,0-.25-.05-.3-.29-.21-2.31.86-4.63,1.71-6.95,2.56-.97.36-1.93.72-2.91,1.07-.23.08-.31.19-.31.44.01,1.78,0,3.57,0,5.35,0,.43-.23.69-.59.71-.32.02-.56-.15-.66-.46-.05-.16-.05-.32-.05-.49,0-1.7,0-3.4,0-5.09,0-.28-.09-.4-.35-.5-3.24-1.19-6.48-2.38-9.72-3.58-.34-.13-.34-.12-.34.24,0,4.24,0,8.47,0,12.71,0,.28.09.4.35.5,2.95,1.08,5.9,2.17,8.85,3.25.14.05.27.1.4.16.35.16.5.5.36.83-.13.33-.47.49-.84.36-.57-.19-1.12-.41-1.69-.61-2.71-1-5.41-2-8.12-2.99-.24-.09-.45-.21-.61-.42V5.87Zm22.17.26c-.06-.04-.09-.06-.11-.07-3.14-1.16-6.28-2.31-9.42-3.47-.2-.07-.38-.07-.59,0-2.88,1.07-5.77,2.13-8.66,3.19-.28.1-.55.21-.87.33.11.05.16.07.21.09,3.07,1.13,6.15,2.26,9.22,3.41.29.11.53.09.8,0,1.8-.67,3.6-1.33,5.4-2,1.32-.49,2.64-.97,4-1.48Z"/>
  <path class="cls-1" d="m21.89,30.82c-.98-.15-1.93-.39-2.8-.87-2.6-1.43-4.09-3.61-4.34-6.58-.36-4.24,2.79-7.99,6.91-8.56,4.45-.62,8.56,2.52,9.11,7.01.54,4.36-2.57,8.39-6.92,8.95-.06,0-.11.03-.17.04h-1.79Zm7.63-8c.07-3.44-2.69-6.78-6.75-6.78-3.73,0-6.74,2.93-6.75,6.73-.01,4.06,3.33,6.79,6.73,6.78,3.75-.01,6.76-2.98,6.77-6.73Z"/>
  <path class="cls-1" d="m23.42,24.93c.12-.11.19-.17.25-.24.76-.76,1.53-1.53,2.29-2.29.33-.32.69-.34.97-.07.26.25.26.66-.04.96-1.2,1.21-2.41,2.42-3.62,3.62-.33.33-.68.31-1.02-.02-1.2-1.19-2.39-2.38-3.58-3.58-.32-.32-.34-.69-.06-.97.28-.28.65-.26.97.06.75.74,1.49,1.48,2.23,2.23.07.07.15.14.24.23.08-.12.05-.24.05-.35,0-1.71,0-3.41,0-5.12,0-.12,0-.25.02-.37.06-.36.36-.6.69-.57.35.04.59.29.59.67,0,1.43,0,2.85,0,4.28,0,.49,0,.98,0,1.55Z"/>
</svg>