<?xml version="1.0" encoding="UTF-8"?>
<svg id="Layer_1" data-name="Layer 1" xmlns="http://www.w3.org/2000/svg" viewBox="0 0 21 21">
  <defs>
    <style>
      .cls-1 {
        fill: #fff;
      }
    </style>
  </defs>
  <path class="cls-1" d="m20.98,4.76c-.14-.73-.74-1.19-1.53-1.19-5.09,0-10.17,0-15.26,0-.19,0-.24-.06-.26-.23-.09-.89-.19-1.78-.28-2.68-.05-.49-.32-.75-.8-.75-.69,0-1.38,0-2.08,0C.33-.08,0,.22,0,.63c0,.42.32.74.78.74.44,0,.88,0,1.32,0,.12,0,.17.03.18.16.15,1.49.31,2.98.46,4.47.25,2.39.51,4.77.76,7.16.13,1.28,1.01,2.09,2.29,2.09,1.86,0,3.73,0,5.59,0,1.88,0,3.76,0,5.63,0,1.1,0,1.96-.69,2.2-1.75.55-2.54,1.09-5.09,1.64-7.63.08-.36.19-.72.12-1.1Zm-1.48.5c-.57,2.62-1.13,5.24-1.69,7.86-.1.47-.35.67-.83.67-3.73,0-7.45,0-11.18,0-.51,0-.78-.23-.83-.74-.18-1.72-.36-3.43-.54-5.15-.1-.95-.2-1.9-.31-2.88h.25c4.97,0,9.95,0,14.92,0,.19,0,.25,0,.2.24Z"/>
  <path class="cls-1" d="m6.57,16.71c-1.2,0-2.19.98-2.19,2.19,0,1.2.98,2.19,2.19,2.19,1.2,0,2.19-.98,2.19-2.19,0-1.21-.98-2.19-2.19-2.19Zm.01,2.92c-.41,0-.75-.33-.74-.73,0-.4.33-.73.73-.73.4,0,.73.32.73.72,0,.4-.32.73-.71.74Z"/>
  <path class="cls-1" d="m15.33,16.71c-1.2,0-2.19.99-2.18,2.19,0,1.2.99,2.19,2.2,2.19,1.2,0,2.19-.99,2.18-2.2,0-1.2-.99-2.19-2.19-2.18Zm.02,2.92c-.41,0-.74-.33-.74-.73,0-.4.33-.73.73-.73.4,0,.73.33.73.72,0,.4-.32.73-.72.74Z"/>
</svg>