<?xml version="1.0" encoding="UTF-8"?>
<svg id="Layer_1" data-name="Layer 1" xmlns="http://www.w3.org/2000/svg" viewBox="0 0 40 40">
  <defs>
    <style>
      .cls-1 {
        fill: #f28a1d;
        stroke: #fff;
        stroke-miterlimit: 10;
        stroke-width: .9px;
      }
    </style>
  </defs>
  <path class="cls-1" d="m10.51,31.43c-2.33,0-4.83.26-7.14-.04-2.48-.32-2.59-2.47-2.6-4.48,0-1.11-.13-2.31,0-3.4.13-1.05,1.17-1.09,1.79-1.82,1.21-1.43,1.1-3.93-.21-5.26-.65-.66-1.42-.6-1.58-1.62-.17-1.06-.11-2.5.02-3.57.09-.76.44-1.47,1.06-1.94.7-.54,1.39-.41,1.73-1.3.6-1.61.83-4.13,2.88-4.53,1-.19,1.95.27,2.87.59,1.21.42,2.42.84,3.64,1.26,2.42.84,4.85,1.68,7.27,2.53,1.01.35,1.98.79,3.07.82,1.26.04,2.53,0,3.79,0,2.53,0,5.06,0,7.59,0,2.05,0,4.32.21,4.51,2.75.08,1.08.16,2.4,0,3.47-.14,1.01-1.18,1.06-1.78,1.77-1.16,1.37-1.11,3.71.02,5.07.52.62,1.49.73,1.73,1.53.31,1.04.03,2.57.03,3.66,0,.92.14,1.96-.25,2.82-.42.94-1.11,1.15-1.94,1.58-.89.47-1.04,2.01-1.35,2.93-.34,1-.82,1.92-1.91,2.25-1.06.32-2.09-.17-3.08-.51-1.36-.46-2.71-.92-4.07-1.39-2.71-.93-5.42-1.85-8.14-2.78-2.42-.83-5.43-.37-7.97-.37Zm13.07-1.87c4.19,0,8.38,0,12.58,0,.89,0,1.2-.32,1.2-1.21,0-1.36,0-2.72,0-4.08,0-.22-.03-.38-.24-.51-3.15-1.98-3.16-7.18-.01-9.18.15-.09.25-.19.25-.38,0-.93.01-1.85-.01-2.78-.02-.54-.38-.86-.93-.89-.19-.01-.38,0-.57,0-8.14,0-16.28,0-24.42,0-.3,0-.64-.11-.88.07-.23.17-.07.51-.11.78-.07.48-.45.82-.92.82-.47,0-.85-.35-.9-.83-.02-.13-.02-.27,0-.41.03-.33-.12-.43-.43-.42-1.5,0-2.99,0-4.49,0-.74,0-1.07.35-1.08,1.08,0,.82,0,1.63,0,2.45,0,.26.08.42.3.57,3.08,2.08,3.09,7,.03,9.08-.25.17-.34.35-.33.64.01,1.33,0,2.67,0,4,0,.91.31,1.22,1.23,1.22,1.31,0,2.61,0,3.92,0q.81,0,.85-.81c.04-.63.55-1.04,1.13-.91.44.1.69.48.7,1.06q0,.66.67.66c4.15,0,8.3,0,12.45,0Zm-6.78-20.93c-.1-.07-.12-.1-.15-.1-3.08-1.07-6.17-2.14-9.25-3.2-.64-.22-1-.04-1.23.61-.25.72-.48,1.45-.72,2.17-.18.54-.18.54.38.54,3.51,0,7.02,0,10.53,0,.12,0,.24-.01.43-.02Zm6.45,22.8c.11.08.13.1.15.11,3.07,1.05,6.15,2.11,9.22,3.15.56.19.93,0,1.13-.55.26-.74.5-1.5.75-2.24.15-.46.15-.47-.35-.47-3.5,0-6.99,0-10.49,0h-.41Z"/>
  <path class="cls-1" d="m28.52,15.93c.03.32-.2.56-.43.79-1.96,1.96-3.93,3.93-5.89,5.89-.7.7-1.4,1.41-2.11,2.11-.47.46-1.01.5-1.4.1-.39-.4-.36-.93.12-1.4,2.68-2.69,5.37-5.37,8.05-8.06.32-.32.66-.47,1.1-.3.37.14.56.41.56.86Z"/>
  <path class="cls-1" d="m19.32,13.04c2.52,0,3.81,3.1,2.03,4.87-1.77,1.76-4.89.5-4.89-2.03,0-1.56,1.29-2.84,2.86-2.85Zm.01,3.87c.59,0,1.04-.45,1.04-1.02,0-.88-1.14-1.33-1.77-.72-.66.64-.16,1.74.73,1.75Z"/>
  <path class="cls-1" d="m24.77,24.2c-.02-2.5,3.1-3.82,4.86-2.05,1.74,1.74.54,4.89-1.97,4.9-1.6,0-2.88-1.25-2.89-2.85Zm3.87,0c0-.6-.43-1.05-1-1.06-.89-.01-1.36,1.15-.74,1.78.63.63,1.73.15,1.74-.72Z"/>
  <path class="cls-1" d="m10.45,20.02c0,.71.11,1.84-.92,1.83-1.01-.01-.92-1.14-.92-1.85,0-.7-.09-1.85.92-1.86,1.04-.01.93,1.17.93,1.88,0,0,0,0,0,0Z"/>
  <path class="cls-1" d="m10.45,15.25c0,.71.12,1.88-.93,1.86-1.01-.01-.91-1.14-.91-1.85,0-.7-.1-1.85.92-1.85,1.03,0,.92,1.13.92,1.83Z"/>
  <path class="cls-1" d="m10.45,24.75c0,.71.1,1.83-.93,1.81-1.01-.01-.91-1.11-.91-1.82,0-.7-.1-1.87.92-1.87,1.04,0,.92,1.18.92,1.88Z"/>
</svg>