<?xml version="1.0" encoding="UTF-8"?>
<svg id="Layer_1" data-name="Layer 1" xmlns="http://www.w3.org/2000/svg" viewBox="0 0 21 21">
  <defs>
    <style>
      .cls-1 {
        fill: #c5c5c5;
      }
    </style>
  </defs>
  <path class="cls-1" d="m9.08,7.94c-.06-.16-.21-.25-.31-.37-.22-.25-.23-.44,0-.67,1.46-1.47,2.93-2.93,4.39-4.4.14-.15.31-.21.5-.14.19.08.22.25.22.44,0,.61,0,1.23,0,1.84,0,.21.07.28.27.31,1.35.24,2.65.62,3.83,1.33,1.68,1,2.69,2.46,2.96,4.41.16,1.21-.02,2.39-.37,3.55-.09.3-.2.59-.3.88-.05.14-.11.26-.25.33-.12.05-.09.16-.09.25,0,.62,0,1.24,0,1.87,0,.64-.46,1.1-1.11,1.1-5.91,0-11.81,0-17.72,0-.64,0-1.1-.47-1.1-1.11,0-2.83,0-5.65,0-8.48,0-.64.46-1.1,1.11-1.1,2.56,0,5.12,0,7.68,0,.09,0,.19.03.29-.03Zm.87,8.56c2.18,0,4.35,0,6.53,0,.17,0,.27-.04.34-.21.14-.35.4-.6.75-.75.14-.06.2-.14.2-.3,0-1.12,0-2.25,0-3.37,0-.15-.05-.25-.14-.36-.46-.5-.95-.95-1.53-1.31-.6-.37-1.24-.63-1.95-.66-.19,0-.26.04-.26.25.01.65,0,1.3,0,1.95,0,.17-.07.29-.22.36-.15.07-.29.04-.41-.06-.06-.05-.12-.11-.18-.17-.53-.53-1.07-1.07-1.6-1.6-.09-.1-.19-.15-.33-.15-2.58,0-5.17,0-7.75,0-.15,0-.23.05-.29.19-.15.37-.42.63-.78.78-.13.05-.18.12-.18.26,0,1.31,0,2.62,0,3.93,0,.14.06.2.19.26.34.14.61.37.74.72.08.2.19.24.38.24,2.16,0,4.32,0,6.48,0Zm3.19-12.84c-.11.01-.14.08-.19.13-.63.63-1.26,1.26-1.89,1.89-.32.32-1.59,1.26-1.42,1.68.12.31.66.67.91.91.29.28.57.57.86.85.31.31.63.63.94.94.12.12.58.74.78.71.17-.29.02-.93.02-1.27,0-.46.08-.6.53-.68.89-.16,1.84.16,2.6.6,1.68.99,2.75,2.58,3.64,4.26.93-2.29.05-5.13-1.94-6.51-1.06-.74-2.33-1.17-3.59-1.42-.35-.07-1.01-.02-1.2-.39-.21-.4-.04-1.28-.04-1.72Zm-2.62,5.7c-.12-.18-.29-.3-.41-.45-.12-.15-.27-.2-.46-.2-2.79,0-5.58,0-8.37,0-.42,0-.53.11-.53.52,0,2.72,0,5.45,0,8.17,0,.4.11.51.52.51,5.8,0,11.61,0,17.41,0,.4,0,.52-.12.52-.51,0-.99-.02-1.98,0-2.98.02-.67-.37-1.14-.69-1.66,0,.07,0,.14,0,.22,0,.91,0,1.82,0,2.73,0,.3-.1.42-.39.46-.39.06-.61.27-.67.66-.05.33-.15.41-.49.41-4.66,0-9.33,0-13.99,0-.34,0-.43-.08-.48-.41-.06-.38-.3-.61-.68-.65-.28-.03-.39-.15-.39-.44,0-1.61,0-3.23,0-4.84,0-.29.1-.4.38-.44.38-.05.61-.26.67-.63.07-.38.13-.43.53-.43,2.41,0,4.81,0,7.22,0,.09,0,.18.02.3-.04Z"/>
  <path class="cls-1" d="m9.98,16.18c-2.5,0-3.86-3.09-2.07-4.9,1.78-1.81,4.91-.45,4.92,2.03,0,1.66-1.19,2.87-2.84,2.87Zm-2.1-2.86c-.01,1.22.85,2.11,2.08,2.11,1.82,0,2.81-2.25,1.55-3.6-1.31-1.4-3.62-.34-3.63,1.49Z"/>
  <path class="cls-1" d="m4.99,12.24c.94,0,1.44,1.17.77,1.85-.67.67-1.85.18-1.85-.76,0-.61.47-1.08,1.08-1.08Zm-.33,1.06c-.02.16.13.34.3.36.92.11-.18-1.32-.3-.36Z"/>
  <path class="cls-1" d="m14.21,13.3c0-.94,1.21-1.41,1.86-.74.66.69.15,1.85-.79,1.84-.6,0-1.07-.49-1.06-1.1Zm1.42,0c0-.16-.19-.33-.34-.32-.94.05.37,1.23.34.32Z"/>
  <path class="cls-1" d="m9.62,14.31c.02-.14.09-.54.02-.68-.09-.17-.23-.16-.39-.26-.27-.17-.42-.39-.45-.72-.03-.35.1-.65.38-.85.12-.09.3-.1.41-.19.1-.08.03-.23.18-.29.28-.12.31.19.45.32.21.19.5.17.66.48.14.27.16.49-.14.56-.45.11-.3-.39-.63-.41,0,.15-.06.49.02.62.08.12.22.11.35.18.28.15.5.38.57.69.07.35-.07.71-.34.93-.14.12-.37.13-.5.25-.11.1-.04.26-.13.34-.07.07-.24.1-.33.05-.15-.08-.04-.22-.13-.31-.24-.26-.6-.22-.8-.57-.1-.17-.22-.55-.04-.71.21-.18.54,0,.57.22.02.16.07.28.27.35Zm.51.01c.22-.05.28-.19.27-.36-.01-.15-.07-.28-.27-.29-.03.22-.02.42,0,.65Zm-.5-2.08c-.18.09-.24.2-.22.35.02.11.07.2.22.21v-.57Z"/>
</svg>