<?xml version="1.0" encoding="UTF-8"?>
<svg id="Layer_1" data-name="Layer 1" xmlns="http://www.w3.org/2000/svg" viewBox="0 0 32 32">
  <defs>
    <style>
      .cls-1 {
        fill: #232323;
      }
    </style>
  </defs>
  <path class="cls-1" d="m14.07,12.64c-.2-.17-.36-.28-.5-.42-.38-.37-.38-.62,0-.99.7-.71,1.41-1.41,2.12-2.12,1.22-1.22,2.44-2.44,3.66-3.66.07-.07.14-.14.22-.21.18-.15.37-.19.58-.09.2.1.28.27.28.49,0,.86.01,1.72,0,2.58,0,.3.11.39.38.44,1.81.32,3.56.84,5.15,1.79,2.1,1.25,3.46,3.04,3.92,5.47.34,1.78.1,3.52-.41,5.23-.12.41-.28.81-.41,1.22-.06.18-.15.35-.34.44-.16.07-.12.21-.12.34,0,.83,0,1.66,0,2.49,0,.91-.61,1.52-1.52,1.52-7.95,0-15.9,0-23.84,0-.91,0-1.52-.61-1.52-1.52,0-3.79,0-7.59,0-11.38,0-.91.61-1.51,1.53-1.51,3.46,0,6.93,0,10.39,0,.12,0,.24.03.45-.07Zm1.06,11.58c2.94,0,5.87,0,8.81,0,.23,0,.36-.06.45-.28.19-.47.54-.81,1.02-1.01.2-.08.26-.19.26-.4,0-1.51,0-3.02,0-4.52,0-.21-.06-.36-.2-.51-.58-.64-1.21-1.22-1.94-1.68-.82-.52-1.69-.9-2.68-.96-.42-.03-.42-.02-.42.39,0,.86,0,1.72,0,2.58,0,.22-.09.39-.29.48-.2.1-.39.05-.56-.09-.08-.06-.15-.13-.22-.21-.73-.73-1.46-1.45-2.18-2.18-.14-.14-.28-.2-.47-.2-3.47,0-6.95,0-10.42,0-.2,0-.31.05-.38.25-.2.49-.56.85-1.05,1.05-.19.08-.24.19-.24.38,0,1.75,0,3.49,0,5.24,0,.2.06.3.25.38.47.19.83.53,1.02,1,.1.24.24.29.48.29,2.93,0,5.85,0,8.78,0Zm13.43-3.74c.05-.17.08-.26.1-.34.24-.92.34-1.86.31-2.82-.06-2.47-1.12-4.39-3.17-5.76-1.7-1.14-3.63-1.67-5.63-1.98-.64-.1-.75-.2-.75-.84,0-.61,0-1.23,0-1.85-.14.01-.18.1-.24.16-1.48,1.47-2.95,2.95-4.43,4.42-.2.2-.18.31,0,.5,1.47,1.46,2.94,2.93,4.41,4.4.07.06.11.17.25.17,0-.67,0-1.34,0-2.01,0-.4.11-.54.5-.62,1.21-.26,2.34.03,3.41.59,1.56.82,2.76,2.05,3.79,3.46.55.76,1.02,1.57,1.44,2.51Zm-12.59-5.92c-.25-.23-.48-.42-.69-.64-.14-.15-.3-.21-.5-.21-3.79,0-7.59,0-11.38,0-.54,0-.69.16-.69.7,0,3.67,0,7.35,0,11.02,0,.54.16.69.7.69,7.83,0,15.66,0,23.48,0,.54,0,.7-.16.7-.7,0-1.4,0-2.8,0-4.19,0-.82-.53-1.4-.92-2.05,0,.11,0,.22,0,.32,0,1.22,0,2.44,0,3.65,0,.41-.12.55-.53.61-.52.08-.81.37-.9.9-.07.41-.2.53-.61.53-6.32,0-12.64,0-18.96,0-.41,0-.55-.12-.61-.53-.08-.53-.37-.81-.9-.9-.41-.07-.53-.2-.53-.61,0-2.17,0-4.33,0-6.5,0-.41.12-.55.53-.61.5-.08.78-.34.88-.81.12-.58.18-.62.78-.62,3.25,0,6.49,0,9.74,0,.12,0,.24.03.43-.07Z"/>
  <path class="cls-1" d="m18.99,19.95c0,3.35-4.23,5.17-6.63,2.74-2.42-2.45-.56-6.62,2.81-6.61,2.23,0,3.83,1.63,3.83,3.88Zm-6.67-.03c0,1.67,1.14,2.86,2.8,2.86,2.48,0,3.81-3.08,2.04-4.89-1.75-1.79-4.9-.44-4.84,2.03Z"/>
  <path class="cls-1" d="m9.88,19.92c0,1.27-1.58,1.95-2.49,1.05-.91-.9-.25-2.49,1.02-2.5.83,0,1.46.62,1.47,1.45Zm-1.47.45c.22,0,.45-.21.45-.43.03-1.23-1.69.4-.45.43Z"/>
  <path class="cls-1" d="m23.78,19.94c0,1.27-1.61,1.92-2.5,1.01-.9-.92-.21-2.49,1.06-2.49.82,0,1.45.64,1.44,1.47Zm-1.45-.46c-.23,0-.44.21-.45.44-.01,1.24,1.68-.43.45-.44Z"/>
  <path class="cls-1" d="m14.69,20.73c0-.7-.36-.53-.79-.94-.34-.33-.47-.84-.31-1.29.2-.59.65-.55,1.04-.9.16-.15.04-.32.31-.37.3-.06.23.12.39.24.25.18,1.94,1.34.86,1.59-.54.12-.41-.41-.73-.5-.24-.07-.14.68-.03.81.28.36.8.33,1.05.79.24.44.19.99-.11,1.39-.28.37-.76.4-1.03.73-.15.18.07.32-.24.4-.27.07-.26-.09-.39-.23-.08-.09-.09-.23-.2-.33-.17-.17-.5-.18-.7-.38-.24-.24-.61-.96-.25-1.24.71-.54,1.14,1.59,1.14.25Zm.64.08s0,.08,0,.12c.04.15-.06.44.24.28.13-.07.17-.38.14-.5-.13-.49-.37-.28-.37.1Z"/>
</svg>