<?xml version="1.0" encoding="UTF-8"?>
<svg id="Layer_1" data-name="Layer 1" xmlns="http://www.w3.org/2000/svg" viewBox="0 0 40 30.3">
  <defs>
    <style>
      .cls-1 {
        fill: #f28a1d;
        stroke: #fff;
        stroke-miterlimit: 10;
        stroke-width: .55px;
      }
    </style>
  </defs>
  <path class="cls-1" d="m18.02,10.48c-.11-.3-.37-.45-.56-.66-.4-.44-.41-.79.02-1.22,2.64-2.65,5.29-5.3,7.93-7.95.26-.26.55-.39.9-.25.35.14.4.45.4.8-.01,1.11.01,2.22-.01,3.33,0,.37.12.5.48.57,2.44.42,4.78,1.12,6.92,2.4,3.03,1.81,4.86,4.44,5.34,7.96.3,2.18-.04,4.31-.67,6.4-.16.54-.36,1.06-.54,1.59-.08.24-.2.47-.45.59-.21.1-.17.28-.17.45,0,1.12,0,2.25,0,3.37,0,1.16-.83,1.99-2,1.99-10.67,0-21.33,0-32,0-1.16,0-1.99-.84-1.99-2,0-5.11,0-10.21,0-15.32,0-1.16.83-1.98,2.01-1.98,4.62,0,9.25,0,13.87,0,.17,0,.34.05.52-.06Zm1.57,15.46c3.93,0,7.86,0,11.79,0,.3,0,.49-.07.62-.37.26-.64.73-1.09,1.36-1.35.26-.11.36-.26.36-.54-.01-2.03,0-4.06,0-6.09,0-.26-.09-.46-.26-.64-.82-.9-1.72-1.72-2.76-2.36-1.08-.66-2.23-1.13-3.53-1.19-.34-.01-.47.08-.47.45.02,1.18,0,2.35,0,3.53,0,.3-.13.52-.39.65-.26.13-.52.08-.75-.11-.11-.09-.22-.2-.32-.3-.96-.96-1.93-1.92-2.89-2.89-.17-.17-.34-.26-.59-.26-4.66,0-9.33,0-13.99,0-.26,0-.41.09-.52.34-.27.66-.75,1.13-1.41,1.4-.23.1-.32.22-.32.48,0,2.37,0,4.73,0,7.1,0,.26.11.37.33.46.62.25,1.1.68,1.34,1.3.14.36.34.43.69.43,3.9-.01,7.8,0,11.7,0ZM25.36,2.76c-.19.03-.26.15-.35.24-1.14,1.14-2.28,2.28-3.41,3.41-.57.57-2.86,2.28-2.56,3.03.23.57,1.2,1.22,1.64,1.65.52.51,1.03,1.03,1.55,1.54.57.57,1.13,1.13,1.7,1.7.22.22,1.05,1.34,1.4,1.27.3-.52.03-1.69.04-2.3.02-.82.15-1.08.97-1.22,1.61-.28,3.31.28,4.69,1.09,3.04,1.79,4.96,4.65,6.57,7.69,1.68-4.13.09-9.26-3.51-11.76-1.92-1.33-4.21-2.11-6.48-2.56-.64-.13-1.83-.04-2.17-.7-.37-.72-.06-2.31-.06-3.1Zm-4.74,10.29c-.22-.33-.52-.54-.75-.81-.22-.27-.49-.35-.84-.35-5.04.01-10.08,0-15.12,0-.75,0-.96.21-.96.94,0,4.92,0,9.84,0,14.76,0,.72.21.92.93.92,10.48,0,20.96,0,31.44,0,.72,0,.93-.21.93-.93,0-1.79-.04-3.58.02-5.37.04-1.21-.68-2.05-1.24-3,0,.13,0,.26,0,.39,0,1.64,0,3.29,0,4.93,0,.55-.18.75-.7.83-.7.1-1.1.49-1.21,1.19-.1.59-.26.73-.88.73-8.42,0-16.84,0-25.26,0-.61,0-.78-.15-.87-.74-.1-.68-.54-1.1-1.22-1.18-.5-.06-.7-.27-.7-.79,0-2.91,0-5.83,0-8.74,0-.52.18-.72.69-.79.69-.1,1.09-.48,1.22-1.14.13-.69.24-.78.96-.78,4.34,0,8.69,0,13.03,0,.16,0,.32.03.54-.07Z"/>
  <path class="cls-1" d="m19.64,25.36c-4.51,0-6.97-5.57-3.74-8.85,3.21-3.26,8.87-.82,8.88,3.67,0,3-2.15,5.17-5.13,5.18Zm-3.8-5.17c-.02,2.2,1.53,3.82,3.75,3.82,3.29,0,5.07-4.06,2.8-6.5-2.36-2.53-6.54-.62-6.55,2.68Z"/>
  <path class="cls-1" d="m10.63,18.25c1.7,0,2.6,2.12,1.39,3.33-1.2,1.21-3.33.32-3.34-1.38,0-1.1.85-1.95,1.95-1.95Zm-.59,1.91c-.04.28.24.61.54.64,1.66.2-.32-2.38-.54-.64Z"/>
  <path class="cls-1" d="m27.29,20.17c0-1.7,2.18-2.55,3.35-1.33,1.2,1.24.27,3.33-1.43,3.32-1.08,0-1.93-.88-1.92-1.99Zm2.56.01c0-.28-.34-.59-.61-.58-1.7.08.66,2.23.61.58Z"/>
  <path class="cls-1" d="m18.99,21.98c.04-.25.17-.98.03-1.24-.16-.3-.42-.28-.7-.46-.49-.31-.76-.71-.81-1.29-.05-.62.18-1.17.69-1.53.22-.16.55-.18.74-.35.17-.15.06-.41.33-.52.5-.21.56.34.82.57.37.35.9.3,1.19.86.25.48.29.88-.25,1.01-.82.2-.54-.7-1.13-.73,0,.26-.11.89.03,1.11.14.22.4.2.63.32.5.26.91.68,1.02,1.25.12.63-.12,1.28-.61,1.69-.26.22-.67.24-.9.44-.19.17-.08.47-.23.62-.13.12-.43.19-.6.1-.28-.15-.08-.39-.23-.55-.43-.47-1.08-.4-1.44-1.04-.18-.31-.41-1-.08-1.28.38-.33.97,0,1.02.4.04.29.13.51.48.62Zm.92.02c.4-.09.51-.34.49-.65-.02-.28-.13-.5-.48-.52-.05.39-.04.76,0,1.18Zm-.9-3.76c-.32.15-.43.37-.39.64.03.2.12.37.39.39v-1.02Z"/>
</svg>