<?xml version="1.0" encoding="UTF-8"?>
<svg id="Layer_1" data-name="Layer 1" xmlns="http://www.w3.org/2000/svg" viewBox="0 0 32 32">
  <defs>
    <style>
      .cls-1 {
        fill: #232323;
      }
    </style>
  </defs>
  <path class="cls-1" d="m16.03,13.17c2.61,0,5.23,0,7.84,0,.57,0,.71.13.71.69,0,2.4,0,4.8,0,7.19,0,.55-.14.69-.68.69-3.3,0-6.59,0-9.89,0-.27,0-.45.05-.52.34-.04.16-.13.31-.24.44-.18.22-.07.27.14.3.93.14,1.85.28,2.77.43,1.37.22,2.75.42,4.12.66.94.16,1.52.99,1.44,1.97-.07.86-.84,1.55-1.77,1.55-2.39,0-4.78-.01-7.16,0-1.41,0-2.73-.31-3.99-.94-.86-.43-1.72-.85-2.57-1.28-.84-.43-1.73-.61-2.65-.62-.65-.01-1.3,0-1.95,0-.23,0-.31-.07-.31-.31.02-.81-.09-.69.66-.68.87,0,1.74-.06,2.6.05.75.09,1.46.33,2.14.67.84.42,1.68.83,2.51,1.26,1.11.58,2.29.85,3.53.86,2.34.02,4.68,0,7.02,0,.21,0,.42-.03.6-.14.26-.16.39-.47.34-.77-.07-.35-.3-.58-.68-.64-.64-.11-1.28-.2-1.93-.3-1.92-.3-3.84-.6-5.75-.9-.2-.03-.38-.1-.54-.21-1.29-.86-2.57-1.73-3.87-2.57-.22-.14-.24-.25-.09-.46.39-.56.38-.57.95-.19,1.01.67,2.02,1.34,3.03,2.02.22.15.32.12.46-.1.25-.39.47-.77.36-1.27-.07-.29-.2-.54-.43-.72-.98-.79-1.92-1.62-2.94-2.34-1.4-.99-2.94-1.08-4.49-.35-.85.4-1.7.78-2.65.89-.02,0-.04,0-.06.01-.71.11-.89-.08-.75-.8.02-.13.1-.16.2-.17.23-.02.45-.04.68-.07.65-.1,1.26-.31,1.84-.63,1-.54,2.06-.79,3.19-.7.2.02.26-.04.26-.24-.01-.67,0-1.34,0-2.01,0-.44.16-.61.61-.61,2.64,0,5.29,0,7.93,0Zm-4.87,4.78s0,.04-.01.06c.52.42,1.05.84,1.57,1.26.39.31.72.69.85,1.18.07.26.2.31.44.3,2.14,0,4.28,0,6.42,0,.25,0,.35-.06.42-.32.3-1.16,1.04-1.95,2.17-2.36.59-.21.59-.2.57-.84,0,0,0-.02,0-.03.01-.16-.05-.24-.22-.28-1.34-.34-2.2-1.19-2.54-2.53-.05-.18-.12-.24-.3-.24-3,0-6,0-9,0-.18,0-.26.06-.29.25-.08.39-.24.75-.45,1.08-.3.46-.7.83-1.18,1.1-.06.03-.23.08-.08.17.43.28.81.61,1.23.93.07-.16.05-.3.04-.43-.02-.24.09-.31.31-.3.32.01.63,0,.95,0,.78.01.66-.13.68.69,0,.25-.1.3-.32.3-.42-.01-.84,0-1.26,0Zm11.51,2.8c.19,0,.72.1.87-.05.14-.13.05-.53.05-.71,0-.52.23-1.13-.43-.89-.47.17-.87.58-1.11,1.01-.38.68-.06.64.62.64Zm-14.19-5.69c0,.67-.08,1.04.64.64.42-.23.85-.64,1.01-1.11.22-.65-.35-.43-.87-.43-.79,0-.77.06-.77.89Zm15.11,0c0-.82.05-.9-.76-.9-.52,0-1.11-.23-.88.42.17.47.59.88,1.02,1.12.68.37.62-.02.62-.64Z"/>
  <path class="cls-1" d="m28.8,17.94c-.43,0-.87,0-1.3,0-.42,0-.58-.15-.59-.56-.07-1.85-.65-3.5-1.88-4.89-1.36-1.53-3.05-2.39-5.1-2.55-.72-.06-1.44-.02-2.16-.05-.22,0-.3.07-.29.29.01.21,0,.41,0,.62-.02.39-.32.6-.7.47-.07-.03-.15-.06-.22-.1-1.77-.89-3.55-1.77-5.32-2.66-.18-.09-.35-.18-.42-.39-.08-.27.03-.49.36-.66,1.02-.51,2.05-1.02,3.07-1.54.78-.39,1.56-.76,2.32-1.17.46-.25.94-.07.9.57-.04.73,0,.74.72.73,1.4-.02,2.8-.02,4.16.4,4.21,1.29,6.9,4.06,8.06,8.3.23.85.33,1.72.32,2.6,0,.41-.17.58-.57.58-.45,0-.91,0-1.36,0Zm-.03-1.01s0,.01,0,.02c.24,0,.47,0,.71,0,.15,0,.22-.06.21-.21-.02-.2-.03-.39-.05-.59-.41-3.08-1.91-5.5-4.44-7.27-1.79-1.26-3.81-1.81-5.99-1.83-.73,0-1.46,0-2.19,0-.35,0-.52-.18-.54-.53,0-.08,0-.16,0-.24,0-.32-.01-.33-.29-.19-1.16.58-2.31,1.15-3.47,1.73-.07.04-.2.05-.19.16.01.09.13.11.21.15,1.14.57,2.28,1.14,3.41,1.71.31.16.32.16.32-.2,0-.04,0-.08,0-.12,0-.47.16-.62.62-.62.69,0,1.38,0,2.07,0,.62,0,1.24.03,1.85.16,3.58.76,6.2,3.51,6.79,7.12.04.25-.05.61.18.73.2.11.52.02.78.02Z"/>
  <path class="cls-1" d="m16.03,19.84c-2.08,0-3.18-2.6-1.7-4.09,1.48-1.48,4.09-.38,4.09,1.7,0,1.34-1.05,2.38-2.38,2.38Zm1.39-2.38c0-.75-.65-1.4-1.4-1.4-1.2,0-1.83,1.5-.99,2.35.85.87,2.38.28,2.39-.95Z"/>
  <path class="cls-1" d="m20.29,17.94c-.55,0-1.26.09-.97-.74.12-.35.32-.25.7-.25.55,0,1.53-.19,1.23.71-.14.44-.5.28-.97.28h0Z"/>
</svg>