<?xml version="1.0" encoding="UTF-8"?>
<svg id="Layer_1" data-name="Layer 1" xmlns="http://www.w3.org/2000/svg" viewBox="0 0 50 50">
  <path d="m2.98,25.62c-.04-12.17,9.98-22.09,22.15-22.05,12.04.03,22.02,9.94,22.01,22.12-.02,12.15-10,22.19-22.35,22.05-12.02-.14-21.88-10.01-21.81-22.11ZM25.07,6.59c-10.58.1-19.02,8.39-19.06,19-.04,10.58,8.33,19.07,18.97,19.11,10.59.04,19.12-8.38,19.11-19.07,0-10.58-8.42-18.91-19.02-19.04Z"/>
  <path d="m26.55,22.75c0,2.43,0,4.86,0,7.3,0,.72-.4,1.26-1.04,1.46-.63.2-1.31-.04-1.7-.59-.19-.27-.26-.58-.26-.91,0-4.86,0-9.73,0-14.59,0-.92.63-1.55,1.52-1.54.85,0,1.48.64,1.48,1.53,0,2.45,0,4.9,0,7.34Z"/>
  <path d="m25.05,34.44c1.3,0,2,1.64,1.06,2.56-.93.91-2.56.25-2.56-1.06,0-.87.64-1.5,1.5-1.5Z"/>
</svg>