<?xml version="1.0" encoding="UTF-8"?>
<svg id="Layer_1" data-name="Layer 1" xmlns="http://www.w3.org/2000/svg" viewBox="0 0 32 32">
  <defs>
    <style>
      .cls-1 {
        fill: #fff;
      }
    </style>
  </defs>
  <path class="cls-1" d="m31.24,24.87c-.22.38-.56.52-1,.5-.81-.02-1.63.02-2.44-.01-1.89-.08-3.68.33-5.45.98-4.32,1.6-8.67,3.13-13,4.69-.58.21-.96.04-1.17-.55-1.14-3.15-2.27-6.3-3.4-9.45-.13-.36-.04-.62.24-.72.28-.11.53.05.66.41,1.08,3.01,2.17,6.02,3.24,9.04.1.28.19.35.48.24,2.98-1.08,5.96-2.15,8.95-3.23.05-.02.11-.04.15-.09-1.53.26-3.06.52-4.59.79-1.08.19-2.17.38-3.25.56-.56.09-.92-.18-1.02-.77-.25-1.41-.48-2.83-.73-4.24-.47-2.72-.93-5.45-1.4-8.17-.36-2.11-.73-4.21-1.08-6.32-.05-.28-.15-.28-.37-.21-1.34.47-2.68.93-4.02,1.38-.24.08-.27.18-.19.4,1.01,2.78,2,5.56,3,8.33.04.1.08.21.1.31.04.26-.05.46-.31.54-.24.07-.46,0-.57-.25-.13-.29-.23-.59-.33-.89-.96-2.67-1.92-5.33-2.87-8-.23-.65-.07-1.02.59-1.25,1.49-.52,2.98-1.03,4.47-1.53.25-.08.3-.2.25-.43-.08-.36-.13-.72-.19-1.08-.08-.51.15-.88.67-.98,1.15-.21,2.3-.4,3.45-.6.42-.07.84-.16,1.26-.21.23-.03.3-.13.29-.35-.01-.62,0-1.25,0-1.87,0-.64.31-.95.95-.95,4.69,0,9.38,0,14.07,0,.3,0,.53.09.75.3,1.17,1.13,2.35,2.24,3.53,3.37.11.1.19.22.29.34v19.98Zm-10.91.52s0-.02,0-.02h-.28c-2.48,0-4.96,0-7.43,0-.66,0-.96-.3-.96-.97,0-2.82,0-5.63,0-8.45,0-.08,0-.16,0-.24.04-.26.19-.42.45-.43.25-.01.42.13.47.37.03.14.04.29.04.44,0,2.66,0,5.31,0,7.97,0,.25.05.37.34.37,5.68,0,11.36,0,17.04,0,.24,0,.33-.07.33-.32,0-6.04,0-12.07,0-18.11,0-.26-.07-.35-.34-.34-.8.01-1.61,0-2.41,0-.19,0-.38-.02-.56-.05-.52-.1-.81-.42-.87-.95-.08-.78-.02-1.56-.04-2.35,0-.45,0-.45-.44-.45-4.2,0-8.41,0-12.61,0q-.45,0-.45.46c0,3.68,0,7.36,0,11.03,0,.54-.17.81-.5.8-.33,0-.47-.24-.47-.78,0-2.67,0-5.33,0-8,0-.41,0-.4-.42-.33-1.33.23-2.65.47-3.98.68-.26.04-.31.14-.26.37.17.96.33,1.93.5,2.9.49,2.83.97,5.66,1.46,8.49.53,3.1,1.07,6.21,1.59,9.31.04.23.12.26.34.22,1.8-.32,3.61-.62,5.42-.93,1.35-.23,2.69-.46,4.04-.7ZM29.59,4.69s.03-.05.04-.07c-.83-.79-1.65-1.57-2.48-2.36-.04.44-.32,2.03,0,2.36.3.32,1.99.07,2.45.07Z"/>
  <path class="cls-1" d="m21.57,8.35c-1.34,0-2.67,0-4.01,0-.54,0-2.73.36-2.85-.42-.14-.93,2.47-.55,3.01-.55,1.33,0,2.65,0,3.98,0,1.33,0,2.65,0,3.98,0,.52,0,2.69-.36,2.71.48.02.85-2.16.5-2.65.5-1.39,0-2.78,0-4.17,0Z"/>
  <path class="cls-1" d="m21.55,21.02c-2.04,0-4.08,0-6.12,0-.48,0-.72-.16-.73-.47,0-.33.25-.51.73-.51,4.08,0,8.16,0,12.24,0,.48,0,.72.15.73.47,0,.33-.23.5-.72.5-2.04,0-4.08,0-6.12,0Z"/>
  <path class="cls-1" d="m21.52,11.51c-2.03,0-4.06,0-6.09,0-.49,0-.72-.15-.74-.46-.01-.32.25-.51.73-.51,4.08,0,8.16,0,12.24,0,.49,0,.74.17.73.5,0,.32-.24.47-.72.47-2.05,0-4.1,0-6.15,0Z"/>
  <path class="cls-1" d="m21.55,17.86c-1.34,0-2.67,0-4.01,0-.54,0-2.75.36-2.83-.45-.09-.89,2.5-.52,3.03-.52,1.32,0,2.65,0,3.97,0s2.65,0,3.97,0c.52,0,2.68-.36,2.71.47.03.86-2.16.51-2.66.51-1.4,0-2.79,0-4.19,0Z"/>
  <path class="cls-1" d="m21.54,14.66c-1.29,0-2.58,0-3.87,0-.55,0-2.7.35-2.94-.3-.37-.99,2.12-.63,2.56-.63,1.36,0,2.73,0,4.09,0s2.62,0,3.92,0c.58,0,2.96-.36,3.08.4.14.9-2.31.54-2.79.54-1.35,0-2.7,0-4.05,0Z"/>
</svg>