<?xml version="1.0" encoding="UTF-8"?>
<svg id="Layer_1" data-name="Layer 1" xmlns="http://www.w3.org/2000/svg" viewBox="0 0 21 21">
  <defs>
    <style>
      .cls-1 {
        fill: #c5c5c5;
        stroke: #c5c5c5;
        stroke-miterlimit: 10;
        stroke-width: .2px;
      }
    </style>
  </defs>
  <path class="cls-1" d="m20.75,17.25c-.16.56-.46,1-.99,1.27-1.03.51-2.29-.05-2.57-1.17-.05-.2-.13-.25-.32-.24-1.91,0-3.83,0-5.74,0-.37,0-.39-.03-.39-.4,0-4.15,0-8.3,0-12.44,0-.36.03-.39.39-.39,2.55,0,5.11,0,7.66,0,.35,0,.38.03.38.39,0,3.61,0,7.23,0,10.84,0,.36,0,.36-.36.42-.71.11-1.12.53-1.22,1.23-.1.67.44,1.37,1.11,1.49.79.14,1.59-.41,1.64-1.31,0-.17-.02-.33-.08-.49-.01-.04-.02-.1-.08-.11-.06,0-.07.05-.1.09-.28.42-.56.85-.84,1.27-.04.06-.07.11-.12.16-.11.12-.26.12-.36-.01-.26-.37-.52-.75-.77-1.12-.11-.16.07-.18.14-.25.07-.06.15-.12.23,0,.14.22.29.43.44.64.13.19.14.19.27,0,.39-.59.78-1.18,1.17-1.77.12-.18.34-.17.45.02.05.08-.01.15-.06.2-.17.18-.17.36-.04.57.08.11.1.26.15.39v.72Zm-9.59-6.77c0,1.98,0,3.96,0,5.94,0,.2.05.26.26.26,1.83,0,3.65,0,5.48,0,.18,0,.25-.05.3-.23.18-.69.63-1.14,1.31-1.32.19-.05.24-.12.24-.31,0-3.42,0-6.84,0-10.26q0-.26-.27-.26c-2.35,0-4.69,0-7.04,0q-.27,0-.27.28c0,1.97,0,3.93,0,5.9Z"/>
  <path class="cls-1" d="m11.39.25c.58.08,1.16.16,1.73.31,1.25.33,2.39.88,3.43,1.63.12.09.19.15.07.3-.1.12-.16.19-.33.07-1.35-1-2.87-1.61-4.54-1.81-2.5-.29-4.81.26-6.88,1.7-.04.03-.09.06-.13.09-.16.15-.22.02-.31-.09-.1-.12-.08-.19.04-.27,1.34-.96,2.81-1.59,4.45-1.84.24-.04.47-.07.71-.1.59,0,1.17,0,1.76,0Z"/>
  <path class="cls-1" d="m.25,10.49c0-2.07,0-4.15,0-6.22,0-.36.03-.39.39-.39,2.55,0,5.1,0,7.64,0,.37,0,.4.03.4.39,0,3.51,0,7.02,0,10.53,0,.21.05.29.27.35.88.22,1.44,1.08,1.33,2-.1.86-.88,1.56-1.75,1.57-.95,0-1.72-.63-1.86-1.54-.14-.92.44-1.81,1.36-2.03.19-.05.24-.13.24-.31,0-3.42,0-6.84,0-10.27,0-.2-.05-.26-.26-.26-2.36,0-4.72,0-7.08,0-.2,0-.25.06-.25.25,0,3.96,0,7.92,0,11.89,0,.21.07.25.27.25,1.63,0,3.27,0,4.9,0,.2,0,.25.07.24.25,0,.14-.07.18-.2.18-1.79,0-3.58,0-5.36,0-.23,0-.28-.07-.28-.34,0-2.09,0-4.19,0-6.28Zm8.22,7.79c.75,0,1.38-.64,1.38-1.38,0-1.23-1.53-1.81-2.37-.95-.83.84-.2,2.35.99,2.34Z"/>
  <path class="cls-1" d="m10.5,20.75c-2.19,0-4.18-.64-5.97-1.91-.21-.15-.21-.28,0-.44.1-.08.15,0,.21.05.55.39,1.13.74,1.74,1.01,1.12.5,2.29.78,3.52.84,2.32.11,4.43-.52,6.31-1.88.15-.11.21-.04.3.07.09.11.11.19-.03.29-1.42,1.03-3,1.67-4.74,1.9-.44.06-.89.09-1.34.08Z"/>
  <path class="cls-1" d="m2.28,6.88c.71,0,1.07.91.56,1.4-.52.5-1.39.11-1.38-.6,0-.45.37-.8.83-.8Zm-.02,1.19c.19,0,.37-.17.38-.37.01-.33-.4-.49-.63-.28-.23.22-.08.64.25.64Z"/>
  <path class="cls-1" d="m3.08,10.49c0,.71-.89,1.08-1.39.57-.5-.51-.13-1.39.59-1.39.45,0,.81.36.81.82Zm-.44,0c0-.19-.19-.37-.38-.37-.33,0-.48.42-.26.64.23.22.64.05.63-.27Z"/>
  <path class="cls-1" d="m2.26,14.11c-.71,0-1.08-.89-.57-1.39.51-.5,1.39-.13,1.39.59,0,.45-.36.81-.82.81Zm0-.44c.19,0,.37-.17.38-.37.01-.33-.4-.49-.63-.28-.23.22-.08.64.25.64Z"/>
  <path class="cls-1" d="m5.48,7.48c.31,0,1.8-.2,1.81.21,0,.43-1.51.22-1.82.22-.3,0-1.81.2-1.82-.21,0-.42,1.53-.22,1.83-.22Z"/>
  <path class="cls-1" d="m5.47,10.71c-.31,0-1.83.2-1.82-.21,0-.42,1.51-.21,1.82-.21.3,0,1.83-.2,1.82.21,0,.42-1.51.21-1.82.21Z"/>
  <path class="cls-1" d="m5.46,13.08c.31,0,1.83-.2,1.82.21,0,.42-1.51.21-1.82.21-.3,0-1.83.2-1.82-.21,0-.42,1.51-.21,1.82-.21Z"/>
  <path class="cls-1" d="m4.46,5.58c-.3,0-1.7.2-1.7-.21,0-.42,1.39-.21,1.7-.21.3,0,1.7-.2,1.7.21,0,.41-1.4.21-1.7.21Z"/>
  <path class="cls-1" d="m12.77,8.5c-.71,0-1.1-.86-.6-1.38.49-.51,1.39-.16,1.4.56,0,.46-.34.82-.8.83Zm-.02-1.19c-.19,0-.37.18-.38.37,0,.33.41.49.63.27.23-.22.07-.64-.26-.64Z"/>
  <path class="cls-1" d="m12.76,9.68c.71,0,1.07.9.56,1.4-.52.5-1.39.12-1.38-.6,0-.45.36-.8.82-.8Zm-.01.44c-.19,0-.37.18-.37.37,0,.33.41.49.64.26.23-.23.06-.64-.26-.64Z"/>
  <path class="cls-1" d="m12.75,12.48c.71,0,1.08.89.57,1.39-.51.5-1.39.13-1.39-.59,0-.45.36-.81.82-.81Zm.37.82c0-.19-.17-.37-.37-.38-.33-.01-.49.41-.27.63.22.23.64.07.64-.25Z"/>
  <path class="cls-1" d="m15.96,7.48c.29,0,1.7-.17,1.8.12.18.51-1.53.3-1.81.3-.32,0-1.75.19-1.81-.17-.08-.45,1.51-.25,1.83-.25Z"/>
  <path class="cls-1" d="m15.95,10.71c-.31,0-1.83.2-1.82-.21,0-.42,1.51-.21,1.82-.21.3,0,1.83-.2,1.82.21,0,.42-1.51.21-1.82.21Z"/>
  <path class="cls-1" d="m15.93,13.51c-.31,0-1.81.2-1.8-.21.01-.42,1.51-.21,1.82-.21.3,0,1.83-.2,1.82.21-.01.42-1.53.21-1.84.21Z"/>
  <path class="cls-1" d="m14.97,5.15c.3,0,1.68-.2,1.68.21,0,.42-1.39.21-1.7.21-.3,0-1.7.2-1.7-.21,0-.41,1.42-.21,1.72-.21Z"/>
  <path class="cls-1" d="m9.21,16.43c-.12.26-.41.29-.33.56.04.12.58.54.09.62-.22.03-.31-.33-.54-.31-.23.02-.39.54-.62.16-.17-.29.24-.28.28-.53.05-.31-.46-.31-.28-.62.22-.37.35.07.52.15.26.12.5-.39.63-.3.1.07.18.15.24.25Z"/>
</svg>