<?xml version="1.0" encoding="UTF-8"?>
<svg id="Layer_1" data-name="Layer 1" xmlns="http://www.w3.org/2000/svg" viewBox="0 0 32 32">
  <defs>
    <style>
      .cls-1 {
        fill: #fff;
      }
    </style>
  </defs>
  <path class="cls-1" d="m24.23.25c.31.16.43.43.43.76,0,.73,0,1.46,0,2.18,0,.08-.02.16-.03.24-.07.34-.35.55-.69.52-.32-.02-.57-.27-.58-.61-.01-.51-.02-1.02,0-1.54,0-.25-.08-.31-.32-.31-7.05,0-14.1,0-21.15,0-.35,0-.35.17-.35.42,0,5.4,0,10.8,0,16.2,0,3.98,0,7.95,0,11.93q0,.44.44.44c4.55,0,9.1,0,13.65,0,.44,0,.43,0,.47-.44.13-1.25.27-2.5.41-3.75.02-.17.08-.32.16-.46,2.16-3.74,4.32-7.49,6.49-11.23.13-.23.2-.46.2-.72,0-1.61,0-3.22,0-4.83,0-.11,0-.23.02-.34.06-.28.3-.48.59-.49.31-.01.57.17.65.46.04.16.05.32.05.49,0,.78,0,1.56,0,2.34,0,.11-.03.22.06.37.18-.32.36-.61.53-.91.54-.94,1.08-1.89,1.63-2.82.58-.97,1.65-1.46,2.73-1.26,1.08.2,1.9,1.03,2.1,2.14.12.68-.05,1.3-.39,1.88-.77,1.33-1.54,2.66-2.31,3.99-1.4,2.43-2.81,4.86-4.22,7.29-.11.2-.14.4-.14.62,0,2.63,0,5.27,0,7.9,0,.15,0,.31-.03.46-.06.37-.28.56-.64.58-.07,0-.14,0-.22,0-7.56,0-15.12,0-22.69,0-.36,0-.64-.08-.84-.4,0-10.28,0-20.57,0-30.85,0-.22.04-.27.26-.27,7.91,0,15.82,0,23.72,0Zm-3.97,27.06c.14,0,.16-.12.21-.2.37-.63.73-1.26,1.09-1.89,2.52-4.36,5.04-8.73,7.56-13.09.13-.23.12-.35-.12-.48-.57-.31-1.13-.62-1.68-.97-.27-.17-.37-.09-.51.15-.6,1.06-1.21,2.11-1.82,3.17-2.27,3.93-4.53,7.86-6.81,11.78-.12.2-.1.29.11.4.6.33,1.19.68,1.78,1.02.06.04.13.06.19.09Zm3.09-2.46s-.04-.01-.06-.02c-.67,1.15-1.33,2.3-1.99,3.45-.16.27-.34.5-.6.68-.61.43-1.21.88-1.81,1.32-.06.04-.15.07-.16.2,1.48,0,2.96,0,4.44,0,.16,0,.18-.11.18-.23,0-1.8,0-3.6,0-5.4Zm7.09-15.34c0-.92-.79-1.52-1.63-1.31-.41.1-.81.47-.96.87-.19.48.11.49.54.74.29.17,1.13.86,1.46.82.35-.04.63-.77.6-1.12Zm-12.96,19.86c.02.07-.05.19.03.24.16.1,1.04-.69,1.19-.8.66-.48.68-.49-.03-.9-.3-.17-.79-.67-1.01-.32-.22.36-.14,1.36-.19,1.78Z"/>
  <path class="cls-1" d="m12.42,6.74c2.04,0,4.08,0,6.12,0,.47,0,.74.24.74.63,0,.33-.23.59-.55.63-.1.01-.2,0-.31,0-3.99,0-7.97,0-11.96,0-.59,0-.89-.22-.88-.65,0-.42.29-.62.88-.62,1.99,0,3.98,0,5.96,0Z"/>
  <path class="cls-1" d="m12.42,10.19c2.04,0,4.08,0,6.12,0,.47,0,.74.24.74.63,0,.33-.23.59-.55.63-.11.01-.23,0-.34,0-3.98,0-7.95,0-11.93,0-.59,0-.89-.22-.88-.65,0-.42.29-.62.88-.62,1.99,0,3.98,0,5.96,0Z"/>
  <path class="cls-1" d="m12.44,17.08c1.36,0,2.72,0,4.08,0,.63,0,2.6-.39,2.75.53.19,1.13-2,.74-2.59.74-1.36,0-2.72,0-4.08,0-1.3,0-2.61,0-3.91,0-.67,0-2.82.39-3.08-.45-.38-1.24,2.24-.83,2.85-.83,1.33,0,2.65,0,3.98,0Z"/>
  <path class="cls-1" d="m8.92,23.96c.66,0,3.35-.45,3.35.64,0,.63-.61.63-1.07.63-.76.02-1.52,0-2.29,0-.76,0-1.52.01-2.29,0-.45,0-1.04-.02-1.05-.62-.03-1.1,2.7-.65,3.34-.65Z"/>
  <path class="cls-1" d="m16.37,13.63c.64,0,2.92-.41,2.91.64,0,1.06-2.3.63-2.93.63-.66,0-2.92.44-2.91-.65,0-1.04,2.3-.63,2.92-.63Z"/>
  <path class="cls-1" d="m8.28,14.9c-.61,0-2.72.4-2.69-.65.02-1.01,2.07-.62,2.69-.62.62,0,2.71-.4,2.69.65-.02,1.02-2.09.62-2.69.62Z"/>
  <path class="cls-1" d="m14.05,21.79c-.59,0-2.67.35-2.53-.71.12-.94,2.1-.56,2.72-.56.58,0,2.4-.35,2.4.64,0,1.01-1.98.63-2.58.63Z"/>
  <path class="cls-1" d="m7.8,21.79c-.59,0-2.2.31-2.22-.62-.02-.94,1.49-.65,2.06-.65.6,0,2.23-.33,2.38.52.19,1.06-1.64.75-2.21.75Z"/>
  <path class="cls-1" d="m24.63,6.09c0,.57-.7.84-1.09.44-.38-.39-.11-1.07.44-1.07.37,0,.65.27.65.63Z"/>
</svg>