<?xml version="1.0" encoding="UTF-8"?>
<svg id="Layer_1" data-name="Layer 1" xmlns="http://www.w3.org/2000/svg" viewBox="0 0 32 32">
  <defs>
    <style>
      .cls-1 {
        fill: #232323;
      }
    </style>
  </defs>
  <path class="cls-1" d="m31.78,24.03c-.47,1.22-1.69,1.05-2.77,1.04-.58,0-3.18.41-3.17-.5,0-.88,2.5-.49,3.07-.49.42,0,1.38.18,1.74-.09.38-.29.19-1.22.19-1.64,0-.7,0-1.4,0-2.1,0-.8.01-.85-.69-1.12-.92-.35-1.65-1.06-1.97-2-.33-.98-.2-2.11.38-2.97.28-.41.66-.76,1.09-1,.33-.18.95-.23,1.15-.57.23-.39.03-1.34.03-1.78,0-.73.08-1.51,0-2.23-.05-.4-.11-.51-.5-.59-.67-.15-1.54,0-2.24,0-3.07,0-6.13,0-9.2,0-3.01,0-6.02,0-9.03,0-.57,0-3.34.4-3.4-.47-.06-.92,2.75-.53,3.28-.53,1.63,0,3.31.12,4.93,0,1.5-.12,3.12-.87,4.56-1.3.8-.24,1.59-.48,2.39-.72.39-.12,1.44-.24,1.07.53-.23.47-1.25.55-1.71.69-.83.25-1.65.49-2.46.79,3.08.17,6.21.01,9.29.01.4,0,.95.16,1.02-.23.09-.45-.42-1.42-.55-1.85-.15-.46-.2-.74-.72-.7-.67.05-1.43.42-2.08.61-.4.12-1.31.61-1.71.35-.63-.4,0-.84.4-.98.7-.24,1.43-.44,2.14-.65.56-.17,1.21-.47,1.8-.31,1.19.32,1.33,2.19,1.64,3.17.23.72.43.45,1.07.67.46.16.76.51.94.96v5.38c-.12.2-.32.28-.54.3-.16.02-.33.02-.48.06-1.12.28-1.87,1.34-1.77,2.49.1,1.1,1,1.99,2.13,2.09.26.02.51.06.66.31v5.38Z"/>
  <path class="cls-1" d="m10.89,21.59c-.95,0-1.89,0-2.84,0-.99,0-1.58-.59-1.58-1.58,0-1.15,0-2.3,0-3.45,0-.2-.04-.33-.26-.41-.44-.18-.65-.54-.66-1.01-.01-.4,0-.79,0-1.19.01-.61.38-1.04.99-1.12.2-.03.23-.12.23-.28-.02-.5.05-.99.24-1.47.5-1.29,1.88-1.58,2.8-.56.3.34.6.48,1.02.42.08-.01.16,0,.24,0,.37.04.63-.07.89-.37.93-1.07,2.27-.83,2.83.48.2.45.27.94.26,1.43,0,.21.02.33.28.36.53.06.9.5.93,1.05.02.43.02.86,0,1.28-.02.45-.24.81-.67.98-.22.09-.25.22-.25.42,0,1.12,0,2.24,0,3.36,0,1.1-.56,1.66-1.65,1.66-.94,0-1.87,0-2.81,0Zm.48-3.16c0,.41-.22,1.66.02,2.02.23.34,1.16.14,1.52.14.46,0,1.18.18,1.41-.32.2-.44.02-1.29.02-1.78,0-.42.21-1.67,0-2-.25-.39-1.17-.21-1.63-.21-.35,0-1.14-.18-1.33.17-.2.39-.01,1.55-.01,1.99Zm-1,0c0-.41.22-1.68-.02-2.04-.21-.31-1.23-.12-1.6-.12-.51,0-1.08-.18-1.29.31-.2.46,0,1.56,0,2.07,0,.39-.2,1.42.08,1.76.26.33.96.17,1.33.17.44,0,1.25.16,1.49-.21.2-.31,0-1.58,0-1.95Zm2.97-4.62c-.45,0-1.26-.17-1.68,0-.4.16-.3.44-.29.88.01.55.03.57.59.57.5,0,1.01,0,1.51,0,.35,0,1.28.15,1.6-.01.29-.15.19-.53.19-.83,0-.44.05-.47-.33-.61-.39-.14-1.16,0-1.59,0Zm-4.89,1.45c.45,0,1.23.16,1.65,0,.4-.15.28-.46.27-.89,0-.44.03-.5-.39-.56-.48-.08-1.02,0-1.51,0-.37,0-1.38-.18-1.68,0-.29.17-.24.32-.24.69,0,.44-.09.64.32.77.41.13,1.16,0,1.59,0Zm.11-2.45c.84,0,.82,0,.85-.85.02-.41-.31-.98-.76-1.06-.48-.08-.72.43-.82.82-.22.84-.11,1.09.73,1.09Zm4.68,0c.28,0,.64.1.8-.15.13-.19-.02-.86-.09-1.06-.2-.6-.7-.97-1.24-.44-.28.28-.45.93-.28,1.32.16.37.4.32.8.32Zm-2.36-.88c-.13.04-.36-.1-.45.09-.16.35-.07.68.24.8.07.03.54.04.62-.02.14-.1.16-.31.12-.5-.07-.38-.12-.37-.54-.37Z"/>
  <path class="cls-1" d="m.47,15.99c0-1.7,0-3.4,0-5.1,0-1.1-.45-3.17.8-3.76.55-.26,1.27-.15,1.86-.15.55,0,1.83-.25,2.28.13.5.42,0,.81-.45.87-.8.11-1.69,0-2.51,0-.69,0-1,.01-1.03.75-.03.85,0,1.7,0,2.55,0,1.75,0,3.51,0,5.26,0,1.7,0,3.4,0,5.09,0,.6-.17,1.46.01,2.03.19.61.99.41,1.5.41,6.89,0,13.79,0,20.68,0,.41,0,1.42-.15,1.31.56-.09.65-1.2.44-1.64.44-1.69,0-3.39-.08-5.07,0-1.63.07-3.22.7-4.77,1.17-1.59.47-3.18.94-4.77,1.42-.85.25-1.69.51-2.54.76-.78.24-1.69.71-2.44.18-.61-.43-.7-1.29-.91-1.95-.2-.66-.18-1.43-.92-1.58-1.65-.34-1.41-1.67-1.41-3.09,0-1.99,0-3.99,0-5.98Zm13.28,9.14s0-.04,0-.06c-2.09,0-4.18,0-6.27,0-1.08,0-2.15,0-3.23,0-.18,0-.72-.11-.83.1-.1.19.29,1.02.36,1.25.26.86.24,1.62,1.28,1.33.99-.27,1.97-.6,2.96-.89,1.91-.58,3.83-1.15,5.74-1.73Z"/>
  <path class="cls-1" d="m22.89,16.08c0-1.06,0-2.12,0-3.18,0-.37.22-.59.52-.56.26.02.43.23.43.53,0,.78,0,1.57,0,2.35,0,1.36,0,2.73,0,4.09,0,.37-.22.59-.52.56-.27-.03-.43-.23-.43-.57,0-1.08,0-2.16,0-3.24Z"/>
  <path class="cls-1" d="m25.1,16.08c0-.45-.3-2.53.66-2.18.61.22.34,2.01.34,2.53,0,.43.24,1.95-.53,1.93-.77-.02-.47-1.8-.47-2.27Z"/>
  <path class="cls-1" d="m20.53,14.64c0,1.15-.99,1.2-.99-.02,0-.37-.02-.92.49-.93.55-.01.5.58.5.95Z"/>
  <path class="cls-1" d="m19.55,17.37c0-1.16,1-1.13,1,.01,0,.37,0,.96-.51.96-.53,0-.49-.6-.49-.97Z"/>
  <path class="cls-1" d="m19.55,22.89c0-1.18,1.01-1.14,1,.02,0,.38-.01.95-.53.93-.52-.02-.47-.57-.47-.95Z"/>
  <path class="cls-1" d="m19.55,9.1c0-1.12.99-1.17,1,.02,0,.37.02.94-.5.95-.54,0-.5-.59-.5-.96,0,0,0,0,0,0Z"/>
  <path class="cls-1" d="m20.53,11.88c0,.36.03.95-.49.94-.52,0-.5-.57-.5-.94,0-.37-.02-.94.5-.94.53,0,.49.57.49.94,0,0,0,0,0,0Z"/>
  <path class="cls-1" d="m19.56,20.16c0-.37-.05-.94.47-.96.51-.02.53.57.53.94,0,1.16-1,1.19-1,.01Z"/>
</svg>