<?xml version="1.0" encoding="UTF-8"?>
<svg id="Layer_1" data-name="Layer 1" xmlns="http://www.w3.org/2000/svg" viewBox="0 0 21 21">
  <defs>
    <style>
      .cls-1 {
        fill: #c5c5c5;
      }
    </style>
  </defs>
  <path class="cls-1" d="m21,7.26c-.06.02-.04.08-.05.12-.09.34-.25.63-.5.88-.61.61-1.22,1.22-1.83,1.83-.13.13-.29.19-.47.12-.15-.06-.24-.18-.26-.34-.02-.16.07-.28.18-.39.57-.56,1.13-1.13,1.7-1.7.55-.55.54-1.15,0-1.7-.3-.3-.6-.6-.9-.9-.07-.08-.12-.09-.22-.03-.84.46-1.81.32-2.47-.34-.65-.65-.78-1.62-.32-2.45.05-.1.04-.15-.03-.22-.33-.32-.65-.65-.97-.97-.48-.47-1.11-.47-1.58.01-2.22,2.22-4.45,4.45-6.67,6.67-.08.08-.12.17-.12.29,0,.34,0,.68,0,1.02,0,.3-.15.45-.45.46-.36,0-.71,0-1.07,0-.1,0-.17.03-.23.1-1.2,1.2-2.4,2.39-3.59,3.6-.43.43-.43,1.07-.01,1.51.33.34.68.68,1.01,1.02.07.07.11.08.21.03.71-.39,1.43-.39,2.12.05.67.42.98,1.06.95,1.86-.01.32-.1.62-.27.89-.05.09-.04.14.03.2.34.33.67.68,1.02,1.01.43.41,1.06.42,1.48,0,1.22-1.21,2.43-2.42,3.64-3.63.07-.07.08-.14.08-.22,0-.35,0-.7,0-1.05,0-.32.15-.46.46-.47.34,0,.68,0,1.02,0,.12,0,.2-.04.29-.12.71-.71,1.42-1.42,2.13-2.13.06-.06.12-.12.18-.16.16-.11.37-.09.51.05.14.14.16.34.06.51-.04.06-.08.11-.13.16-.77.77-1.55,1.54-2.32,2.32-.14.14-.29.21-.49.2-.25,0-.51,0-.76,0-.11,0-.14.03-.14.14,0,.26,0,.52,0,.78,0,.17-.05.32-.18.44-1.25,1.24-2.49,2.5-3.74,3.74-.78.77-1.91.77-2.7,0-.44-.43-.87-.87-1.31-1.3-.21-.22-.22-.42-.02-.65.46-.53.44-1.25-.03-1.72-.47-.47-1.17-.48-1.7-.02-.25.21-.43.2-.66-.02-.44-.43-.88-.86-1.3-1.31-.75-.78-.76-1.91,0-2.68,1.25-1.26,2.51-2.51,3.77-3.77.11-.11.23-.16.38-.16.27,0,.53,0,.8,0,.13,0,.16-.04.16-.16,0-.25,0-.51,0-.76,0-.17.05-.32.18-.44,2.29-2.28,4.57-4.57,6.86-6.86.31-.32.7-.48,1.12-.58h.49c.55.02.95.32,1.32.69.33.34.67.67,1,1,.07.07.14.15.2.23.15.23.14.39-.02.6-.13.16-.25.32-.3.53-.13.5.06,1.02.48,1.29.44.29.99.26,1.39-.06.36-.29.56-.28.88.04.38.38.77.76,1.14,1.14.32.33.57.7.59,1.17v.62Z"/>
  <path class="cls-1" d="m12.05,5.82c0-.24.14-.4.34-.44.19-.03.39.08.45.3.13.45.26.9.38,1.36.31,1.12.62,2.24.93,3.37.06.23,0,.4-.15.5-.25.16-.54.04-.63-.28-.18-.62-.35-1.25-.52-1.87-.25-.92-.51-1.84-.76-2.76-.02-.07-.03-.15-.04-.18Z"/>
  <path class="cls-1" d="m7.43,13.16c.3,0,.5.34.35.6-.03.06-.08.11-.13.16-.42.43-.85.85-1.27,1.27-.22.21-.45.23-.63.06-.19-.18-.17-.42.06-.64.42-.43.85-.85,1.27-1.27.1-.1.21-.18.35-.18Z"/>
  <path class="cls-1" d="m6.56,12.3c0,.13-.06.23-.15.31-.45.45-.9.9-1.35,1.34-.19.19-.43.19-.6.02-.17-.17-.16-.41.03-.6.45-.45.9-.9,1.35-1.35.14-.14.3-.19.48-.1.16.07.23.21.24.37Z"/>
  <path class="cls-1" d="m9.11,14.84c0,.12-.05.23-.13.31-.46.46-.91.92-1.38,1.37-.18.18-.42.17-.58,0-.16-.16-.17-.39,0-.57.46-.47.93-.94,1.4-1.4.13-.13.29-.15.45-.07.15.07.22.19.23.36Z"/>
  <path class="cls-1" d="m10.69,14.15c-.31,0-.75-.42-.74-.67,0-.16.07-.29.22-.36.15-.07.3-.07.42.03.13.11.25.23.36.36.11.12.11.28.04.42-.08.14-.2.22-.3.22Z"/>
  <path class="cls-1" d="m9.06,12.59c-.25,0-.65-.4-.64-.65,0-.15.08-.27.21-.35.14-.08.28-.08.41,0,.15.1.27.23.38.37.09.13.09.28,0,.42-.08.13-.2.2-.36.2Z"/>
  <path class="cls-1" d="m7.91,10.64c0,.14-.07.26-.21.34-.14.08-.29.08-.42,0-.12-.08-.23-.19-.32-.31-.1-.15-.1-.31,0-.46.1-.14.25-.2.43-.16.22.06.51.39.51.6Z"/>
  <path class="cls-1" d="m16.99,11.54c-.22,0-.4-.19-.4-.41,0-.22.18-.4.4-.4.23,0,.42.19.41.42,0,.22-.19.4-.41.39Z"/>
  <path class="cls-1" d="m15.52,6.56c-.68,0-1.24.56-1.24,1.24,0,.67.55,1.22,1.23,1.22.69,0,1.23-.55,1.23-1.24,0-.68-.55-1.22-1.22-1.22Zm0,1.64c-.23,0-.42-.19-.42-.41,0-.22.19-.4.41-.4.23,0,.41.18.41.42,0,.22-.18.4-.4.4Z"/>
  <path class="cls-1" d="m10.76,6.71c-.67,0-1.22.55-1.23,1.22,0,.68.56,1.24,1.24,1.23.68,0,1.22-.55,1.22-1.23,0-.69-.55-1.23-1.23-1.23Zm0,1.64c-.23,0-.42-.19-.41-.42,0-.23.2-.41.43-.4.22,0,.39.19.39.41,0,.22-.18.4-.4.4Z"/>
</svg>