<?xml version="1.0" encoding="UTF-8"?>
<svg id="Layer_1" data-name="Layer 1" xmlns="http://www.w3.org/2000/svg" viewBox="0 0 32 32">
  <defs>
    <style>
      .cls-1 {
        fill: #232323;
      }
    </style>
  </defs>
  <path class="cls-1" d="m24.13,30.79H7.93c0-.79-.08-.99.77-.99.56,0,1.06.19,1.11-.45.03-.31.13-1.09-.09-1.33-.22-.23-1.4-.04-1.71-.04-1.43,0-2.91.1-4.34,0-1.2-.09-1.95-.79-2.35-1.9v-15.22c.39-.97.93-1.69,2-1.87,1.48-.24,3.11-.05,4.61-.05,1.74,0,3.48,0,5.22,0,.42,0,.84,0,1.27,0,.24,0,.77.11.96-.04.43-.34-.17-1.04.43-1.35.47-.24.82-.22,1.06-.78.19-.45.47-.93.36-1.44-.06-.28-.36-.55-.34-.83.02-.25.41-.48.57-.65.31-.31.83-1.1,1.29-1.16.24-.03.55.31.78.37.31.07.49-.02.76-.11.39-.13.86-.27,1.13-.6.3-.37.19-.84.64-1,.47-.17,1.44-.02,1.95,0,.39.02.39,0,.55.34.21.45.2.73.69.96.49.23,1.06.56,1.62.37.23-.08.46-.34.71-.31.24.03.49.41.65.57.3.31,1.16.88,1.15,1.34-.02.51-.55.76-.32,1.36.15.38.32.94.61,1.22.29.27.85.21,1.03.54.25.46.03,1.61.03,2.14,0,.74,0,1.48,0,2.23,0,1.53,0,3.06,0,4.6,0,1.53,0,3.06,0,4.6,0,1.47.16,3.04-.02,4.49-.14,1.15-.99,2-2.13,2.15-1.44.19-3,.03-4.45.03-.42,0-1.54-.22-1.85.06-.15.13-.14,1.34-.06,1.51.21.42.92.22,1.35.24.68.03.54.39.53.99Zm-8.1-6.68c4.42,0,8.84,0,13.26,0q.45,0,.45-.44c0-4.2,0-8.4,0-12.6,0-.07,0-.13,0-.2,0-.06.02-.15-.08-.15-.07,0-.09.07-.11.12-.08.23-.12.48-.25.67-.4.59-.37,1.14.04,1.7.12.16.06.29-.07.43-.47.46-.95.92-1.4,1.4-.2.21-.38.26-.61.09-.48-.34-.96-.43-1.46-.04-.04.03-.09.05-.13.06-.69.1-1.03.53-1.13,1.19-.03.2-.17.28-.37.27-.69,0-1.38,0-2.07,0-.19,0-.33-.06-.36-.25-.1-.69-.53-.99-1.16-1.26-.62-.26-1.11-.34-1.65.07-.18.14-.32.07-.47-.08-.43-.45-.88-.88-1.32-1.32-.33-.33-.35-.34-.11-.74.27-.45.37-.86.02-1.31-.04-.05-.07-.12-.08-.18-.11-.69-.53-1.06-1.21-1.16-.09-.01-.21-.04-.23-.14-.05-.3-.27-.27-.48-.27-3.72,0-7.45.02-11.17-.01-.93,0-1.6.63-1.59,1.58.03,4.05.01,8.1.01,12.14q0,.44.45.44c4.42,0,8.84,0,13.26,0Zm0,1.01c-4.41,0-8.82,0-13.23,0-.1,0-.19,0-.29,0-.13,0-.18.07-.2.2-.12.77.4,1.49,1.17,1.6.2.03.4.04.6.04,7.96,0,15.92,0,23.88,0,.11,0,.21,0,.32,0,.89-.06,1.43-.59,1.45-1.39,0-.44,0-.45-.44-.45-4.42,0-8.84,0-13.26,0Zm2.94-21.19c-.18,0-.26.13-.35.22-.3.3-.49.45-.39.87.13.53.31.59.02,1.11-.28.51-.37,1.04-.6,1.56-.18.41-.39.38-.73.56-.48.26-.58,1.06-.12,1.38.49.34.69.13.88.8.16.55.48.98.67,1.49.22.58-.36.94-.16,1.42.08.19.45.51.65.56.34.09.59-.26.91-.28.38-.03.74.35,1.06.5.43.2,1.08.19,1.41.56.2.23.13.61.36.79.41.33,1.05.05,1.26-.32.34-.59.32-.59,1.02-.81.46-.14.8-.44,1.24-.6.57-.21.88.32,1.36.19.12-.03.6-.49.65-.64.11-.31-.18-.49-.26-.79-.11-.42.11-.6.31-.97.24-.44.27-.96.49-1.39.19-.36.4-.33.71-.48.43-.22.56-.98.2-1.34-.22-.22-.64-.1-.85-.39-.22-.3-.2-.82-.36-1.18-.26-.56-.66-.91-.42-1.56.17-.44.28-.5-.09-.87-.63-.62-1.03.08-1.74-.17-.49-.18-.95-.46-1.46-.63-.3-.1-.52-.16-.69-.43-.2-.32-.06-.59-.47-.73-.14-.05-.67-.06-.81.01-.21.11-.21.29-.29.51-.2.51-.38.52-.89.67-.5.15-.93.51-1.4.65-.45.13-.71-.08-1.12-.28Zm-2.91,24.05c-1.61,0-3.21,0-4.82,0-.35,0-.38.03-.39.37,0,.35,0,.71,0,1.06,0,.35.03.38.38.38,1.37,0,2.73,0,4.1,0,1.8,0,3.6,0,5.39,0q.47,0,.47-.48c0-.31,0-.61,0-.92,0-.39-.02-.41-.41-.41-1.58,0-3.16,0-4.73,0Z"/>
  <path class="cls-1" d="m11.53,11.77c1.36,0,2.72,0,4.08,0,.44,0,.45,0,.44.42,0,.62.13.62-.62.62-2.65,0-5.3,0-7.95,0-.49,0-.49,0-.49-.49q0-.54.55-.54c1.33,0,2.66,0,3.99,0Z"/>
  <path class="cls-1" d="m11.52,16.61c-1.36,0-2.72,0-4.08,0-.45,0-.46,0-.45-.44,0-.58-.12-.6.58-.6,2.63,0,5.26,0,7.9,0,.11,0,.21,0,.32,0,.3,0,.3.21.26.39-.05.22.21.58-.24.64-.09.01-.19,0-.29,0-1.33,0-2.66,0-3.99,0Z"/>
  <path class="cls-1" d="m11.52,18.5c-1.05,0-2.09,0-3.14,0-.67,0-1.49.28-1.39-.61.07-.64.63-.43,1.21-.43,1.11,0,2.21,0,3.32,0,1.05,0,2.11,0,3.16,0,.67,0,1.43-.28,1.37.59-.05.68-.66.45-1.24.45-1.1,0-2.19,0-3.29,0Z"/>
  <path class="cls-1" d="m11.51,22.3c-1.36,0-2.72,0-4.08,0-.44,0-.45,0-.44-.42,0-.61-.13-.61.62-.61,2.64,0,5.28,0,7.93,0q.51,0,.51.49t-.55.54c-1.33,0-2.66,0-3.99,0Z"/>
  <path class="cls-1" d="m19.84,18.94c.09.5-.23.43-.53.66-.37.28-.37.58-.4,1.01-.06.84-.54,1.78-1.55,1.68-.39-.04-.58-.32-.42-.74.15-.43.32-.14.68-.35.33-.2.26-.5.28-.85.01-.24.03-.48.12-.71.11-.26.36-.42.35-.72,0-.4-.41-.77-.46-1.21-.04-.32.09-.78-.2-1.01-.31-.24-.59.04-.77-.37-.07-.16-.05-.63.11-.74.57-.4,1.53.41,1.73.88.31.74-.12,1.61.86,1.91.34.11.14.37.2.54Z"/>
  <path class="cls-1" d="m3.2,14.66c-.1-.51.25-.46.57-.69.43-.31.32-.78.37-1.24.08-.67.92-1.89,1.78-1.41.21.12.34.66.18.86-.19.25-.58.05-.81.28-.28.28-.11.84-.19,1.2-.09.42-.53.76-.43,1.15.04.18.28.39.35.58.08.21.11.43.13.65.02.31-.07.65.21.86.33.24.62-.08.75.38.05.16.02.57-.14.69-.51.39-1.43-.31-1.65-.73-.38-.72.1-1.75-.91-2.04-.35-.1-.15-.36-.21-.54Z"/>
  <path class="cls-1" d="m12.46,14.71c-1.04,0-2.09,0-3.13,0-.44,0-.44,0-.44-.42,0-.62-.11-.61.62-.61,2.02,0,4.04,0,6.06,0,.48,0,.49,0,.48.47,0,.54.13.57-.58.57-1,0-2.01,0-3.01,0Z"/>
  <path class="cls-1" d="m10.56,19.36c1.06,0,2.12,0,3.19,0,.4,0,.41.01.4.4,0,.66.12.64-.63.64-2.03,0-4.06,0-6.09,0-.45,0-.45,0-.45-.44,0-.57-.13-.59.59-.59,1,0,1.99,0,2.99,0Z"/>
  <path class="cls-1" d="m6.99,14.19q0-.52.51-.52t.5.54-.51.5-.51-.52Z"/>
  <path class="cls-1" d="m16.05,19.89q0,.51-.52.51t-.49-.52.53-.51.48.53Z"/>
  <path class="cls-1" d="m23.14,13.75c-4.18,0-6.3-5.21-3.36-8.16,2.94-2.93,8.16-.78,8.15,3.39-.01,2.62-2.17,4.77-4.79,4.77Zm3.75-4.96c-.03-1.91-1.79-3.81-4.22-3.55-3.27.34-4.37,4.7-1.85,6.68,2.41,1.91,6.36.05,6.07-3.13Z"/>
  <path class="cls-1" d="m23.13,10.89c-1.63,0-2.5-2.02-1.39-3.22,1.17-1.27,3.35-.39,3.33,1.33-.01,1.06-.87,1.9-1.94,1.89Zm.01-1.02c.52,0,.91-.39.91-.9,0-.79-1-1.2-1.55-.63-.54.56-.16,1.53.64,1.53Z"/>
</svg>