<?xml version="1.0" encoding="UTF-8"?>
<svg id="Layer_1" data-name="Layer 1" xmlns="http://www.w3.org/2000/svg" viewBox="0 0 32 32">
  <defs>
    <style>
      .cls-1 {
        fill: #fff;
      }
    </style>
  </defs>
  <path class="cls-1" d="m31.79,25.66c-.23.83-.69,1.48-1.5,1.83-.29.13-.6.21-.92.21-.94,0-1.88,0-2.82,0-.36,0-.59-.19-.59-.48,0-.29.23-.48.59-.48.84,0,1.68,0,2.51,0,1.12,0,1.78-.66,1.78-1.77,0-.28-.01-.55,0-.83.01-.24-.08-.32-.32-.32-.83,0-1.66,0-2.48,0-1.69,0-3.37,0-5.06,0-.28,0-.39.07-.39.38-.01.84-.61,1.47-1.44,1.55-.19.02-.39.03-.58.03-3.3,0-6.6,0-9.9,0-.27,0-.53,0-.79-.07-.7-.16-1.19-.75-1.21-1.51,0-.29-.09-.39-.39-.39-2.2.01-4.39,0-6.59,0-.28,0-.38.09-.36.37.03.38-.03.76.03,1.13.14.87.75,1.39,1.62,1.42.12,0,.25,0,.37,0,6.98,0,13.96,0,20.94,0,.13,0,.27,0,.4,0,.26.04.39.21.42.46.02.23-.18.45-.42.49-.1.01-.2,0-.31,0-7.11,0-14.23-.02-21.34.01-1.47,0-2.75-1.18-2.67-2.69.02-.44,0-.88,0-1.32,0-.47.31-.84.78-.87.33-.02.35-.17.35-.43,0-3.95,0-7.91,0-11.86,0-1.21,0-2.41,0-3.62.01-1.3.78-2.28,1.98-2.53.21-.05.43-.04.64-.04,7.98,0,15.96.01,23.94-.02,1.3,0,2.64.9,2.63,2.64,0,2.3,0,4.6,0,6.9,0,2.83,0,5.66,0,8.49,0,.28.01.46.38.46.35,0,.55.27.73.55v2.27Zm-15.71-2.84c4.38,0,8.77,0,13.15,0q.46,0,.46-.44c0-5.13,0-10.26,0-15.39,0-1.08-.59-1.67-1.67-1.67-7.95,0-15.9,0-23.85,0-1.08,0-1.67.59-1.67,1.67,0,5.13,0,10.26,0,15.39q0,.44.46.44c4.37,0,8.75,0,13.12,0Zm-.45,1c-1.25,0-2.49,0-3.74,0-.64,0-1.29,0-1.93,0-.23,0-.31.09-.3.31.01.42.25.65.72.65,3.5,0,7.01,0,10.51,0,.17,0,.33-.03.47-.12.25-.17.28-.43.23-.68-.05-.25-.28-.15-.44-.15-1.84,0-3.68,0-5.52,0Z"/>
  <path class="cls-1" d="m16.09,21.61c-3.66,0-7.32,0-10.97,0-.18,0-.37,0-.55-.04-.49-.08-.8-.39-.89-.88-.02-.14-.03-.28-.03-.43,0-4.14,0-8.28,0-12.42,0-.18.01-.37.05-.55.1-.46.5-.79.97-.79,1.63,0,3.27,0,4.9,0,.35,0,.56.19.56.48,0,.29-.21.48-.56.48-1.5,0-3,0-4.51,0-.42,0-.42,0-.42.43,0,4.1,0,8.2,0,12.29,0,.42,0,.42.43.42,7.35,0,14.69,0,22.04,0,.43,0,.43,0,.43-.42,0-4.1,0-8.2,0-12.29,0-.43,0-.43-.42-.43-5.12,0-10.24,0-15.36,0-.12,0-.25.01-.37-.01-.25-.05-.4-.22-.39-.47,0-.25.15-.42.4-.47.1-.02.2,0,.31,0,5.2,0,10.4,0,15.6,0,.8,0,1.22.4,1.23,1.2,0,4.24,0,8.48,0,12.72,0,.71-.4,1.12-1.11,1.18-.13.01-.27,0-.4,0-3.65,0-7.3,0-10.94,0Z"/>
  <path class="cls-1" d="m16.56,14.29c-.08.44-.15,2.31-.99,1.88-.61-.31-.02-1.89.07-2.39.09-.52.08-2.18.96-1.99.67.14.83,1.73.99,2.27.61-.37.19-1.81.86-2.21.86-.51.98,1,1.06,1.45.11.58.75,2.29.3,2.76-.82.85-1.07-1.43-1.18-1.78-.15.5-.27,1.81-.89,1.94-.83.18-.96-1.42-1.13-1.92h-.06Z"/>
  <path class="cls-1" d="m22.86,11.78c1.95,0,2.99,2.42,1.59,3.8-1.38,1.36-3.82.38-3.83-1.56,0-1.23,1-2.24,2.24-2.24Zm1.25,2.24c0-.7-.56-1.28-1.25-1.28-1.09.01-1.62,1.37-.88,2.13.76.79,2.12.24,2.13-.86Z"/>
  <path class="cls-1" d="m7.5,13.99c0-.48-.21-1.47.07-1.89.28-.43,1-.33,1.44-.28,1.26.13,1.94,1.19,1.81,2.44-.13,1.26-.92,1.88-2.12,1.93-.42.02-.9.12-1.14-.3-.26-.46-.06-1.39-.06-1.89h0Zm1.01,0h0c0,.57-.2,1.51.69,1.17.51-.2.66-.74.63-1.24-.02-.52-.23-1.05-.81-1.11-.74-.07-.51.64-.51,1.19Z"/>
  <path class="cls-1" d="m11.74,13.99c0-.58-.28-1.84.34-2.17.4-.21,2.1-.22,2.12.43.03.94-1.46.07-1.46.88,0,.8,1.31-.04,1.35.85.04.91-1.37.11-1.36.88.01.77,1.3-.03,1.45.78.15.8-1.45.66-1.88.57-.89-.19-.56-1.53-.56-2.23,0,0,0,0,0,0Z"/>
</svg>