<?xml version="1.0" encoding="UTF-8"?>
<svg id="Layer_1" data-name="Layer 1" xmlns="http://www.w3.org/2000/svg" viewBox="0 0 32 32">
  <defs>
    <style>
      .cls-1 {
        fill: #fff;
      }
    </style>
  </defs>
  <path class="cls-1" d="m17.48,31.11c-3.67,0-7.34,0-11,0-1.28,0-2.28-.82-2.53-2.06-.04-.2-.05-.42-.03-.62.02-.27-.09-.35-.35-.33-.88.05-1.6-.28-2.14-.97-.34-.43-.53-.92-.53-1.48,0-7.43,0-14.86,0-22.29,0-1.35,1.12-2.46,2.47-2.46,7.42,0,14.84,0,22.26,0,1.35,0,2.45,1.11,2.47,2.46,0,.08,0,.17,0,.25-.03.24.08.32.31.3.7-.04,1.33.16,1.85.63.54.48.85,1.09.85,1.82,0,7.43,0,14.86,0,22.29,0,1.35-1.12,2.46-2.47,2.46-3.72,0-7.44,0-11.16,0Zm9.55-12.95c-.13.13-.22.2-.3.28-1.5,1.5-3.01,3.01-4.51,4.51-.16.16-.34.3-.56.39-1.42.54-2.84,1.08-4.25,1.63-.26.1-.52.18-.76-.05-.24-.23-.16-.49-.06-.76.52-1.36,1.05-2.71,1.56-4.08.12-.33.31-.61.56-.85,2.7-2.69,5.39-5.39,8.1-8.08.18-.18.25-.36.25-.61-.01-1.38,0-2.77,0-4.15q0-.44-.45-.44c-8.07,0-16.13,0-24.2,0q-.45,0-.45.44c0,5.1,0,10.2,0,15.31,0,1.24,0,2.47,0,3.71,0,.67.26,1.2.9,1.49.27.12.57.14.86.14,4.69,0,9.39,0,14.08,0,2.51,0,5.03,0,7.54,0,.39,0,.77-.06,1.1-.3.45-.33.61-.81.61-1.35,0-2.32,0-4.63,0-6.95,0-.07,0-.14-.02-.29Zm3.03-2.94s-.05-.02-.08-.03c-.55.55-1.09,1.1-1.64,1.64-.18.17-.25.36-.25.61,0,2.67,0,5.34,0,8.01,0,.2,0,.4-.04.59-.25,1.24-1.25,2.05-2.53,2.05-6.68,0-13.37,0-20.05,0-.1,0-.21,0-.31,0-.13,0-.18.06-.2.19-.09.65.26,1.34.85,1.62.29.14.6.16.92.16,7.19,0,14.37,0,21.56,0,.08,0,.17,0,.25,0,.53-.04.98-.23,1.27-.69.21-.32.25-.68.25-1.05,0-4.26,0-8.53,0-12.79,0-.1,0-.2,0-.31ZM14.46,4.91c3.16,0,6.33,0,9.49,0,.93,0,1.87,0,2.8,0,.21,0,.31-.06.3-.28-.01-.39,0-.78,0-1.16-.03-.73-.45-1.29-1.08-1.46-.22-.06-.45-.08-.68-.07-7.19,0-14.37,0-21.56,0-.07,0-.15,0-.22,0-.92.03-1.52.64-1.55,1.56-.01.33,0,.67,0,1.01q0,.41.42.41c4.03,0,8.07,0,12.1,0Zm5.78,15.63c.07-.06.15-.13.22-.21,1.78-1.78,3.56-3.55,5.33-5.33.46-.46.47-.32,0-.83-.2-.22-.32-.19-.52,0-1.78,1.79-3.57,3.57-5.35,5.36-.38.38-.38.38,0,.77.09.09.15.2.31.23Zm7.34-4.51c-.07-.19-.25-.29-.36-.43-.18-.23-.32-.21-.52,0-1.75,1.76-3.51,3.51-5.26,5.27-.48.48-.48.48,0,.96.15.15.23.14.38,0,1.87-1.88,3.74-3.75,5.62-5.62.05-.05.1-.11.14-.17Zm.06-4.19s-.06.04-.09.07c-.29.29-.82.66-1.02,1.02-.23.41.04.51.37.84.35.35,1.18,1.51,1.65,1.32.24-.1.78-.72.94-.94.26-.38.1-.44-.23-.76-.31-.31-1.18-1.54-1.62-1.54Zm1.41-3.92c.25,0,.83.12.99-.1.15-.21.04-1.04.02-1.28-.05-.66-.33-1.23-.97-1.48-.21-.08-.73-.22-.92-.05-.2.18-.07.85-.07,1.12,0,.37-.16,1.23,0,1.55.18.37.54.25.96.25Zm1.01,4.7c0-1.18,0-2.29,0-3.4,0-.42-.87-.25-1.14-.25-.77,0-.83-.03-.83.75,0,.71.02.97.53,1.48.48.47.96.95,1.43,1.42Zm-10.23,10.26c.17-.06.38-.16.59-.23.44-.14-.39-.74-.55-.9-.14-.14-.62-.8-.85-.73-.25.07-.37.69-.3.9.09.28.79.98,1.1.96Z"/>
  <path class="cls-1" d="m8.47,14.01c-1.3,0-2.6,0-3.89,0-.5,0-.67-.17-.67-.65,0-1.59,0-3.18,0-4.77,0-.48.17-.65.64-.65,2.61,0,5.21,0,7.82,0,.47,0,.64.17.64.65,0,1.59,0,3.18,0,4.77,0,.49-.17.65-.67.65-1.29,0-2.58,0-3.86,0Zm0-1.05c1.06,0,2.11,0,3.17,0,.24,0,.33-.07.33-.32-.01-1.11-.01-2.22,0-3.33,0-.26-.07-.34-.34-.34-2.11,0-4.23,0-6.34,0-.24,0-.33.07-.33.32.01,1.11.01,2.22,0,3.33,0,.26.07.35.34.34,1.06-.01,2.11,0,3.17,0Z"/>
  <path class="cls-1" d="m10.5,17.99c2.04,0,4.08,0,6.13,0,.31,0,.42.08.41.41-.03.75.08.65-.66.65-4,0-8,0-12,0-.47,0-.47,0-.47-.46,0-.66-.07-.59.59-.59,2,0,4,0,6,0Z"/>
  <path class="cls-1" d="m12.51,15.98c2.04,0,4.08,0,6.13,0,.32,0,.42.09.41.41-.03.75.08.65-.66.65-4,0-8,0-12,0-.46,0-.47,0-.46-.46,0-.66-.06-.58.59-.59,2,0,4,0,6,0Z"/>
  <path class="cls-1" d="m9.47,24.03c1.71,0,3.41,0,5.12,0,.42,0,.42,0,.42.41,0,.73.08.64-.63.64-3.33,0-6.66,0-9.99,0-.48,0-.49,0-.48-.47,0-.64-.06-.57.57-.58,1.67,0,3.33,0,5,0Z"/>
  <path class="cls-1" d="m9.46,20c1.72,0,3.44,0,5.15,0,.31,0,.42.08.41.4-.03.75.08.65-.66.65-3.33,0-6.66,0-9.99,0-.47,0-.47,0-.47-.46,0-.66-.07-.59.59-.59,1.65,0,3.31,0,4.96,0Z"/>
  <path class="cls-1" d="m9.43,23.06c-1.71,0-3.41,0-5.12,0-.32,0-.42-.09-.41-.41.03-.75-.08-.65.66-.65,3.34,0,6.68,0,10.02,0,.43,0,.44,0,.43.43,0,.7.08.62-.62.62-1.65,0-3.31,0-4.96,0Z"/>
  <path class="cls-1" d="m19.52,10.45c1.39,0,2.79,0,4.18,0,.28,0,.39.08.38.37-.03.79.09.68-.69.68-2.66,0-5.32,0-7.98,0-.43,0-.44,0-.43-.43,0-.7-.08-.62.62-.62,1.31,0,2.62,0,3.93,0Z"/>
  <path class="cls-1" d="m21,9.48c-1.21,0-2.43,0-3.64,0-.29,0-.38-.09-.37-.38.03-.79-.09-.68.69-.68,2.32,0,4.65,0,6.97,0,.43,0,.43,0,.43.43,0,.7.08.61-.62.62-1.15,0-2.3,0-3.46,0Z"/>
  <path class="cls-1" d="m18.5,13.51c-1.06,0-2.11,0-3.17,0-.27,0-.37-.07-.36-.35.03-.82-.09-.7.7-.7,1.99,0,3.98,0,5.97,0,.42,0,.42,0,.42.41,0,.73.08.63-.63.64-.97,0-1.95,0-2.92,0Z"/>
  <path class="cls-1" d="m16.02,8.98q0,.5-.55.5t-.5-.55.58-.5.47.55Z"/>
  <path class="cls-1" d="m4.41,17.03q-.5,0-.5-.55t.55-.5.5.58-.55.47Z"/>
  <path class="cls-1" d="m8.43,3.95q-.5,0-.5-.55t.55-.5.5.55-.55.5Z"/>
  <path class="cls-1" d="m6.97,3.45q0,.5-.55.5t-.5-.55.58-.5.47.55Z"/>
  <path class="cls-1" d="m4.45,2.9c.51,0,.51,0,.51.54,0,.57.04.5-.57.51-.48,0-.48,0-.48-.57q0-.48.54-.48Z"/>
</svg>