<?xml version="1.0" encoding="UTF-8"?>
<svg id="Layer_1" data-name="Layer 1" xmlns="http://www.w3.org/2000/svg" viewBox="0 0 21 14.53">
  <defs>
    <style>
      .cls-1 {
        fill: #c5c5c5;
      }
    </style>
  </defs>
  <path class="cls-1" d="m21,13.29c-.19.59-.55,1.02-1.17,1.18-.38.1-.77.05-1.16.05-.07,0-.14-.03-.14-.12,0-.14,0-.29,0-.43,0-.12.1-.12.18-.12.24,0,.48,0,.72,0,.57,0,.97-.44.94-1.01,0-.11-.04-.17-.15-.16-.05,0-.11,0-.16,0-2.5,0-5,0-7.5,0-.22,0-.37.05-.43.27-.08.33-.3.4-.62.39-.72-.02-1.45-.01-2.17,0-.18,0-.31-.04-.36-.22-.09-.35-.31-.44-.67-.44-2.45.02-4.9,0-7.35.01-.3,0-.33.03-.29.33.07.54.43.84,1,.84,4.89,0,9.78,0,14.67,0,.43,0,.39-.03.39.38,0,.28,0,.29-.28.29-4.92,0-9.83,0-14.75,0-.85,0-1.51-.51-1.65-1.28-.06-.36-.02-.74-.02-1.1,0-.11.08-.12.17-.13q.44-.03.44-.49c0-3.48,0-6.95,0-10.43C.61.4,1.09,0,1.71,0c5.86,0,11.72,0,17.57,0,.16,0,.33.01.48.06.41.14.63.48.63.95,0,3.54,0,7.07,0,10.61,0,.06,0,.12,0,.18-.01.15.05.19.19.19.14,0,.27,0,.41,0v1.27ZM10.5.68c-2.89,0-5.79,0-8.68,0-.08,0-.15,0-.23,0-.19,0-.29.1-.32.28-.01.07,0,.15,0,.22,0,3.51,0,7.02,0,10.53,0,.05,0,.11,0,.16,0,.04,0,.09.05.11.15.04.32.05.46,0,.13-.03.07-.18.07-.27,0-2.66,0-5.31,0-7.97,0-.08,0-.15,0-.23,0-.04,0-.09.05-.1.17-.04.36-.06.52,0,.12.04.06.19.06.3,0,2.66,0,5.33,0,7.99q0,.3.31.3c1.95,0,3.91,0,5.86,0,.63,0,.47-.11.74.47.06.13.14.18.28.18.46,0,.93-.03,1.39,0,.34.02.56-.06.65-.41.05-.21.19-.25.4-.25,2.04,0,4.08,0,6.12,0q.28,0,.28-.28c0-3.17,0-6.34,0-9.5q0-.31-.31-.31c-5.07,0-10.15,0-15.22,0q-.5,0-.5.51c0,.45,0,.45-.45.42-.14,0-.19-.06-.19-.2,0-.36,0-.72,0-1.09,0-.32,0-.32.31-.32,5.56,0,11.13,0,16.69,0,.31,0,.31,0,.31.32,0,2.38,0,4.75,0,7.13,0,1.02,0,2.05,0,3.07,0,.07-.03.18.04.21.15.07.32.05.48.02.11-.02.07-.15.07-.23,0-3.53,0-7.06,0-10.59,0-.42-.07-.49-.49-.49-2.92,0-5.84,0-8.77,0Z"/>
  <path class="cls-1" d="m17.94,14.18q0,.34-.33.34t-.31-.33.33-.34.31.33Z"/>
  <path class="cls-1" d="m11.36,7.16c.12-.43.23-1.62.67-1.78.72-.28.71,1.29.79,1.67.05.26.34,1.05.25,1.29-.05.13-.36.26-.51.21-.32-.12-.37-1.24-.46-1.56-.12.43-.18,1.53-.73,1.51-.53-.01-.61-1.07-.78-1.51-.06.34-.12.68-.19,1.01-.06.32-.02.53-.38.52-.56-.02-.25-.73-.19-1.07.07-.36.13-.73.2-1.09.04-.24.02-.74.19-.92.27-.29.63-.03.72.26.13.46.27.92.43,1.44Z"/>
  <path class="cls-1" d="m14.98,8.55c-1.38,0-2.12-1.72-1.14-2.71.98-.98,2.75-.28,2.74,1.13,0,.88-.72,1.58-1.6,1.58Zm0-2.51c-.53,0-.93.4-.93.93,0,.81,1.02,1.22,1.59.66.59-.57.15-1.58-.66-1.58Z"/>
  <path class="cls-1" d="m4.44,6.97c0-.29,0-.58,0-.87,0-.15-.07-.43,0-.55.16-.26.76-.14,1.03-.12.83.07,1.31.69,1.33,1.51.02.73-.42,1.49-1.18,1.6-.21.03-1.03.12-1.17-.07-.07-.1-.02-.48-.02-.58,0-.3,0-.61,0-.91Zm.67,0c0,.37-.17,1,.38.92.51-.07.66-.6.62-1.05-.03-.4-.21-.7-.62-.75-.55-.07-.39.48-.39.88Z"/>
  <path class="cls-1" d="m7.36,6.95c0-.3-.14-1.2,0-1.46.14-.23.63-.12.86-.12.24,0,.72-.11.86.12.07.12.03.45-.08.53-.21.16-.69-.13-.9.03-.11.08-.15.45-.05.54.26.27.82-.22.97.26.26.83-1.18,0-1,.79.12.52.88-.05,1.07.4.26.65-.54.5-.88.5-.23,0-.71.11-.84-.12-.07-.13,0-.41,0-.56,0-.3,0-.61,0-.91Z"/>
  <path class="cls-1" d="m17.94,2.8q0,.34-.33.34t-.31-.35.33-.32.31.33Z"/>
  <path class="cls-1" d="m17.94,4.04q0,.33-.34.33t-.3-.36.34-.31.3.34Z"/>
</svg>