<?xml version="1.0" encoding="UTF-8"?>
<svg id="Layer_1" data-name="Layer 1" xmlns="http://www.w3.org/2000/svg" viewBox="0 0 15.62 21">
  <defs>
    <style>
      .cls-1 {
        fill: #c5c5c5;
      }
    </style>
  </defs>
  <path class="cls-1" d="m15.41,0c.15.09.21.23.21.4,0,.69,0,1.38,0,2.07,0,.25-.14.41-.34.41-.2,0-.33-.16-.33-.41,0-.53,0-1.07,0-1.6,0-.17-.04-.24-.23-.24-4.61,0-9.22,0-13.82,0-.23,0-.23.11-.23.28,0,4.6,0,9.2,0,13.8,0,.08,0,.16,0,.25-.02.18-.15.32-.31.32-.17,0-.31-.11-.34-.29-.01-.07-.01-.14-.01-.2C0,10.02,0,5.26,0,.5c0-.2.01-.39.21-.5h15.2Z"/>
  <path class="cls-1" d="m15.62,12.35c0,2.71,0,5.42,0,8.14,0,.1,0,.21-.02.31-.03.16-.14.25-.3.26-.07,0-.14,0-.21,0-4.86,0-9.71,0-14.57,0-.44,0-.53-.09-.53-.53,0-1.31,0-2.63,0-3.94,0-.09,0-.18.02-.26.04-.17.15-.26.33-.26.18,0,.29.12.31.3.01.07,0,.15,0,.23,0,1.18,0,2.37,0,3.55,0,.27,0,.27.27.27,4.57,0,9.15,0,13.72,0q.28,0,.28-.28c0-5.29,0-10.59,0-15.88,0-.09,0-.18,0-.27.02-.18.15-.32.32-.31.18,0,.29.11.33.28.02.09.02.19.02.29,0,2.7,0,5.41,0,8.11Z"/>
  <path class="cls-1" d="m11.46,15.66c0-1.18,0-2.36,0-3.53,0-.44.1-.54.53-.54.53,0,1.07,0,1.6,0,.43,0,.52.1.52.52,0,.29,0,.58,0,.86,0,.23-.13.37-.32.38-.19,0-.32-.14-.32-.37,0-.17,0-.34,0-.51,0-.15-.04-.21-.2-.21-.31,0-.63,0-.94,0-.14,0-.2.05-.19.19,0,.26,0,.52,0,.78,0,1.84,0,3.68,0,5.53q0,.31.32.31c.25,0,.51-.01.76,0,.2.01.26-.05.26-.25,0-1.4,0-2.79,0-4.19,0-.33.11-.5.33-.49.22,0,.32.16.32.5,0,1.55,0,3.09,0,4.64,0,.36-.1.46-.47.46-.57,0-1.14,0-1.7,0-.37,0-.48-.11-.48-.47,0-1.2,0-2.4,0-3.59Z"/>
  <path class="cls-1" d="m3.74,8.81c-2.09,0-3.18-2.62-1.69-4.1,1.49-1.48,4.1-.39,4.1,1.7,0,1.33-1.06,2.4-2.4,2.39Zm-.33-3.18h0c0-.48.18-1.11-.47-.76-.42.22-.73.61-.86,1.07-.28.95.32,1.95,1.29,2.17.47.11.96.03,1.36-.24.17-.12.9-.81.69-1.07-.21-.26-1.32.04-1.65-.05-.5-.14-.35-.68-.35-1.11Zm.67-.25c0,.62-.06.7.59.7.4,0,.89.15.67-.38-.13-.32-.43-.62-.73-.8-.08-.05-.4-.25-.5-.15-.1.09-.03.51-.03.63Z"/>
  <path class="cls-1" d="m7.81,1.3c1.06,0,2.12,0,3.18,0,.36,0,.48.12.48.48,0,.36,0,.71,0,1.07,0,.32-.13.44-.45.44-2.14,0-4.27,0-6.41,0-.33,0-.45-.12-.46-.44,0-.37,0-.74,0-1.11,0-.32.13-.44.45-.44,1.07,0,2.14,0,3.2,0Zm-.02,1.32c.69,0,1.39,0,2.08,0,.4,0,.93.19.93-.32,0-.53-.56-.33-.97-.33-.66,0-1.32,0-1.99,0-.7,0-1.4,0-2.1,0-.38,0-.85-.17-.92.25-.1.57.43.4.84.4.71,0,1.42,0,2.13,0Z"/>
  <path class="cls-1" d="m8.14,16.49c0-.9-.07-1.83,0-2.73.06-.68.68-.5,1.23-.5.57,0,1.35-.23,1.44.49.1.83,0,1.72,0,2.56,0,.84,0,1.68,0,2.51,0,.22.07.65-.13.83-.22.2-.83.08-1.1.08-.32,0-.88.1-1.18-.02-.29-.11-.26-.38-.27-.66-.01-.86,0-1.71,0-2.57Zm2,0c0-.77,0-1.55,0-2.32,0-.19-.06-.25-.25-.24-.29.01-.59,0-.88,0-.15,0-.21.04-.21.2,0,1.58,0,3.16,0,4.74,0,.14.06.19.2.19.29,0,.59-.01.88,0,.19,0,.26-.05.26-.25-.01-.77,0-1.55,0-2.32Z"/>
  <path class="cls-1" d="m7.49,17.74c0,.51,0,1.01,0,1.52,0,.36-.12.48-.48.48-.58,0-1.16,0-1.75,0-.3,0-.44-.11-.44-.41,0-1.05,0-2.09,0-3.14,0-.31.12-.43.43-.43.6-.01,1.2-.01,1.81,0,.32,0,.43.13.43.45,0,.51,0,1.03,0,1.54Zm-2-.01c0,.3-.11.92,0,1.19.11.25.51.14.76.14.3,0,.45.07.57-.19.12-.25,0-.86,0-1.14,0-.29.13-.93,0-1.19-.11-.21-.43-.13-.65-.13-.29,0-.56-.1-.67.18-.11.28,0,.83,0,1.13Z"/>
  <path class="cls-1" d="m10.87,6.77c.49,0,3.4-.28,3.4.33,0,.53-1.06.34-1.38.34-.71,0-1.42,0-2.12,0-.67,0-1.34,0-2.01,0-.31,0-1.18.17-1.27-.29-.1-.55.93-.38,1.21-.38.73,0,1.45,0,2.18,0Z"/>
  <path class="cls-1" d="m10.87,6.05c-.7,0-1.4,0-2.1,0-.3,0-1.25.18-1.28-.31-.03-.54.98-.36,1.27-.36.71,0,1.41,0,2.12,0,.67,0,1.34,0,2,0,.33,0,1.31-.19,1.39.29.09.55-.88.39-1.17.39-.74,0-1.48,0-2.23,0Z"/>
  <path class="cls-1" d="m2.83,19.73c-.29,0-.93.12-1.18-.07-.23-.17-.14-.69-.14-.93,0-.27-.1-.74.14-.93.24-.19.91-.07,1.19-.07.26,0,.97-.11,1.19.07.23.2.15.67.15.94,0,.27.09.74-.15.92-.25.19-.9.06-1.19.07Zm-.01-.67s0,0,0,0c.32,0,.58.11.67-.21.15-.53-.35-.44-.7-.44-.24,0-.5-.07-.62.12-.05.08-.02.45.03.5.11.1.48.03.62.03Z"/>
  <path class="cls-1" d="m10.88,4.01c.65,0,1.29,0,1.94,0,.31,0,1.29-.18,1.44.2.24.6-.85.44-1.13.44-.71,0-1.42,0-2.13,0-.67,0-1.34,0-2.02,0-.32,0-1.4.2-1.49-.27-.11-.57,1.09-.38,1.38-.38.67,0,1.34,0,2,0Z"/>
  <path class="cls-1" d="m5.01,11.58c.59,0,1.18,0,1.77,0,.31,0,1.44-.2,1.35.38-.08.46-.98.29-1.3.29-.64,0-1.29,0-1.93,0-.61,0-1.21,0-1.82,0-.29,0-1.08.15-1.19-.25-.17-.6.95-.42,1.24-.42.63,0,1.25,0,1.88,0Z"/>
  <path class="cls-1" d="m5,10.18c.43,0,3.16-.28,3.14.34-.01.5-.95.33-1.24.33-.63,0-1.27,0-1.9,0-.6,0-1.19,0-1.79,0-.31,0-1.24.18-1.32-.29-.09-.55.89-.39,1.2-.38.63,0,1.27,0,1.9,0Z"/>
  <path class="cls-1" d="m9.64,8.81c-.37,0-2.17.25-2.16-.33,0-.57,1.77-.32,2.15-.32.39,0,2.13-.25,2.16.31.03.58-1.8.33-2.15.33Z"/>
  <path class="cls-1" d="m3.75,13.61c-.36,0-1.86.24-1.87-.32-.01-.59,1.52-.34,1.88-.34.35,0,1.9-.24,1.88.34-.02.57-1.54.32-1.89.32Z"/>
</svg>