<?xml version="1.0" encoding="UTF-8"?>
<svg id="Layer_1" data-name="Layer 1" xmlns="http://www.w3.org/2000/svg" viewBox="0 0 32 32">
  <defs>
    <style>
      .cls-1 {
        fill: #f28a1d;
      }
    </style>
  </defs>
  <path class="cls-1" d="m25.68.24c.51.21.7.6.7,1.15-.01,2.52,0,5.04-.01,7.55,0,.29.07.5.32.68.5.36.96.77,1.45,1.15.48.37.71.85.71,1.46,0,5.85,0,11.7,0,17.54,0,1.24-.83,2.07-2.07,2.07-7.18,0-14.37,0-21.55,0-1.24,0-2.07-.83-2.07-2.07,0-5.85,0-11.7,0-17.54,0-.62.24-1.09.71-1.46.49-.38.95-.78,1.45-1.15.25-.18.32-.38.32-.68-.01-2.52,0-5.04-.01-7.55,0-.55.19-.93.7-1.15h19.37Zm.69,10.39c0,.54,0,.99,0,1.44,0,.28-.21.48-.46.49-.25.01-.46-.15-.5-.44-.03-.17-.03-.35-.03-.52,0-3.34,0-6.68,0-10.02,0-.25-.03-.39-.34-.39-6.02,0-12.05,0-18.07,0-.25,0-.34.07-.34.33,0,4.36,0,8.72,0,13.07,0,.19.06.33.19.46.36.34.71.68,1.04,1.05.27.3.55.44,1,.43,1.96-.04,3.93-.02,5.89-.02.49,0,.75.17.76.49,0,.34-.25.52-.76.52-1.69,0-3.37,0-5.06,0-.1,0-.22-.03-.37.09.1.07.2.11.25.18.42.57.96.75,1.67.71,1.21-.06,2.42-.02,3.64-.01.41,0,.65.22.64.52-.01.29-.25.47-.64.48-.07,0-.14,0-.22,0-1,0-1.99,0-2.99,0-.1,0-.22-.03-.34.06.45.44.88.87,1.31,1.3.4.4.4.4.8,0,.95-.94,2.07-1.33,3.4-1.03.8.18,1.41.66,1.95,1.23.15.15.24.16.39,0,.3-.32.62-.63.93-.94.19-.19.38-.39.62-.63-.19,0-.31,0-.42,0-1.02,0-2.04,0-3.05,0-.14,0-.29,0-.43-.05-.22-.09-.33-.25-.32-.48,0-.21.12-.36.34-.43.15-.05.3-.05.46-.05,1.38,0,2.75,0,4.13,0,.12,0,.26.03.36-.06.29-.28.57-.57.9-.91-.19,0-.3,0-.41,0-1.68,0-3.35,0-5.03,0-.49,0-.75-.17-.75-.5,0-.34.26-.51.77-.51,1.96,0,3.93,0,5.89,0,.08,0,.17-.01.25.01.21.07.34-.03.48-.17,1.21-1.22,2.43-2.43,3.64-3.64.08-.08.16-.16.22-.26.16-.25.14-.6-.08-.79-.4-.34-.81-.66-1.28-1.03Zm-22.26,3.2v.4c0,3.53,0,7.07,0,10.6,0,.89,0,1.79,0,2.68,0,.39,0,.78,0,1.17,0,.18-.12,1.03,0,1.18.25.3,1.3-1,1.55-1.25.61-.61,1.22-1.22,1.83-1.82.61-.61,1.22-1.22,1.83-1.82.45-.45.92-1.13,1.47-1.45.6-.35,1.02.16.66.73-.32.49-.91.91-1.32,1.32-1.09,1.09-2.18,2.18-3.26,3.26-.54.54-1.13,1.06-1.63,1.64-.41.47-.06.41.43.41,6.42,0,12.85,0,19.27,0,.29,0,1.96.17,2.06-.08.08-.22-1.09-1.17-1.28-1.36-1.12-1.12-2.24-2.25-3.36-3.37-1.12-1.12-2.24-2.24-3.37-3.37-.94-.94-1.85-2.15-3.34-1.93-.64.09-1.14.43-1.59.88-.32.31-.92,1.19-1.38,1.29-.92.19-.4-.84-.55-1.16-.26-.55-1.07-1.08-1.51-1.51-1.12-1.12-2.25-2.24-3.37-3.37-.56-.56-1.12-1.12-1.68-1.68-.33-.33-.99-1.29-1.46-1.38Zm23.71-.01c-.08.07-.15.13-.22.2-2.55,2.55-5.1,5.1-7.65,7.65q-.29.29,0,.57c2.48,2.48,4.95,4.95,7.43,7.43.12.12.24.38.4.31.15-.07.08-.34.08-.52,0-5.1,0-10.21,0-15.31,0-.1.03-.2-.04-.32Zm-22.24-.13v-3.03c-.42.34-1.47.87-1.44,1.49.03.56,1.05,1.19,1.44,1.55Z"/>
  <path class="cls-1" d="m16.02,12.56c2.33,0,4.67,0,7,0,.06,0,.12,0,.18,0,.46,0,.71.18.7.51,0,.31-.26.5-.69.5-4.81,0-9.62,0-14.43,0-.12,0-.25-.02-.36-.06-.2-.07-.32-.23-.32-.44,0-.23.12-.39.34-.47.14-.05.28-.04.43-.04,2.38,0,4.77,0,7.15,0Z"/>
  <path class="cls-1" d="m15.99,4.68c-1.54,0-3.08,0-4.62,0-.54,0-3.27.38-3.26-.52.01-.89,2.78-.48,3.32-.48,1.53,0,3.05,0,4.58,0,1.47,0,2.94,0,4.41,0,.58,0,3.48-.41,3.5.48.02.91-2.61.52-3.17.52-1.58,0-3.16,0-4.75,0Z"/>
  <path class="cls-1" d="m17.2,8.2c.1-.46.14-2.04.83-2.05.68-.01.72,1.43.88,1.89.1-.44.19-2.22,1.01-1.84.65.3-.02,1.98-.13,2.5-.11.5-.17,2.12-.72,2.33-.83.33-.91-1.43-1.06-1.87-.1.44-.14,1.62-.6,1.86-.69.35-.8-.81-.89-1.2-.19-.88-.39-1.76-.56-2.65-.06-.34-.2-.78.19-.97.34-.16.63.1.7.43.12.5.21,1,.34,1.57Z"/>
  <path class="cls-1" d="m10.32,8.57c0-.5-.3-2.29.44-2.4.91-.13.57,1.81.57,2.28,0,.52.34,2.56-.47,2.63-.66.06-1.42-1.93-1.7-2.42-.53.42.48,2.08-.41,2.39-.96.32-.66-1.67-.66-2.1,0-.55-.35-2.62.39-2.78.73-.16,1.49,1.91,1.78,2.41.02,0,.04,0,.06-.01Z"/>
  <path class="cls-1" d="m12.1,8.6c0-.56-.17-1.49.02-2.02.16-.47.5-.43.95-.43.33,0,3.09-.13,2.1.84-.45.44-1.26-.06-1.76.16-.27.12-.51.44-.3.8.33.56,1.53-.24,1.88.46.26.51-.33.69-.7.73-.52.05-1.1-.23-1.19.41-.13.98,1.06.45,1.67.56.44.09.8.48.37.87-.34.31-1.44.15-1.88.14-.46-.01-.94.06-1.13-.43-.21-.54-.02-1.52-.02-2.08Z"/>
  <path class="cls-1" d="m22.3,6.15c.62,0,2.2.86,1.48,1.68-.65.74-.98-1.04-1.8-.63-.76.38.15.79.49.95.53.25,1.08.44,1.33,1.02.43,1-.49,1.88-1.46,1.9-.64.02-2.49-1.1-1.43-1.77.47-.29.6.24.82.49.24.28.98.51,1.13-.02.15-.51-.77-.7-1.09-.85-.41-.19-.81-.43-1-.87-.44-1.04.51-1.94,1.52-1.93Z"/>
  <path class="cls-1" d="m11.78,15.55c-.61,0-3.7.4-3.69-.52.01-.9,3.07-.49,3.7-.49.62,0,3.73-.4,3.7.52-.03.89-3.13.49-3.71.49Z"/>
  <path class="cls-1" d="m20.2,15.55c-.61,0-3.41.37-3.67-.34-.38-1.05,3.02-.67,3.5-.67.61,0,3.7-.39,3.86.41.19.98-3.15.6-3.69.6Z"/>
</svg>