<?xml version="1.0" encoding="UTF-8"?>
<svg id="Layer_1" data-name="Layer 1" xmlns="http://www.w3.org/2000/svg" viewBox="0 0 50 50">
  <defs>
    <style>
      .cls-1 {
        fill: #969696;
      }
    </style>
  </defs>
  <path class="cls-1" d="m24.88,48.28c-6.41,0-12.83,0-19.24,0-1.75,0-3.21-1.03-3.81-2.68-.14-.38-.2-.77-.2-1.18,0-12.92,0-25.84,0-38.77,0-2.1,1.78-3.85,3.9-3.86,6.71,0,13.42,0,20.13,0,.96,0,1.58.61,1.58,1.5,0,.86-.64,1.46-1.57,1.46-5.96,0-11.92,0-17.87,0-2.11,0-3.2,1.09-3.2,3.19,0,11.39,0,22.78,0,34.16,0,2.14,1.08,3.21,3.24,3.21,11.39,0,22.78,0,34.18,0,2.15,0,3.23-1.07,3.23-3.21,0-5.93,0-11.86,0-17.79,0-1.01.63-1.64,1.58-1.6.72.03,1.32.61,1.37,1.33,0,.1,0,.21,0,.31,0,6.64,0,13.29,0,19.93,0,1.72-1.03,3.16-2.65,3.77-.49.18-.98.21-1.49.21-6.4,0-12.79,0-19.19,0Z"/>
  <path class="cls-1" d="m41.6,1.79c1.71,0,3.43-.01,5.14,0,1.83.02,1.47.99,1.47,2.62,0,1.62,0,3.23,0,4.85,0,1.56.37,3.69-.04,5.2-.3,1.11-1.67,1.63-2.53.72-.92-.98-.38-3.55-.4-4.81-.02-1.24-.5-2.62-1.88-1.6-1.41,1.05-2.64,2.63-3.88,3.87-2.6,2.6-5.2,5.19-7.81,7.79-1.04,1.03-2.12,2.55-3.37,3.31-1.12.68-2.82,0-2.38-1.54.37-1.3,2.3-2.58,3.22-3.51,1.3-1.3,2.61-2.6,3.91-3.91,2.54-2.53,5.08-5.06,7.62-7.6.45-.45,1.16-.95.9-1.67-.25-.7-.99-.72-1.6-.75-1.35-.07-3.93.54-5.06-.31-1.07-.81-.51-2.31.64-2.62.8-.22,1.83-.04,2.66-.04,1.13,0,2.26,0,3.4,0Z"/>
</svg>