<?xml version="1.0" encoding="UTF-8"?>
<svg id="Layer_1" data-name="Layer 1" xmlns="http://www.w3.org/2000/svg" viewBox="0 0 32 32">
  <defs>
    <style>
      .cls-1 {
        fill: #fff;
      }
    </style>
  </defs>
  <path class="cls-1" d="m1.2,13.66c.17-.53.48-1.02.96-1.32.55-.34.9-.19,1.13-.84.44-1.21,1.04-2.36,1.81-3.4.69-.95,1.64-2.16,2.69-2.75.64-.36,1.03.2.56.73-.5.56-1.16.99-1.67,1.57.2.18.8.06,1.05.06.47,0,.93,0,1.4,0,.67,0,2.02.27,2.54-.15.26-.21.46-.73.65-1.01.23-.35.47-.69.72-1.02.5-.66,1.15-1.25,1.61-1.93-1.05-.06-2.26.38-3.22.75-.4.16-.92.56-1.34.6-.43.04-.81-.28-.51-.71.21-.31.89-.49,1.22-.63.5-.21,1.01-.38,1.53-.53,1.23-.35,2.5-.52,3.78-.51,3.67.04,7.24,1.62,9.73,4.31.61.66,1.15,1.38,1.62,2.15.24.39.45.79.65,1.2.22.47.34,1.06.61,1.5.37.61,1.28.57,1.72,1.26.59.93.33,2.34.32,3.38,0,.88.17,1.93-.33,2.71-.5.78-1.48.67-1.8,1.52-.73,1.89-1.76,3.59-3.22,5.02-.29.28-.87,1.04-1.34.84-.74-.31.18-1.02.44-1.26.13-.12.6-.46.64-.64.06-.27.12-.09-.1-.23-.3-.19-1.56,0-1.92,0-.74,0-1.49-.03-2.23,0-.76.03-.86.55-1.25,1.14-.36.55-.75,1.08-1.17,1.6-.34.42-.96.89-1.17,1.39,1.22-.03,2.5-.45,3.61-.92.45-.2,1.08-.72,1.56-.74.65-.02.55.61.17.9-1.02.78-2.57,1.21-3.8,1.49-1.29.29-2.61.37-3.92.24-3.97-.39-7.52-2.25-9.84-5.54-.68-.96-1.27-2.02-1.7-3.11-.11-.29-.15-.59-.41-.76-.22-.14-.57-.15-.81-.3-.48-.3-.79-.79-.96-1.32v-4.73Zm14.79-.73c-4.11,0-8.22,0-12.34,0-1.17,0-1.57.41-1.57,1.58,0,1.06,0,2.11,0,3.17,0,.95.46,1.41,1.41,1.43.09,0,.17,0,.26,0,8.14,0,16.28,0,24.41,0,.11,0,.21,0,.32,0,.9-.03,1.35-.49,1.35-1.4,0-1.12,0-2.25,0-3.37,0-.93-.46-1.4-1.4-1.41-.11,0-.21,0-.32,0-4.04,0-8.09,0-12.13,0Zm-.04-.91c1.65,0,3.31,0,4.96,0,.36,0,.36,0,.25-.33-.33-.96-.74-1.87-1.2-2.77-.1-.2-.22-.28-.45-.27-2.36,0-4.73,0-7.09,0-.23,0-.35.09-.45.28-.46.9-.87,1.82-1.2,2.77-.11.32-.11.32.23.32,1.65,0,3.31,0,4.96,0Zm.02,8c-1.67,0-3.34,0-5.02,0-.19,0-.3.01-.21.25.35,1,.77,1.97,1.27,2.9.09.17.21.22.39.22,2.37,0,4.75,0,7.12,0,.21,0,.33-.07.43-.26.47-.91.88-1.83,1.21-2.8.11-.31.1-.31-.23-.31-1.65,0-3.31,0-4.96,0Zm9.08,0c-.84,0-1.67,0-2.51,0-.22,0-.33.06-.39.28-.3.96-.7,1.89-1.15,2.8-.14.29-.13.3.18.3,1.55,0,3.09,0,4.64,0,.2,0,.32-.07.43-.22.62-.9,1.11-1.86,1.49-2.88.08-.2.04-.27-.19-.27-.84,0-1.67,0-2.51,0ZM6.88,12.03c.85,0,1.69,0,2.54,0,.2,0,.29-.07.35-.25.31-.98.71-1.93,1.17-2.85.11-.22.07-.28-.17-.28-1.57,0-3.13,0-4.7,0-.16,0-.27.05-.36.18-.64.91-1.14,1.89-1.53,2.93-.08.21-.02.26.19.26.84,0,1.67,0,2.51,0Zm.04,8c-.85,0-1.69,0-2.54,0-.24,0-.27.07-.19.28.38,1.02.88,1.98,1.5,2.88.1.15.22.22.4.21,1.56,0,3.11,0,4.67,0,.3,0,.31-.01.17-.29-.45-.9-.85-1.83-1.15-2.79-.07-.23-.19-.29-.41-.29-.82.01-1.63,0-2.45,0Zm18.11-8c.84,0,1.67,0,2.51,0,.22,0,.3-.03.21-.27-.39-1.03-.89-2-1.52-2.9-.11-.16-.23-.2-.41-.2-1.55,0-3.09,0-4.64,0-.31,0-.32.01-.18.28.45.91.85,1.85,1.16,2.82.07.22.19.27.4.27.83-.01,1.65,0,2.48,0Zm.22-4.31c-1-1.8-6.33-4.51-7.95-4.08.02.03.04.07.07.09,1.09,1.15,2.03,2.41,2.83,3.77.1.16.22.22.4.22,1.09,0,2.17,0,3.26,0,.45,0,.9,0,1.39,0Zm-10.57,20.77c-.07-.1-.09-.14-.12-.16-1.09-1.15-2.03-2.41-2.83-3.77-.1-.18-.24-.22-.43-.22-1.45,0-2.9,0-4.35,0-.08,0-.17-.03-.28.08,2.15,2.33,4.78,3.69,8.01,4.07Zm1.27-20.77c1.01,0,2.02,0,3.02,0,.2,0,.27-.04.14-.24-.84-1.31-1.78-2.52-2.91-3.59-.18-.17-.29-.19-.47-.01-1.13,1.08-2.09,2.3-2.92,3.62-.15.24.01.22.17.22.99,0,1.98,0,2.97,0Zm.02,16.62c-.99,0-1.98,0-2.97,0-.3,0-.31.02-.16.25.83,1.31,1.78,2.52,2.91,3.59.17.16.28.16.45,0,1.13-1.07,2.07-2.29,2.91-3.59.13-.2.08-.26-.15-.26-1,0-2,0-2.99,0Z"/>
  <path class="cls-1" d="m14.77,16.29c.18-.5.53-2.36,1.2-2.35.67.02.97,1.83,1.19,2.34.17-.46.34-.92.51-1.38.1-.26.19-.8.49-.93,1.14-.47.24,1.62.14,1.91-.16.45-.56,2.56-1.34,2.2-.31-.14-.39-.66-.49-.94-.11-.3-.24-1.13-.54-1.29-.19.5-.45,2.05-1,2.25-.72.26-1.03-1.46-1.19-1.9-.16-.44-1.03-1.97-.32-2.23.72-.27,1.06,1.56,1.23,2,.03.09.07.17.13.32Z"/>
  <path class="cls-1" d="m9.55,15.75c-.17.46-.34.93-.51,1.39-.1.27-.18.81-.49.94-.77.33-1.11-1.58-1.27-2.03-.15-.4-1.03-1.97-.18-2.11.69-.11,1.05,1.78,1.24,2.27.54-.45.35-2.11,1.13-2.27.73-.15,1.08,1.81,1.26,2.29.5-.42.43-1.48.8-2.01.17-.24.48-.43.74-.16.27.27.03.71-.07.99-.28.79-.56,1.58-.86,2.36-.2.54-.78,1.09-1.08.25-.22-.61-.44-1.23-.7-1.92Z"/>
  <path class="cls-1" d="m21.21,16.24c.18-.5.54-2.42,1.26-2.28.73.14.68,1.76,1.13,2.27.18-.49.52-2.25,1.14-2.3,1-.08.06,1.74-.08,2.12-.17.48-.48,2.23-1.19,2.04-.81-.21-.5-1.86-1.11-2.28-.17.47-.35.95-.52,1.42-.09.25-.17.71-.44.84-.77.35-1.09-1.47-1.24-1.88-.15-.42-1.1-2.13-.23-2.25.67-.09.96,1.56,1.13,2.02.03.09.04.19.15.27Z"/>
</svg>