<?xml version="1.0" encoding="UTF-8"?>
<svg id="Layer_1" data-name="Layer 1" xmlns="http://www.w3.org/2000/svg" viewBox="0 0 32 32">
  <defs>
    <style>
      .cls-1 {
        fill: #232323;
      }
    </style>
  </defs>
  <path class="cls-1" d="m31.09,4.99v19.02c-.41,1.05-1.11,1.25-2.17,1.25-.59,0-3.58.39-3.58-.47,0-.83,3.04-.45,3.63-.46.48,0,.97,0,1.17-.5.09-.24.18-1.11.03-1.33-.19-.27-.9-.13-1.18-.13-.76,0-1.53,0-2.29,0-6.11,0-12.21,0-18.32,0-1.53,0-3.05,0-4.58,0-.4,0-1.55-.22-1.83.11-.22.26-.04,1.39.19,1.63.35.37,1.13.23,1.59.23.77,0,1.53,0,2.3,0,1.53,0,3.06,0,4.59,0,3.06,0,6.13,0,9.19,0,.77,0,1.53,0,2.3,0,.44,0,1.5-.19,1.89.07.47.32.12.77-.29.86-.62.13-1.43,0-2.06,0-.66,0-1.57-.17-2.21,0-.56.14-.35.73-.35,1.24,0,.37-.22,1.49.07,1.77.27.25,1.41.06,1.75.06,1,.02,1.82.95,1.22,1.95-.61,1.01-2.47.61-3.44.61-1.49,0-2.98,0-4.47,0-.75,0-1.5,0-2.24,0-.53,0-1.24.11-1.68-.26-.75-.62-.47-2.08.49-2.29.62-.13,1.33.14,1.93-.01.57-.14.34-.83.34-1.34,0-.35.21-1.41-.05-1.68-.24-.25-1.39-.05-1.69-.05-1.53,0-3.06,0-4.59,0-1.39,0-2.99.22-4.35-.04-1.08-.2-1.35-1.07-1.35-2.05-.02-3,0-6,0-9,0-1.52,0-3.04,0-4.56,0-1.43-.21-3.04.02-4.45.2-1.27,1.42-1.2,2.43-1.2,1.53,0,3.07,0,4.6,0,3.07,0,6.14,0,9.2,0,1.53,0,3.07,0,4.6,0,1.26,0,2.79.36,3.74-.6.66-.67,1.91-2.58,3.01-1.94.42.24,1.03.85,1.28,1.28.13.24.17.46.11.72-.03.15-.24.38-.21.53.63.07,1.08.41,1.29,1.02Zm-16.99,7.83c.11-.07.14-.17.19-.25.23-.39.44-.78.68-1.17.36-.58,1.04-.57,1.42,0,.07.11.14.23.21.35,1.1,1.91,2.2,3.81,3.3,5.72.19.32.19.32.37,0,.88-1.52,1.75-3.03,2.63-4.55.42-.71,1.13-.71,1.54,0,.42.73.84,1.46,1.26,2.19.05.08.1.17.13.26.09.24.04.44-.18.59-.21.14-.46.09-.62-.13-.08-.1-.14-.21-.2-.32-.33-.57-.65-1.14-.98-1.7-.18-.3-.19-.3-.36,0-.81,1.4-1.58,2.82-2.44,4.18-.35.56-.4.99,0,1.52.17.23.32.35.61.35,1.75-.01,3.5,0,5.25,0,.07,0,.14,0,.21,0,.12,0,.16-.07.11-.18-.04-.08-.08-.15-.13-.23-.35-.61-.71-1.22-1.05-1.83-.14-.25-.06-.51.15-.64.23-.14.49-.07.66.17.05.07.09.15.14.23.4.69.8,1.39,1.21,2.08.08.13.12.39.3.35.2-.05.1-.29.1-.44,0-4.12,0-8.24,0-12.36,0-.07,0-.14,0-.21.02-.23-.1-.31-.32-.3-.29.01-.59,0-.88,0-.16,0-.28.05-.39.17-.36.36-.71.73-1.08,1.08-.18.17-.19.25.04.4,1.16.74,1.27,2.32.23,3.21-.94.8-2.31.58-3-.5-.12-.18-.18-.21-.34-.05-.29.31-.6.59-.89.9-.22.23-.47.4-.77.52-.67.27-1.34.54-2.01.82-.29.12-.57.16-.82-.08-.25-.24-.21-.53-.09-.82.29-.71.58-1.41.86-2.12.09-.22.22-.41.39-.58.89-.88,1.77-1.77,2.66-2.66.07-.07.17-.13.2-.25-.11-.07-.23-.03-.34-.03-4.42,0-8.85,0-13.27,0-.14,0-.28.01-.41-.02-.24-.05-.38-.22-.37-.46.01-.24.15-.4.4-.44.13-.02.25-.01.38-.01,4.73,0,9.45,0,14.18.01.48,0,.71-.26,1.02-.62h-.37c-7,0-13.99,0-20.99,0-.6,0-.7.1-.7.69,0,5.12,0,10.24,0,15.35q0,.42.43.42c9.13,0,18.26,0,27.39,0q.44,0,.44-.44c0-5.1,0-10.2,0-15.29,0-.09,0-.18,0-.26-.03-.31-.17-.45-.49-.46-.17,0-.34.02-.5,0-.49-.08-.74.24-1.04.61.25,0,.44,0,.63,0,.44.01.73.28.78.72.01.1,0,.2,0,.29,0,4.4,0,8.81,0,13.21,0,.14,0,.28-.03.41-.08.37-.35.59-.72.62-.1,0-.2,0-.29,0-8.32,0-16.63,0-24.95,0-.09,0-.18,0-.26,0-.42-.02-.71-.29-.77-.71-.01-.11,0-.21,0-.32,0-4.39,0-8.79,0-13.18,0-.1,0-.2,0-.29.04-.45.34-.73.79-.74.45,0,.9,0,1.35,0,.59,0,1.17,0,1.76,0,.26,0,.45.21.45.45,0,.24-.18.44-.44.47-.09.01-.18,0-.26,0-.75,0-1.51,0-2.26,0-.43,0-.43,0-.43.42,0,4.17,0,8.34,0,12.51,0,.42.01.44.45.44,1.76,0,3.52,0,5.28,0,1.04,0,.74.14,1.28-.75.17-.28.16-.29-.17-.29-1.65,0-3.31,0-4.96,0-.75,0-1.02-.28-1.02-1.03,0-3.05,0-6.11,0-9.16,0-.86.42-1.28,1.28-1.28,1.59,0,3.19,0,4.78,0,.81,0,1.62,0,2.44,0,.72,0,1.12.39,1.19,1.1.01.14.01.27.01.41,0,1.2,0,2.41,0,3.61,0,.11-.02.23.04.37Zm-4.89,5.01c1.17,0,2.35,0,3.52,0,.28,0,.37-.09.37-.37,0-2.07,0-4.15,0-6.22,0-.28-.09-.37-.37-.37-2.35,0-4.69,0-7.04,0-.28,0-.37.09-.37.37,0,2.07,0,4.15,0,6.22,0,.28.09.38.37.37,1.17-.01,2.35,0,3.52,0Zm6.46,2.01c1.38,0,2.76,0,4.14,0,.31,0,.33-.04.19-.29-.61-1.06-1.23-2.12-1.83-3.18-.11-.19-.17-.18-.3-.01-.41.5-1.08.44-1.43-.11-.13-.2-.24-.4-.35-.61-.1-.18-.2-.2-.31,0-.2.35-.4.69-.6,1.04-.2.35-.48.54-.88.51-.17-.01-.23.06-.23.22,0,.21,0,.41-.02.62-.05.49-.34.75-.84.76-.2,0-.39,0-.59,0-1.02.02-.72-.15-1.24.71-.18.31-.17.33.19.33,1.37,0,2.74,0,4.11,0Zm.41,5.42c-.39,0-1.62-.21-1.96.03-.33.23-.13,1.14-.13,1.5,0,.53-.21,1.32.31,1.54.46.2,1.38,0,1.9,0,.37,0,1.57.18,1.82-.08.25-.25.08-1.39.08-1.75,0-.33.16-1.05-.17-1.22-.36-.19-1.44-.01-1.85-.01Zm-6.9-15.36c1.19,0,2.38,0,3.58,0,.25,0,.35-.09.34-.34-.02-.29,0-.59,0-.88,0-.37-.02-.4-.4-.4-1.52,0-3.05,0-4.57,0-.81,0-1.62,0-2.43,0-.28,0-.39.1-.37.38.02.29.02.59,0,.88-.02.29.1.37.38.37,1.16-.01,2.33,0,3.49,0Zm16.39-5.1c-.09,0-.14.07-.19.13-1.6,1.6-3.2,3.2-4.8,4.79-.14.14-.13.23,0,.36.22.21.44.42.64.64.15.16.25.13.38-.02.25-.26.51-.51.77-.77,1.32-1.32,2.64-2.65,3.97-3.96.18-.18.19-.3,0-.47-.21-.18-.39-.38-.58-.58-.05-.05-.1-.12-.19-.13Zm-9.53,25.12c1.62,0,3.24,0,4.87,0,.32,0,.37-.06.36-.38,0-.3-.2-.29-.4-.29-2.97,0-5.94,0-8.91,0-.27,0-.55,0-.82,0-.19,0-.28.09-.29.28-.01.32.04.38.36.38,1.61,0,3.23,0,4.84,0Zm-1.98-14.67c-.04.27.05.49.19.72.18.3.77-.98.92-1.14.27-.27.62-.41,1.01-.31.47.13.5.54.81.8.11.09.03.26.23.23.2-.04.2-.36.19-.48-.05-.43-.61-1.08-.83-1.45-.13-.22-.67-1.44-.9-1.45-.21,0-.77,1.22-.87,1.39-.27.47-.83,1.1-.75,1.69Zm11-4.42c.37,0,.82-.37.89-.86.07-.43-.13-.87-.51-1.08-.51-.3-.75.06-1.1.42-.35.35-.62.65-.26,1.11.24.31.59.42.97.41Zm3.14-6.75s.05-.02.07-.04c.25-.25.79-.61.7-.96-.07-.25-.74-.78-.95-.76-.31.02-.77.71-.7.95.05.17.72.82.88.81Zm-.75.72s-.01-.05-.03-.07c-.16-.16-1.19-1.33-1.07-.55.02.16,1.04,1.23,1.1.63Zm-6.95,6.58c0-.1-.39-.49-.47-.5-.26-.05-.25.13-.36.4-.48,1.18.83.08.83.1Z"/>
  <path class="cls-1" d="m16.05,23.79c-.41,0-1.52.2-1.52-.48,0-.71,1.26-.49,1.69-.48.4,0,1.5-.14,1.34.58-.13.57-1.1.39-1.51.39,0,0,0,0,0,0Z"/>
  <path class="cls-1" d="m10.75,13.53c-.4,0-.96-.1-1.34,0-.3.08-.4.35-.64.53-.53.41-1.19.31-1.66-.14-.31-.29-.3-.3-.71-.41-.27-.07-.57-.09-.56-.47,0-.34.28-.39.54-.45.42-.1.42-.11.74-.42.43-.4,1.03-.53,1.55-.2.26.16.39.48.67.59.34.13.92.01,1.28.01.45,0,1.91-.26,1.92.46.01.73-1.37.47-1.8.47,0,0,0,0,0,0Zm-2.72-.77c-.18.01-.29.1-.3.29-.02.81,1.14-.2.3-.29Z"/>
  <path class="cls-1" d="m10.36,16.86c-.67-.05-.85-.65-1.4-.8-.78-.21-1.73.11-2.52,0-.48-.07-.92-.58-.29-.87.6-.28,1.74-.05,2.4-.05.74,0,.8-.54,1.44-.75.73-.24.98.22,1.48.58.3.22,1.34.1,1.06.81-.13.33-.37.2-.65.28-.29.08-.49.23-.67.47-.2.26-.52.32-.85.35Zm0-1.58c-.16.02-.28.1-.28.29-.02.8,1.15-.21.28-.29Z"/>
  <path class="cls-1" d="m11.44,9.01c.01,1.3-1.77-.42-.47-.45.27,0,.47.19.47.45Z"/>
  <path class="cls-1" d="m10.23,9.02c-.03,1.31-1.78-.5-.45-.47.26,0,.46.21.45.47Z"/>
  <path class="cls-1" d="m12.66,9c.03,1.31-1.81-.42-.48-.45.26,0,.47.2.48.45Z"/>
</svg>