<?xml version="1.0" encoding="UTF-8"?>
<svg id="Layer_1" data-name="Layer 1" xmlns="http://www.w3.org/2000/svg" viewBox="0 0 32 32">
  <defs>
    <style>
      .cls-1 {
        fill: #232323;
      }
    </style>
  </defs>
  <path class="cls-1" d="m25.31.71c.28.12.58.21.83.4.62.48.92,1.11.92,1.88,0,2.47,0,4.93,0,7.4,0,3.73,0,7.46,0,11.19,0,.27.07.43.32.57.88.49,1.73,1.02,2.6,1.51.37.21.61.49.54.93-.06.44-.37.63-.77.72-.2.05-.4.12-.6.16-.21.05-.23.13-.11.31.53.79,1.05,1.59,1.58,2.39.11.17.22.33.32.5.22.4.15.83-.23,1.08-.69.47-1.39.93-2.09,1.37-.44.28-.89.16-1.19-.29-.59-.89-1.18-1.79-1.77-2.69q-.22-.34-.46-.03c-.14.18-.28.36-.43.53-.23.27-.53.39-.88.28-.35-.1-.55-.36-.59-.71-.11-.84-.22-1.67-.3-2.51-.03-.26-.12-.35-.39-.35-1.8.01-3.6,0-5.4,0-.28,0-.51-.07-.65-.33-.22-.42.07-.89.56-.9.8-.01,1.59,0,2.39,0,.98,0,1.97-.01,2.95,0,.28,0,.33-.08.3-.34-.12-.9-.22-1.79-.33-2.69,0-.05-.02-.1-.02-.15-.04-.39-.03-.77.35-1.01.37-.24.72-.11,1.06.09.57.33,1.13.66,1.7.99.29.17.29.16.29-.17,0-4,0-7.99,0-11.99,0-.82,0-1.63,0-2.45,0-.26-.08-.34-.34-.34-7.63,0-15.25,0-22.88,0-.26,0-.34.08-.34.34,0,5.55,0,11.1,0,16.64,0,.65.4,1.04,1.07,1.06.6.01,1.19,0,1.79,0,2.22,0,4.43,0,6.65,0,.29,0,.53.06.67.34.2.39-.05.84-.48.89-.09.01-.18,0-.27,0-2.77,0-5.55-.03-8.32.01-1.26.02-2.4-.94-2.4-2.43.02-6.61,0-13.22,0-19.84,0-1.2.52-1.94,1.64-2.36.04-.01.07-.03.11-.05h22.61Zm-11.32,4.11c3.76,0,7.52,0,11.28,0,.09,0,.18,0,.27,0,.18,0,.25-.08.25-.25,0-.58,0-1.15,0-1.73-.01-.42-.3-.75-.71-.86-.19-.05-.37-.05-.56-.05-7,0-14,0-21,0-.09,0-.18,0-.27,0-.63.04-1,.43-1.01,1.06,0,.47,0,.93,0,1.4q0,.43.43.43c3.78,0,7.56,0,11.33,0Zm9.75,16.66c0,.1-.01.13-.01.17.13,1.06.26,2.11.39,3.17.06.49.12.99.19,1.48.03.25-.05.72.24.6.22-.09.31-.45.58-.55.3-.12.61-.05.86.14.59.44,1,1.47,1.41,2.08.17.26.51,1.01.77,1.14.24.12.31.02.55-.13.21-.13.8-.38.81-.67.01-.3-.45-.75-.6-.98-.46-.69-1.27-1.55-1.49-2.35-.26-.96.58-.85,1.11-1.28-1.61-.94-3.19-1.87-4.8-2.81Z"/>
  <path class="cls-1" d="m14.04,17.3c-2.5,0-4.99,0-7.49,0-.15,0-.3,0-.44-.04-.29-.09-.49-.34-.48-.61,0-.29.22-.54.52-.61.1-.02.2-.02.3-.02,5.05,0,10.1,0,15.15,0,.11,0,.22,0,.32.03.28.07.48.33.48.61,0,.27-.19.5-.46.59-.16.05-.31.04-.47.04-2.48,0-4.95,0-7.43,0Z"/>
  <path class="cls-1" d="m8.28,8.51c.59,0,1.96-.27,2.42.18.46.45.19,1.84.19,2.43,0,.59.26,1.99-.2,2.43-.47.46-1.84.18-2.43.18-.58,0-1.92.25-2.4-.14-.51-.41-.25-1.76-.25-2.33,0-.61-.27-2.03.14-2.53.44-.53,1.92-.24,2.52-.24Zm0,1.24c-.25,0-1.12-.13-1.32.07-.22.21-.06.98-.06,1.28,0,.27-.15,1.1.07,1.29.25.22.96.08,1.29.08.29,0,1.13.16,1.33-.11.19-.26.03-1.1.03-1.42,0-.28.15-1-.11-1.17-.21-.14-.97-.02-1.23-.02Z"/>
  <path class="cls-1" d="m12.73,19.79c1.4,0,2.8,0,4.2,0,.6,0,3.01-.39,2.83.74-.16.95-2.48.54-3.13.54-1.41,0-2.83,0-4.24,0-1.36,0-2.72,0-4.08,0-.58,0-2.67.37-2.67-.63,0-1.04,2.22-.64,2.84-.64,1.42,0,2.84,0,4.26,0Z"/>
  <path class="cls-1" d="m17.85,12.27c.96,0,1.92,0,2.89,0,.52,0,1.62-.18,1.66.6.04.87-1.23.67-1.75.67-.97,0-1.94,0-2.92,0-.92,0-1.84,0-2.75,0-.5,0-1.68.16-1.63-.68.04-.78,1.13-.59,1.65-.59.95,0,1.91,0,2.86,0Z"/>
  <path class="cls-1" d="m17.83,9.74c-.96,0-1.92,0-2.88,0-.49,0-1.89.14-1.58-.8.23-.71,1.65-.43,2.19-.43.97,0,1.94,0,2.91,0,.88,0,1.76,0,2.64,0,.48,0,1.4-.04,1.29.71-.11.71-1.11.53-1.62.53-.98,0-1.97,0-2.95,0h0Z"/>
  <path class="cls-1" d="m14.52,25.37c-.55,0-.84-.65-.45-1.04.37-.37,1.04-.13,1.06.4,0,.35-.26.63-.6.64Z"/>
  <path class="cls-1" d="m6.13,2.81c.56.02.81.7.41,1.08-.39.36-1.07.07-1.04-.48.02-.32.32-.6.63-.6Z"/>
  <path class="cls-1" d="m4.56,3.44c0,.55-.68.81-1.06.43-.38-.38-.12-1.04.43-1.05.34,0,.64.28.63.62Z"/>
  <path class="cls-1" d="m8.93,3.42c0,.55-.64.84-1.03.47-.38-.36-.15-1.05.39-1.08.33-.01.63.27.64.61Z"/>
</svg>