<?xml version="1.0" encoding="UTF-8"?>
<svg id="Layer_1" data-name="Layer 1" xmlns="http://www.w3.org/2000/svg" viewBox="0 0 32 32">
  <path d="m16.9.06c.64.21,1.14.61,1.61,1.08,4.14,4.15,8.29,8.29,12.43,12.44.23.23.46.46.63.73.61.94.63,1.97.19,2.95-.45,1.02-1.32,1.57-2.45,1.67-.68.06-.64-.07-.64.67,0,2.82,0,5.63,0,8.45,0,.6-.04,1.2-.28,1.77-.52,1.27-1.77,2.13-3.14,2.14-1.69,0-3.39,0-5.08,0-.68,0-1.05-.38-1.05-1.07,0-2.43,0-4.86,0-7.3,0-.7-.3-1.22-.94-1.51-.18-.08-.38-.11-.58-.11-1.01,0-2.02,0-3.02,0-.89,0-1.53.65-1.53,1.55,0,2.42,0,4.84,0,7.27,0,.84-.34,1.18-1.17,1.18-1.64,0-3.28,0-4.93,0-1.84,0-3.31-1.41-3.43-3.24-.03-.37-.03-.75-.03-1.12,0-2.74,0-5.49,0-8.23,0-.28-.07-.41-.38-.42-.84-.02-1.59-.29-2.19-.91-1.14-1.18-1.12-2.95.04-4.19.08-.08.16-.16.24-.24C5.36,9.46,9.51,5.32,13.65,1.17c.48-.48.98-.89,1.63-1.1h1.62ZM5.45,23.25c0,1.69,0,3.39,0,5.08,0,1.05.64,1.7,1.68,1.71,1.21,0,2.41,0,3.62,0,.28,0,.36-.09.36-.36,0-1.89,0-3.78,0-5.67,0-.29.01-.58.04-.87.17-1.73,1.62-3.11,3.36-3.13,1.07-.02,2.14-.02,3.21,0,.96.02,1.77.41,2.43,1.11.69.73.95,1.62.95,2.6,0,1.99,0,3.97,0,5.96,0,.28.08.38.37.38,1.15-.02,2.31,0,3.46,0,1.22,0,1.83-.6,1.83-1.82,0-3.38,0-6.76,0-10.13,0-.71.37-1.08,1.07-1.08.39,0,.79,0,1.18,0,.48,0,.85-.17,1.06-.62.19-.42.1-.84-.28-1.22-4.3-4.3-8.6-8.6-12.9-12.9-.5-.5-1.08-.5-1.57,0C11,6.57,6.7,10.87,2.39,15.18c-.34.34-.47.73-.27,1.19.19.44.56.63,1.02.64.39,0,.79,0,1.18,0,.76,0,1.12.36,1.12,1.13,0,1.7,0,3.41,0,5.11Z"/>
</svg>