<?xml version="1.0" encoding="UTF-8"?>
<svg id="Layer_1" data-name="Layer 1" xmlns="http://www.w3.org/2000/svg" viewBox="0 0 32 32">
  <defs>
    <style>
      .cls-1 {
        fill: #fff;
      }
    </style>
  </defs>
  <path class="cls-1" d="m.45,1.86c.3-.79.88-1.11,1.72-1.11,9.24,0,18.47,0,27.71,0,.86,0,1.45.41,1.63,1.12.03.14.04.28.04.42,0,1.39,0,2.77,0,4.16,0,.93-.61,1.54-1.54,1.55-1.23,0-2.47,0-3.7,0q-.49,0-.49.48c0,4.5,0,9,0,13.5,0,.11,0,.22,0,.33-.02.64-.26.87-.9.87-3.17,0-6.33,0-9.5,0q-.44,0-.56.44c-.14.55-.3,1.09-.42,1.65-.12.58-.36,1.08-.7,1.56-.93,1.31-1.85,2.63-2.76,3.96-.22.32-.49.47-.89.47-2.44-.01-4.88,0-7.31,0-.72,0-.96-.24-.96-.97,0-2.82.03-5.64-.01-8.47-.02-1.15.32-2.16.85-3.15.89-1.65,2.01-3.15,3.23-4.58.18-.21.27-.43.26-.71-.01-1.64,0-3.28,0-4.92q0-.46-.47-.46c-1.17,0-2.35-.02-3.52,0-.84.02-1.42-.32-1.72-1.12V1.86Zm15.54,3.23c-2.68,0-5.36,0-8.04,0q-.43,0-.44.43c0,5.18,0,10.36,0,15.54,0,.83,0,.81.83.83.27,0,.37-.1.44-.34.26-.9.54-1.8.87-2.68.49-1.32,1-2.63,1.78-3.81.52-.78,1.21-1.35,2.12-1.64.94-.3,1.63-.01,2.03.52.6.8.82,1.72.7,2.72-.2,1.62-.55,3.2-.88,4.8-.08.37-.07.39.33.39,2.78,0,5.56,0,8.34,0,.4,0,.4,0,.4-.41,0-5.31,0-10.62,0-15.93,0-.4,0-.4-.4-.4-2.69,0-5.38,0-8.07,0Zm-9.83,10.96c-1.07,1.26-2.02,2.56-2.67,4.06-.43.99-.3,2.06-.3,3.12,0,1.1,0,2.21,0,3.31,0,.5,0,.99,0,1.49,0,.42-.13,1.1,0,1.49.22.67,1.77.35,2.41.35,1.02,0,2.03,0,3.05,0,.34,0,.89.12,1.21-.02.31-.13.49-.52.67-.78,1.06-1.53,2.33-2.96,2.8-4.78.47-1.82.87-3.65,1.21-5.5.14-.75,1.09-4.05-.36-4.2-.64-.07-1.43.84-1.73,1.29-.46.7-.79,1.49-1.11,2.27-.37.9-.69,1.82-.98,2.74-.17.56-.29,1.76-.76,2.13-.49.39-1.99.19-2.6.14-.85-.07-.83-.66-.83-1.41-.02-1.91,0-3.82,0-5.73ZM15.98,2.11c-3.29,0-6.57,0-9.86,0-.79,0-1.59,0-2.38,0-.41,0-1.65-.22-1.93.12-.26.33-.03,1.73-.03,2.16,0,.44-.24,1.83.03,2.17.26.33,1.33.13,1.71.13.64,0,1.27,0,1.91,0,.82,0,.74-.15.74-.92,0-.68-.1-.65-.73-.67-1.28-.03-1.38-1.33-.05-1.37,1.4-.05,2.8,0,4.2,0,5.65,0,11.33-.19,16.98,0,.43.01.93.07,1.01.58.07.45-.26.68-.64.76-.42.09-.94-.18-1.12.27-.15.36-.08,1.16.28,1.29.53.19,1.48,0,2.06,0,.43,0,1.46.2,1.82,0,.37-.2.21-.81.21-1.21,0-.65,0-1.3,0-1.95,0-.29.16-1.09-.1-1.31-.24-.21-1.13-.04-1.43-.04-1.45,0-2.89,0-4.34,0-2.78,0-5.56,0-8.35,0Z"/>
</svg>