<?xml version="1.0" encoding="UTF-8"?>
<svg id="Layer_1" data-name="Layer 1" xmlns="http://www.w3.org/2000/svg" viewBox="0 0 32 32">
  <defs>
    <style>
      .cls-1 {
        fill: #fff;
      }
    </style>
  </defs>
  <path class="cls-1" d="m5.75,13.52c-1.62,0-3.23,0-4.85,0q-.44,0-.44-.45c0-.35,0-.71,0-1.06,0-.58.25-1.03.75-1.32.17-.1.25-.21.25-.42,0-1.15,0-2.29,0-3.44,0-.24-.07-.33-.32-.32-.68,0-.65,0-.69-.7-.03-.44.14-.7.47-.97,1.56-1.25,3.11-2.53,4.65-3.8.95-.78,1.88-.78,2.83,0,1.6,1.31,3.19,2.62,4.8,3.92.23.19.37.38.32.68,0,.03,0,.06,0,.09,0,.75,0,.75-.74.78-.21,0-.27.09-.27.28,0,1.18,0,2.36,0,3.54,0,.15.05.25.19.32.11.06.24.12.3.21.22.33.44.23.73.1,3.27-1.52,7.19.59,7.72,4.14.04.28.14.39.43.38.58-.02,1.17-.02,1.75,0,.28,0,.35-.09.35-.36-.01-1.42,0-2.84-.01-4.26,0-.32.1-.41.41-.4.73.03.64-.07.64.63,0,1.67,0,3.34,0,5.01,0,.42,0,.42-.41.42-.92,0-1.84,0-2.75,0-.26,0-.37.08-.41.34-.33,1.9-1.37,3.28-3.09,4.13-.27.13-.35.28-.35.57.02,1.03.01,2.07,0,3.1,0,.26.08.34.34.34,1.26-.01,2.52,0,3.79-.01.3,0,.4.08.39.39-.03.77.09.66-.67.66-1.5,0-3,0-4.51,0-.31,0-.39-.1-.38-.39.01-1.28,0-2.57,0-3.85,0-.25-.04-.35-.33-.3-.43.07-.88.07-1.31,0-.27-.04-.32.04-.32.28,0,1.59,0,3.17,0,4.76q0,.5-.52.5c-.9,0-1.79,0-2.69,0-.25,0-.35-.07-.35-.34.02-.84-.1-.7.71-.71.5,0,1,0,1.5,0,.21,0,.3-.07.29-.29,0-1.43,0-2.86,0-4.29,0-.24-.13-.32-.31-.41-1.66-.81-2.7-2.12-3.1-3.93-.13-.57-.12-.57-.71-.57-1.18,0-2.36,0-3.54,0-.29,0-.38-.09-.37-.38.02-.45.01-.9,0-1.35,0-.23.06-.33.31-.34.72,0,.73-.02.73.7,0,.22.06.32.3.32.96-.01,1.92-.01,2.88,0,.26,0,.32-.12.35-.33.06-.47.18-.92.39-1.35.13-.26.04-.29-.2-.29-1.66,0-3.32,0-4.98,0Zm10.25,6.96c2.53-.06,4.47-1.96,4.48-4.48,0-3.89-4.83-5.94-7.62-3.2-2.85,2.8-.72,7.58,3.15,7.69Zm-3.98-15.03s.02-.04.03-.07c-.03-.02-.07-.04-.1-.07-1.43-1.17-2.85-2.33-4.28-3.5-.46-.38-.88-.38-1.35,0-1.41,1.15-2.82,2.31-4.23,3.46-.05.04-.14.06-.11.17h10.05Zm-5.03,6.07c-1.13,0-2.26,0-3.39,0-.5,0-2.27-.3-2.09.67.11.59,1.69.28,2.18.28,1.05,0,2.1,0,3.15,0,1.11,0,2.22,0,3.32,0,.57,0,1.81.19,2.1-.55.26-.67-1.65-.42-2.09-.42-1.06,0-2.12,0-3.18,0Zm4.49-3c0-.51.28-1.79-.25-2-1.08-.42-.7,1.46-.7,1.98,0,.47-.25,1.72.18,1.97.24.14.66,0,.77-.19.2-.32,0-1.38,0-1.76Zm-2-.02c0-.54.28-1.76-.26-1.99-1.07-.45-.7,1.64-.7,2.15,0,.43-.23,1.57.18,1.8,1.1.63.78-1.52.78-1.97Zm-2,0c0-.51.28-1.77-.25-1.98-1.08-.42-.7,1.48-.7,2,0,.45-.25,1.7.17,1.95,1.08.64.78-1.53.78-1.97Zm-2,0c0-.54.28-1.76-.26-1.99-1.07-.45-.7,1.63-.7,2.15,0,.43-.23,1.57.18,1.81,1.1.63.78-1.52.78-1.97Zm-2.96,0c0,.51-.28,1.77.25,1.98,1.08.42.7-1.48.7-2,0-.45.25-1.7-.17-1.95-1.08-.64-.78,1.53-.78,1.97Z"/>
  <path class="cls-1" d="m24.52.46c1.8,0,3.61,0,5.41,0,1,0,1.62.62,1.62,1.62,0,1.94,0,3.88,0,5.82,0,1-.62,1.62-1.62,1.62-3.61,0-7.22,0-10.82,0-1,0-1.62-.62-1.62-1.62,0-1.94,0-3.88,0-5.82,0-1,.61-1.62,1.62-1.62,1.8,0,3.61,0,5.41,0Zm.02,3.05c-1.88,0-3.75,0-5.63,0-.28,0-.38.06-.38.36.02,1.29,0,2.59,0,3.88,0,.56.17.73.73.73,3.5,0,7.01,0,10.51,0,.57,0,.73-.16.73-.72,0-1.29,0-2.59,0-3.88,0-.3-.09-.37-.38-.37-1.87.01-3.73,0-5.6,0Zm-.04-1.05c1.15,0,2.31,0,3.46,0,.54,0,2.73.39,2.54-.5-.17-.8-1.79-.46-2.37-.46-1.15,0-2.29,0-3.44,0-1.2,0-2.41,0-3.61,0-.56,0-2.69-.37-2.54.65.09.62,1.99.3,2.52.3,1.15,0,2.29,0,3.44,0Z"/>
  <path class="cls-1" d="m31.55,25.52c0,1.47,0,2.94,0,4.41,0,1-.62,1.62-1.62,1.62-1.61,0-3.21,0-4.82,0-1,0-1.62-.62-1.62-1.62,0-2.94,0-5.88,0-8.82,0-1,.61-1.62,1.62-1.62,1.61,0,3.21,0,4.82,0,1,0,1.62.62,1.62,1.62,0,1.47,0,2.94,0,4.41Zm-3.99-2.98c-.9,0-1.79,0-2.69,0-.23,0-.33.05-.33.31,0,1.78,0,3.56,0,5.34,0,.22.05.32.3.32,1.79,0,3.58,0,5.38,0,.24,0,.3-.09.3-.31,0-1.78,0-3.56,0-5.34,0-.26-.09-.32-.33-.32-.88.01-1.75,0-2.63,0Zm-.03,7.01c-.73,0-1.46,0-2.19,0-.43,0-.9-.1-.78.49.18.86,2.33.47,2.97.47.62,0,2.96.42,3-.57.02-.59-.69-.38-1.1-.39-.63,0-1.27,0-1.9,0Zm-.02-8.06c.73,0,1.46,0,2.19,0,.43,0,.95.14.82-.48-.19-.88-2.48-.48-3.14-.48-.36,0-3.37-.35-2.82.78.23.48,2.42.18,2.96.18Z"/>
  <path class="cls-1" d="m10.52,26.53c0,4.38-5.5,6.67-8.6,3.55-3.11-3.13-.81-8.59,3.59-8.59,2.79,0,5.01,2.23,5.01,5.04Zm-4.24,3.88c.32-.06.7-.19,1.06-.38,1.08-.57-.66-.87.33-1.48.58-.36.38.27.92.29.29,0,.5-.64.59-.86.08-.19.32-.72.16-.9-.16-.17-.59.07-.77-.08-.15-.12-.15-.52-.1-.67.13-.38.1-.25.53-.33.42-.08.43-.07.3-.55-.07-.26-.36-1.23-.66-1.25-.27-.02-.41.54-.65.53-.17,0-.68-.49-.69-.66-.01-.3.33-.29.41-.53.14-.4-.43-.57-.78-.71-.49-.2-.82-.4-.93.17-.07.39.07.44-.36.54-.14.03-.44.05-.56-.05-.4-.35.21-.85-.5-.83-.25,0-1.17.31-1.32.56-.16.26.02.24.15.49.2.35.34.5-.11.78-.47.29-.33-.04-.79-.19-.38-.12-.46.19-.63.54-.06.13-.41.81-.31.99.25.49.84-.17.93.6.13,1.05-1.04.14-.85,1.12.05.29.24.86.45,1.05.3.27.23.22.56-.03.36-.27.51-.36.83.14.26.4.07.32-.1.63-.19.36-.37.32.14.63.24.15.8.45,1.09.42.61-.07.06-.7.61-.9,1.19-.43.41,1.03,1.03.9Z"/>
  <path class="cls-1" d="m16.94,15.02c-.48.03-.44-.42-.84-.5-.52-.1-.64.43-.36.73.35.38,1.01.42,1.39.82.37.39.49.96.33,1.47-.16.48-.55.55-.81.9-.2.27.03.74-.19.99-.14.17-.57.21-.77.1-.33-.2-.13-.72-.38-1.08-.27-.39-.68-.5-.8-1-.12-.46-.14-.9.36-.99.63-.11.53.12.65.53.1.31.44.75.81.37.47-.48-.44-.8-.73-.95-.48-.25-.92-.52-1.07-1.07-.13-.46-.03-.97.28-1.33.37-.43.63-.41.67-1.01.03-.38-.06-.4.29-.51.63-.21.69.15.75.62.07.57.46.58.76,1.01.23.33.45.91-.12.92-.05,0-.1,0-.22,0Z"/>
  <path class="cls-1" d="m27.99,7.51c-.31,0-1.2.16-1.42-.07-.23-.23-.07-1.14-.07-1.46,0-.32-.17-1.22.07-1.46.23-.23,1.13-.07,1.46-.07.3,0,1.17-.15,1.41.02.28.2.11,1.2.11,1.5,0,.3.15,1.17-.02,1.41-.2.28-1.24.11-1.53.11Zm.51-1.52q0-.48-.43-.48t-.53.44.46.51.5-.48Z"/>
  <path class="cls-1" d="m22.04,4.46c.65,0,2.87-.47,2.5.73-.1.34-.03.26-.41.32-.6.1-1.32,0-1.94,0-.57,0-3.24.45-2.7-.77.13-.3.1-.21.43-.27.66-.12,1.45,0,2.12,0Z"/>
  <path class="cls-1" d="m24.54,6.99q0,.52-.52.52t-.52-.52.55-.52.49.52Z"/>
  <path class="cls-1" d="m22.54,7c0,.51,0,.51-.53.51-.57,0-.51.04-.51-.56,0-.48,0-.48.56-.48q.48,0,.48.53Z"/>
  <path class="cls-1" d="m20.53,7c0,.51,0,.51-.54.51-.57,0-.51.04-.51-.57,0-.48,0-.48.57-.48q.48,0,.48.54Z"/>
  <path class="cls-1" d="m29.86,24.4c-.79.98-1.8,1.82-2.68,2.71-.52.52-.6.71-1.14.16-.38-.38-.96-.67-.66-1.17.33-.54.51-.33.87-.12.21.12.12.23.38.18.14-.03.51-.51.59-.58.49-.48.96-.99,1.46-1.46.53-.51.6-.43,1.11.1.04.04.09.09.08.18Z"/>
  <path class="cls-1" d="m6.01,25.44c-.08.4,0,.78.25,1.11.27.36.65.4.4.85-.49.86-1.36-.16-1.6-.7-.21-.49-.3-2.04.19-2.22.73-.26.74.22.75.73,0,.07,0,.15,0,.22Z"/>
</svg>