<?xml version="1.0" encoding="UTF-8"?>
<svg id="Layer_1" data-name="Layer 1" xmlns="http://www.w3.org/2000/svg" viewBox="0 0 32 32">
  <defs>
    <style>
      .cls-1 {
        fill: #fff;
      }
    </style>
  </defs>
  <path class="cls-1" d="m23.32.36c.8.25,1.45.68,1.82,1.46.2.41.27.85.27,1.3,0,3.78,0,7.57,0,11.35q0,.44.45.44c1.34,0,2.69,0,4.03,0,.54,0,.71.17.71.71,0,.92,0,1.83,0,2.75,0,.58-.18.77-.76.77-1.33,0-2.67,0-4,0q-.43,0-.43.44c0,2.44,0,4.88,0,7.32q0,.45.44.47c1.21.06,2,.79,2.15,1.97.14,1.09-.81,2.21-1.92,2.26-.12,0-.24,0-.37,0-5.61,0-11.21-.02-16.82.02-1.32,0-2.34-.97-2.33-2.33.03-3.24.01-6.49.01-9.74,0-.43,0-.43-.42-.43-.62,0-1.24,0-1.86,0-.66,0-.84-.18-.84-.83,0-1.69,0-3.38,0-5.07,0-.29-.08-.4-.38-.38-.36.02-.73.01-1.1,0-.4,0-.6-.2-.6-.61,0-1,0-1.99,0-2.99,0-.41.21-.62.62-.64.37-.01.73-.02,1.1,0,.28.01.37-.07.37-.36-.01-1.86,0-3.72,0-5.58,0-1.27.46-1.93,1.67-2.35h18.19ZM7.71,21.38c0,.19,0,.39,0,.58,0,2.49,0,4.98,0,7.48,0,.64.41,1.08.99,1.09.6,0,1.06-.5,1.01-1.09-.02-.33,0-.67,0-1.01,0-.91.12-1.03,1.04-1.03,4.37,0,8.75,0,13.12,0,.24,0,.43.02.43-.34-.01-2.52,0-5.04,0-7.57,0-.25-.08-.34-.33-.34-2.71,0-5.41,0-8.12,0-.23,0-.34.07-.33.31.02.28-.06.53-.34.66-.29.14-.5-.01-.72-.19-.93-.78-1.86-1.55-2.79-2.32-.53-.44-.53-.74,0-1.18.92-.77,1.85-1.53,2.77-2.3.22-.19.45-.34.74-.21.3.13.36.4.34.69-.02.25.09.31.32.31,2.72,0,5.43,0,8.15,0,.22,0,.31-.07.3-.3,0-3.91,0-7.81,0-11.72,0-.4-.16-.73-.43-1.01-.37-.4-.86-.48-1.37-.48-4.88,0-9.76,0-14.65,0-.05,0-.1,0-.15,0-.19-.01-.23.07-.16.24.15.34.18.7.17,1.07,0,1.85,0,3.7,0,5.55,0,.28.09.36.37.36,2.69,0,5.37,0,8.06,0,.26,0,.37-.07.36-.34-.02-.27.06-.51.33-.64.27-.14.49,0,.69.16.98.82,1.97,1.64,2.95,2.46.35.3.36.66,0,.96-.99.83-1.98,1.65-2.97,2.48-.2.17-.42.26-.67.13-.25-.12-.35-.34-.33-.6.03-.33-.12-.38-.41-.38-2.65,0-5.31,0-7.96,0-.4,0-.4,0-.4.41,0,2.7,0,5.39,0,8.09Zm14.4-3.35c2.33,0,4.66,0,6.98,0,.4,0,.4,0,.4-.41,0-.39,0-.77,0-1.16q0-.46-.47-.46c-4.61,0-9.21,0-13.82,0-.28,0-.55,0-.72-.28-.07-.12-.16-.05-.23.01-.47.39-.94.78-1.41,1.17-.11.09-.1.15,0,.24.47.39.94.78,1.41,1.17.09.08.18.09.25-.03.15-.22.37-.26.61-.26,2.33,0,4.66,0,6.98,0Zm-3.75,12.51c2.39,0,4.78,0,7.17,0,.13,0,.27,0,.4-.01.62-.07,1.02-.52.99-1.07-.04-.56-.49-.95-1.1-.95-4.88,0-9.76,0-14.64,0-.28,0-.34.1-.34.36.01.46.04.92-.12,1.36-.11.32-.11.32.24.32,2.47,0,4.94,0,7.41,0ZM9.9,9.77c-2.33,0-4.66,0-6.99,0-.4,0-.4,0-.4.41,0,.38,0,.75,0,1.13q0,.45.46.46c3.22,0,6.45,0,9.67,0,1.39,0,2.79,0,4.18,0,.27,0,.53.04.7.29.07.11.14.09.22.02.47-.39.94-.78,1.41-1.17.12-.1.11-.17,0-.27-.47-.39-.94-.78-1.41-1.17-.06-.05-.13-.12-.2,0-.18.3-.47.31-.77.31-2.29,0-4.58,0-6.86,0Zm-3.31-4.38c0-.98,0-1.95,0-2.93,0-.58-.43-1.02-.99-1.03-.57,0-1,.4-1,1,0,1.97,0,3.94,0,5.91,0,.22.08.31.3.3.46-.01.91-.01,1.37,0,.26,0,.33-.09.33-.34-.01-.97,0-1.95,0-2.93Zm-2,10.04c0,.77,0,1.54,0,2.32,0,.2.06.3.28.29.49-.01.97,0,1.46,0,.21,0,.26-.09.26-.28,0-1.53,0-3.07,0-4.6,0-.22-.08-.28-.29-.28-.46,0-.91.02-1.37,0-.28-.01-.35.1-.34.36.01.73,0,1.46,0,2.19Z"/>
  <path class="cls-1" d="m17.02,24.36c-1.61,0-3.21,0-4.82,0-.4,0-.42-.01-.41-.41,0-.83-.07-.71.72-.71,3.11,0,6.22,0,9.33,0,.46,0,.46,0,.46.45,0,.76.06.67-.67.67-1.53,0-3.07,0-4.6,0Z"/>
  <path class="cls-1" d="m17.03,26.43c-1.61,0-3.21,0-4.82,0-.41,0-.42-.01-.42-.4,0-.83-.08-.72.71-.72,3.1,0,6.2,0,9.3,0q.5,0,.5.48c0,.73.05.64-.64.64-1.54,0-3.09,0-4.63,0Z"/>
  <path class="cls-1" d="m12.36,3.45c.76,0,1.53,0,2.29,0,.24,0,.35.07.34.33-.03.91.13.79-.79.79-1.35,0-2.7,0-4.06,0-.43,0-.44,0-.43-.42,0-.81-.07-.69.7-.7.65,0,1.3,0,1.95,0Z"/>
  <path class="cls-1" d="m12.34,5.53c.76,0,1.53,0,2.29,0,.25,0,.37.06.36.34-.03.9.12.78-.77.78-1.37,0-2.75,0-4.12,0-.38,0-.39-.02-.39-.4,0-.83-.08-.71.71-.72.64,0,1.28,0,1.92,0Z"/>
  <path class="cls-1" d="m20.67,22.28c-.32,0-1.27.17-1.5-.07-.11-.11-.16-.72-.07-.88.22-.39,1.28-.18,1.68-.18.29,0,1.13-.15,1.37.02.18.12.23.72.13.92-.2.39-1.25.18-1.62.18h0Z"/>
</svg>