<?xml version="1.0" encoding="UTF-8"?>
<svg id="Layer_1" data-name="Layer 1" xmlns="http://www.w3.org/2000/svg" viewBox="0 0 32 24.93">
  <defs>
    <style>
      .cls-1 {
        fill: #fff;
      }
    </style>
  </defs>
  <path class="cls-1" d="m.27,9.14c.14-.21.34-.27.58-.27,1.03,0,2.07,0,3.1,0,.25,0,.38-.07.47-.32.66-1.92,1.77-3.56,3.25-4.95.38-.36.67-.4.9-.13.23.26.15.53-.24.88-.33.3-.64.62-.95,1.03.42,0,.78,0,1.15,0,.59,0,1.19,0,1.78,0,.17,0,.29-.05.36-.22.48-1.16,1.09-2.24,1.95-3.17.02-.03.04-.06.08-.14-.7.2-1.31.46-1.91.77-.16.08-.32.18-.48.27-.35.19-.62.15-.77-.12-.16-.27-.05-.54.31-.75.53-.31,1.08-.58,1.66-.8,1.54-.6,3.14-.91,4.8-.86,5.31.15,9.61,3.54,11.27,8.16.07.2.14.36.4.38.24.02.37.22.37.46,0,.24-.14.4-.37.47-.1.03-.2.02-.3.02-.74,0-1.47,0-2.21,0-.18,0-.28.04-.28.25,0,1.7,0,3.4,0,5.09,0,.21.08.26.28.26,1.69,0,3.38,0,5.06,0,.2,0,.27-.06.27-.27,0-1.7,0-3.4,0-5.09,0-.19-.07-.26-.26-.25-.18,0-.37,0-.55,0-.27-.02-.47-.23-.47-.48,0-.25.2-.47.47-.47.43-.01.86-.01,1.29,0,.3,0,.46.18.48.49,0,.05,0,.1,0,.15,0,2.08,0,4.15,0,6.23,0,.52-.14.66-.65.66-1.02,0-2.05,0-3.07,0-.25,0-.36.08-.44.31-1.61,4.23-4.6,6.93-9.01,7.92-5.98,1.34-12.1-2.11-14.12-7.89-.1-.27-.23-.35-.51-.35-1.02.02-2.05,0-3.07,0-.24,0-.44-.07-.58-.27v-7Zm12.44.7c-3.71,0-7.43,0-11.14,0-.28,0-.37.08-.36.36.01,1.63.01,3.25,0,4.88,0,.3.09.38.38.38,1.35-.01,2.7,0,4.05,0,.19,0,.37,0,.51.16.13.15.16.33.08.51-.09.21-.27.28-.5.29-.39.01-.39.02-.24.38.26.65.58,1.26.94,1.86.1.16.22.25.42.25,1.02,0,2.05,0,3.07,0,.2,0,.28-.05.21-.27-.21-.64-.36-1.3-.48-1.97-.03-.19-.12-.26-.31-.26-.39,0-.78,0-1.17,0-.5,0-.74-.16-.74-.49,0-.32.24-.48.75-.48,5.2,0,10.39,0,15.59,0q.4,0,.4-.41c0-1.6,0-3.19,0-4.79q0-.41-.43-.41c-3.68,0-7.37,0-11.05,0Zm.33-.97c.52,0,1.68.2,2.15,0,.47-.2.3-.76.3-1.25,0-.48.2-1.05-.28-1.24-.51-.2-1.45,0-2.01,0-.4,0-1.49-.18-1.83.02-.38.22-.45,1.1-.54,1.48-.13.54-.38.9.22.98.63.08,1.35,0,1.99,0Zm5.89,0c.72,0,1.43,0,2.15,0,.2,0,.28-.04.24-.26-.14-.67-.3-1.33-.51-1.99-.06-.17-.15-.24-.34-.24-1.23,0-2.45,0-3.68,0-.23,0-.3.09-.3.31,0,.61.02,1.23,0,1.84,0,.28.1.35.36.34.69-.01,1.39,0,2.09,0Zm-5.88,7.54c-.72,0-1.43,0-2.15,0-.2,0-.28.04-.24.26.14.67.3,1.33.51,1.99.05.17.15.24.34.24,1.23,0,2.45,0,3.68,0,.23,0,.3-.09.3-.31,0-.61-.02-1.23,0-1.84,0-.28-.1-.35-.36-.34-.69.01-1.39,0-2.09,0Zm5.92,0c-.53,0-1.7-.21-2.18,0-.47.2-.29.74-.29,1.24,0,.48-.2,1.06.29,1.25.51.2,1.45,0,2.01,0,.4,0,1.49.18,1.83-.02.38-.22.45-1.1.54-1.49.13-.54.38-.9-.22-.98-.63-.08-1.33,0-1.97,0Zm-3.48-13.01c0-.24.17-1.79-.07-1.94-.24-.15-.95.31-1.14.43-.88.56-1.54,1.43-2.05,2.32-.12.2-.64.97-.44,1.16.22.21,1.66,0,1.94,0,.32,0,1.46.17,1.7-.08.25-.26.07-1.53.07-1.9Zm1.01-.03c0,.31-.18,1.7.07,1.93.29.26,1.17.08,1.54.08.43,0,1.59.21,1.95,0,.41-.23-.01-.67-.24-1.07-.55-.97-1.27-1.94-2.25-2.51-.24-.14-.85-.55-1.06-.26-.19.26-.01,1.48-.01,1.82Zm-1.01,18.54c0-.34.19-1.67-.07-1.93-.24-.25-1.37-.08-1.69-.08-.28,0-1.64-.18-1.85,0-.29.24.02.56.21.93.53.97,1.22,1.94,2.16,2.55.24.15.94.63,1.21.39.19-.17.02-1.59.03-1.86Zm1.01-.04c0,.22-.17,1.78.04,1.93.24.18.9-.24,1.1-.36.91-.55,1.6-1.45,2.13-2.36.13-.23.66-.99.42-1.17-.26-.21-1.6,0-1.91,0-.32,0-1.45-.17-1.69.07-.25.25-.08,1.52-.08,1.9ZM7.49,8.87c.51,0,1.36.16,1.84,0,.45-.15.39-.64.49-1.08.06-.26.46-1.2.25-1.38-.23-.2-1.4-.02-1.71-.02-.42,0-1.37-.17-1.75.04-.42.23-.73,1.16-.92,1.56-.17.38-.46.71-.05.88.44.19,1.35,0,1.84,0Zm16.98,0c.39,0,1.52.19,1.87,0,.4-.22.03-.67-.15-1.06-.19-.39-.44-1.17-.84-1.39-.36-.2-1.18-.04-1.6-.04-.28,0-1.57-.17-1.79,0-.3.25.05.83.14,1.22.11.47.05,1.11.55,1.26.49.15,1.3,0,1.81,0Zm.01,7.54c-.47,0-1.4-.17-1.84,0-.45.17-.4.66-.5,1.12-.06.28-.47,1.15-.26,1.35.19.18,1.26.02,1.55.02.49,0,1.35.15,1.81-.02.45-.17.69-.89.89-1.3.19-.38.65-.97.19-1.17-.42-.18-1.38,0-1.84,0Zm.11-11.03c-1.16-1.51-4.13-3.44-5.3-3.47.4.45.78.92,1.1,1.43.33.53.53,1.19.87,1.69.35.51.98.34,1.57.34.59,0,1.17,0,1.76,0Zm0,14.52c-.98,0-1.91,0-2.84,0-.25,0-.38.08-.48.32-.45,1.08-1.02,2.09-1.82,2.97-.05.06-.15.11-.13.22,1.71-.41,4.19-2.04,5.26-3.5Zm-17.2,0c1.08,1.46,4.03,3.39,5.29,3.47-.44-.52-.86-1.04-1.21-1.63-.29-.49-.46-1.09-.78-1.56-.43-.63-2.53-.28-3.3-.28Z"/>
  <path class="cls-1" d="m26.16,12.32c.12-1.79,2.86-1.96,3.2-.2.07.34-.13.67-.07.99.06.31.45.49.46.82.02,1.05-1.21-.03-1.62.08-1,.27-1.98-.53-1.97-1.69Zm1.59.74c.37,0,.62-.24.62-.61,0-.53-.65-.81-1.03-.43-.38.37-.12,1.03.41,1.04Z"/>
</svg>