<?xml version="1.0" encoding="UTF-8"?>
<svg id="Layer_1" data-name="Layer 1" xmlns="http://www.w3.org/2000/svg" viewBox="0 0 32 32">
  <defs>
    <style>
      .cls-1 {
        fill: #fff;
      }
    </style>
  </defs>
  <path class="cls-1" d="m16.52.75c.8.23,1.44.66,1.82,1.42.74,1.44.03,3.21-1.51,3.71-.29.1-.37.23-.37.53.01,1.79.01,3.57,0,5.36,0,.36.12.68.2,1.02.05.21.23.21.41.21,1.02,0,2.04,0,3.07,0,.44,0,.82.1,1.12.44.1.11.22.13.35.13.35,0,.69-.01,1.04,0,.26.01.35-.08.35-.34-.01-.86,0-1.73,0-2.59,0-.33.16-.53.42-.55.26-.02.45.09.5.36.04.18.04.37.04.56,0,.8,0,1.61,0,2.41,0,.78-.34,1.11-1.11,1.11-.35,0-.69,0-1.04,0-.21,0-.28.08-.27.28.02.83-.1.7.68.7,1.13,0,2.26,0,3.39,0,.26,0,.38-.07.47-.33.4-1.23,1.5-1.93,2.84-1.82,1.1.09,2.09,1.02,2.3,2.18.24,1.31-.6,2.65-1.9,3.01-1.32.37-2.73-.34-3.2-1.61q-.17-.46-.66-.46c-1.18,0-2.36,0-3.54,0-.28,0-.39.06-.38.36.03.72-.08.61.61.62.31,0,.62,0,.92,0,.44.02.77.3.85.73.03.17.04.35.04.53,0,2.86,0,5.71,0,8.57,0,.47,0,.47.45.47.78,0,.65.1.66-.66,0-.32,0-.63,0-.95.01-.53.36-.89.88-.89,1.47,0,2.94,0,4.4,0,.52,0,.88.36.89.88,0,1.41,0,2.82,0,4.23,0,.52-.36.88-.89.88-1.46,0-2.92,0-4.37,0-.54,0-.9-.36-.9-.89,0-.45,0-.89,0-1.34,0-.21-.08-.28-.28-.27-.26.01-.52,0-.77,0-.67,0-1.03-.36-1.03-1.03,0-2.94,0-5.87,0-8.81q0-.47-.47-.47c-.24,0-.48,0-.71,0-.19,0-.27.08-.26.27,0,.21,0,.42,0,.62-.01.69-.52,1.21-1.21,1.21-1.17,0-2.34.01-3.51,0-.28,0-.35.09-.35.36.01,1.59.01,3.17,0,4.76,0,.26.09.36.33.44,1.22.4,1.91,1.46,1.83,2.81-.07,1.08-.96,2.06-2.09,2.31-1.35.29-2.73-.54-3.1-1.88-.37-1.33.35-2.77,1.64-3.2.36-.12.44-.29.44-.63-.02-1.53-.02-3.06,0-4.58,0-.3-.09-.39-.39-.38-1.11.02-2.22,0-3.33,0-.86,0-1.35-.48-1.36-1.34,0-.77,0-.77-.77-.77-.79,0-.68-.08-.68.68,0,2.84,0,5.67,0,8.51,0,.78-.34,1.12-1.12,1.12-.24,0-.48,0-.71,0-.18,0-.25.07-.24.25,0,.45,0,.89,0,1.34,0,.56-.35.92-.91.92-1.45,0-2.9,0-4.35,0-.44,0-.72-.23-.9-.62v-4.76c.2-.45.55-.59,1.01-.62.39-.02,1.22-.14,1.58.04.41.2.39.65,0,.86-.43.23-1.18-.2-1.57.06-.29.2-.12,1.09-.11,1.4,0,.59,0,1.17,0,1.76,0,.54-.12.76.33.95.44.19,1.5,0,2,0,.45,0,1.45.2,1.82,0,.29-.17.16-.64.16-.93,0-.52,0-1.03,0-1.55,0-.36.14-.97,0-1.29-.24-.53-.67-.12-1.03-.5-.75-.76.96-.87,1.32-.76,1.06.32.4,1.41.65,2.15.11.34.41.52.86.33.54-.22.25-1.86.25-2.4,0-1.09,0-2.19,0-3.28,0-1.14-.05-2.29,0-3.43.05-1.12.63-1.2,1.62-1.19.53,0,.97.07.79-.65-.17-.66-1.74-.33-2.34-.33-.5,0-1.35-.16-1.83,0-.34.11-.33.29-.48.6-.3.65-.82,1.15-1.5,1.4-1.56.57-3.1-.43-3.54-1.95,0-.36,0-.71,0-1.07.43-1.05,1.06-1.96,2.29-2.09,1.11-.12,2.13.4,2.66,1.39.34.64.32.76,1.08.76.67,0,1.35,0,2.02,0,.54,0,2.03.33,1.63-.72-.32-.85-2.12.34-2.39-1.09-.26-1.35-.03-2.95-.03-4.33,0-1.5,0-3,0-4.49,0-.28.06-.49-.17-.64-.08-.05-.69-.06-.77,0-.37.24-.13,1.18-.18,1.59-.15,1.26-1.66.9-2.59.9-.79,0-1.59.03-2.39,0-.51-.02-.94-.1-1.17-.62,0-1.72,0-3.44,0-5.16,0-.17.03-.2.2-.2,1.78,0,3.56,0,5.34,0,.74.33.62,1.08.62,1.76,0,.87.25.68,1.01.73,1.51.11,1.07,1.89,1.07,3,0,1.5,0,3,0,4.5,0,.73,0,1.46,0,2.19,0,.35-.05.46.21.62.13.08.79.07.92.01.49-.18.25-.54.33-1.02.07-.44.29-.8.71-.98.53-.23,1.24-.11,1.81-.11.63,0,1.56.18,2.16.01.59-.16.38-.78.38-1.32,0-.73,0-1.46,0-2.19,0-.48.22-1.48-.07-1.88-.22-.31-.88-.42-1.19-.69-1.71-1.48-.8-4.04,1.21-4.62h1.07Zm-.55,18.85c1.36,0,2.72,0,4.07,0,.48,0,.56-.09.57-.58,0-1.51,0-3.01,0-4.52,0-.5-.07-.58-.59-.58-1.05,0-2.1,0-3.15,0-.54,0-.95-.31-1.11-.83-.03-.1-.07-.21-.08-.32-.04-.3-.2-.41-.5-.41-1.09.01-2.18,0-3.27,0-.45,0-.54.09-.54.54,0,2.04,0,4.08,0,6.13,0,.46.09.55.56.55,1.35,0,2.7,0,4.04,0ZM3.83,1.66c-.41,0-1.8-.23-2.1.06-.3.28-.07,1.61-.07,2.01,0,.4-.23,1.72.07,2.01.3.29,1.67.05,2.08.05.41,0,1.78.24,2.08-.05.31-.3.07-1.74.07-2.17,0-.39.22-1.58-.07-1.85-.3-.28-1.66-.05-2.07-.05Zm24.31,28.65c.4,0,1.89.23,2.14-.1.26-.35.02-1.68.02-2.12,0-.35.19-1.66-.1-1.88-.31-.23-1.67-.02-2.05-.02-.39,0-1.71-.23-2.05.02-.31.23-.1,1.47-.1,1.87,0,.42-.23,1.88.07,2.16.3.28,1.65.06,2.06.06ZM15.99,5.07c.93,0,1.71-.79,1.7-1.71-.01-1.47-1.85-2.22-2.89-1.19-1.05,1.04-.3,2.91,1.2,2.91ZM5.07,15.98c0-.93-.8-1.71-1.72-1.7-1.48.02-2.22,1.86-1.18,2.9,1.05,1.05,2.91.29,2.9-1.2Zm21.82,0c0,.93.77,1.71,1.7,1.72,1.49,0,2.24-1.85,1.21-2.9-1.04-1.05-2.89-.31-2.9,1.18Zm-9.21,12.64c0-.92-.77-1.71-1.7-1.71-1.48,0-2.25,1.84-1.22,2.89,1.04,1.05,2.9.32,2.91-1.17Z"/>
  <path class="cls-1" d="m30.63.75c.71.32.62,1.02.62,1.67,0,.88,0,1.76,0,2.64,0,.54.11,1.24-.45,1.55-.55.31-1.55.11-2.16.11-.85,0-1.72.06-2.56,0-.44-.03-.8-.14-.95-.61-.15-.46.22-1.57-.14-1.88-.12-.1-.86-.09-.99.05-.18.19-.03,1.15-.03,1.36,0,.82.05,1.66,0,2.47-.02.42-.38,1.22-.87.61-.36-.45-.1-1.88-.1-2.44,0-1.12-.45-2.93,1.07-3.05.22-.02.7.1.89-.02.23-.14.12-.64.12-.86,0-.65-.08-1.3.61-1.61h4.94Zm-2.48,5.04c.41,0,1.8.23,2.1-.06.25-.25.06-1.49.06-1.85,0-.41.24-1.94-.11-2.19-.37-.26-1.59-.02-2.03-.02-.48,0-1.58-.22-2,0-.4.22-.16,1.49-.16,1.9,0,.4-.21,1.77.02,2.1.24.35,1.71.12,2.12.12Z"/>
</svg>