<?xml version="1.0" encoding="UTF-8"?>
<svg id="Layer_1" data-name="Layer 1" xmlns="http://www.w3.org/2000/svg" viewBox="0 0 32 32">
  <defs>
    <style>
      .cls-1 {
        fill: #fff;
      }
    </style>
  </defs>
  <path class="cls-1" d="m23.15.47c.31.13.63.23.89.43.66.51.93,1.2.94,2.01,0,2.16,0,4.32,0,6.48,0,6.53,0,13.07,0,19.6,0,1.02-.38,1.82-1.32,2.3-.28.14-.58.22-.9.22-4.5,0-9.01,0-13.51,0-1.22,0-2.17-1.02-2.22-2.31,0-.08,0-.16,0-.24,0-8.65,0-17.31,0-25.96,0-.85.25-1.57.94-2.1.27-.21.59-.31.89-.43h14.31Zm-15.14,14.6c0,2.03,0,4.06,0,6.09,0,1.19.01,2.38,0,3.58,0,.31.1.42.4.39.22-.02.44,0,.67,0,.51,0,.74.14.74.47,0,.33-.23.48-.73.48-.26,0-.53,0-.79,0-.21,0-.29.06-.29.28,0,.98,0,1.96,0,2.94,0,.58.42,1.09.96,1.22.23.05.46.07.69.07,3.77,0,7.53,0,11.3,0,.52,0,1.03,0,1.55,0,.95-.02,1.47-.55,1.47-1.5,0-.86,0-1.72,0-2.58q0-.43-.44-.43c-4.05,0-8.1,0-12.15,0-.5,0-.73-.15-.73-.48,0-.32.23-.47.74-.47,4.05,0,8.1,0,12.15,0q.43,0,.43-.44c0-6.4,0-12.81,0-19.21q0-.43-.43-.44c-5.04,0-10.08,0-15.12,0q-.43,0-.43.43c0,3.2,0,6.4,0,9.61Zm7.97-10.99c.93,0,1.86,0,2.79,0,1.63,0,3.25,0,4.88,0,.27,0,.36-.08.35-.34-.02-.36,0-.73-.01-1.09-.02-.57-.45-1.08-.99-1.19-.22-.05-.44-.06-.66-.06-4.22,0-8.44,0-12.66,0-.09,0-.18,0-.27,0-.89.06-1.38.58-1.39,1.47,0,.27,0,.55,0,.82q0,.4.4.4c2.52,0,5.05,0,7.57,0Z"/>
  <path class="cls-1" d="m16,29.71c-1.21,0-1.86-1.5-.99-2.36.85-.84,2.4-.25,2.39.98,0,.76-.64,1.38-1.4,1.38Zm0-.99c.24,0,.41-.16.41-.39,0-1.11-1.55.39-.41.39Z"/>
  <path class="cls-1" d="m16.88,3.22c-.4,0-1.37.17-1.36-.48,0-.64,1-.47,1.39-.47.4,0,1.38-.16,1.39.47.01.66-1.01.48-1.42.48Z"/>
  <path class="cls-1" d="m14.66,2.73c.04,1.33-1.84-.41-.5-.46.26-.01.49.2.5.46Z"/>
</svg>