<?xml version="1.0" encoding="UTF-8"?>
<svg id="Layer_1" data-name="Layer 1" xmlns="http://www.w3.org/2000/svg" viewBox="0 0 32 32">
  <defs>
    <style>
      .cls-1 {
        fill: #232323;
      }
    </style>
  </defs>
  <path class="cls-1" d="m.87,27.4c.18-.25.44-.26.71-.26.89,0,.89,0,.89-.88,0-4.51,0-9.02,0-13.53,0-1.04.16-1.21,1.2-1.21.48,0,.97,0,1.45,0,.6,0,.86.27.86.88,0,4.76,0,9.51,0,14.27,0,.15-.08.37.08.43.24.09.5.06.76,0,.06-.01.07-.09.07-.15,0-.1,0-.2,0-.3,0-3.27,0-6.53,0-9.8,0-.81.22-1.03,1.04-1.03.54,0,1.09,0,1.63,0,.56,0,.84.28.84.84,0,1.64,0,3.28,0,4.91,0,.12,0,.24-.06.35-.08.19-.24.3-.44.29-.21,0-.38-.12-.44-.33-.03-.12-.03-.25-.03-.38,0-1.45,0-2.9,0-4.35,0-.28-.08-.39-.37-.37-.28.02-.57.02-.86,0-.27-.02-.36.07-.36.35.02.82,0,1.64,0,2.46,0,2.38,0,4.76,0,7.13,0,.39,0,.39.39.39.27,0,.53,0,.8,0q.38,0,.38-.4c0-.89,0-1.78,0-2.66,0-.11,0-.22.02-.32.05-.23.21-.37.43-.38.23-.01.39.11.47.33.05.12.04.25.04.38,0,.91,0,1.82,0,2.72,0,.26.08.34.34.34.67-.02.58.07.58-.59,0-2,0-4.01,0-6.01,0-.65.22-.87.87-.87.6,0,1.2,0,1.81,0,.55,0,.8.24.8.79,0,2.09,0,4.18,0,6.28,0,.39,0,.4.39.39.57,0,.54.07.54-.55,0-2.42,0-4.83,0-7.25,0-.27-.08-.39-.34-.48-2.93-1.02-4.64-3.06-5.1-6.13-.16-1.04-.02-2.07.3-3.07.1-.32.1-.33-.24-.33-2.3,0-4.6,0-6.9,0-.74,0-.97-.22-.97-.97,0-1.15,0-2.31,0-3.46,0-.73.23-.95.97-.95,3.53,0,7.06,0,10.6,0,.15,0,.3.01.44.04.33.07.49.31.5.7,0,.34,0,.34.34.24,2.9-.83,5.43-.18,7.54,1.97,1.19,1.22,1.82,2.72,1.96,4.43.13,1.57-.24,3.01-1.05,4.35-.11.19-.11.3.05.45.35.32.68.66,1.01,1,.11.12.21.17.38.1.34-.14.66-.06.92.2.79.79,1.58,1.57,2.36,2.37.24.24.26.5.06.71-.2.21-.48.2-.73-.04-.7-.69-1.4-1.39-2.09-2.09-.16-.17-.26-.17-.42,0-.42.44-.86.87-1.3,1.3-.13.12-.13.21,0,.34,1.47,1.46,2.93,2.93,4.4,4.39.24.24.45.24.69,0,.33-.32.66-.65.98-.98.23-.24.22-.43,0-.67-.22-.24-.46-.46-.69-.69-.24-.25-.25-.53-.04-.73.21-.19.46-.18.71.06.25.24.49.48.73.73.52.54.56,1.3.06,1.87-.37.42-.77.82-1.19,1.19-.58.51-1.34.48-1.89-.07-1.54-1.53-3.07-3.07-4.61-4.6-.28-.28-.39-.59-.25-.97.05-.14.01-.22-.08-.31-.37-.36-.73-.72-1.09-1.09-.13-.14-.23-.13-.38-.03-.58.37-1.2.64-1.86.82-.2.05-.27.15-.27.35,0,2.53,0,5.05,0,7.58,0,.21.06.3.29.29.29-.01.57,0,.86,0,.29.01.49.19.5.44.01.24-.17.45-.46.49-.13.02-.26.03-.38.03-6.13,0-12.25,0-18.38,0-.3,0-.6,0-.79-.29v-.41ZM17.48,5.56c-.58-.02-1.22.08-1.84.29-.81.27-.62.15-.65.91,0,.24.07.24.26.15.72-.33,1.47-.5,2.26-.5,2.47-.02,4.67,1.62,5.33,4,.04.13.07.27.08.4,0,.25-.13.41-.37.47-.23.05-.41-.06-.51-.26-.05-.1-.08-.22-.11-.34-.78-2.79-3.98-4.16-6.53-2.79-.29.16-.44.33-.42.69.03.48-.23.72-.71.76-.06,0-.12,0-.18,0-.23-.03-.36.07-.47.27-.52.9-.7,1.87-.57,2.88.28,2.12,2.07,3.82,4.12,3.93,2.28.13,4.21-1.24,4.78-3.39.03-.12.06-.25.12-.36.1-.19.27-.29.49-.24.22.05.37.2.37.44,0,.11-.01.22-.04.32-.66,2.74-3.37,4.57-6.15,4.15-3.53-.54-5.63-4.24-4.27-7.53.21-.52.19-.43-.32-.46-.34-.02-.49.11-.59.42-.33,1.01-.46,2.04-.29,3.09.54,3.41,3.62,5.74,7.06,5.35,3.43-.4,5.93-3.58,5.52-7.02-.39-3.23-3.05-5.61-6.36-5.61Zm-8.76,2.82c1.64,0,3.27,0,4.91,0,.39,0,.39,0,.39-.4,0-.9,0-1.79,0-2.69,0-.28-.08-.37-.37-.37-3.29,0-6.59,0-9.88,0-.29,0-.35.1-.34.36.01.89,0,1.77,0,2.66q0,.44.43.44c1.62,0,3.23,0,4.85,0Zm-5.28,11.43c0,.67,0,1.34,0,2.01,0,1.67,0,3.33,0,5,0,.26.08.35.34.33.27-.02.55,0,.83,0q.42,0,.42-.43c0-4.59,0-9.19,0-13.78,0-.06,0-.12,0-.18.01-.19-.08-.26-.27-.26-.31,0-.61,0-.92,0-.39,0-.39,0-.39.39,0,2.31,0,4.61,0,6.92Zm13.26,3.34c0,1.23,0,2.46,0,3.7,0,.23.07.32.3.31.32-.02.65-.02.98,0,.24.01.31-.09.3-.31-.01-.62,0-1.24,0-1.86,0-1.81,0-3.63,0-5.44,0-.27-.08-.37-.35-.35-.28.02-.57.02-.86,0-.28-.03-.38.06-.37.36.01,1.2,0,2.41,0,3.61Zm-2.82.75c0-.87,0-1.73,0-2.6,0-.79-.18-.68-.95-.67-.74,0-.64.25-.63.91,0,.75,0,1.5,0,2.25,0,.79,0,1.59,0,2.38,0,.71-.14.96.62.97.74.01.96.12.97-.64,0-.87,0-1.73,0-2.6Zm9.14-7.15s-.08.07-.12.11c-.1.1-.47.36-.48.54,0,.21.39.47.53.61.24.23.47.62.82.54.6-.13.45-.63.19-.91-.2-.22-.66-.87-.95-.88Z"/>
  <path class="cls-1" d="m21.03,11.92c0,3.04-3.82,4.61-5.96,2.44-2.13-2.17-.57-5.95,2.48-5.96,1.91,0,3.48,1.59,3.47,3.53Zm-3.49,2.51c1.1,0,2.03-.65,2.4-1.68.19-.53-.33-.37-.73-.37-.52,0-1.33.14-1.82-.06-.45-.19-.87-.77-1.21-1.11-.36-.36-.6-.89-.94-.35-1.01,1.58.7,3.57,2.31,3.58Zm1.16-3.02c.46,0,.77,0,1.09,0,.19,0,.24-.06.19-.25-.39-1.51-2.36-2.3-3.69-1.48-.15.09-.14.15-.03.26.23.22.47.43.67.67.5.61,1.07,1.01,1.77.79Z"/>
  <path class="cls-1" d="m10.16,7.11c-.52,0-2.87.36-2.86-.47.01-.83,2.33-.46,2.87-.46.53,0,2.82-.37,2.85.46.02.81-2.36.47-2.86.47Z"/>
  <path class="cls-1" d="m5.66,7.11c-.4,0-1.16.15-1.19-.44-.03-.62.8-.49,1.19-.49.38,0,1.21-.14,1.22.47,0,.61-.83.46-1.21.46Z"/>
</svg>