<?xml version="1.0" encoding="UTF-8"?>
<svg id="Layer_1" data-name="Layer 1" xmlns="http://www.w3.org/2000/svg" viewBox="0 0 40 40">
  <defs>
    <style>
      .cls-1 {
        fill: #f28a1d;
        stroke: #fff;
        stroke-miterlimit: 10;
        stroke-width: .75px;
      }
    </style>
  </defs>
  <path class="cls-1" d="m13.06,39.13c-3.94-.7-6.33-4.39-7.61-7.9-1.42-3.86-2.2-8.62-1.14-12.65.91-3.47,3.56-6.34,7.03-7.38,2.26-.68,4.41-.24,6.57.52,1.08.38,2.18.99,3.33.67,1.2-.34,2.32-.9,3.54-1.19,1.99-.48,4.09-.43,5.99.38,2.06.89,3.5,2.47,4.83,4.22-.73.45-1.71.53-2.49.94-.66.35-1.27.8-1.77,1.36-1.1,1.22-1.7,2.92-1.69,4.56.02,1.61.67,3.18,1.76,4.35.54.58,1.19,1.06,1.9,1.42.93.46,1.93.46,2.87.82-1.34,4.08-3.46,9.01-8.21,9.88h-1.79c-1.95-.28-3.63-1.61-5.61-1.63-2.04-.02-3.73,1.39-5.73,1.63h-1.79Zm19.61-24.15c-.07-.08-.09-.13-.13-.16-2.03-1.88-4.67-2.61-7.37-1.96-1.48.36-2.87,1.26-4.41,1.34-1.42.08-2.75-.63-4.07-1.07-4.66-1.53-9.26,1.02-10.67,5.7-.77,2.55-.43,5.44.06,8.02.49,2.59,1.36,5.26,2.9,7.43,1.44,2.03,3.51,3.52,6.1,3.02,1.4-.27,2.59-1.12,3.99-1.4,1.18-.23,2.38-.15,3.54.2,2.34.7,4.29,2.04,6.73.74,2.28-1.22,3.81-3.91,4.59-6.29-3.27-1.17-5.59-3.68-5.92-7.21-.34-3.64,1.53-6.62,4.66-8.37Z"/>
  <path class="cls-1" d="m28.72.87c.06.06.1.14.1.23.06,1.62-.06,3.22-.7,4.75-.93,2.22-2.65,3.47-4.95,3.99-1.03.23-2.09.29-3.14.29-.25,0-.41-.05-.41-.35.01-1.53.11-3.05.68-4.5.89-2.23,2.56-3.51,4.84-4.07,1.02-.25,2.06-.32,3.1-.3.14,0,.27.02.4-.05h.07Zm-6.93,7.45c.18-.03.37-.06.55-.09,3.3-.52,4.42-2.63,4.72-5.24.03-.25-.08-.34-.33-.29-.28.05-.57.08-.84.13-2.87.59-4.13,2.45-4.44,5.11-.03.26.04.42.35.37Z"/>
</svg>