<?xml version="1.0" encoding="UTF-8"?>
<svg id="Layer_1" data-name="Layer 1" xmlns="http://www.w3.org/2000/svg" viewBox="0 0 32 32">
  <defs>
    <style>
      .cls-1 {
        fill: #232323;
      }
    </style>
  </defs>
  <path class="cls-1" d="m26.08,31.73H5.95s-.08-.03-.12-.03c-3.23-.46-5.58-3.31-5.56-6.51.04-6.11.01-12.21.01-18.32,0-.34,0-.67.05-1.01C.77,2.71,3.48.29,6.65.28c6.25-.01,12.5-.02,18.75,0,2.07,0,3.74.91,5.02,2.53.73.92,1.12,1.99,1.31,3.13v20.13c-.6,2.96-2.59,5.15-5.65,5.65Zm-10.1-1.86c3.01,0,6.01,0,9.02,0,.58,0,1.16-.06,1.72-.25,1.92-.65,3.13-2.36,3.13-4.49,0-6.07,0-12.13,0-18.2,0-.33-.03-.66-.09-.98-.43-2.27-2.26-3.77-4.62-3.78-6.09-.01-12.17,0-18.26,0-1.04,0-2,.27-2.84.9-1.3.98-1.87,2.31-1.87,3.91,0,5.86,0,11.72,0,17.58,0,.38,0,.76.04,1.13.15,1.47.85,2.6,2.07,3.42.82.55,1.74.74,2.71.74,3,0,5.99,0,8.99,0Z"/>
  <path class="cls-1" d="m12.73,21.25c-1.88,0-3.76,0-5.65,0-.83,0-1.46-.59-1.56-1.43-.09-.72.45-1.46,1.2-1.64.15-.04.3-.04.46-.04.87,0,1.74,0,2.61,0,.21,0,.34-.07.44-.26,1.27-2.21,2.54-4.41,3.82-6.62.12-.2.12-.37,0-.57-.35-.6-.71-1.2-1.02-1.82-.28-.57-.13-1.25.31-1.7.45-.46,1.13-.59,1.73-.34.32.14.56.37.75.66.2.32.21.32.41,0,.51-.79,1.43-1.02,2.19-.56.74.45.95,1.36.5,2.18-.46.83-.95,1.65-1.42,2.47-1.2,2.07-2.39,4.14-3.59,6.22-.18.32-.18.32.19.32.87,0,1.74,0,2.61,0,.22,0,.35.08.46.27.48.85.98,1.7,1.47,2.55.16.27.14.3-.18.3-1.9,0-3.8,0-5.71,0Z"/>
  <path class="cls-1" d="m23.39,25.31c-.65,0-1.1-.32-1.42-.87-.58-1.01-1.17-2.02-1.75-3.03-1.12-1.94-2.24-3.88-3.36-5.81-.13-.22-.14-.39,0-.62.48-.81.94-1.63,1.41-2.44.22-.39.24-.39.47.01,1.01,1.75,2.03,3.5,3.03,5.26.14.25.3.34.58.33.86-.02,1.72-.01,2.58,0,.9,0,1.6.7,1.6,1.56,0,.87-.7,1.54-1.6,1.55-.3,0-.59,0-.89,0-.2,0-.23.07-.14.24.28.49.58.97.84,1.46.48.91.11,1.91-.83,2.27-.17.06-.34.09-.51.08Z"/>
  <path class="cls-1" d="m9.37,22.44c.32,0,1.49-.19,1.7.02.17.18-.43.99-.54,1.18-.46.81-.97,1.81-2.08,1.67-.92-.12-1.49-.99-1.32-1.88.23-1.25,1.23-.99,2.24-.99Z"/>
</svg>