<?xml version="1.0" encoding="UTF-8"?>
<svg id="Layer_1" data-name="Layer 1" xmlns="http://www.w3.org/2000/svg" viewBox="0 0 32 32">
  <defs>
    <style>
      .cls-1 {
        fill: #232323;
      }
    </style>
  </defs>
  <path class="cls-1" d="m31.38,26.8v4.2c-.16.28-.4.39-.72.39-1.16,0-2.32,0-3.48,0-.5,0-.73-.24-.74-.74,0-.27,0-.54,0-.81,0-.19-.09-.28-.27-.28-.1,0-.2,0-.3,0-6.57,0-13.15,0-19.72,0-.08,0-.16,0-.24,0-.23-.01-.33.08-.32.32,0,.28,0,.56,0,.84-.02.43-.26.67-.69.67-1.2,0-2.4,0-3.6,0-.44,0-.67-.24-.67-.67,0-1.2,0-2.4,0-3.6,0-.43.24-.67.66-.69.29-.01.58,0,.87,0,.2,0,.29-.09.29-.29,0-.09,0-.18,0-.27,0-6.57,0-13.15,0-19.72,0-.09,0-.18,0-.27,0-.21-.09-.31-.3-.31-.26,0-.52,0-.78,0-.5,0-.74-.24-.74-.74,0-1.16,0-2.32,0-3.48,0-.32.11-.56.39-.72h4.2c.75.49-.08,1.67.8,1.81,1.05.16,2.25,0,3.31,0,2.23,0,4.46,0,6.69,0,2.29,0,4.57,0,6.86,0,.56,0,1.12,0,1.67,0,.45,0,1.24.17,1.64,0,.63-.27-.05-1.36.64-1.8,1.46,0,2.92,0,4.38,0,.15,0,.18.03.18.18,0,1.46,0,2.92,0,4.38-.49.75-1.67-.08-1.81.8-.16,1.05,0,2.25,0,3.31,0,2.23,0,4.46,0,6.69,0,2.29,0,4.57,0,6.86,0,.56,0,1.12,0,1.67,0,.45-.17,1.24,0,1.64.27.63,1.36-.05,1.8.64Zm-15.37,1.48c2.22,0,4.44,0,6.66,0,1.13,0,2.26,0,3.39,0,.29,0,.39-.1.38-.38-.02-.27-.01-.54,0-.81.02-.4.26-.65.66-.67.23-.01.46,0,.69,0q.5,0,.5-.49c0-6.62,0-13.25,0-19.87,0-.07,0-.14,0-.21.01-.21-.08-.29-.29-.29-.3,0-.6,0-.9,0-.4-.02-.65-.26-.67-.66-.01-.23,0-.46,0-.69q0-.5-.49-.5c-6.62,0-13.25,0-19.87,0-.07,0-.14,0-.21,0-.21-.01-.29.08-.28.29,0,.3,0,.6,0,.9-.02.4-.27.65-.67.67-.23.01-.46,0-.69,0q-.5,0-.5.49c0,6.62,0,13.25,0,19.87,0,.07,0,.14,0,.21-.01.21.09.29.29.28.29,0,.58,0,.87,0,.44.01.68.26.7.7,0,.24,0,.48,0,.72,0,.44,0,.44.43.44,3.33,0,6.66,0,10,0ZM3.07,1.84c-.27,0-.99-.12-1.18.11-.16.2-.03,1.04-.03,1.26,0,.28-.12.84.12,1.03.19.15.86.02,1.09.02.25,0,.94.12,1.14-.08.19-.2.07-.88.07-1.14,0-.27.14-.93-.08-1.14-.2-.2-.86-.07-1.14-.07Zm25.87,0c-.26,0-.99-.12-1.18.1-.17.19-.03,1.05-.03,1.27,0,.27-.12.84.11,1.03.19.15.87.03,1.1.03.24,0,.95.12,1.14-.07.19-.19.07-.89.07-1.15,0-.27.14-.94-.07-1.14-.2-.2-.87-.07-1.15-.07ZM1.86,28.93c0,.27-.12.99.11,1.18.2.16,1.04.03,1.26.03.28,0,.84.12,1.03-.12.15-.19.02-.86.02-1.09,0-.25.12-.94-.08-1.14-.2-.19-.88-.07-1.14-.07-.27,0-.93-.14-1.14.08-.2.21-.07.86-.07,1.14Zm27.06,1.21c.28,0,1.01.13,1.21-.11.16-.2.03-1.04.03-1.26,0-.28.12-.84-.12-1.03-.19-.15-.84-.02-1.08-.02-.24,0-.96-.13-1.14.07-.2.22-.08.86-.08,1.15,0,.27-.14.93.08,1.14.2.19.83.07,1.11.07Z"/>
  <path class="cls-1" d="m13.08,15.99c0,2.94,0,5.88,0,8.83,0,.11,0,.22,0,.33-.02.48-.25.71-.73.72-1.37,0-2.74,0-4.11,0-.46,0-.92,0-1.38,0-.49,0-.71-.22-.71-.72,0-2.12,0-4.24,0-6.36,0-.46.24-.71.63-.71.39,0,.62.26.62.72,0,1.8,0,3.6,0,5.4,0,.42,0,.42.42.42,1.19,0,2.38,0,3.57,0,.4,0,.41-.01.41-.4,0-5.48,0-10.97,0-16.45,0-.39-.01-.4-.41-.4-1.2,0-2.4,0-3.6,0-.38,0-.39,0-.39.38,0,1.81,0,3.62,0,5.43,0,.46-.23.72-.62.73-.34,0-.59-.22-.63-.56,0-.08,0-.16,0-.24,0-2.06,0-4.12,0-6.18,0-.62.19-.81.81-.81,1.77,0,3.54,0,5.31,0,.61,0,.82.22.82.84,0,3.01,0,6.02,0,9.04Z"/>
  <path class="cls-1" d="m20.37,6.12c1.57,0,3.14,0,4.71,0,.61,0,.81.19.81.81,0,2.09,0,4.18,0,6.27,0,.61-.22.82-.84.82-3.13,0-6.26,0-9.39,0-.62,0-.85-.24-.85-.86,0-2.07,0-4.14,0-6.21,0-.63.22-.84.85-.84,1.57,0,3.14,0,4.71,0Zm0,6.62c1.3,0,2.6,0,3.9,0,.29,0,.38-.1.38-.38-.01-1.54-.01-3.08,0-4.62,0-.29-.09-.38-.38-.38-2.6,0-5.2,0-7.8,0-.29,0-.38.09-.38.38.01,1.54.01,3.08,0,4.62,0,.29.1.38.38.38,1.3-.01,2.6,0,3.9,0Z"/>
  <path class="cls-1" d="m20.37,15.62c1.4,0,2.81,0,4.21,0,.49,0,1.07-.08,1.28.46.18.46.03,1.21.03,1.71,0,.47.16,1.37-.06,1.79-.24.44-.76.38-1.19.38-1.42,0-2.84,0-4.26,0-1.42,0-2.84.01-4.26,0-.43,0-.95.07-1.21-.35-.27-.42-.09-1.52-.09-1.99,0-.46-.17-1.26.09-1.66.28-.43.84-.34,1.28-.34,1.4,0,2.8,0,4.2,0Zm-.03,3.05c1.32,0,2.64,0,3.96,0,.24,0,.35-.07.34-.32-.01-.38-.01-.76,0-1.14,0-.22-.08-.3-.3-.3-2.65,0-5.3,0-7.95,0-.22,0-.3.09-.3.31,0,.36.02.72,0,1.08-.02.29.09.38.38.38,1.29-.01,2.58,0,3.87,0Z"/>
  <path class="cls-1" d="m20.34,25.86c-1.57,0-3.14,0-4.71,0-.61,0-.83-.22-.83-.83,0-.87,0-1.74,0-2.61,0-.62.24-.86.85-.86,3.14,0,6.28,0,9.42,0,.6,0,.81.22.81.82,0,.89,0,1.78,0,2.67,0,.63-.19.82-.83.82-1.57,0-3.14,0-4.71,0Zm.02-1.25c1.31,0,2.62,0,3.93,0,.26,0,.36-.09.35-.35-.02-.35-.02-.7,0-1.05.02-.29-.1-.38-.38-.38-1.2.01-2.4,0-3.6,0-1.41,0-2.82,0-4.23,0-.26,0-.36.09-.35.35.01.35.02.7,0,1.05-.02.29.1.38.38.37,1.3-.01,2.6,0,3.9,0Z"/>
  <path class="cls-1" d="m7.38,15.97c.01.55-.65.84-1.05.47-.39-.37-.14-1.06.4-1.07.36-.01.64.25.64.61Z"/>
</svg>