<?xml version="1.0" encoding="UTF-8"?>
<svg id="Layer_1" data-name="Layer 1" xmlns="http://www.w3.org/2000/svg" viewBox="0 0 32 32">
  <defs>
    <style>
      .cls-1 {
        fill: #fff;
      }
    </style>
  </defs>
  <path class="cls-1" d="m1.47,31.68c-.11-.05-.22-.1-.33-.16-.75-.39-1.03-1.31-.59-2.04.13-.21.17-.42.17-.66,0-1.04-.06-2.08.18-3.1.26-1.1.7-2.13,1.36-3.05.14-.19.18-.37.15-.6-.05-.51-.11-1.02-.05-1.52.11-.97.89-1.66,1.87-1.67,1.56,0,3.12,0,4.67,0,.42,0,.63-.17.66-.58.02-.41,0-.81.01-1.22,0-.13-.07-.2-.17-.27-1.2-.84-1.93-1.99-2.18-3.44-.04-.2-.13-.27-.33-.26-.2,0-.41.01-.61-.03-.67-.14-1.16-.73-1.17-1.42-.01-.6-.01-1.2,0-1.8,0-.5.22-.91.63-1.2.16-.11.22-.24.22-.43,0-.64,0-1.28,0-1.92.03-2.04,1.67-3.89,3.71-4.17.29-.04.59-.06.88-.06,1.5,0,2.99,0,4.49,0,1.17,0,1.92.62,2.15,1.76.04.2.14.29.34.32,1.04.14,1.76.95,1.78,2,.01.7,0,1.41,0,2.11,0,.15.02.27.16.37.45.3.66.74.67,1.27.01,1.2.07,2.4-.03,3.6-.08.95-.88,1.7-1.82,1.67-.61-.02-1.06.09-1.38.66-.23.41-.64.69-1.02.95-.17.12-.24.25-.23.46.01.3,0,.61,0,.92.02.52.24.73.76.73,1.5,0,2.99,0,4.49,0,1.22,0,2.11.84,1.99,2.04-.11,1.02.14,1.85.67,2.71.7,1.12.95,2.42.99,3.74.01.35,0,.69,0,1.04,0,.44.02.84.23,1.26.35.7-.03,1.56-.76,1.89-.09.04-.19.08-.28.12H1.47Zm1.01-7.38s-.06.06-.07.09c-.41.83-.62,1.74-.7,2.66-.03.35-.22,1.32.05,1.62.22.25.84.1.98-.11.2-.29-.39-1.93.62-1.57.71.25.04,1.38.5,1.72.21.15.9.03,1.15.03.49,0,.99,0,1.48,0,.93,0,1.86,0,2.79,0,.59,0,1.77.32,1.43-.54-.25-.62-.79-1.06-1.06-1.67-.21-.47-.31-1-.29-1.51.05-1.01.68-2.35,1.71-2.72,1.72-.62.65,2.2,1.09,2.75.28.35.88.17.98-.2.18-.66-.16-1.43.07-2.09.49-1.4,2.05.31,2.37.97.49.99.44,2.2-.13,3.15-.24.39-1.09,1.13-.99,1.64.09.44.97.23,1.35.23,1.66,0,3.31,0,4.97,0,.88,0,.76-.24.8-1.08.04-.78.07-1.56.12-2.33.05-.8.1-1.61.14-2.41.04-.7.26-1.67.07-2.35-.17-.62-.7-.67-1.26-.68-.8,0-1.59,0-2.39,0-1.71,0-3.41,0-5.12,0-1.71,0-3.41,0-5.12,0-.85,0-1.71,0-2.56,0-.57,0-1.5-.18-1.92.31-.46.54-.17,1.65-.14,2.29.05.78.11,1.56.13,2.35.01.4-.08,1.33-.74.89-.48-.32-.02-1.06-.33-1.42Zm12.81-8.37c-.09,0-.18,0-.27,0-1.25-.03-1.9-1.69-.74-2.38.5-.3,1.35-.28,1.91-.19.17.03.66.28.77.24.19-.08.18-.79.19-.94.03-.46.2-1.52-.1-1.85-.13-.13-.45-.13-.61-.28-.18-.17-.27-.39-.33-.62-.24-1,.52-3.02-1.16-3.07-.66-.02-1.34.31-2.01.35-.71.04-1.35-.11-2.03-.26-1.39-.29-1.72.51-1.72,1.76,0,.58.15,1.38-.33,1.82-.55.51-.73.17-.72,1.06.01,1.37.08,2.61,1.01,3.7,1.46,1.71,4.38,2.26,6.14.66Zm-2.62-12.84s0,0,0,0c-1.65,0-3.43-.29-4.71.98-1.22,1.21-1.01,2.83-1.03,4.41,0,.35-.07.67.19.92.14.13.84.42,1,.31.26-.16.05-1.75.1-2.07.1-.63.46-1.2,1.02-1.52,1.25-.72,2.75.21,4.1,0,1.18-.18,2.39-.62,3.27.51.42.54.46,1.18.46,1.84,0,.27-.11.77,0,1,.15.32-.02.19.32.22.9.06.94-.74.94-1.37,0-.73.09-1.53-.01-2.25-.11-.79-.6-.81-1.25-1-.54-.15-.7-.47-.82-.98-.35-1.52-2.36-1.01-3.58-1.01Zm-.05,26.65c-3.51,0-7.02,0-10.54,0-.52,0-.77.16-.76.49,0,.32.25.47.75.47,7.04,0,14.09,0,21.13,0,.52,0,.73-.14.73-.48,0-.34-.21-.49-.72-.49-3.53,0-7.06,0-10.6,0Zm1.52-6.26c0,.56,0,1.07,0,1.57-.02,1.11-1.43,1.32-2.27,1.02-.44-.16-.67-.52-.74-.97-.03-.22.13-1.46-.07-1.58-.84.7-.91,1.97-.37,2.87.33.54.76.98.98,1.59.05.14.1.59.22.69.19.16.67.06.9.06.79,0,.61-.34.9-.98.26-.57.72-1,1-1.54.45-.89.25-2.11-.55-2.73Zm-1.52-4.59c.65,0,1.3,0,1.95,0,.09,0,.24.04.2-.13-.09-.36-.06-.73-.06-1.09,0-.18-.09-.17-.22-.13-1.22.43-2.45.44-3.67,0-.17-.06-.24-.02-.24.17,0,.29.03.59-.06.88-.09.27.03.31.26.3.61,0,1.22,0,1.83,0Zm10.15,5.3c-.03.38-.06.68-.07.98-.06.98-.13,1.97-.17,2.95-.02.5.18.85.79.61.53-.2.27-1.51.22-2.02-.09-.87-.35-1.75-.77-2.52Zm-3.6-14.43c-.26.35-.54.56-.89.67-.25.08-.26,1.34-.16,1.54.12.24.33.27.6.17.77-.27.44-1.75.44-2.38Zm-13.05.09c0,.53,0,1.05,0,1.58,0,.55.76,1.11,1.02.48.07-.18.06-1.25-.04-1.4-.16-.24-.74-.44-.98-.66Zm12.11,4.34c.48,0,.79-.25.91-.7.14-.53-.69-.58-1-.32-.29.25-.41,1.03.09,1.02Zm-2.73.72s0,0,0,0c.27,0,.97.13.85-.37-.07-.32-.58-.22-.84-.22-.24,0-.87-.11-.86.3,0,.39.61.29.85.29Z"/>
  <path class="cls-1" d="m31.66,3.33c-.96.88-.87-.61-.95-1.13-.17-.99-1.12-.82-1.92-.82-1.08,0-2.15,0-3.23,0-1.1,0-2.3-.13-3.4,0-.96.13-.82.97-.82,1.75,0,.6,0,1.2,0,1.8,0,.43-.09.99.05,1.4.26.73,1.13.44,1.63.9.64.58.41,1.76.41,2.52.33-.1.67-1.01.84-1.29.26-.44.5-1.03.94-1.33.8-.55,2.37-.22,3.29-.23.76,0,1.9.24,2.18-.68.11-.37-.1-.9.1-1.23.22-.36.67-.3.88.04v1.47c-.51,1.16-1.25,1.36-2.45,1.37-.72,0-1.43,0-2.15,0-.5,0-1.06-.13-1.45.25-.41.41-.67,1.12-.97,1.62-.27.45-.59,1.31-1.09,1.53-1.32.59-1.13-1.55-1.13-2.19,0-.45.15-.97-.28-1.2-.4-.22-.85-.15-1.23-.49-.85-.75-.59-2.13-.59-3.14,0-1.08-.3-2.61.61-3.42.86-.77,2.41-.47,3.46-.47,1.62,0,3.25,0,4.87,0,1.15,0,1.96.27,2.39,1.42v1.53Z"/>
  <path class="cls-1" d="m26.01,4.78c.6,0,3.63-.4,3.63.51,0,.9-3.17.49-3.8.49-.61,0-3.45.42-3.44-.51,0-.89,3.04-.49,3.61-.49h0Z"/>
  <path class="cls-1" d="m27.17,2.64c.5,0,2.48-.34,2.47.49,0,.83-2.12.51-2.65.5-.49,0-2.38.32-2.31-.54.06-.8,1.98-.46,2.49-.46Z"/>
  <path class="cls-1" d="m23.13,2.64c.9,0,.91.98,0,.99-.92.01-.95-1,0-1h0Z"/>
</svg>