<?xml version="1.0" encoding="UTF-8"?>
<svg id="Layer_1" data-name="Layer 1" xmlns="http://www.w3.org/2000/svg" viewBox="0 0 32 32">
  <defs>
    <style>
      .cls-1 {
        fill: #fff;
      }
    </style>
  </defs>
  <path class="cls-1" d="m15.73,31.45c-.2-.11-.39-.24-.52-.44-1.79-2.65-3.73-5.2-5.47-7.88-1.35-2.07-2.59-4.2-3.48-6.52-.66-1.72-1.1-3.48-1.05-5.34.09-2.85,1.12-5.3,3.12-7.32C10.68,1.57,13.56.5,16.88.74c4.97.35,9.12,4.25,9.85,9.15.31,2.1-.02,4.12-.71,6.1-.8,2.31-1.98,4.43-3.29,6.48-1.58,2.5-3.35,4.87-5.05,7.3-.25.36-.5.72-.74,1.09-.16.25-.35.46-.62.59h-.6Zm.26-28.89c-.14.01-.33.03-.52.04-2.15.12-4.03.93-5.57,2.42-2.49,2.41-3.29,5.35-2.57,8.72.47,2.17,1.45,4.14,2.55,6.06,1.79,3.11,3.96,5.96,6,8.89.14.2.21.13.32-.02,1.75-2.52,3.6-4.97,5.22-7.58,1.22-1.97,2.32-3.99,3.02-6.21.49-1.56.71-3.16.44-4.79-.7-4.2-4.26-7.46-8.89-7.53Z"/>
  <path class="cls-1" d="m21.45,11.54c0,3.02-2.41,5.41-5.44,5.41-3,0-5.4-2.42-5.4-5.43,0-3.01,2.41-5.41,5.44-5.41,3,0,5.4,2.42,5.39,5.43Zm-5.41,3.57c2.05-.08,3.54-1.59,3.56-3.59.02-1.95-1.61-3.58-3.56-3.55-2,.02-3.57,1.52-3.57,3.57,0,2.03,1.56,3.51,3.57,3.58Z"/>
</svg>