<?xml version="1.0" encoding="UTF-8"?>
<svg id="Layer_1" data-name="Layer 1" xmlns="http://www.w3.org/2000/svg" viewBox="0 0 32 32">
  <defs>
    <style>
      .cls-1 {
        fill: #232323;
      }
    </style>
  </defs>
  <path class="cls-1" d="m16.1.77c3.99,0,7.97.03,11.96-.02,1.8-.02,3.32,1.43,3.3,3.32-.04,5.69-.01,11.37-.02,17.06,0,1.97-1.33,3.3-3.29,3.3-2.48,0-4.95,0-7.43,0-.39,0-.5.12-.49.5.03.65.02,1.29,0,1.94,0,.26.1.35.36.36.67.01,1.35-.06,2.01.05,1.06.18,1.76,1.09,1.68,2.19-.08,1.03-.93,1.82-1.99,1.82-4.02,0-8.05-.02-12.07.02-1.2.01-2.15-.9-2.16-1.98-.01-1.17.84-2.05,2.1-2.1.51-.02,1.02-.02,1.52,0,.32.01.46-.08.44-.43-.02-.65-.02-1.3,0-1.94.01-.34-.11-.43-.44-.43-2.53.01-5.05,0-7.58,0-1.58,0-2.83-1.03-3.14-2.57-.04-.2-.04-.4-.04-.61,0-5.78,0-11.55,0-17.33,0-1.79,1.37-3.15,3.16-3.16,4.04,0,8.07,0,12.11,0Zm-.02,5.77c-4.51,0-9.01,0-13.52,0-.36,0-.48.09-.48.47.01,3.66,0,7.31,0,10.97,0,.5,0,.5.51.5,8.99,0,17.97,0,26.96,0,.51,0,.51,0,.51-.51,0-3.64,0-7.29,0-10.93q0-.49-.51-.49c-4.49,0-8.99,0-13.48,0Zm.04,13.25c-4.47,0-8.94,0-13.4,0-.11,0-.23,0-.34,0-.19,0-.28.07-.28.27,0,.43-.02.87.01,1.29.07.85.58,1.49,1.3,1.7.33.09.67.11,1.02.11,7.77,0,15.54,0,23.3,0,.2,0,.41-.01.61-.04,1.05-.14,1.68-.83,1.72-1.89.01-.32,0-.63,0-.95q0-.49-.51-.49c-4.48,0-8.96,0-13.44,0Zm-.06-14.52c2.52,0,5.04,0,7.56,0,1.19,0,2.38,0,3.57,0,.65,0,2.54.3,2.88-.24.39-.61-.16-2.1-.67-2.53-.67-.56-1.58-.46-2.39-.46-2.17,0-4.34,0-6.51,0-4.34,0-8.68,0-13.02,0-1.41,0-4.08-.56-5.03.82-.31.45-.61,1.65-.35,2.15.2.39.6.25,1.06.25,4.3,0,8.6,0,12.9,0Zm.02,23.28c-1.39,0-2.79,0-4.18,0-.64,0-2.83-.37-2.62.85.17.98,1.98.63,2.65.63,1.39,0,2.77,0,4.16,0,1.39,0,2.77,0,4.16,0,.67,0,2.76.37,2.67-.81-.08-1.05-2.06-.67-2.7-.67-1.38,0-2.75,0-4.13,0Zm0-4.11c-.58,0-1.81-.23-2.36,0-.62.25-.38.96-.38,1.6,0,.84-.13,1.17.78,1.19.72.02,1.44,0,2.16,0,.53,0,1.8.22,2.28-.01.5-.24.26-1.08.26-1.58,0-.63.19-1.02-.42-1.2-.64-.18-1.66,0-2.32,0Z"/>
  <path class="cls-1" d="m12.74,11.62c-.67,0-3.24.43-3.26-.65-.03-1.13,2.6-.67,3.27-.67.67,0,3.24-.45,3.27.64.03,1.14-2.62.68-3.27.68h0Z"/>
  <path class="cls-1" d="m19.42,9.05c-.66,0-3.24.44-3.26-.62-.02-1.09,2.62-.65,3.28-.65.66,0,3.24-.44,3.26.63.02,1.09-2.64.65-3.28.65Z"/>
  <path class="cls-1" d="m25.34,10.3c.66,0,2.93-.41,2.95.63.03,1.1-2.31.69-2.97.69-.63,0-3.04.4-2.99-.69.05-1.04,2.35-.63,3-.63Z"/>
  <path class="cls-1" d="m6.87,7.78c.63,0,2.94-.41,2.96.62.02,1.07-2.35.65-2.99.65-.64,0-2.95.42-2.97-.62-.02-1.08,2.35-.65,3-.65Z"/>
  <path class="cls-1" d="m4.03,16.37c-.39,0-.69-.35-.63-.73.07-.42.9-.68.89-1.03,0-.41-.89-.59-.93-1.1-.03-.4.32-.7.69-.68.55.03,2,1.2,2,1.78,0,.54-1.49,1.79-2.02,1.77Z"/>
  <path class="cls-1" d="m5.81,10.3c.57,0,1.89-.26,1.93.62.05.94-1.37.7-1.93.7-.56,0-1.98.24-1.93-.7.04-.89,1.36-.63,1.93-.63Z"/>
  <path class="cls-1" d="m26.39,9.05c-.52,0-1.69.24-1.94-.39-.42-1.03,1.19-.88,1.7-.88.59,0,1.95-.29,2.13.51.23,1.02-1.33.77-1.88.77Z"/>
  <path class="cls-1" d="m19.06,10.3c.53,0,1.46-.16,1.56.58.1.84-1.03.75-1.56.75-.52,0-1.61.08-1.54-.73.06-.76,1.03-.6,1.54-.6Z"/>
  <path class="cls-1" d="m7.32,15.78c.53,0,1.59-.13,1.47.74-.11.72-1.17.61-1.7.59-.5-.02-1.37,0-1.3-.73.07-.77,1-.6,1.54-.6Z"/>
  <path class="cls-1" d="m13.11,9.05c-.53,0-1.56.18-1.55-.64,0-.78,1.03-.63,1.54-.63.51,0,1.58-.16,1.56.66-.02.79-1.04.62-1.55.62h0Z"/>
  <path class="cls-1" d="m16.05,22c-.68,0-3.56.46-3.55-.64,0-1.11,2.9-.64,3.59-.64.69,0,3.58-.47,3.59.64,0,1.11-2.97.63-3.63.63Z"/>
  <path class="cls-1" d="m8.4,3.06c.75,0,4.67-.48,4.63.67-.04,1.15-4.27.64-5.04.64-.67,0-4.5.49-4.19-.81.24-.98,3.82-.5,4.6-.5Z"/>
  <path class="cls-1" d="m27.51,3.63c.02.67-.81.99-1.28.56-.48-.45-.19-1.27.48-1.3.43-.02.79.32.8.74Z"/>
  <path class="cls-1" d="m22.15,2.89c.66.02.97.84.49,1.29-.48.46-1.33.1-1.29-.58.02-.41.38-.72.79-.71Z"/>
  <path class="cls-1" d="m25.18,3.65c-.01.67-.83.98-1.28.51-.46-.48-.11-1.28.56-1.26.43,0,.73.33.72.76Z"/>
</svg>