<svg id="Group_8" data-name="Group 8" xmlns="http://www.w3.org/2000/svg" xmlns:xlink="http://www.w3.org/1999/xlink" width="27.116" height="27.116" viewBox="0 0 27.116 27.116">
  <defs>
    <clipPath id="clip-path">
      <rect id="Rectangle_3" data-name="Rectangle 3" width="27.116" height="27.116" fill="#6a6a6a"/>
    </clipPath>
  </defs>
  <g id="Group_7" data-name="Group 7" clip-path="url(#clip-path)">
    <path id="Path_192" data-name="Path 192" d="M129.917,192.528a.039.039,0,0,0-.007.048h-.265a.288.288,0,0,1,.272-.048" transform="translate(-111.425 -165.46)" fill="#6a6a6a"/>
    <path id="Path_193" data-name="Path 193" d="M9.531,52.475c-.947-.95-1.855-1.852-2.753-2.764a.844.844,0,0,1,.361-1.445.875.875,0,0,1,.881.291q1.9,1.9,3.8,3.8c.118.118.242.232.359.352a.826.826,0,0,1,.013,1.206q-2.111,2.12-4.235,4.227a.833.833,0,0,1-1.208.013.849.849,0,0,1,.033-1.228c.9-.907,1.806-1.81,2.754-2.758H9.217q-4.143,0-8.287,0a.852.852,0,0,1-.87-1.15.84.84,0,0,1,.8-.542c.688,0,1.377,0,2.065,0h6.6Z" transform="translate(0 -41.459)" fill="#6a6a6a"/>
    <path id="Path_194" data-name="Path 194" d="M82.27,1.871A2.281,2.281,0,0,0,80.051,0Q73.7,0,67.343,0A3.064,3.064,0,0,0,64.3,2.514a12.559,12.559,0,0,0-.048,2.456.6.6,0,0,0,.163.355.848.848,0,0,0,.926.284.863.863,0,0,0,.586-.828c.009-.512,0-1.024,0-1.536A1.415,1.415,0,0,1,67.473,1.7h6.98a6.531,6.531,0,0,1-.8.312c-.342.114-.686.223-1.027.338a2.273,2.273,0,0,0-1.605,2.293q0,8.552.006,17.1c0,.25-.072.3-.3.3-1.085-.012-2.171,0-3.256-.006A1.414,1.414,0,0,1,65.933,20.5c0-.494,0-.989,0-1.483a.875.875,0,0,0-.86-.941.858.858,0,0,0-.833.932q0,.768,0,1.536a3.1,3.1,0,0,0,3.194,3.185c1.1,0,2.206.006,3.309,0,.211,0,.3.034.28.267a8.158,8.158,0,0,0,0,.953,2.176,2.176,0,0,0,1.258,1.937,6.1,6.1,0,0,0,.6.238h.53c.088-.056.185-.015.276-.027a1.663,1.663,0,0,0,.57-.1q3.2-1.069,6.4-2.136a2.2,2.2,0,0,0,1.646-1.866V1.961a.412.412,0,0,1-.04-.09M80.05,23.2c-2.137.712-4.277,1.412-6.406,2.147a.664.664,0,0,1-.944-.667c.024-3.327.012-6.655.012-9.982s0-6.655,0-9.982c0-.522.082-.633.581-.8L79.7,1.775c.6-.2.916.031.916.669q0,9.982,0,19.965c0,.495-.1.637-.565.791" transform="translate(-55.193 0)" fill="#6a6a6a"/>
  </g>
</svg>
