<?xml version="1.0" encoding="UTF-8"?>
<svg id="Layer_1" data-name="Layer 1" xmlns="http://www.w3.org/2000/svg" viewBox="0 0 21 21">
  <defs>
    <style>
      .cls-1 {
        fill: #c5c5c5;
        stroke: #212427;
        stroke-miterlimit: 10;
        stroke-width: .5px;
      }
    </style>
  </defs>
  <path class="cls-1" d="m14.16,20.51s-.01.02,0,.04h-.2c.06-.06.13-.05.2-.04Z"/>
  <path class="cls-1" d="m7.52,8.62c-.7-.7-1.37-1.37-2.04-2.05-.36-.37-.22-.95.27-1.07.26-.07.47.03.65.22.94.94,1.88,1.88,2.82,2.82.09.09.18.17.27.26.26.27.27.63,0,.89-1.04,1.05-2.09,2.09-3.14,3.13-.27.26-.65.26-.9,0-.25-.25-.24-.64.02-.91.67-.67,1.34-1.34,2.04-2.04-.1,0-.17,0-.24,0-2.05,0-4.09,0-6.14,0-.49,0-.81-.42-.65-.85.09-.24.32-.4.59-.4.51,0,1.02,0,1.53,0,1.56,0,3.11,0,4.67,0h.22Z"/>
  <path class="cls-1" d="m20.52,1.84c-.14-.79-.84-1.38-1.64-1.39-3.14,0-6.28,0-9.42,0-1.11,0-2.05.77-2.25,1.86-.11.6-.04,1.21-.04,1.82,0,.1.06.19.12.26.17.21.44.29.69.21.25-.08.43-.32.43-.61,0-.38,0-.76,0-1.14,0-.72.42-1.15,1.14-1.15,1.67,0,3.34,0,5,0h.17c-.19.09-.39.16-.6.23-.25.08-.51.17-.76.25-.76.26-1.19.87-1.19,1.7,0,4.23,0,8.45,0,12.68,0,.19-.05.22-.23.22-.8,0-1.61,0-2.41,0-.71,0-1.13-.43-1.13-1.14,0-.37,0-.73,0-1.1,0-.41-.28-.7-.64-.7-.36,0-.62.29-.62.69,0,.38,0,.76,0,1.14,0,1.36,1,2.36,2.37,2.36.82,0,1.64,0,2.45,0,.16,0,.22.03.21.2-.02.23-.01.47,0,.71.03.66.35,1.14.93,1.44.14.07.3.12.45.18h.39c.06-.04.14-.01.2-.02.15,0,.28-.03.42-.07,1.58-.53,3.17-1.05,4.75-1.58.67-.22,1.12-.65,1.22-1.38V1.9s-.03-.04-.03-.07Zm-1.65,15.81c-1.58.53-3.17,1.05-4.75,1.59-.36.12-.7-.06-.7-.49.02-2.47,0-4.93,0-7.4,0-2.47,0-4.93,0-7.4,0-.39.06-.47.43-.59,1.58-.53,3.17-1.06,4.75-1.59.44-.15.68.02.68.5,0,4.93,0,9.87,0,14.8,0,.37-.08.47-.42.59Z"/>
</svg>