<?xml version="1.0" encoding="UTF-8"?>
<svg id="Layer_1" data-name="Layer 1" xmlns="http://www.w3.org/2000/svg" viewBox="0 0 32 32">
  <defs>
    <style>
      .cls-1 {
        fill: #f28a1d;
      }
    </style>
  </defs>
  <path class="cls-1" d="m31.65,30.32c-.18.3-.45.39-.8.39-9.85,0-19.7,0-29.55,0-.6,0-.81-.21-.8-.8,0-.81-.05-1.61.18-2.41.58-2.09,2.5-3.77,4.66-4.06.04,0,.07-.02.2-.05-1.08-.25-1.89-.78-2.45-1.65-.56-.87-.72-1.82-.49-2.83.37-1.64,1.9-2.95,3.88-2.83,1.65.1,3.14,1.47,3.35,3.2.22,1.72-.77,3.56-2.99,4.11.19.03.33.05.46.08,1.04.22,1.97.66,2.78,1.36.13.11.21.17.36,0,1.24-1.49,2.82-2.37,4.75-2.62.04,0,.07-.02.13-.04-2.94-.61-4.35-3.1-4.08-5.42.3-2.54,2.52-4.45,5.19-4.32,2.26.11,4.33,2.05,4.54,4.4.24,2.6-1.5,4.85-4.12,5.34.39.08.73.14,1.07.22,1.53.39,2.8,1.21,3.81,2.42.11.13.18.22.35.06.9-.8,1.96-1.28,3.16-1.44.02,0,.03-.02.04-.04-2.42-.63-3.16-2.7-2.91-4.19.3-1.8,1.78-3.07,3.51-3.12,1.71-.05,3.33,1.12,3.71,2.89.22,1.01.04,1.96-.53,2.82-.56.85-1.36,1.36-2.35,1.6.76.14,1.48.36,2.14.75,1.49.89,2.44,2.16,2.76,3.88,0,.04.03.08.04.11v2.19Zm-15.56-.87h5.32q.78,0,.67-.77c-.45-3.31-3.47-5.63-6.76-5.21-2.88.37-5.08,2.74-5.25,5.63-.02.31.08.35.34.35,1.89,0,3.79,0,5.68,0Zm-3.62-12.14c.06,2.07,1.61,3.6,3.63,3.61,3.2.02,4.79-4.05,2.5-6.24-2.3-2.2-6.04-.45-6.13,2.63Zm-7.22,12.14c1.07,0,2.15,0,3.22,0,.21,0,.31-.04.32-.28.02-.97.26-1.9.67-2.78.1-.21.07-.34-.1-.49-1-.9-2.16-1.33-3.51-1.22-2.4.19-4.11,2.07-4.09,4.45,0,.25.07.33.33.33,1.05-.01,2.11,0,3.16,0Zm21.67,0c1.06,0,2.13,0,3.19,0,.23,0,.33-.06.32-.31-.03-.55-.07-1.09-.25-1.61-.61-1.7-2.43-3.04-4.51-2.87-1.07.09-1.99.49-2.8,1.19-.2.17-.24.32-.12.57.41.85.63,1.75.66,2.69,0,.27.1.34.36.34,1.05-.01,2.11,0,3.16,0ZM6.23,17.35c-1.25,0-2.39.9-2.43,2.36-.05,2.05,2.47,3.18,3.99,1.82,1.63-1.45.53-4.07-1.56-4.18Zm19.78,0c-1.3,0-2.41,1.1-2.4,2.4.01,2.06,2.59,3.16,4.06,1.7,1.49-1.47.45-4.09-1.66-4.1Z"/>
  <path class="cls-1" d="m16.05,1.48c1.23.02,1.01,2.47,2.18,2.8.91.26,3.79.11,2.25,1.69-.42.43-1.44,1.06-1.56,1.65-.12.59.25,1.48.34,2.07.1.64,0,1.32-.83,1.11-.74-.19-1.35-.91-2.09-1.08-.77-.19-3.11,2-3.51.68-.15-.51.17-1.39.26-1.91.17-.98-.05-1.15-.75-1.83-.34-.33-1.14-.87-1.16-1.39-.04-.78,1.05-.74,1.57-.81.51-.07,1.28-.02,1.66-.4.46-.47.74-1.5,1.03-2.1.13-.27.32-.46.62-.46Zm-2.82,4.19c.3.31.55.62.85.86.84.68.27,1.61.25,2.5.68-.36,1.39-.96,2.17-.69.28.1,1.1.79,1.33.55.18-.19-.32-1.31-.24-1.67.12-.59.9-1.14,1.3-1.55-.52-.08-1.48-.04-1.91-.4-.43-.35-.66-1.21-.91-1.7-.25.51-.49,1.39-.97,1.72-.46.32-1.32.29-1.86.37Z"/>
  <path class="cls-1" d="m5.7,6.95c.95,0,.86,1.63,1.6,1.97.58.27,2.83.04,1.84,1.35-.3.41-1.02.72-1.18,1.21-.17.51.26,1.22.24,1.76-.05,1.51-1.65.12-2.26-.05-.76-.21-2.21,1.54-2.7.33-.16-.39.12-1.12.18-1.52.09-.6-.08-.7-.51-1.12-.63-.61-1.4-1.5-.07-1.79.4-.09,1.16-.03,1.5-.28.35-.26.58-1.1.78-1.48.15-.3.33-.4.59-.4Zm-1.03,5.16s.05.02.08.03c.4-.21.72-.46,1.19-.37.25.05.6.48.78.19.09-.14-.15-.68-.07-.91.13-.37.56-.51.68-.87-.85.1-1.37-.29-1.62-1.13-.24.83-.78,1.2-1.63,1.18.71.49.92,1.09.59,1.87Z"/>
  <path class="cls-1" d="m30.03,9.78c.02.48-.64.91-.93,1.19-.5.48-.51.58-.38,1.27.08.47.4,1.34-.16,1.66-.44.24-1.05-.21-1.43-.41-.22-.12-.5-.36-.76-.35-.24,0-.55.24-.76.35-.42.22-1.02.71-1.48.37-.8-.6.39-1.92-.26-2.66-.46-.53-2-1.65-.53-2.06.49-.14,1.21,0,1.64-.3.4-.27.5-1.02.75-1.42.87-1.4,1.43.64,1.84,1.17.51.66,2.46.13,2.45,1.2Zm-5.27.46c.73.48.89,1.12.56,1.95.32-.17.68-.44,1.04-.45.28,0,.8.43.99.27.1-.08-.11-.76-.04-.96.12-.35.54-.48.66-.81-.37-.13-.79-.04-1.1-.32-.26-.23-.31-.62-.55-.87-.19.84-.71,1.2-1.56,1.19Z"/>
  <path class="cls-1" d="m20.56,27.64c0,.33-.26.62-.6.63-.39.01-.55-.31-.73-.6-.22-.35-.45-.65-.76-.92-.25-.22-.63-.4-.67-.77-.11-.94.93-.66,1.35-.33.52.41,1.41,1.27,1.41,1.99Z"/>
  <path class="cls-1" d="m16.12,24.59c.55.02.79.71.4,1.08-.41.39-1.08.07-1.05-.49.02-.34.3-.6.65-.58Z"/>
</svg>