<?xml version="1.0" encoding="UTF-8"?>
<svg id="Layer_1" data-name="Layer 1" xmlns="http://www.w3.org/2000/svg" viewBox="0 0 13.44 21">
  <defs>
    <style>
      .cls-1 {
        fill: #a6d864;
      }
    </style>
  </defs>
  <path class="cls-1" d="m.2,7.2c0-2.09,0-4.17,0-6.26,0-.55.24-.79.78-.79,1.08,0,2.16,0,3.24,0,.17,0,.25.05.29.23.24,1.07,1.17,1.81,2.26,1.81,1.1,0,2.03-.74,2.28-1.81.04-.17.11-.22.27-.22,1.11,0,2.22,0,3.32,0,.45,0,.71.27.71.71,0,4.25,0,8.49,0,12.74,0,.21-.08.26-.27.25-.41,0-.82,0-1.23,0-.35,0-.54.18-.54.47,0,.31.2.5.55.5.42,0,.83,0,1.25,0,.17,0,.24.05.24.23,0,1.72,0,3.44,0,5.16,0,.41-.27.68-.67.68-1.12,0-2.24,0-3.37,0-.16,0-.23-.05-.26-.21-.24-1.08-1.17-1.83-2.27-1.83-1.11,0-2.03.74-2.28,1.84-.03.15-.1.2-.25.2-1.13,0-2.26,0-3.39,0-.39,0-.67-.27-.67-.67,0-1.73,0-3.45,0-5.18,0-.17.06-.23.23-.22.44,0,.88,0,1.32,0,.25,0,.43-.15.48-.36.05-.21-.02-.41-.19-.54-.11-.08-.23-.08-.35-.08-.41,0-.82,0-1.23,0-.19,0-.26-.06-.26-.26,0-2.13,0-4.26,0-6.39Zm9.42,2.93c.25,0,.41-.12.48-.35.07-.21,0-.41-.24-.57-1.9-1.29-3.8-2.57-5.7-3.86-.27-.18-.57-.13-.73.1-.17.24-.1.54.18.73,1.89,1.28,3.78,2.56,5.66,3.83.11.07.22.13.34.12Zm-4.8-1.8c-.93,0-1.66.73-1.66,1.65,0,1.47,1.88,2.2,2.87,1.11.95-1.04.2-2.76-1.21-2.77Zm3.92-4.58c-.92,0-1.65.71-1.65,1.63,0,1.44,1.78,2.21,2.81,1.19,1.03-1.02.3-2.82-1.16-2.82Zm-3.88,10.1c-.4,0-1.18-.16-1.26.42-.08.62.62.56,1.03.57.43,0,1.48.18,1.48-.5,0-.62-.86-.48-1.25-.48Zm3.86,0c-.4,0-1.25-.15-1.27.46-.03.65.86.52,1.27.52.42,0,1.38.13,1.24-.6-.1-.54-.84-.38-1.23-.38Z"/>
  <path class="cls-1" d="m4.83,9.31c.59,0,.87.74.45,1.14-.4.39-1.13.11-1.13-.47,0-.36.32-.68.68-.67Z"/>
  <path class="cls-1" d="m8.74,6.05c-.58,0-.87-.7-.47-1.11.4-.41,1.14-.12,1.14.47,0,.36-.3.65-.67.65Z"/>
</svg>