<?xml version="1.0" encoding="UTF-8"?>
<svg id="Layer_1" data-name="Layer 1" xmlns="http://www.w3.org/2000/svg" xmlns:xlink="http://www.w3.org/1999/xlink" viewBox="0 0 800 238.71">
  <defs>
    <style>
      .cls-1 {
        fill: #fff;
      }

      .cls-2 {
        fill: #ff2c55;
      }

      .cls-3 {
        fill: url(#linear-gradient);
      }

      .cls-4 {
        fill: none;
        stroke: url(#linear-gradient-2);
        stroke-dasharray: 0 0 14.08 11.06;
        stroke-linecap: round;
        stroke-miterlimit: 10;
        stroke-width: 3px;
      }
    </style>
    <linearGradient id="linear-gradient" x1="-181.35" y1="407.89" x2="202.07" y2="71.39" gradientUnits="userSpaceOnUse">
      <stop offset=".43" stop-color="#fb3"/>
      <stop offset=".76" stop-color="#ff6447"/>
      <stop offset="1" stop-color="#ff2c55"/>
    </linearGradient>
    <linearGradient id="linear-gradient-2" x1="7.07" y1="227.26" x2="287.76" y2="11.45" gradientUnits="userSpaceOnUse">
      <stop offset=".31" stop-color="#fb3"/>
      <stop offset=".71" stop-color="#ff6447"/>
      <stop offset="1" stop-color="#ff2c55"/>
    </linearGradient>
  </defs>
  <g>
    <path class="cls-3" d="m49.6,10.92c-20.29,0-36.74,13.11-36.74,29.29v158.29c0,16.18,16.45,29.29,36.74,29.29h195.64c20.29,0,36.74-13.11,36.74-29.29V40.21c0-16.18-16.45-29.29-36.74-29.29H49.6Zm-.6,51.38c-7.2,0-13.03-5.83-13.03-13.03s5.83-13.03,13.03-13.03,13.03,5.83,13.03,13.03-5.83,13.03-13.03,13.03Z"/>
    <g>
      <path class="cls-1" d="m140.44,132.35c-.72,9.94-4.39,17.77-11.01,23.49-6.63,5.71-15.35,8.56-26.18,8.56-11.85,0-21.17-3.99-27.96-11.96-6.79-7.98-10.19-18.92-10.19-32.84v-5.65c0-8.89,1.57-16.71,4.7-23.49,3.13-6.77,7.6-11.96,13.43-15.58,5.82-3.62,12.58-5.42,20.28-5.42,10.66,0,19.25,2.85,25.77,8.56,6.52,5.72,10.28,13.73,11.3,24.06h-19.04c-.47-5.97-2.13-10.29-4.98-12.98-2.85-2.69-7.2-4.03-13.04-4.03-6.35,0-11.1,2.27-14.25,6.83-3.15,4.55-4.77,11.6-4.86,21.16v6.98c0,9.98,1.51,17.29,4.54,21.9,3.02,4.61,7.79,6.92,14.31,6.92,5.88,0,10.27-1.34,13.17-4.03,2.9-2.69,4.56-6.85,4.98-12.47h19.04Z"/>
      <path class="cls-1" d="m171.09,165.68h-18.41v-97.49h18.41v97.49Z"/>
      <path class="cls-1" d="m186.07,78.44c0-2.75.92-5.02,2.76-6.79s4.35-2.67,7.52-2.67,5.63.89,7.49,2.67c1.86,1.78,2.79,4.04,2.79,6.79s-.94,5.08-2.82,6.86c-1.88,1.78-4.37,2.67-7.46,2.67s-5.58-.89-7.46-2.67-2.82-4.06-2.82-6.86Zm19.48,86.45h-18.41v-68.67h18.41v68.67Z"/>
      <path class="cls-1" d="m282.48,125.69c0,10.58-2.4,19.05-7.21,25.42-4.8,6.37-11.29,9.55-19.45,9.55-6.94,0-12.55-2.41-16.82-7.23v32.37h-18.34v-95.08h17.01l.63,6.73c4.44-5.33,10.24-8,17.39-8,8.46,0,15.04,3.13,19.74,9.39,4.69,6.26,7.05,14.89,7.05,25.9v.95Zm-18.34-1.34c0-6.39-1.13-11.32-3.4-14.79-2.26-3.46-5.55-5.21-9.87-5.21-5.75,0-9.71,2.2-11.87,6.6v28.12c2.24,4.53,6.24,6.79,11.99,6.79,8.76,0,13.14-7.18,13.14-21.52Z"/>
    </g>
    <g>
      <path class="cls-2" d="m333.05,69.45l23.74,67.02,23.61-67.02h25.01v92.41h-19.11v-25.26l1.91-43.6-24.94,68.86h-13.08l-24.88-68.8,1.9,43.54v25.26h-19.04v-92.41h24.88Z"/>
      <path class="cls-2" d="m446.47,135.9l12.69-42.71h19.68l-27.61,79.34-1.52,3.62c-4.11,8.97-10.88,13.46-20.31,13.46-2.67,0-5.37-.41-8.12-1.21v-13.9l2.79.06c3.47,0,6.06-.52,7.78-1.58,1.71-1.06,3.06-2.82,4.03-5.27l2.16-5.65-24.06-68.86h19.74l12.76,42.71Z"/>
      <path class="cls-2" d="m487.28,161.87v-92.41h28.43c8.13,0,15.39,1.83,21.8,5.49,6.41,3.66,11.41,8.86,15.01,15.61,3.6,6.75,5.39,14.42,5.39,23.01v4.25c0,8.59-1.77,16.22-5.3,22.91-3.53,6.69-8.51,11.87-14.95,15.55-6.43,3.68-13.69,5.54-21.77,5.58h-28.62Zm19.04-76.99v61.7h9.2c7.45,0,13.14-2.43,17.07-7.3,3.94-4.86,5.94-11.82,6.03-20.88v-4.89c0-9.4-1.94-16.51-5.84-21.36-3.89-4.84-9.58-7.27-17.07-7.27h-9.39Z"/>
      <path class="cls-2" d="m602.16,163.13c-10.07,0-18.27-3.09-24.6-9.26-6.33-6.18-9.49-14.41-9.49-24.69v-1.78c0-6.9,1.33-13.06,4-18.5,2.67-5.44,6.44-9.63,11.33-12.57,4.89-2.94,10.46-4.41,16.72-4.41,9.4,0,16.79,2.96,22.18,8.89,5.39,5.92,8.09,14.32,8.09,25.19v7.49h-43.73c.59,4.48,2.38,8.08,5.36,10.79,2.98,2.71,6.76,4.06,11.33,4.06,7.07,0,12.59-2.56,16.56-7.68l9.01,10.09c-2.75,3.9-6.47,6.93-11.17,9.11-4.69,2.18-9.9,3.27-15.61,3.27Zm-2.1-56.42c-3.64,0-6.59,1.24-8.85,3.7-2.26,2.46-3.71,6-4.35,10.59h25.52v-1.47c-.08-4.08-1.19-7.23-3.3-9.47-2.12-2.23-5.12-3.35-9.01-3.35Z"/>
      <path class="cls-2" d="m680.61,161.87c-.85-1.65-1.46-3.7-1.84-6.16-4.44,4.95-10.22,7.42-17.33,7.42-6.73,0-12.3-1.94-16.72-5.83-4.42-3.9-6.63-8.8-6.63-14.73,0-7.28,2.7-12.86,8.09-16.76,5.39-3.89,13.19-5.86,23.39-5.9h8.44v-3.93c0-3.18-.82-5.72-2.45-7.62-1.63-1.9-4.2-2.85-7.71-2.85-3.09,0-5.51.74-7.27,2.22-1.76,1.48-2.63,3.52-2.63,6.09h-18.34c0-3.97,1.23-7.65,3.68-11.04,2.45-3.39,5.92-6.04,10.41-7.97,4.48-1.92,9.52-2.88,15.11-2.88,8.46,0,15.18,2.12,20.15,6.37,4.97,4.25,7.46,10.23,7.46,17.93v29.77c.04,6.51.95,11.45,2.73,14.79v1.08h-18.54Zm-15.17-12.75c2.71,0,5.21-.61,7.49-1.81s3.98-2.83,5.08-4.86v-11.8h-6.86c-9.18,0-14.07,3.17-14.66,9.51l-.06,1.08c0,2.28.8,4.16,2.41,5.65s3.81,2.22,6.6,2.22Z"/>
      <path class="cls-2" d="m729.86,161.87h-18.41v-97.49h18.41v97.49Z"/>
      <path class="cls-2" d="m782.17,142.89c0-2.24-1.11-4.01-3.33-5.3-2.22-1.29-5.79-2.44-10.69-3.46-16.34-3.42-24.5-10.36-24.5-20.81,0-6.09,2.53-11.18,7.58-15.27,5.06-4.09,11.67-6.12,19.83-6.12,8.72,0,15.69,2.05,20.92,6.16,5.23,4.1,7.84,9.43,7.84,15.99h-18.34c0-2.62-.85-4.79-2.54-6.51-1.69-1.71-4.34-2.57-7.93-2.57-3.09,0-5.48.7-7.17,2.1-1.69,1.39-2.54,3.17-2.54,5.33,0,2.03.96,3.67,2.89,4.92,1.92,1.25,5.17,2.33,9.74,3.24,4.57.91,8.42,1.93,11.55,3.08,9.69,3.55,14.53,9.71,14.53,18.47,0,6.26-2.69,11.33-8.06,15.2-5.38,3.88-12.31,5.81-20.82,5.81-5.75,0-10.86-1.02-15.33-3.08-4.47-2.05-7.97-4.86-10.5-8.44-2.54-3.58-3.81-7.44-3.81-11.59h17.39c.17,3.26,1.37,5.76,3.62,7.49s5.25,2.6,9.01,2.6c3.51,0,6.17-.67,7.97-2,1.8-1.34,2.7-3.08,2.7-5.24Z"/>
    </g>
  </g>
  <path class="cls-4" d="m40.25,0C18.02,0,0,14.44,0,32.24v174.23c0,17.81,18.02,32.24,40.25,32.24h214.34c22.23,0,40.25-14.44,40.25-32.24V32.24C294.83,14.44,276.81,0,254.58,0H40.25Z"/>
</svg>