<?xml version="1.0" encoding="UTF-8"?>
<svg id="Layer_1" data-name="Layer 1" xmlns="http://www.w3.org/2000/svg" viewBox="0 0 32 32">
  <defs>
    <style>
      .cls-1 {
        fill: #232323;
      }
    </style>
  </defs>
  <path class="cls-1" d="m21.89,30.9c-1.83,0-3.66,0-5.49,0-.29,0-.51-.09-.71-.3-.46-.48-.94-.93-1.39-1.41-.2-.22-.42-.29-.71-.29-1.43.01-2.85,0-4.28,0-1.46,0-2.53-1.06-2.54-2.51,0-.23-.08-.37-.25-.52-.74-.72-1.49-1.43-2.19-2.19-.84-.91-.53-2.38.59-2.94.25-.13.24-.2.05-.36-.19-.17-.37-.36-.55-.55-1-1.05-.62-2.69.75-3.17.19-.07.25-.14.21-.35-.13-.75.13-1.37.72-1.82.21-.16.18-.23.02-.39-.4-.38-.78-.77-1.16-1.16-.64-.65-.79-1.46-.43-2.25.34-.74,1.06-1.16,1.94-1.09.26.02.28-.08.28-.29,0-1.88,0-3.76,0-5.64,0-1.51,1.06-2.57,2.58-2.57,3.25,0,6.51,0,9.76,0,1.52,0,2.57,1.05,2.58,2.57,0,3.01,0,6.01,0,9.02,0,.26.04.35.33.33.8-.07,1.49.48,1.64,1.29.33,1.8.66,3.59.98,5.39.09.51-.07,1-.13,1.5-.08.63-.18,1.27-.27,1.9-.03.19-.02.39.03.58.27,1.06.53,2.12.79,3.19.05.2.15.35.29.5.84.83,1.66,1.67,2.5,2.49.2.2.37.41.25.71-.12.31-.38.33-.67.33-1.85,0-3.7,0-5.55,0Zm-13.51-8.59c.24.24.45.44.66.64.32.31.43.8.84.96.49.19,1.35,0,1.88,0,1.35,0,2.69,0,4.04,0,1.35,0,2.69,0,4.04,0,.44,0,.65.1.81-.27.2-.46,0-1.41,0-1.91,0-4.8,0-9.59,0-14.39,0-1.23.12-2.52,0-3.74-.08-.78-.52-1.31-1.31-1.44-.25-.04-1.39-.18-1.59.04-.18.2,0,1.04-.03,1.29-.15.93-1.21.62-1.96.62-1.25,0-2.5,0-3.75,0-1.25,0-1.25-.22-1.28-1.42-.02-.68-.3-.56-.9-.56-.38,0-.79-.02-1.15.14-.74.32-.86,1.01-.88,1.75-.06,2.32,0,4.64,0,6.96,0,.8-.31,2.66.21,3.24.27.3.75.53,1.06.84.11.12.5.65.65.58.08-.69.48-.65,1.09-.66.71,0,1.85-.22,2.53.02.61.22.42.99.42,1.52,0,.52.24,1.78-.07,2.22-.34.49-1.35.26-1.86.26-.39,0-.7-.06-1.02.16-.25.18-.44.42-.72.59-.32.2-.32.06-.4.4-.06.29.04.59-.06.91-.2.61-.68,1.01-1.25,1.25Zm17.99,7.55c-.7-.7-1.33-1.33-1.97-1.96-.51-.5-.56-1.52-.72-2.18-.18-.72-.49-1.5-.54-2.24-.08-1.36.58-2.65.37-4.02-.12-.82-.28-1.63-.43-2.44-.14-.77-.18-1.7-.45-2.44-.18-.48-.64-.76-.9-.15-.24.54-.03,1.7-.03,2.28,0,1.61,0,3.23,0,4.84,0,1.66.16,3.42-.01,5.08-.11,1.05-.79,1.93-1.82,2.2-.64.17-1.36.09-2.02.09-.49,0-1.94-.26-2.31.07.81.75,1.07.88,2.18.88.98,0,1.95,0,2.93,0,1.91,0,3.82,0,5.73,0Zm-11.24-4.92c-1.72,0-3.45,0-5.17,0-.15,0-.3-.02-.38.18-.28.7-.81,1.1-1.55,1.22-.18.03-.21.09-.19.27.12.77.72,1.26,1.59,1.26,1.89,0,3.78,0,5.67,0,1.3,0,2.6,0,3.9,0,1.05,0,1.65-.61,1.65-1.66,0-.31-.02-.62,0-.93.02-.28-.09-.35-.36-.35-1.72.01-3.45,0-5.17,0Zm-5-6.99c0-.17-.06-.36-.19-.53-.54-.68-1.42-1.67-2.16-2.12-.62-.38-1.52.09-1.34.89.1.44.59.79.89,1.09.38.39.76.79,1.16,1.15.59.53,1.64.56,1.64-.48Zm-5.19.53c0,.21.05.39.19.54.41.44.82.87,1.25,1.29.32.31.69.82,1.13.96.75.24,1.36-.57,1.01-1.25-.36-.71-1.31-1.42-1.9-1.95-.57-.52-1.67-.64-1.68.41Zm3.69,5.93c.01-.23-.09-.46-.27-.64-.63-.64-1.26-1.27-1.9-1.9-.22-.22-.5-.33-.82-.25-.68.17-.92.92-.43,1.45.62.67,1.29,1.3,1.94,1.95.06.06.15.11.23.16.56.29,1.23-.11,1.25-.77ZM14.2,3.08c.62,0,1.53.16,2.13,0,.35-.09.29.02.36-.37.11-.59-.25-.58-.71-.58-.65,0-1.3,0-1.95,0-.54,0-2.01-.29-2.25.23-.52,1.11,1.89.72,2.42.72Zm-2.45,12.94c-.78,0-1.18-.03-.88.9.25.77.28,1.03,1.09,1.03.92,0,.75-.25.75-1.11,0-.9-.11-.83-.97-.83Zm-4.98-2.83c0-.76,0-1.5,0-2.24,0-.72-1.19-.07-1.31.35-.21.79.81,1.42,1.31,1.89Z"/>
  <path class="cls-1" d="m11.77,10.03c.42,0,1.43-.2,1.77.09.41.34.21,1.28.21,1.76,0,.45.22,1.59-.09,1.95-.36.43-1.42.21-1.92.21-.46,0-1.49.2-1.85-.15-.36-.36-.15-1.4-.15-1.86,0-.46-.2-1.49.15-1.85.36-.36,1.41-.15,1.88-.15Zm.95,2.03c0-.87.08-1-.83-.99-.92,0-1.11-.15-1.11.82,0,.93-.15,1.11.83,1.11,1,0,1.11.11,1.11-.94Z"/>
  <path class="cls-1" d="m16.7,14.04c-.49,0-1.54.21-1.9-.2-.32-.38-.1-1.5-.1-1.96,0-.47-.2-1.4.21-1.76.38-.32,1.63-.09,2.1-.09.47,0,1.32-.19,1.63.26.28.41.06,1.43.06,1.89,0,.42.2,1.37-.15,1.71-.35.35-1.42.14-1.87.14Zm0-1.04c.96,0,.97,0,.97-.96,0-.97-.01-.97-.98-.97-.22,0-.78-.12-.94.1-.13.19-.02.78-.02,1.01,0,.89.12.83.96.83Z"/>
  <path class="cls-1" d="m18.71,17.02c0,.51.23,1.57-.26,1.91-.37.25-1.49.07-1.9.07-.5,0-1.46.21-1.78-.27-.27-.4-.06-1.43-.06-1.9,0-.43-.2-1.36.14-1.7.37-.38,1.54-.15,2.02-.15.41,0,1.39-.17,1.71.15.36.36.14,1.43.14,1.89Zm-2.97-.06c0,.85-.07,1,.83,1,.9,0,1.11.14,1.11-.82,0-.91.15-1.11-.82-1.11-1,0-1.11-.11-1.11.94Z"/>
  <path class="cls-1" d="m12.76,6.58q0,.51-.52.51t-.51-.55.55-.48.48.52Z"/>
  <path class="cls-1" d="m14.75,6.55q0,.54-.52.54t-.51-.52.52-.51.51.49Z"/>
  <path class="cls-1" d="m16.73,6.59c0,.5,0,.5-.53.5-.56,0-.5.04-.5-.56,0-.47,0-.47.56-.47q.47,0,.47.53Z"/>
  <path class="cls-1" d="m19.17,4.12c-.5,0-.5,0-.5-.53,0-.56-.04-.5.56-.5.47,0,.47,0,.47.56q0,.47-.53.47Z"/>
  <path class="cls-1" d="m12.76,22.45q0,.52-.52.52t-.52-.55.55-.49.49.52Z"/>
  <path class="cls-1" d="m13.71,22.42q0-.5.54-.49t.5.54-.57.5-.46-.54Z"/>
  <path class="cls-1" d="m16.21,22.96q-.51,0-.51-.52t.55-.51.48.55-.52.48Z"/>
  <path class="cls-1" d="m14.2,26.93c-.55,0-1.18.09-.99-.67.14-.59.92-.38,1.48-.36.42.01.83.19.58.76-.15.33-.4.27-.75.27h-.31Z"/>
</svg>