<?xml version="1.0" encoding="UTF-8"?>
<svg id="Layer_1" data-name="Layer 1" xmlns="http://www.w3.org/2000/svg" viewBox="0 0 32 32">
  <defs>
    <style>
      .cls-1 {
        fill: #232323;
      }
    </style>
  </defs>
  <path class="cls-1" d="m15.97,31.06c-4.72,0-9.44,0-14.15,0-.11,0-.21,0-.32,0-.45-.02-.66-.3-.5-.72.36-.97.73-1.93,1.09-2.89.78-2.06,1.57-4.11,2.35-6.17.23-.6.27-.62.89-.62,2.02,0,4.04,0,6.07,0,.36,0,.37-.02.19-.32-1.13-1.89-2.13-3.85-2.86-5.94-.6-1.73-.99-3.5-.98-5.34.03-3.76,2.75-7.12,6.42-7.92,4.53-.99,8.9,1.81,9.88,6.34.32,1.49.19,2.97-.12,4.45-.53,2.57-1.6,4.94-2.86,7.22-.22.41-.46.8-.69,1.2-.16.28-.15.3.19.3,2.04,0,4.09,0,6.13,0,.55,0,.62.05.81.56,1.13,2.97,2.27,5.94,3.4,8.91.04.11.08.22.11.33.07.3-.1.55-.4.6-.12.02-.25.01-.38.01-4.76,0-9.52,0-14.28,0Zm-7.24-21.76c-.02,1.8.48,3.71,1.17,5.46,1.42,3.63,3.5,6.88,5.87,9.95.23.3.25.3.47,0,.72-.93,1.42-1.89,2.07-2.87,1.75-2.64,3.3-5.39,4.26-8.43.55-1.73.87-3.5.62-5.32-.52-3.78-4.12-6.85-8.48-6.08-3.79.67-6.09,3.99-5.98,7.28Zm-3.93,20.8c.72,0,1.43,0,2.15,0,.28,0,.54-.05.8-.14,1.47-.53,2.93-1.05,4.4-1.56.27-.1.3-.18.12-.4-1.58-2.05-3.16-4.1-4.74-6.16-.11-.15-.24-.22-.43-.22-.48,0-.97.01-1.45,0-.24,0-.36.1-.44.32-.99,2.62-1.99,5.23-2.99,7.85-.11.28-.02.32.23.32.78-.01,1.56,0,2.34,0Zm5.74-8.47c-.54,0-1.07,0-1.61,0-.08,0-.19-.03-.24.05-.06.1.05.17.1.24,1.49,1.94,2.98,3.87,4.47,5.81.12.16.23.2.42.13,3.74-1.33,7.47-2.66,11.21-3.99.67-.24,1.35-.49,2.02-.72.23-.08.27-.18.17-.39-.11-.25-.22-.51-.29-.77-.08-.28-.24-.37-.53-.37-2.1.01-4.19.01-6.29,0-.28,0-.44.09-.59.32-.88,1.36-1.84,2.67-2.86,3.93-.41.51-.66.51-1.07,0-1.02-1.26-1.98-2.57-2.86-3.93-.16-.24-.33-.34-.62-.33-.48.02-.97,0-1.45,0Zm14.17,8.46c-.03-.07-.04-.1-.05-.12-.95-1.24-1.91-2.48-2.86-3.73-.14-.19-.29-.15-.47-.09-3.13,1.12-6.26,2.23-9.4,3.34-.52.18-1.04.37-1.56.56,0,.01,0,.03.01.04h14.33Zm3.16.01c.57,0,1.14,0,1.71,0,.25,0,.28-.07.2-.3-.71-1.86-1.42-3.72-2.12-5.58-.09-.23-.18-.28-.41-.19-1.45.53-2.91,1.05-4.37,1.56-.27.1-.22.19-.09.37,1.01,1.31,2.02,2.62,3.03,3.93.11.15.24.22.43.21.55,0,1.1,0,1.64,0Z"/>
  <path class="cls-1" d="m19.75,9.18c0,3.33-4.2,5.02-6.48,2.59-2.21-2.36-.52-6.35,2.72-6.35,2.11,0,3.76,1.64,3.77,3.76Zm-3.75,2.81c1.54,0,2.82-1.29,2.81-2.83,0-2.47-3.09-3.71-4.82-1.97-1.73,1.74-.45,4.8,2,4.8Z"/>
</svg>