<?xml version="1.0" encoding="UTF-8"?>
<svg id="Layer_1" data-name="Layer 1" xmlns="http://www.w3.org/2000/svg" viewBox="0 0 32 32">
  <defs>
    <style>
      .cls-1 {
        fill: #f28a1d;
      }
    </style>
  </defs>
  <path class="cls-1" d="m1.02,3.37c.2-.73.57-1.34,1.22-1.76.46-.29.95-.43,1.49-.43,4.75,0,9.51,0,14.26,0,2.06,0,3.35,2.04,2.48,3.91-.14.3-.14.3.2.3,1.41,0,2.83,0,4.24,0,1.41,0,2.6,1.05,2.72,2.39.13,1.48-.8,2.74-2.24,2.99-.51.09-1.03.02-1.55.04-.11,0-.28-.07-.31.06-.03.12.08.26.19.34.07.05.16.07.24.1,3.74,1.3,6.08,3.86,6.84,7.75.8,4.08-1.1,8.19-4.73,10.35-1.79,1.07-3.75,1.52-5.82,1.36-2.43-.19-4.53-1.16-6.26-2.88-.19-.19-.38-.26-.64-.26-2.14,0-4.29,0-6.43,0-1.2,0-2.07-.55-2.54-1.63-.48-1.1-.26-2.12.56-2.99.13-.14.15-.22,0-.38-1.08-1.14-1.08-2.7,0-3.83.14-.15.15-.23,0-.38-1.08-1.14-1.08-2.7,0-3.83.16-.17.11-.26-.02-.4-.73-.78-.97-1.71-.64-2.73.33-1.02,1.06-1.64,2.11-1.84.53-.1,1.07-.03,1.6-.03.25,0,.3-.03.18-.28-.4-.81-.4-1.64,0-2.45.13-.27.04-.28-.19-.28-1.38,0-2.77-.03-4.15.01-1.38.04-2.49-.89-2.78-2.06-.01-.05-.03-.09-.05-.14,0-.35,0-.7,0-1.05Zm20,26.23c4.89-.07,8.74-3.9,8.73-8.76,0-4.86-3.86-8.72-8.72-8.72-4.85,0-8.74,3.84-8.75,8.73,0,4.87,3.86,8.69,8.74,8.75ZM10.84,5.39c.1,0,.19,0,.29,0,2.26,0,4.52,0,6.78,0,.64,0,1.16-.24,1.45-.85.27-.56.2-1.1-.18-1.59-.34-.44-.82-.56-1.35-.56-4.64,0-9.27,0-13.91,0-.07,0-.14,0-.2,0-.99.07-1.64.86-1.46,1.78.15.75.75,1.21,1.6,1.21,2.33,0,4.66,0,6.98,0Zm6.93,4.21c.33,0,.66,0,.99,0,2.02,0,4.03,0,6.05,0,.64,0,1.16-.25,1.45-.85.27-.56.19-1.1-.19-1.59-.33-.42-.81-.55-1.32-.55-4.66,0-9.31,0-13.97,0-.06,0-.12,0-.18,0-.62.06-1.1.31-1.36.9-.24.55-.15,1.07.21,1.54.33.42.81.55,1.33.55,2.33,0,4.66,0,6.98,0Zm3.75,1.3c-.24-.11-.43-.09-.62-.09-4.58,0-9.16,0-13.74,0-.09,0-.18,0-.26,0-1.04.05-1.71.9-1.47,1.87.17.69.77,1.12,1.58,1.12,2.21,0,4.42,0,6.63,0,.22,0,.38-.07.54-.22.83-.8,1.78-1.42,2.83-1.88,1.42-.61,2.89-.9,4.5-.81Zm-8.61,4.14c-.1,0-.15-.02-.2-.02-1.86,0-3.73-.06-5.59,0-1.3.04-2.4,1.42-1.31,2.55.5.52,1.23.45,1.89.45.87,0,1.74,0,2.61,0,.3,0,.88.12,1.12-.06.19-.15.25-.57.33-.79.3-.76.7-1.46,1.16-2.13Zm-3.21,11.4c.93,0,1.87,0,2.8,0,.17,0,.25-.02.13-.2-.53-.8-.92-1.67-1.19-2.59-.04-.14-.11-.21-.27-.21-1.43,0-2.86-.02-4.29.01-1.02.02-1.68.88-1.47,1.84.16.69.76,1.14,1.56,1.15.9,0,1.81,0,2.71,0Zm-.8-7.21c-1.15,0-3.19-.36-3.51,1.2-.27,1.34.97,1.79,2.03,1.8.82,0,1.63,0,2.45,0,.24,0,.97.13,1.16-.03.2-.17.04-.64.03-.86-.02-.39.27-1.81.03-2.06-.26-.28-1.79-.05-2.18-.05Z"/>
  <path class="cls-1" d="m18.53,22.62c0-.49.47-.97.94-.62.47.35.26,1.07.86,1.41,1.27.72,2.75-1.09,1.32-1.83-.58-.3-1.29-.16-1.89-.48-.56-.3-1-.79-1.16-1.41-.15-.6-.06-1.29.28-1.8.15-.23.36-.43.58-.59.23-.17.69-.25.86-.48.25-.33.15-1.03.86-.81.32.1.29.29.42.52.19.35.17.34.57.54.55.28,1.01.74,1.21,1.33.16.48.14,1.54-.66,1.3-.55-.17-.4-.91-.74-1.29-.46-.5-1.38-.51-1.87-.05-.47.43-.43,1.13.05,1.53.58.48,1.46.25,2.12.62,1.27.71,1.66,2.47.59,3.54-.28.28-.6.38-.92.58-.34.22-.19.32-.39.63-.21.31-.65.44-.95.16-.28-.26-.09-.63-.51-.78-.92-.34-1.55-1.16-1.56-2.03Z"/>
  <path class="cls-1" d="m28.63,20.93c.01,1.09-.23,2.39-.8,3.33-.51.84-1.42.39-1.11-.53.36-1.07.74-1.95.68-3.12-.04-.88-.24-1.76-.63-2.56-.38-.79-.93-1.47-1.59-2.04-.45-.38-1.95-.94-1.71-1.68.55-1.67,3.74,2.02,4.1,2.63.71,1.2,1.07,2.5,1.06,3.97Z"/>
  <path class="cls-1" d="m15.41,17.57c.01.14-.06.27-.12.4-1.56,3.25-.35,6.9,2.83,8.59.21.11.39.23.43.48.05.25-.01.47-.23.62-.23.17-.48.15-.72.03-.89-.45-1.67-1.03-2.33-1.78-1.41-1.62-2.04-3.52-1.89-5.66.07-1.03.35-2.01.85-2.92.16-.3.41-.43.69-.36.28.07.47.3.47.61Z"/>
  <path class="cls-1" d="m21.92,14.43c-.54,0-.85-.64-.46-1.03.37-.37,1.08-.12,1.08.43,0,.34-.27.6-.62.6Z"/>
  <path class="cls-1" d="m20.12,28.47c-.54,0-.85-.63-.46-1.03.38-.38,1.07-.13,1.07.43,0,.35-.25.6-.61.6Z"/>
</svg>