<?xml version="1.0" encoding="UTF-8"?>
<svg id="Layer_1" data-name="Layer 1" xmlns="http://www.w3.org/2000/svg" viewBox="0 0 32 32">
  <defs>
    <style>
      .cls-1 {
        fill: #232323;
      }
    </style>
  </defs>
  <path class="cls-1" d="m9.91,4.19c.5.18.67.63.89,1.07.32.65.42.79,1.15.9.48.07,1.06.07,1.37.5.3.43.21.9-.1,1.28-.35.43-1,.73-1.03,1.3-.04.57.38,1.14.17,1.72-.54,1.51-1.9-.08-2.71-.08-.8,0-2.24,1.6-2.73.04-.18-.57.24-1.15.19-1.71-.05-.52-.63-.81-.96-1.18-.35-.39-.51-.91-.16-1.37.32-.43.92-.43,1.39-.49.72-.1.81-.27,1.12-.91.21-.44.39-.84.86-1.06h.56Zm-2.23,6.38c0,.2.13.29.31.2.44-.22.96-.62,1.45-.71.45-.08.81.17,1.18.37.2.11.75.53.93.27.15-.21-.1-.96-.14-1.2-.06-.39-.09-.7.14-1.04.26-.37.9-.67,1.06-1.08.18-.44-.59-.4-.88-.44-.36-.05-.77-.06-1.06-.31-.34-.28-.75-1.93-1.22-1.54-.28.23-.4.85-.59,1.17-.23.4-.5.53-.95.62-.22.04-1.24.04-1.32.31-.09.27.57.73.76.91.77.75.48,1.48.32,2.47Z"/>
  <path class="cls-1" d="m9.45,12.45c.49,0,.81.14,1.08.54.26.4.36,1.14.82,1.35.72.34,2.44-.03,2.14,1.38-.11.51-.66.86-1,1.21-.47.48-.23.91-.14,1.54.08.54.04,1.07-.54,1.33-.61.27-1.2-.22-1.72-.48-.61-.31-.93.03-1.51.32-.49.24-.99.39-1.43-.05-.4-.4-.27-.89-.18-1.39.12-.71.2-.9-.33-1.4-.59-.57-1.46-1.64-.27-2.18.48-.22,1.09-.06,1.56-.27.42-.19.6-.94.8-1.33.19-.36.48-.57.71-.57Zm-1.53,4.88c-.05.48-.14.95-.23,1.43-.11.64.76.05.96-.06.37-.2.73-.45,1.17-.38.44.07.83.4,1.23.59.49.23.56.13.5-.39-.05-.42-.25-.91-.18-1.34.06-.41.4-.68.68-.95.17-.17.79-.58.59-.87-.13-.18-1.02-.18-1.22-.21-1.02-.17-1.02-.91-1.52-1.66-.24-.36-.36-.26-.55.11-.19.37-.34.86-.62,1.18-.26.29-.58.34-.95.39-.23.03-.97.01-1.11.19-.29.4,1.27,1.31,1.25,1.96Z"/>
  <path class="cls-1" d="m11.41,28.16c-.42.02-.87-.32-1.22-.51-.53-.28-.69-.21-1.21.07-.67.36-1.69.79-2.04-.23-.15-.42.02-.93.09-1.35.11-.63-.04-.74-.48-1.18-.55-.54-1.26-1.48-.26-2.03.37-.2.86-.19,1.27-.25.5-.07.6-.21.82-.66.32-.67.82-1.7,1.76-1.17.7.39.57,1.6,1.36,1.81.73.19,1.85,0,2,1.01.07.5-.27.82-.59,1.14-.42.42-.77.6-.67,1.22.12.77.43,2.13-.82,2.12Zm0-.82c.18,0,.21-.12.18-.27-.07-.49-.29-1.1-.22-1.6.06-.41.38-.66.66-.93.16-.16.73-.55.66-.8-.08-.25-.86-.25-1.05-.27-1.06-.14-1.21-.65-1.67-1.55-.25-.48-.39-.47-.64,0-.2.38-.35.89-.67,1.2-.37.35-2.13.3-2.04.78.06.32.82.77,1.02,1.02.31.37.29.71.22,1.17-.03.22-.32,1.03-.11,1.21.24.21.95-.35,1.17-.46.5-.25.81-.32,1.34-.06.32.16.78.54,1.14.56Z"/>
  <path class="cls-1" d="m21.18,14.12c-1.88,0-3.76,0-5.63,0-.41,0-.59-.12-.59-.4,0-.29.18-.42.6-.42,3.76,0,7.51,0,11.27,0,.09,0,.17,0,.26.02.22.04.35.21.34.41,0,.2-.15.36-.37.38-.08.01-.17,0-.26,0-1.87,0-3.74,0-5.61,0Z"/>
  <path class="cls-1" d="m21.19,21.58c1.2,0,2.39,0,3.59,0,.47,0,2.64-.31,2.65.4,0,.74-2.38.42-2.88.42-1.16,0-2.32,0-3.49,0-1.16,0-2.32,0-3.49,0-.47,0-2.72.31-2.61-.47.06-.41.54-.34.85-.35.6,0,1.2,0,1.79,0,1.2,0,2.39,0,3.59,0Z"/>
  <path class="cls-1" d="m21.18,5.84c-1.21,0-2.42,0-3.63,0-.49,0-2.5.31-2.59-.35-.11-.78,2.23-.46,2.69-.46,1.17,0,2.35,0,3.52,0,1.17,0,2.35,0,3.52,0,.5,0,2.62-.31,2.72.35.12.78-2.18.46-2.66.46-1.19,0-2.38,0-3.57,0Z"/>
  <path class="cls-1" d="m21.19,24.84c-1.92,0-3.83,0-5.75,0-.33,0-.49-.14-.49-.4,0-.2.1-.33.29-.37.14-.03.28-.03.42-.03,3.69,0,7.37,0,11.06,0,.13,0,.27,0,.39.03.2.04.31.18.31.38,0,.2-.14.36-.34.38-.08.01-.17,0-.26,0-1.88,0-3.76,0-5.63,0Z"/>
  <path class="cls-1" d="m21.18,7.5c1.2,0,2.4,0,3.6,0,.6,0,1.2,0,1.8,0,.3,0,.83-.07.84.37.03.75-2.28.43-2.73.43-1.16,0-2.33,0-3.49,0s-2.33,0-3.49,0c-.47,0-2.81.33-2.75-.44.03-.44.53-.37.85-.37.6,0,1.19,0,1.79,0,1.19,0,2.39,0,3.58,0Z"/>
  <path class="cls-1" d="m21.17,16.56c-1.22,0-2.43,0-3.65,0-.47,0-2.55.31-2.57-.38-.02-.71,2.39-.4,2.89-.4,1.16,0,2.31,0,3.47,0,1.16,0,2.31,0,3.47,0,.49,0,2.52-.31,2.64.32.15.78-2.12.46-2.58.46-1.22,0-2.44,0-3.66,0Z"/>
  <path class="cls-1" d="m19.48,10.75c-.96,0-1.92,0-2.88,0-.38,0-1.65.23-1.65-.41,0-.67,1.47-.4,1.87-.4.89,0,1.79,0,2.68,0,.89,0,1.79,0,2.68,0,.39,0,1.75-.24,1.86.34.13.71-1.41.47-1.78.47-.93,0-1.85,0-2.78,0Z"/>
  <path class="cls-1" d="m19.51,26.49c.91,0,1.81,0,2.72,0,.4,0,1.6-.22,1.8.24.33.77-1.26.56-1.57.56-.9,0-1.8,0-2.7,0s-1.8,0-2.7,0c-.44,0-2.01.27-2.09-.37-.08-.71,1.5-.44,1.9-.44.88,0,1.76,0,2.64,0Z"/>
  <path class="cls-1" d="m19.5,18.21c.91,0,1.82,0,2.73,0,.35,0,2.11-.24,1.79.55-.21.53-1.77.26-2.22.26-.89,0-1.79,0-2.68,0-.85,0-1.7,0-2.55,0-.36,0-1.76.23-1.61-.49.12-.57,1.41-.32,1.82-.32.91,0,1.81,0,2.72,0Z"/>
  <path class="cls-1" d="m9.28,9.15c-.39-.03-1.25-.95-.61-1.22.3-.13.39.2.64.18.22-.01.53-.48.68-.62.17-.16.37-.39.63-.3.29.1.28.4.16.62-.19.35-1.09,1.33-1.49,1.34Z"/>
  <path class="cls-1" d="m10.86,15.79c.02.45-.73.95-1.02,1.25-.21.21-.39.45-.7.36-.19-.06-.56-.46-.63-.61-.09-.2-.11-.4.11-.54.31-.21.38.14.63.16.51.05.78-1.2,1.39-.91.15.07.22.19.23.3Z"/>
  <path class="cls-1" d="m9.26,25.7c-.37-.12-1.24-.9-.6-1.21.31-.15.35.17.6.16.23,0,.42-.32.57-.47.22-.22,1.04-.84,1.03-.06,0,.45-.97,1.12-1.27,1.43-.09.09-.19.14-.33.14Z"/>
</svg>