<?xml version="1.0" encoding="UTF-8"?>
<svg id="Layer_1" data-name="Layer 1" xmlns="http://www.w3.org/2000/svg" viewBox="0 0 32 32">
  <defs>
    <style>
      .cls-1 {
        fill: #fff;
      }
    </style>
  </defs>
  <path class="cls-1" d="m4.23,30.56c-.64-.22-1.1-.61-1.28-1.29-.04-.15-.04-.3-.04-.45,0-7.41,0-14.82,0-22.23,0-1.02.74-1.75,1.76-1.75,1.23,0,2.46,0,3.69,0,.22,0,.33-.07.45-.26.33-.56.82-.88,1.49-.88.1,0,.21-.01.31,0,.21.02.31-.06.38-.27.41-1.24,1.46-2.01,2.73-2.01,1.27,0,2.33.77,2.74,2,.06.18.12.3.35.28.86-.08,1.52.23,1.92,1.02.07.15.21.11.32.11,1.23,0,2.46,0,3.69,0,1.08,0,1.8.72,1.8,1.8,0,4.08,0,8.17,0,12.25,0,.29.08.4.37.48,2.42.64,4.14,2.9,4.2,5.36.07,2.85-2.04,5.38-4.87,5.79-.04,0-.07.02-.11.03H4.23Zm15.64-1.16c-.15-.14-.26-.24-.36-.33-.81-.74-1.36-1.65-1.64-2.71-.07-.26-.18-.34-.44-.34-2.67.01-5.34,0-8.02,0-.1,0-.21,0-.31,0-.3-.03-.51-.27-.51-.58,0-.31.21-.55.51-.58.1-.01.21,0,.31,0,1.64,0,3.28,0,4.92,0,1.02,0,2.05,0,3.07,0,.2,0,.29-.04.29-.27,0-.54.12-1.07.29-1.58.13-.39.13-.39-.29-.39-2.76,0-5.51,0-8.27,0-.1,0-.21,0-.31,0-.32-.04-.53-.29-.52-.6.01-.36.26-.56.71-.56,3.06,0,6.12,0,9.18,0,.23,0,.38-.06.53-.24,1.08-1.25,2.44-1.96,4.1-2.03.26-.01.26-.14.26-.33,0-4.03,0-8.05,0-12.08,0-.55-.21-.75-.76-.75-1.13,0-2.26,0-3.38,0-.28,0-.38.07-.37.36.02.6-.17.78-.77.78-2.91,0-5.82,0-8.73,0-.05,0-.09,0-.14,0-.4-.01-.61-.22-.63-.62,0-.09,0-.19,0-.28.01-.17-.05-.24-.23-.24-1.21,0-2.43,0-3.64,0-.41,0-.62.23-.64.64,0,.08,0,.15,0,.23,0,7.21,0,14.42,0,21.63,0,.09,0,.19,0,.28.03.37.23.56.6.59.08,0,.17,0,.26,0,4.87,0,9.74,0,14.61,0,.08,0,.17,0,.32,0Zm8.04-4.53c-.06-2.54-1.97-4.5-4.51-4.51-3.89-.01-6.02,4.8-3.31,7.65,2.8,2.94,7.72.8,7.81-3.14ZM13.69,5.98c1.23,0,2.46,0,3.69,0,.1,0,.23.04.29-.11.18-.48-.15-.97-.66-.99-.18,0-.36,0-.54,0q-.95,0-1.12-.94c-.15-.82-1.01-1.44-1.83-1.3-.88.14-1.37.68-1.49,1.64-.05.42-.24.6-.67.6-.28,0-.57,0-.85,0-.55,0-.74.21-.76.76-.01.28.09.35.36.34,1.19-.01,2.39,0,3.58,0Z"/>
  <path class="cls-1" d="m14.83,12.39c-1.24,0-2.48,0-3.71,0-.58,0-2.54.38-2.53-.6,0-.95,1.89-.58,2.46-.58,1.27,0,2.54,0,3.81,0,1.22,0,2.43,0,3.65,0,.58,0,2.69-.38,2.62.62-.06.92-2.01.55-2.6.55-1.24,0-2.47,0-3.71,0Z"/>
  <path class="cls-1" d="m14.85,15.8c-1.24,0-2.49,0-3.73,0-.59,0-2.51.38-2.53-.58-.02-.96,1.88-.6,2.45-.6,1.27,0,2.55,0,3.82,0,1.22,0,2.44,0,3.66,0,.57,0,2.71-.38,2.62.64-.08.9-1.97.54-2.56.54-1.24,0-2.48,0-3.72,0Z"/>
  <path class="cls-1" d="m14.86,18.04c1.24,0,2.49,0,3.73,0,.58,0,2.55-.38,2.54.59,0,.95-1.89.58-2.46.58-1.27,0-2.54,0-3.81,0-1.22,0-2.43,0-3.65,0-.58,0-2.68.38-2.63-.62.05-.93,2.02-.55,2.62-.55,1.22,0,2.44,0,3.66,0Z"/>
  <path class="cls-1" d="m6.89,12.39c-.52,0-.77-.65-.4-1.01.37-.35.99-.09.99.42,0,.34-.25.59-.59.59Z"/>
  <path class="cls-1" d="m6.87,15.8c-.52-.02-.75-.68-.37-1.02.38-.34.99-.06.98.45,0,.34-.27.58-.61.57Z"/>
  <path class="cls-1" d="m7.48,18.61c0,.52-.63.8-1,.43-.36-.35-.12-.99.39-1,.34,0,.6.24.61.57Z"/>
  <path class="cls-1" d="m7.48,22.03c0,.52-.64.78-1,.41-.35-.36-.1-.99.41-1,.34,0,.6.24.6.58Z"/>
  <path class="cls-1" d="m6.91,26.03c-.52,0-.79-.63-.42-1,.36-.36.99-.11,1,.4,0,.34-.24.6-.58.6Z"/>
  <path class="cls-1" d="m25.68,23.75c.02.52-.97,1.22-1.29,1.55-.36.36-.82,1.06-1.29,1.25-.67.27-2.36-1.32-1.89-2,.32-.47.79-.19,1.1.1.47.44.51.54,1.03.02.41-.41.83-.97,1.31-1.3.38-.27,1.07-.28,1.04.39Z"/>
  <path class="cls-1" d="m13.71,4.88c-.52,0-.77-.66-.39-1.01.37-.35.99-.09.99.43,0,.34-.25.59-.59.59Z"/>
</svg>