<?xml version="1.0" encoding="UTF-8"?>
<svg id="Layer_1" data-name="Layer 1" xmlns="http://www.w3.org/2000/svg" viewBox="0 0 32 32">
  <defs>
    <style>
      .cls-1 {
        fill: #fff;
      }
    </style>
  </defs>
  <path class="cls-1" d="m31.29,7.05c-.29.78-.86,1.11-1.69,1.1-1.11-.02-2.23,0-3.34,0-.62,0-.58-.08-.58.57,0,4.38,0,8.75,0,13.13,0,.09,0,.18,0,.27,0,.74-.22.96-.96.96-3.09,0-6.19,0-9.28,0-.34,0-.47.1-.54.43-.11.54-.3,1.07-.4,1.62-.11.59-.38,1.09-.72,1.58-.91,1.27-1.79,2.56-2.68,3.84-.22.33-.49.47-.9.47-2.4-.01-4.79,0-7.19,0-.69,0-.93-.24-.93-.94,0-2.78.03-5.57-.01-8.35-.02-1.12.32-2.11.83-3.06.88-1.63,1.97-3.1,3.17-4.5.19-.22.27-.44.27-.73-.01-1.61,0-3.22,0-4.83q0-.44-.45-.44c-1.19,0-2.39,0-3.58,0-1.02,0-1.6-.59-1.6-1.62,0-1.31,0-2.63,0-3.94,0-.98.6-1.58,1.59-1.58,3.97,0,7.94,0,11.9,0,5.12,0,10.24,0,15.36,0,.83,0,1.42.3,1.72,1.09v4.95Zm-15.26-1.78c-2.64,0-5.29,0-7.93,0q-.41,0-.41.41c0,2.93,0,5.87,0,8.8,0,2.32,0,4.63,0,6.95,0,.25.06.37.33.34.17-.02.34-.02.51,0,.23.02.34-.07.4-.29.27-.9.54-1.81.87-2.69.48-1.29.97-2.57,1.74-3.72.61-.91,1.43-1.54,2.54-1.72.62-.1,1.16.11,1.53.6.6.78.82,1.69.69,2.67-.2,1.58-.53,3.13-.86,4.69-.09.42-.08.42.34.42,2.72,0,5.45,0,8.17,0,.4,0,.4,0,.4-.39,0-5.23,0-10.46,0-15.69,0-.31-.09-.38-.39-.38-2.64.01-5.29,0-7.93,0Zm-9.68,10.78c-1.05,1.24-1.99,2.52-2.62,4-.42.98-.3,2.03-.3,3.07,0,1.09,0,2.17,0,3.26,0,.49,0,.98,0,1.47,0,.41-.13,1.08,0,1.47.21.66,1.74.34,2.37.34,1,0,2,0,3,0,.34,0,.87.11,1.19-.02.3-.13.48-.51.65-.77,1.04-1.51,2.29-2.91,2.75-4.7.46-1.79.85-3.59,1.19-5.4.14-.74,1.07-3.98-.35-4.13-.63-.07-1.4.82-1.7,1.27-.46.69-.78,1.47-1.09,2.23-.36.89-.67,1.79-.96,2.7-.17.55-.28,1.73-.74,2.1-.48.39-1.95.19-2.56.14-.84-.07-.81-.65-.82-1.38-.02-1.88,0-3.75,0-5.63ZM16,2.35c-3.23,0-6.46,0-9.69,0-.78,0-1.56,0-2.34,0-.4,0-1.62-.21-1.89.12-.26.32-.03,1.7-.03,2.12,0,.43-.23,1.8.03,2.13.26.32,1.3.13,1.68.13.63,0,1.25,0,1.88,0,.8,0,.73-.15.73-.91,0-.67-.1-.64-.72-.66-1.26-.03-1.36-1.31-.05-1.35,1.37-.05,2.76,0,4.13,0,5.55,0,11.14-.19,16.69,0,.43.01.91.06.99.57.07.44-.25.67-.63.75-.42.09-.92-.17-1.1.27-.14.36-.08,1.14.28,1.27.53.19,1.46,0,2.02,0,.42,0,1.43.2,1.79,0,.36-.2.21-.8.21-1.19,0-.64,0-1.28,0-1.92,0-.28.15-1.08-.1-1.29-.24-.21-1.12-.04-1.41-.04-1.42,0-2.84,0-4.27,0-2.74,0-5.47,0-8.21,0Z"/>
</svg>