<?xml version="1.0" encoding="UTF-8"?>
<svg id="Layer_1" data-name="Layer 1" xmlns="http://www.w3.org/2000/svg" viewBox="0 0 32 32">
  <defs>
    <style>
      .cls-1 {
        fill: #fff;
      }
    </style>
  </defs>
  <path class="cls-1" d="m1.01,26.06V1.01c10.01,0,20.03,0,30.04,0,0,.1.02.19.02.29,0,8.13,0,16.25,0,24.38,0,.4,0,.4-.42.4-1.05,0-2.09,0-3.14,0-.11,0-.23-.03-.3.06-.16.21-.16.46-.12.7.04.21.25.13.39.15.09,0,.18,0,.26,0,.24-.01.33.09.33.33,0,1.14,0,2.29,0,3.43,0,.25-.09.32-.33.32-3.47,0-6.94,0-10.41,0-.26,0-.34-.08-.34-.34.01-.99,0-1.98,0-2.96q0-.74.72-.78s.1,0,.15-.02c.06-.01.1-.06.12-.12.13-.4-.14-.78-.55-.78-5.31,0-10.62,0-15.93,0-.17,0-.33-.01-.5-.02Zm17.93-6.35s.04,0,.06,0c0-.15,0-.31,0-.46,0-2.06,0-4.13,0-6.19,0-1.08,1.02-1.82,2.02-1.48.65.22,1.05.8,1.05,1.57,0,1.19,0,2.39,0,3.58,0,.25.09.34.34.35,1.1.08,2.2.17,3.3.28,1.43.15,2.35,1.19,2.36,2.62,0,1.25,0,2.5,0,3.75,0,.35-.02.69-.14,1.01-.08.21,0,.26.19.26.48,0,.96,0,1.44,0q.45,0,.45-.46c0-6,0-12.01,0-18.01q0-.47-.48-.47c-9.01,0-18.03,0-27.04,0q-.47,0-.47.47c0,5.99,0,11.99,0,17.98q0,.48.49.48c4.82,0,9.64,0,14.46,0,.04,0,.08,0,.12,0,.24.02.31-.05.17-.28-.16-.26-.27-.54-.38-.83-.55-1.5-1.1-2.99-1.65-4.49-.09-.24-.14-.49-.1-.75.11-.68.58-1.17,1.22-1.3.65-.13,1.27.14,1.63.73.32.53.63,1.08.94,1.62Zm-2.91-14.73c4.52,0,9.03,0,13.55,0q.45,0,.45-.46c0-.68,0-1.37,0-2.05,0-.43,0-.43-.45-.43-.94,0-1.88,0-2.82,0-8.05,0-16.11,0-24.16,0q-.57,0-.57.55c0,.64,0,1.27,0,1.91q0,.49.48.49c4.51,0,9.01,0,13.52,0Zm4.05,11.46c0,1.11.1,2.27,0,3.38-.06.67-.5,1.3-1.26,1.13-.78-.18-1.14-1.28-1.5-1.89-.17-.3-.36-.76-.78-.64-.42.12-.31.49-.22.8.47,1.66,1.16,3.4,1.88,4.97.2.43.46.84.62,1.28.14.38.13.74.22,1.12.16.67.94.42,1.55.42,1.01,0,2.02,0,3.03,0,.4,0,.81,0,1.21,0,.22,0,.84.1,1.01-.02.25-.17.17-.71.25-.99.11-.38.3-.69.51-1.02.49-.77.38-1.54.38-2.42,0-1.25.52-3.61-1.08-4.08-.86-.25-1.93-.18-2.82-.26-.52-.04-1.63.1-1.99-.37-.36-.49-.1-1.74-.1-2.31,0-.45,0-.91,0-1.36,0-.33.13-.99-.04-1.3-.15-.27-.48-.37-.73-.16-.25.2-.14.7-.14.97,0,.92,0,1.85,0,2.77Zm2.46,13.59c1.37,0,2.74,0,4.11,0,.25,0,.36-.08.35-.34-.01-.43-.01-.86,0-1.29,0-.24-.08-.33-.33-.33-2.76,0-5.51,0-8.27,0-.25,0-.33.1-.32.33,0,.41,0,.82,0,1.23,0,.36.03.38.39.38,1.36,0,2.72,0,4.08,0Z"/>
  <path class="cls-1" d="m10.13,8.62c.14-.12.28-.23.42-.35.12-.1.22-.11.32.02.08.1.16.19.25.29q.31.36-.06.67c-.25.22-.5.44-.76.65-.17.13-.23.29-.23.5,0,1.08,0,2.17,0,3.25,0,.39-.01.4-.39.4-1.77,0-3.54,0-5.31,0-.29,0-.39-.08-.39-.38.01-1.78.01-3.56,0-5.34,0-.28.1-.37.37-.37,1.75,0,3.5,0,5.25,0,.44,0,.44,0,.46.45,0,.04,0,.08.01.12,0,.02.02.03.05.07Zm-3.1.45c-.36,0-1.42-.17-1.73.01-.39.22-.23.92-.23,1.35,0,.6,0,1.21,0,1.81,0,.72.04.75.75.75.6,0,1.21,0,1.81,0,.41,0,1.11.16,1.34-.21.06-.1.09-1.39.01-1.49-.21-.28-.52.19-.78.41-.27.23-.9,1.01-1.29.95-.34-.05-1-.95-1.25-1.2-.23-.23-.47-.34-.42-.65.02-.1.4-.45.44-.46.3-.12.3-.03.56.2.47.41.59.87,1.15.44.42-.32.84-.68,1.22-1.05.29-.27.58-.66.11-.86-.37-.16-1.29,0-1.7,0Z"/>
  <path class="cls-1" d="m7.05,16.01c.88,0,1.76,0,2.64,0,.28,0,.4.08.37.37,0,.07-.04.17.05.21.09.04.14-.05.19-.1.42-.34.42-.34.77.07.39.46.36.37-.06.73-.21.18-.4.38-.63.53-.27.19-.35.43-.34.75.02,1.05,0,2.09.01,3.14,0,.3-.11.39-.39.39-1.77,0-3.54,0-5.31,0-.29,0-.39-.09-.39-.39.01-1.77.01-3.54,0-5.31,0-.29.07-.4.38-.39.9.02,1.8,0,2.7,0Zm1.92,3.11c-.15.02-.21.1-.28.17-.45.38-.88.82-1.36,1.16-.45.32-.5.16-.89-.23-.34-.33-.87-.69-1.11-1.1-.18-.3-.14-.3.15-.59.22-.22.26-.33.56-.21.2.08.45.46.61.6.47.44.55.21,1.03-.2.37-.31,2-1.41.93-1.68-.57-.14-1.33,0-1.92,0-.34,0-1.34-.18-1.58.08-.21.23-.05,1.26-.05,1.58,0,.59-.09,1.27,0,1.86.08.56.37.43.9.43.6,0,1.2,0,1.8,0,.38,0,1.03.17,1.21-.22.17-.37,0-1.26,0-1.66Z"/>
  <path class="cls-1" d="m22.02,11.06c-1.86,0-3.71,0-5.57,0-.44,0-.45,0-.44-.43,0-.68-.11-.65.64-.65,3.64,0,7.27,0,10.91,0q.52,0,.52.51t-.57.58c-1.83,0-3.66,0-5.48,0Z"/>
  <path class="cls-1" d="m23.53,9.06c-1.37,0-2.74,0-4.1,0-.41,0-.42,0-.42-.43,0-.7-.09-.65.64-.65,2.66,0,5.31,0,7.97,0,.46,0,.47,0,.46.48,0,.65.07.61-.62.61-1.31,0-2.62,0-3.93,0Z"/>
  <path class="cls-1" d="m25.55,12.49c.73,0,1.47,0,2.2,0,.26,0,.34.09.34.34-.02.82.11.74-.73.74-1.31,0-2.62,0-3.93,0-.41,0-.43-.02-.43-.43,0-.73-.04-.64.64-.65.63,0,1.27,0,1.9,0Z"/>
  <path class="cls-1" d="m25.54,15.57c-.62,0-3.06.45-2.54-.85.23-.56,2-.24,2.55-.24.68,0,1.46-.1,2.13,0,.4.06.55.28.4.76-.1.33-.09.3-.48.33-.68.06-1.38,0-2.06,0Z"/>
  <path class="cls-1" d="m17.03,9.06c-.65,0-1.19.1-1.02-.73.09-.45.3-.35.76-.35.58,0,1.46-.23,1.34.63-.08.59-.53.45-1.07.45,0,0,0,0,0,0Z"/>
  <path class="cls-1" d="m17.04,13.57c-.56,0-1.38.04-1.03-.82.14-.36.37-.26.77-.26.6,0,1.4-.23,1.32.62-.05.59-.55.46-1.06.46,0,0,0,0,0,0Z"/>
  <path class="cls-1" d="m17.04,15.57c-.57,0-1.37.04-1.03-.82.14-.37.37-.26.78-.26.59,0,1.24-.23,1.31.48.07.72-.47.61-1.05.61,0,0,0,0,0,0Z"/>
  <path class="cls-1" d="m3.54,2.98q.52,0,.52.54t-.55.54-.52-.59.56-.49Z"/>
  <path class="cls-1" d="m4.98,3.51q0-.53.55-.53t.53.55-.57.52-.51-.55Z"/>
  <path class="cls-1" d="m6.98,3.52q0-.54.58-.54t.51.55-.57.53-.52-.54Z"/>
</svg>