<?xml version="1.0" encoding="UTF-8"?>
<svg id="Layer_1" data-name="Layer 1" xmlns="http://www.w3.org/2000/svg" viewBox="0 0 32 32">
  <defs>
    <style>
      .cls-1 {
        fill: #fff;
      }
    </style>
  </defs>
  <path class="cls-1" d="m4.36,31.31c-.6-.16-1.14-.42-1.56-.89-.54-.6-.78-1.3-.78-2.1,0-3.76,0-7.53,0-11.29,0-2.83,0-5.66,0-8.48,0-.14,0-.28.03-.41.05-.24.23-.35.46-.35.22,0,.37.12.45.33.05.16.04.32.04.47,0,6.58,0,13.17,0,19.75,0,.6.17,1.11.61,1.53.39.37.87.53,1.39.53,4.2,0,8.4,0,12.61,0,1.2,0,1.99-.82,1.99-2.03,0-2.42,0-4.84,0-7.26,0-.16.04-.34-.23-.36-.26-.01-.35.07-.35.34.01,1.21,0,2.43,0,3.64,0,.14,0,.28-.04.41-.08.22-.24.32-.46.31-.2,0-.36-.1-.43-.31-.05-.14-.05-.27-.05-.41,0-1.2,0-2.41,0-3.61,0-.29-.09-.37-.37-.37-3.22,0-6.43,0-9.65,0-1.28,0-1.93-.66-1.93-1.93,0-3.82,0-7.65,0-11.47,0-1.26.66-1.91,1.92-1.91,3.21,0,6.41,0,9.62,0,.41,0,.41,0,.41-.41,0-.46,0-.92,0-1.37,0-.31-.13-.44-.44-.45-.66-.01-1.31,0-1.97,0-.17,0-.25.08-.3.23-.06.19-.13.38-.2.56-.14.38-.41.58-.82.58-2.01,0-4.02,0-6.03,0-.4,0-.68-.2-.82-.58,0,0,0-.02,0-.03q-.29-.76-1.11-.76c-.36,0-.72,0-1.08,0-.64,0-.71.06-.71.69,0,6.51,0,13.03,0,19.54,0,1.61,0,3.23,0,4.84,0,.48.1.58.58.58,4.11,0,8.23,0,12.34,0,.46,0,.56-.11.57-.56,0-.36,0-.72,0-1.08,0-.38.19-.6.48-.61.29,0,.49.22.49.59,0,.43.01.86,0,1.28-.03.76-.58,1.3-1.35,1.3-4.24,0-8.48,0-12.73,0-.78,0-1.33-.55-1.36-1.33,0-.08,0-.16,0-.24,0-8.14,0-16.27,0-24.41,0-.28.01-.56.15-.81.24-.46.61-.73,1.14-.74.8,0,1.59,0,2.39,0,.42,0,.67.18.82.56,0,.02.01.04.02.06q.26.71,1,.71c1.6,0,3.21,0,4.81,0,.26,0,.42-.07.47-.33.02-.11.07-.21.1-.31.19-.54.4-.69.97-.69.74,0,1.47,0,2.21,0,.78,0,1.34.55,1.36,1.33.01.52,0,1.04,0,1.55,0,.22.07.3.29.3.23,0,.29-.1.29-.31,0-.49,0-.98,0-1.46,0-1.2-.79-2.01-2-2.03-.74-.01-1.47,0-2.21,0-3.44,0-6.87,0-10.31,0-1.05,0-1.82.57-2.03,1.5-.03.15-.04.32-.04.47,0,.75,0,1.49,0,2.24,0,.09,0,.18,0,.27-.03.3-.21.47-.48.47-.27,0-.48-.17-.48-.47,0-1.02-.09-2.05.05-3.07.18-1.31,1.4-2.35,2.74-2.35,4.28,0,8.56,0,12.85,0,1.61,0,2.86,1.22,2.9,2.84.01.53.01,1.06,0,1.58,0,.23.08.31.31.31.94,0,1.87,0,2.81,0,.11,0,.22,0,.33.02.26.05.42.21.42.47,0,.26-.16.43-.42.47-.14.02-.28.02-.42.02-5.16,0-10.32,0-15.48,0-.11,0-.22,0-.33,0-.46.01-.72.26-.73.73,0,2.34,0,4.68,0,7.02,0,.25.11.29.33.29,1.46,0,2.93,0,4.39,0,1.11,0,1.89.69,2.06,1.78.16,1.08-.57,2.07-1.66,2.25-.23.04-.45.06-.68.06-1.35,0-2.71,0-4.06,0-.29,0-.38.09-.37.38.02.63.23.87.87.87,6.75,0,13.5,0,20.26,0,.62,0,.85-.23.85-.85,0-3.89,0-7.79,0-11.68,0-.6-.23-.83-.83-.83-.63,0-1.25,0-1.88,0-.1,0-.2,0-.3-.02-.25-.05-.41-.2-.42-.47,0-.25.16-.47.44-.48.85-.03,1.7-.08,2.54.02.87.1,1.43.79,1.43,1.68,0,3.96,0,7.93,0,11.89,0,1.01-.73,1.71-1.76,1.71-2.4,0-4.8,0-7.2,0q-.48,0-.48.49c0,2.27-.03,4.54.01,6.81.03,1.57-.74,2.86-2.35,3.26H4.36Zm5.23-13.76h0c.91,0,3.05.44,3.28-.87.28-1.55-1.73-1.26-2.65-1.26-.74,0-1.48,0-2.22,0-.9,0-.94,0-.93.91,0,.49-.19,1.06.31,1.22.59.19,1.59,0,2.21,0Z"/>
  <path class="cls-1" d="m11.29,25.94c-1.43,0-4.13.38-4.05-1.82.07-2.07,2.65-1.69,4.05-1.69,1.4,0,3.94-.39,4.06,1.65.13,2.23-2.64,1.85-4.06,1.85Zm0-2.51c-.72,0-3.07-.45-3.09.75-.02,1.25,2.33.78,3.09.78.75,0,3.12.46,3.09-.78-.03-1.19-2.37-.75-3.09-.75Z"/>
  <path class="cls-1" d="m11.46,7.76c.65,0,1.64-.2,2.23.11.63.33.48,1.18.48,1.78,0,.58.19,1.58-.32,2-.53.43-1.74.2-2.38.2-.63,0-1.76.21-2.31-.15-.58-.38-.4-1.32-.4-1.9,0-.58-.18-1.52.39-1.9.56-.37,1.66-.15,2.31-.15Zm0,3.11c.31,0,1.21.14,1.49,0,.37-.19.22-.67.22-1.07,0-.33.14-.88-.19-1.04-.35-.17-1.14,0-1.53,0-.34,0-1.34-.18-1.61.02-.26.19-.1.9-.1,1.19,0,.43-.12.75.29.92.32.14,1.07,0,1.43,0Z"/>
  <path class="cls-1" d="m23.08,17.83c-.33,0-.62-.06-.86.14-.24.2-.39,1.16-.95.56-.38-.4.23-1.37.38-1.76.24-.63.44-1.28.72-1.89.77-1.71,1.51.73,1.77,1.42.17.46.75,1.41.67,1.89-.07.41-.79.78-.9.19-.1-.53-.43-.66-.82-.56Zm-.1-1.86c-.11.29-.19.5-.27.72-.1.28.46.29.56.11.07-.13-.24-.69-.29-.83Z"/>
  <path class="cls-1" d="m18.62,16.47c0-.51-.22-1.57.11-2,.29-.39,1.3-.25,1.7-.15,1.03.27,1.49,1.58.73,2.39-.43.46-.88.22-1.32.48-.32.19-.21.4-.23.78-.03.4-.37,1.04-.84.57-.37-.38-.14-1.58-.14-2.07,0,0,0,0,0,0Zm.98-.74q0,.5.32.5c.5,0,.96-.55.42-.9-.49-.31-.74-.04-.73.4Z"/>
  <path class="cls-1" d="m25.5,17.42c.13-.67-.18-1.14-.53-1.67-.23-.34-.86-1.03-.34-1.39.53-.37.86.46,1.1.78.57.77.56-.46,1.09-.76.57-.32.83.23.64.71-.23.56-.81.99-.96,1.59-.11.49.23,1.36-.11,1.78-.34.43-.87.15-.88-.35,0-.23,0-.46,0-.69Z"/>
  <path class="cls-1" d="m25.4,9.68c0,1.01-.98,1.09-.98,0,0-1.06.98-1.03.98,0Z"/>
  <path class="cls-1" d="m26.03,9.68c.02-.34,0-.8.46-.83.46-.03.54.47.54.83,0,.33-.05.76-.43.82-.53.08-.55-.44-.57-.81Z"/>
  <path class="cls-1" d="m20.32,9.69c0,1-.96,1.08-.97,0,0-1.07.97-1.03.97,0h0Z"/>
  <path class="cls-1" d="m22,9.69c0,1.01-.93,1.06-.94,0,0-1.06.94-1.04.94,0Z"/>
  <path class="cls-1" d="m17.99,9.69c0,1.01-.93,1.05-.93-.01,0-1.06.93-1.03.93.01Z"/>
</svg>