<?xml version="1.0" encoding="UTF-8"?>
<svg id="Layer_1" data-name="Layer 1" xmlns="http://www.w3.org/2000/svg" viewBox="0 0 32 32">
  <defs>
    <style>
      .cls-1 {
        fill: #232323;
      }
    </style>
  </defs>
  <path class="cls-1" d="m16.07,30.49c-4.03,0-8.05,0-12.08,0-1.16,0-2.09-.75-2.33-1.89-.03-.15-.04-.31-.04-.46,0-4.03,0-8.05,0-12.08,0-1.36,1.01-2.37,2.37-2.37,1.66,0,3.32,0,4.98,0,.34,0,.34,0,.17-.31-2.7-4.82.24-10.86,5.71-11.72,4.41-.7,8.55,2.44,9.1,6.9.21,1.71-.11,3.32-.95,4.82-.17.31-.17.31.17.31,1.65,0,3.3,0,4.95,0,1.4,0,2.4,1,2.41,2.4,0,4.01,0,8.01,0,12.02,0,1.38-1.01,2.38-2.39,2.39-.02,0-.04,0-.06,0-4.01,0-8.01,0-12.02,0Zm3.96-14.01c.17,0,.35,0,.52,0,.77.02.67-.16.68.73,0,.18-.07.24-.24.24-.42,0-.83,0-1.25,0-.4,0-.41,0-.4-.39,0-.24-.04-.29-.27-.19-1.21.51-2.49.69-3.79.55-2.01-.22-3.7-1.09-5.07-2.58-.11-.12-.23-.19-.4-.19-1.91,0-3.82,0-5.73,0-.41,0-.78.13-1.08.43-.3.32-.39.7-.39,1.12,0,2.34,0,4.68,0,7.01,0,1.59,0,3.18,0,4.77,0,.55.18,1.01.67,1.31.29.18.62.21.95.21,4.98,0,9.95,0,14.93,0,2.96,0,5.92,0,8.88,0,.95,0,1.54-.56,1.54-1.48,0-3.97,0-7.93,0-11.9,0-.89-.58-1.47-1.46-1.47-1.91-.01-3.82,0-5.73,0-.13,0-.25.02-.34.12-.59.65-1.26,1.2-2,1.7Zm3.02-6.96c-.06-3.86-3.05-6.94-6.95-6.95-3.86-.01-6.96,3.05-6.97,6.95,0,3.86,3.04,6.94,6.94,6.95,3.87.01,6.92-3.05,6.98-6.95Z"/>
  <path class="cls-1" d="m10.47,24.9c-2.2,0-4.4,0-6.6,0-.29,0-.39-.08-.38-.38.02-.72.01-1.44,0-2.15,0-.24.08-.32.32-.32,4.46,0,8.92,0,13.38,0,.24,0,.32.07.32.32-.01.73-.01,1.45,0,2.18,0,.27-.08.35-.35.35-2.23,0-4.46,0-6.69,0Zm.06-1.86c-1.88,0-3.76,0-5.64,0-.08,0-.16,0-.23,0-.14,0-.19.06-.19.2,0,.09,0,.17,0,.26q0,.43.42.43c3.71,0,7.42,0,11.14,0,.57,0,.51.06.51-.52,0-.37,0-.37-.39-.37-1.87,0-3.74,0-5.61,0Z"/>
  <path class="cls-1" d="m6.76,21.17c-.77,0-2.3.32-2.94-.22-.62-.52-.33-1.9-.33-2.61,0-.71-.28-2.08.34-2.59.63-.52,2.18-.21,2.94-.21.77,0,2.2-.28,2.87.16.72.48.41,1.94.41,2.67,0,.73.31,2.17-.41,2.65-.67.44-2.12.16-2.89.16Zm.94-.97c.25,0,1.19.14,1.36-.09.14-.19.11-1.24.03-1.47-.14-.41-.68-.26-1.07-.26-.23,0-.57-.07-.72.14-.17.24.11.58-.19.78-.19.12-.56-.1-.72.1-.11.13-.12.59-.03.71.21.26,1.03.09,1.35.09Zm-1.42-2.7c0-.29,0-.53,0-.78,0-.26-1.42-.34-1.63-.21-.32.19-.28,1.1-.19,1.47.12.53.66.35,1.15.36.79.02.57-.2.67-.85Zm1.88-.09c.33,0,.74.12.91-.17.05-.09.04-.56-.02-.63-.15-.18-.49-.09-.7-.09-.34,0-.94-.14-1.12.2-.38.71.54.69.93.69Zm-3.23,1.9q-.47,0-.47.41t.42.48.47-.41-.42-.48Z"/>
  <path class="cls-1" d="m26.32,28.62c-1.29,0-2.77.36-2.8-1.31,0-.53-.04-1.15.51-1.42.6-.3,1.65-.1,2.31-.1,1.38,0,2.81-.35,2.82,1.4,0,.55,0,1.1-.57,1.36-.6.28-1.62.08-2.26.08Zm.02-.97c.47,0,1.65.26,1.84-.24.38-1.01-1.36-.65-1.85-.65-.42,0-1.6-.23-1.83.16-.59,1.01,1.43.73,1.84.73Z"/>
  <path class="cls-1" d="m8.63,27.65c1.59,0,3.18,0,4.77,0,.29,0,.39.07.38.37-.03.69.07.6-.61.6-3.08,0-6.17,0-9.25,0-.43,0-.43,0-.43-.43,0-.61-.06-.54.54-.55,1.53,0,3.06,0,4.6,0Z"/>
  <path class="cls-1" d="m8.63,25.79c1.59,0,3.18,0,4.77,0,.29,0,.39.07.38.37-.03.69.07.6-.61.6-3.08,0-6.17,0-9.25,0-.43,0-.43,0-.43-.43,0-.61-.06-.54.54-.55,1.53,0,3.06,0,4.6,0Z"/>
  <path class="cls-1" d="m24,21.13c1.44,0,2.89,0,4.33,0,.26,0,.36.07.35.34-.02.74.08.63-.64.63-2.77,0-5.55,0-8.32,0-.4,0-.4,0-.4-.4,0-.65-.07-.57.57-.57,1.37,0,2.73,0,4.1,0Z"/>
  <path class="cls-1" d="m24.04,22.99c1.43,0,2.85,0,4.28,0,.3,0,.39.08.38.38-.03.69.07.6-.61.6-2.78,0-5.57,0-8.35,0-.4,0-.4,0-.4-.4,0-.65-.07-.57.58-.57,1.38,0,2.75,0,4.13,0Z"/>
  <path class="cls-1" d="m20.73,28.62c-1.22,0-1.88-.08-1.87-1.44,0-1.33.7-1.4,1.89-1.4,1.18,0,1.89.07,1.89,1.4,0,1.38-.66,1.44-1.9,1.44Zm.02-1.86c-.33,0-.74-.12-.91.17-.05.09-.04.56.02.63.15.18.49.09.7.09.34,0,.94.14,1.12-.2.37-.71-.54-.69-.93-.69Z"/>
  <path class="cls-1" d="m27.24,17.45c-.47,0-1.87.2-1.39-.76.21-.41,1.02-.21,1.46-.21.31,0,1.07-.15,1.3.07.1.09.14.61.06.74-.22.34-1.06.17-1.44.17h0Z"/>
  <path class="cls-1" d="m23.57,16.48c.47,0,1.87-.2,1.39.76-.21.41-1.02.21-1.46.21-.31,0-1.07.15-1.3-.07-.1-.09-.14-.61-.06-.74.22-.34,1.06-.17,1.44-.17h0Z"/>
  <path class="cls-1" d="m24,19.31c-.54,0-1.23.08-.95-.73.12-.34.32-.25.69-.24.55,0,1.49-.18,1.21.69-.14.43-.49.28-.95.28h0Z"/>
  <path class="cls-1" d="m27.75,18.34c.47,0,1.34-.01.93.79-.15.29-1.37.32-1.66.18-.19-.09-.42-.6-.23-.85.19-.23.67-.12.96-.12Z"/>
  <path class="cls-1" d="m20.28,18.34c.54,0,1.23-.08.95.73-.12.34-.32.25-.69.24-.55,0-1.49.18-1.21-.69.14-.43.49-.28.95-.28h0Z"/>
  <path class="cls-1" d="m10.01,9.52c0-3.38,2.7-6.09,6.08-6.09,3.37,0,6.07,2.7,6.07,6.06,0,3.38-2.7,6.09-6.08,6.09-3.37,0-6.07-2.7-6.07-6.06Zm6.08-5.11c-2.84.05-5.09,2.24-5.1,5.09,0,4.43,5.53,6.78,8.69,3.63,3.2-3.18.8-8.63-3.6-8.72Z"/>
  <path class="cls-1" d="m17.9,8.13c-.42.09-.4-.21-.59-.47-.22-.31-.42-.42-.8-.46-.66-.08-1.68-.06-1.79.8-.1.76.61,1,1.22,1.03.8.03,1.53.02,2.09.7.89,1.09.24,2.55-.96,2.99-.3.11-.4.03-.5.35-.05.13.09.46-.03.58-.1.1-.24.07-.37.08-.5.04-.47-.03-.57-.43-.07-.27.06-.32-.2-.5-.21-.15-.56-.14-.8-.29-.46-.29-1.21-1.3-.86-1.9.15-.26.27-.17.52-.17.38,0,.32-.01.45.31.11.29.03.55.28.8.26.26.61.27.96.28.63.02,1.51-.09,1.51-.92,0-.86-.9-.9-1.52-.91-1.4-.03-2.66-1.09-2.06-2.6.14-.34.36-.64.67-.84.24-.16.74-.17.92-.34.34-.31-.07-.71.38-.91.89-.39.55.62.86.91.21.2.75.2,1.02.41.31.24.51.57.63.94.17.51.11.57-.46.57Z"/>
</svg>