<?xml version="1.0" encoding="UTF-8"?>
<svg id="Layer_1" data-name="Layer 1" xmlns="http://www.w3.org/2000/svg" viewBox="0 0 32 32">
  <defs>
    <style>
      .cls-1 {
        fill: #fff;
      }
    </style>
  </defs>
  <path class="cls-1" d="m20.57,31.31c-.8-.14-1.6-.3-2.36-.61-1.3-.53-2.42-1.32-3.39-2.33-1.5-1.55-3.04-3.07-4.56-4.61-1.62-1.63-3.24-3.27-4.85-4.91-.82-.84-.8-1.91.05-2.71,1.44-1.36,3.76-1.36,5.21,0,.47.44.94.88,1.42,1.32.05.05.1.13.2.12.07-.12.04-.25.04-.37,0-4.5,0-9,0-13.5,0-1.21.47-2.17,1.58-2.74,1.66-.85,3.67.17,4,2.01.04.24.06.47.06.71,0,1.55,0,3.11,0,4.66,0,.26.03.3.29.18,1.33-.63,2.86-.14,3.61,1.16.1.18.17.21.36.1,1.51-.94,3.43-.31,4.09,1.34.1.24.16.29.41.16,1.74-.93,3.91.29,4.05,2.27.03.35.03.7.03,1.04,0,2.37,0,4.74,0,7.11,0,1.72-.35,3.36-1.22,4.86-1.53,2.63-3.8,4.21-6.82,4.67-.07.01-.13.03-.2.04h-1.97Zm-6.91-19.91c0,2.52.1,5.06,0,7.58-.01.36-.01.73-.39.9-.52.23-.92-.31-1.26-.62-.82-.78-1.65-1.78-2.61-2.39-.72-.46-1.66-.52-2.43-.15-.38.18-.91.49-.78.97.1.37.84.91,1.09,1.17,1.75,1.78,3.51,3.55,5.27,5.32,2.61,2.63,5.03,5.88,9.1,5.83,3.23-.04,6.35-2.26,7.35-5.35.61-1.88.43-3.98.43-5.93,0-1.19-.01-2.38-.02-3.58,0-.82.18-1.81-.48-2.43-.59-.55-1.48-.5-2.03.08-.59.63-.38,1.57-.4,2.36-.02.45-.13,1.02-.73.97-.44-.04-.58-.43-.61-.8-.09-1.05.1-2.12,0-3.17-.15-1.53-2.31-2.07-2.83-.46-.29.9.27,2.13-.18,2.96-.16.29-.48.45-.8.34-.43-.15-.45-.58-.47-.96-.06-1.24.58-5.11-1.87-4.37-.95.29-1.04,1.16-1.04,2.01,0,.58.3,2.03-.51,2.24-1.08.28-.84-1.4-.84-1.97,0-1.09,0-2.18,0-3.26,0-1.14,0-2.29,0-3.43,0-.78.2-1.89-.26-2.59-.44-.66-1.33-.85-2-.42-.76.48-.69,1.4-.69,2.18,0,2.32,0,4.64,0,6.95Z"/>
  <path class="cls-1" d="m10.1,6.56c-2.16,2.16-4.29,4.29-6.44,6.44.76,0,1.68-.15,2.43,0,.6.12.93.84.32,1.22-.57.36-1.75.11-2.39.11-.64,0-1.93.26-2.46-.16-.5-.4-.28-1.55-.28-2.1,0-.8-.16-1.81.03-2.58.17-.68.99-.83,1.28-.14.28.67.07,1.79.07,2.51,2.1-2.1,4.21-4.21,6.33-6.33-.14-.21-1.92.04-2.24,0-.57-.08-1.08-.68-.52-1.17.51-.44,1.72-.19,2.33-.19.7,0,1.89-.25,2.51.1.55.31.38,1.18.38,1.7,0,.93.09,1.91,0,2.84-.06.56-.64,1.19-1.17.6-.44-.49-.17-1.93-.17-2.54,0-.11,0-.21,0-.31Z"/>
</svg>