<?xml version="1.0" encoding="UTF-8"?>
<svg id="Layer_1" data-name="Layer 1" xmlns="http://www.w3.org/2000/svg" viewBox="0 0 32 32">
  <defs>
    <style>
      .cls-1 {
        fill: #232323;
      }
    </style>
  </defs>
  <path class="cls-1" d="m8.47,31.45c-.74-.16-1.45-.37-2.09-.78-1.75-1.13-2.64-2.75-2.65-4.82-.01-6.49,0-12.97,0-19.46,0-.98,0-1.96,0-2.94.01-1.37.88-2.43,2.2-2.69.16-.03.34-.04.51-.04,1.88,0,3.76,0,5.64,0,.64,0,1.2.18,1.69.58.15.12.29.16.49.11.61-.17,1.2-.12,1.79.11,1.68.67,3.36,1.35,5.04,2.01,1.13.44,1.75,1.25,1.85,2.46.02.18.12.26.24.35.67.46,1.32.94,2,1.38,1.1.71,1.65,2.14,1.02,3.44-.09.17-.01.28.09.4.44.49.88.98,1.33,1.46,1.15,1.25,1.1,2.83-.14,3.99-.89.82-1.79,1.62-2.69,2.43-.04.03-.08.07-.11.1-.28.23-.55.23-.74,0-.18-.21-.15-.48.1-.72.21-.2.43-.39.65-.58.12-.1.14-.19.02-.32-.54-.58-1.06-1.17-1.59-1.76-.14-.16-.22-.13-.34.03-.6.88-1.2,1.75-1.81,2.62-.09.13-.15.25,0,.39.34.36.68.74,1,1.11.14.16.25.17.39.01.03-.03.06-.05.09-.08.3-.26.59-.27.79-.04.2.23.15.49-.14.76-.43.39-.86.78-1.29,1.16-2.11,1.9-4.22,3.8-6.33,5.69-.83.75-1.66,1.5-2.5,2.25-.84.76-1.83,1.19-2.94,1.4h-1.56Zm.77-15.61c1.4,0,2.8,0,4.2,0,.26,0,.37-.06.37-.35-.01-1.14-.01-2.28,0-3.42,0-.29-.1-.35-.37-.35-1.49.01-2.98,0-4.47,0-.1,0-.2,0-.3-.01-.24-.05-.4-.19-.41-.45-.01-.25.11-.42.36-.48.13-.03.28-.04.42-.04,1.47,0,2.94,0,4.41,0,.28,0,.36-.09.36-.36-.01-1.15,0-2.3,0-3.45,0-.23-.07-.31-.31-.31-2.83,0-5.66,0-8.49,0-.21,0-.3.06-.3.29,0,1.18,0,2.36,0,3.54,0,.22.08.3.3.3.56,0,1.12,0,1.68,0,.38,0,.6.2.6.49,0,.3-.22.48-.6.48-.54,0-1.08.01-1.62,0-.27,0-.37.07-.36.35.01,1.13.02,2.26,0,3.39,0,.32.11.38.4.38,1.38-.01,2.76,0,4.14,0Zm.01,6.07c-1.38,0-2.76,0-4.14,0-.4,0-.4,0-.4.39,0,1.21,0,2.42,0,3.63-.02,2.6,2.23,4.78,4.93,4.55,2.32-.2,4.14-2.12,4.16-4.44,0-1.25,0-2.5,0-3.75,0-.3-.08-.4-.39-.39-1.39.01-2.78,0-4.17,0Zm5.53-6.81c0,.5-.24,1.83.09,2.22.19.22.73.32,1,.42.27.11.84.48,1.13.46.54-.04.73-1.16.92-1.66.15-.37.96-1.77.72-2.1-.3-.42-1.46-.21-1.47-.92-.01-.74.85-.39,1.21-.25.2.08.53.32.74.19.2-.12.35-.83.44-1.05.16-.41.33-.82.49-1.23.12-.29.52-.92.49-1.22-.04-.55-1.14-.73-1.64-.92-.79-.31-1.58-.63-2.38-.95-.27-.11-1.5-.81-1.73-.59-.15.14-.03.94-.02,1.14,0,.43,0,.87,0,1.3,0,.6-.24,1.61.26,2,.35.27,1.51.29,1.26,1-.29.84-1.07-.21-1.43-.01-.3.16-.1,1.82-.1,2.17Zm-5.54,5.83c1.4,0,2.8,0,4.19,0,.27,0,.37-.07.36-.35-.01-1.14-.01-2.28,0-3.42,0-.28-.09-.35-.36-.35-2.8,0-5.59,0-8.39,0-.26,0-.35.07-.35.34.01,1.15.01,2.3,0,3.45,0,.27.09.34.35.34,1.4-.01,2.8,0,4.19,0Zm0-15.24c1.28,0,2.56.01,3.85,0,.54,0,.67.03.71-.53.04-.54.02-1.14,0-1.68-.12-2.38-2.86-1.84-4.55-1.84-1.68,0-4.43-.54-4.54,1.84-.03.54-.13,1.3,0,1.83.11.48.38.37.85.37,1.23,0,2.46,0,3.69,0Zm5.54-1.1c0,.56,0,1.03,0,1.5,0,.2.07.3.26.38,1.9.75,3.81,1.51,5.71,2.28.2.08.29.03.36-.16.24-.63.51-1.26.74-1.9.33-.91-.03-1.81-.93-2.18-1.78-.73-3.58-1.44-5.37-2.14-.24-.1-.5-.14-.76-.09-.1.02-.22.04-.16.19.27.73.14,1.48.17,2.14Zm10.71,5.42c0-.57-.22-1.04-.67-1.37-.63-.46-1.28-.89-1.92-1.34-.17-.12-.23-.07-.3.1-.42,1.06-.84,2.12-1.27,3.17-.07.17-.05.27.11.38.79.54,1.58,1.08,2.37,1.63.14.1.21.08.31-.06.35-.52.72-1.03,1.07-1.55.19-.29.31-.6.31-.96Zm1.98,4.92c-.01-.38-.11-.74-.36-1.03-.37-.42-.74-.83-1.11-1.25-.52-.58-.56-.36-.95.22-.35.5-1.63,1.86-1.42,2.43.16.44.9.99,1.22,1.34.35.39.5.82.99.52.74-.46,1.6-1.31,1.63-2.23Zm-6.53-3.15c-.12.01-.12.11-.15.18-.24.6-.48,1.19-.71,1.79-.16.41-.7,1.22-.63,1.64.05.32.72.61.97.78.35.24.6.59.95.33.42-.3.74-1.08,1.03-1.51.2-.28.9-1.01.91-1.33.02-.59-1.86-1.55-2.37-1.88Zm-6.16,12.53s.05-.04.06-.05c.65-1.62,1.29-3.24,1.95-4.87.07-.18,0-.25-.16-.3-.51-.2-1.02-.4-1.53-.61-.3-.12-.32-.11-.32.22,0,1.82,0,3.63,0,5.45,0,.05,0,.09,0,.15Zm5.81-6.72c.01-.13-.09-.16-.15-.21-.39-.28-.79-.54-1.18-.82-.2-.15-.27-.1-.36.12-.35.91-.72,1.82-1.08,2.73-.3.74-.29.73.37,1.2.19.13.27.11.4-.08.63-.93,1.27-1.84,1.9-2.76.04-.06.07-.12.11-.17Zm.77,3.54c-.01-.09-.08-.14-.13-.2-.27-.3-.55-.58-.8-.89-.15-.18-.23-.18-.37.02-.53.8-1.09,1.58-1.63,2.37-.36.53-.38.38.06.88.17.2.3.2.49.03.75-.69,1.51-1.37,2.27-2.05.05-.05.12-.08.12-.16Zm-5.5,3.19s.04.03.06.04c.54-.78,1.08-1.56,1.61-2.34.36-.53.36-.52-.2-.85-.14-.08-.21-.06-.27.09-.4,1.02-.81,2.04-1.21,3.06Zm.14,1.62l.03.03c.39-.35,2.04-1.43,1.81-1.93-.29-.61-.57.07-.75.33-.36.52-.73,1.05-1.09,1.57Z"/>
  <path class="cls-1" d="m9.14,28.17c-1.91,0-2.88-2.39-1.53-3.74,1.34-1.33,3.74-.38,3.75,1.53,0,1.21-.99,2.21-2.22,2.2Zm.01-.98c.69,0,1.22-.52,1.22-1.2,0-1.08-1.33-1.64-2.08-.87-.75.76-.21,2.07.86,2.07Z"/>
</svg>