<?xml version="1.0" encoding="UTF-8"?>
<svg id="Layer_1" data-name="Layer 1" xmlns="http://www.w3.org/2000/svg" viewBox="0 0 40 40">
  <defs>
    <style>
      .cls-1 {
        fill: #f28a1d;
        stroke: #fff;
        stroke-miterlimit: 10;
        stroke-width: .15px;
      }
    </style>
  </defs>
  <path class="cls-1" d="m39.64,32.94c-.3,1.07-.87,1.92-1.9,2.43-1.98.99-4.39-.1-4.92-2.25-.1-.38-.26-.47-.62-.47-3.67.01-7.33,0-11,0-.7,0-.75-.05-.75-.77,0-7.95,0-15.89,0-23.84,0-.69.06-.74.74-.74,4.89,0,9.79,0,14.68,0,.68,0,.73.06.73.75,0,6.93,0,13.85,0,20.78,0,.68-.01.7-.68.8-1.35.21-2.15,1.01-2.35,2.35-.19,1.28.83,2.63,2.12,2.86,1.51.27,3.04-.78,3.14-2.51.02-.32-.05-.64-.15-.94-.03-.08-.04-.19-.15-.21-.11-.01-.14.1-.19.17-.53.81-1.07,1.62-1.6,2.43-.07.11-.14.22-.22.31-.22.23-.5.24-.69-.03-.5-.71-.99-1.43-1.47-2.15-.2-.31.13-.35.27-.47.14-.12.28-.23.44,0,.27.42.56.82.84,1.23.26.37.27.37.51,0,.75-1.13,1.49-2.26,2.24-3.39.23-.34.65-.33.85.03.09.16-.02.28-.11.38-.32.35-.34.7-.07,1.1.14.22.19.5.29.75v1.38Zm-18.37-12.97c0,3.79,0,7.59,0,11.38,0,.38.09.5.49.5,3.5-.02,7-.01,10.5,0,.34,0,.48-.1.57-.44.35-1.32,1.2-2.18,2.52-2.53.36-.1.46-.24.45-.59-.01-6.55,0-13.11,0-19.66q0-.5-.51-.5c-4.5,0-8.99,0-13.49,0q-.51,0-.51.54c0,3.77,0,7.54,0,11.31Z"/>
  <path class="cls-1" d="m21.7.35c1.11.16,2.22.31,3.31.59,2.39.63,4.57,1.68,6.57,3.12.23.16.36.29.13.57-.19.24-.31.37-.63.14-2.59-1.91-5.5-3.09-8.69-3.46-4.79-.56-9.21.49-13.19,3.26-.08.06-.18.11-.25.18-.3.3-.42.03-.59-.17-.19-.22-.15-.36.08-.52,2.56-1.84,5.39-3.04,8.52-3.52.45-.07.91-.13,1.36-.2,1.12,0,2.25,0,3.37,0Z"/>
  <path class="cls-1" d="m.36,19.97c0-3.97,0-7.95,0-11.92,0-.69.06-.74.74-.74,4.88,0,9.76,0,14.64,0,.72,0,.77.05.77.76,0,6.72,0,13.44,0,20.16,0,.4.1.56.51.67,1.69.42,2.76,2.06,2.55,3.82-.2,1.65-1.69,2.99-3.36,3.01-1.81.02-3.3-1.21-3.56-2.95-.26-1.77.85-3.46,2.6-3.9.36-.09.45-.24.45-.6-.01-6.56-.01-13.11,0-19.67,0-.38-.09-.5-.49-.5-4.52.01-9.05.01-13.57,0-.38,0-.47.12-.47.48,0,7.59.01,15.18,0,22.77,0,.41.14.48.51.48,3.13-.01,6.26,0,9.39-.02.38,0,.48.13.47.49-.01.28-.13.34-.38.34-3.42,0-6.85,0-10.27,0-.43,0-.53-.13-.53-.65,0-4.01,0-8.03,0-12.04Zm15.76,14.93c1.43-.01,2.64-1.23,2.64-2.65,0-2.35-2.92-3.47-4.54-1.83-1.59,1.62-.39,4.5,1.9,4.48Z"/>
  <path class="cls-1" d="m20.01,39.64c-4.2,0-8.01-1.23-11.44-3.67-.41-.29-.4-.53,0-.85.18-.15.28,0,.4.09,1.05.75,2.16,1.41,3.34,1.94,2.14.96,4.39,1.5,6.73,1.61,4.45.22,8.48-.99,12.08-3.6.3-.21.41-.08.57.13.17.22.22.36-.05.56-2.73,1.96-5.74,3.2-9.08,3.63-.85.11-1.7.17-2.56.15Z"/>
  <path class="cls-1" d="m4.24,13.06c1.36.01,2.04,1.74,1.06,2.68-.99.96-2.66.22-2.65-1.15,0-.86.7-1.53,1.58-1.52Zm-.04,2.28c.37,0,.72-.33.73-.7.02-.63-.77-.95-1.21-.53-.45.43-.15,1.22.48,1.23Z"/>
  <path class="cls-1" d="m5.78,19.99c0,1.36-1.7,2.07-2.67,1.1-.96-.97-.25-2.67,1.12-2.66.87,0,1.55.69,1.55,1.56Zm-.84-.02c0-.37-.36-.71-.73-.71-.63,0-.93.8-.49,1.23.44.43,1.23.1,1.21-.52Z"/>
  <path class="cls-1" d="m4.21,26.91c-1.36,0-2.07-1.71-1.1-2.67.97-.96,2.66-.25,2.66,1.12,0,.87-.69,1.55-1.56,1.55Zm0-.84c.37,0,.72-.33.73-.7.02-.63-.77-.95-1.21-.53-.45.43-.15,1.22.48,1.23Z"/>
  <path class="cls-1" d="m10.38,14.21c.6,0,3.46-.38,3.46.4,0,.82-2.9.42-3.49.42-.58,0-3.48.38-3.48-.39,0-.81,2.92-.42,3.51-.42Z"/>
  <path class="cls-1" d="m10.35,20.39c-.6,0-3.5.38-3.49-.41.01-.81,2.89-.41,3.48-.41.58,0,3.5-.38,3.49.41-.01.8-2.89.41-3.48.41Z"/>
  <path class="cls-1" d="m10.35,24.94c.6,0,3.5-.38,3.49.41-.02.81-2.89.41-3.48.41-.58,0-3.5.38-3.49-.41.01-.8,2.89-.41,3.48-.41Z"/>
  <path class="cls-1" d="m8.44,10.58c-.58,0-3.26.38-3.26-.41,0-.8,2.67-.41,3.25-.41.58,0,3.25-.39,3.26.41,0,.79-2.69.41-3.25.41Z"/>
  <path class="cls-1" d="m24.34,16.18c-1.37.02-2.12-1.65-1.15-2.65.94-.97,2.67-.3,2.68,1.07,0,.88-.66,1.57-1.52,1.58Zm-.03-2.28c-.37,0-.72.34-.72.71-.01.63.78.94,1.22.52.44-.43.13-1.23-.49-1.23Z"/>
  <path class="cls-1" d="m24.32,18.42c1.36,0,2.05,1.72,1.08,2.68-.99.96-2.66.23-2.65-1.14,0-.87.7-1.54,1.58-1.53Zm-.02.84c-.37,0-.71.35-.72.72,0,.63.79.93,1.22.5.43-.43.12-1.23-.51-1.22Z"/>
  <path class="cls-1" d="m24.31,23.79c1.37,0,2.07,1.7,1.1,2.67-.97.96-2.67.25-2.66-1.12,0-.87.69-1.55,1.56-1.55Zm.72,1.57c0-.37-.33-.72-.71-.73-.63-.02-.95.78-.53,1.21.43.44,1.22.14,1.23-.48Z"/>
  <path class="cls-1" d="m30.46,14.21c.55,0,3.25-.33,3.45.24.34.98-2.93.58-3.47.58-.62,0-3.35.36-3.48-.33-.16-.86,2.9-.49,3.5-.49Z"/>
  <path class="cls-1" d="m30.44,20.39c-.6,0-3.5.38-3.49-.41.02-.81,2.89-.41,3.48-.41.58,0,3.5-.38,3.49.41-.01.8-2.89.41-3.48.41Z"/>
  <path class="cls-1" d="m30.4,25.76c-.6,0-3.47.38-3.45-.41.02-.81,2.89-.41,3.49-.41.58,0,3.5-.38,3.48.41-.02.8-2.93.41-3.53.41Z"/>
  <path class="cls-1" d="m28.56,9.76c.58,0,3.22-.38,3.22.41,0,.8-2.67.41-3.26.41-.58,0-3.25.39-3.26-.41,0-.79,2.73-.41,3.29-.41Z"/>
  <path class="cls-1" d="m17.52,31.36c-.24.49-.79.56-.63,1.08.07.22,1.1,1.04.17,1.19-.42.07-.59-.64-1.04-.59-.43.05-.74,1.04-1.18.31-.33-.56.45-.54.53-1.02.1-.59-.88-.59-.53-1.18.42-.7.66.14,1,.3.5.23.95-.75,1.21-.57.18.13.35.29.46.49Z"/>
</svg>