<svg id="Group_694" data-name="Group 694" xmlns="http://www.w3.org/2000/svg" xmlns:xlink="http://www.w3.org/1999/xlink" width="43.031" height="43.03" viewBox="0 0 43.031 43.03">
  <defs>
    <clipPath id="clip-path">
      <rect id="Rectangle_31" data-name="Rectangle 31" width="43.031" height="43.03" fill="#f28a1d" stroke="#f28a1d" stroke-width="0.5"/>
    </clipPath>
  </defs>
  <g id="Group_61" data-name="Group 61" clip-path="url(#clip-path)">
    <path id="Path_269" data-name="Path 269" d="M2.993,16.888a.9.9,0,0,1,.889-.422c.283.042.327-.1.309-.347a1.3,1.3,0,0,1,.049-.43.566.566,0,0,1,.626-.462.594.594,0,0,1,.571.588.494.494,0,0,1,.007.131c-.07.411.066.572.484.528a.6.6,0,0,1,.681.456.644.644,0,0,1-.2.708.614.614,0,0,1-.512.141c-.362-.054-.506.068-.46.47a.623.623,0,0,1-.472.76c-.434.106-.788-.187-.769-.718.016-.431-.106-.573-.505-.512-.34.052-.53-.192-.7-.449Z" transform="translate(-1.812 -11.327)" fill="#f28a1d" stroke="#f28a1d" stroke-width="0.5"/>
    <path id="Path_270" data-name="Path 270" d="M55.6,28.857A32.678,32.678,0,0,1,54.19,39.011c-2.076,6.528-6.179,10.964-12.464,13.133a1.868,1.868,0,0,1-1.294,0A18.871,18.871,0,0,1,28.593,40.784a.929.929,0,0,1-.064-.76.588.588,0,0,1,.535-.366.628.628,0,0,1,.617.441c.33.774.664,1.544,1.06,2.285a17.406,17.406,0,0,0,10.1,8.517.812.812,0,0,0,.562-.04c5.857-2.019,9.674-6.149,11.58-12.253A32.569,32.569,0,0,0,54.265,26.9a1.343,1.343,0,0,0-.851-1.287q-5.91-3.122-12.02-5.782a.7.7,0,0,0-.625,0c-4.188,1.831-8.313,3.8-12.354,5.965a.843.843,0,0,0-.495.8,33.619,33.619,0,0,0,.94,10.968,2.905,2.905,0,0,1,.072.342.614.614,0,0,1-.466.764.581.581,0,0,1-.738-.477c-.2-.789-.411-1.58-.565-2.381a35.09,35.09,0,0,1-.5-9.227c.023-.307.062-.612.089-.918a.952.952,0,0,1,.606-.769c2.7-1.475,5.444-2.847,8.225-4.142,1.67-.778,3.356-1.52,5.032-2.284a1.069,1.069,0,0,1,.928-.006c4.522,1.979,8.984,4.094,13.331,6.466a1,1,0,0,1,.554.849c.14,1.152.158,2.308.177,3.078" transform="translate(-19.759 -13.446)" fill="#f28a1d" stroke="#f28a1d" stroke-width="0.5"/>
    <path id="Path_271" data-name="Path 271" d="M12.5,22.869c.026-1.161.1-2.462.241-3.759a1,1,0,0,1,.619-.805c3.28-1.794,6.612-3.473,9.985-5.065.242-.114.481-.236.724-.345.453-.2.8-.1.958.289a.681.681,0,0,1-.426.911c-1.241.6-2.491,1.184-3.73,1.79q-3.32,1.623-6.571,3.393a.579.579,0,0,0-.367.513,43.108,43.108,0,0,0,.41,10.9,30.775,30.775,0,0,0,3.233,9.765,21.666,21.666,0,0,0,8.867,8.9,25.685,25.685,0,0,0,3.907,1.681.7.7,0,0,0,.483.023,22.526,22.526,0,0,0,9.564-6.024,24.423,24.423,0,0,0,5.126-8.812A35.684,35.684,0,0,0,47.3,27.5c.018-.219.045-.437.068-.655.052-.485.3-.737.69-.7s.609.346.564.821c-.106,1.121-.215,2.242-.384,3.357a33.837,33.837,0,0,1-2.472,8.71,23.368,23.368,0,0,1-13.21,12.8c-2,.788-2,.762-4.022-.058-6.813-2.759-11.4-7.791-13.928-14.919a36.592,36.592,0,0,1-1.86-8.529,46.673,46.673,0,0,1-.246-5.45" transform="translate(-9.296 -9.369)" fill="#f28a1d" stroke="#f28a1d" stroke-width="0.5"/>
    <path id="Path_272" data-name="Path 272" d="M88.573,15.4c0,.425,0,.85,0,1.274a.624.624,0,1,1-1.245.06c-.033-.422-.021-.849-.017-1.274.009-1.086-.1-2.164-.17-3.245-.015-.248-.163-.31-.324-.4-4-2.182-8.085-4.171-12.216-6.06-1.278-.585-2.567-1.144-3.847-1.725a.648.648,0,0,0-.588.007c-1.011.458-2.03.9-3.045,1.349a.915.915,0,0,1-.609.1.607.607,0,0,1-.455-.517.585.585,0,0,1,.272-.638,4.526,4.526,0,0,1,.567-.278c1.027-.456,2.059-.9,3.083-1.368a1.112,1.112,0,0,1,.966,0c5.711,2.484,11.337,5.159,16.821,8.157a1.022,1.022,0,0,1,.583.877c.126,1.224.21,2.45.227,3.681" transform="translate(-49.143 -1.891)" fill="#f28a1d" stroke="#f28a1d" stroke-width="0.5"/>
    <path id="Path_273" data-name="Path 273" d="M22.647,3.188c-.328,0-.539-.216-.519-.635.016-.345-.091-.435-.407-.417a.537.537,0,0,1-.614-.55.542.542,0,0,1,.6-.537c.336.02.444-.074.424-.436A.523.523,0,1,1,23.161.6c-.019.378.094.47.441.452a.531.531,0,0,1,.572.559.522.522,0,0,1-.6.525c-.357-.031-.423.107-.413.446a.518.518,0,0,1-.517.607" transform="translate(-14.523 1.727)" fill="#f28a1d" stroke="#f28a1d" stroke-width="0.5"/>
    <path id="Path_274" data-name="Path 274" d="M153.975,12.327a.657.657,0,0,1-.767.671c-.353-.016-.445.088-.431.453.02.505-.259.809-.643.8-.368-.009-.621-.3-.6-.787.017-.357-.064-.483-.428-.465a.659.659,0,0,1-.783-.652c0-.41.275-.672.773-.648.349.017.453-.092.437-.457-.023-.526.223-.809.62-.805s.645.3.622.818c-.017.383.108.462.446.445a.643.643,0,0,1,.752.629" transform="translate(-112.356 -8.157)" fill="#f28a1d" stroke="#f28a1d" stroke-width="0.5"/>
    <path id="Path_275" data-name="Path 275" d="M12.142,125.819a3.051,3.051,0,0,1-.336,0,.629.629,0,0,1-.595-.626.636.636,0,0,1,.585-.677,3.846,3.846,0,0,1,.713,0,.648.648,0,0,1,.62.648.655.655,0,0,1-.652.661c-.112.008-.224,0-.336,0v0" transform="translate(-8.341 -91.17)" fill="#f28a1d" stroke="#f28a1d" stroke-width="0.5"/>
    <path id="Path_276" data-name="Path 276" d="M12.14,136.022c-.056,0-.112,0-.168,0-.487-.009-.783-.262-.778-.664s.3-.645.792-.655a4.1,4.1,0,0,1,.5.006.655.655,0,0,1-.013,1.31c-.112.008-.224,0-.336,0v0" transform="translate(-8.33 -98.641)" fill="#f28a1d" stroke="#f28a1d" stroke-width="0.5"/>
    <path id="Path_277" data-name="Path 277" d="M12.158,146.224c-.646,0-.953-.208-.959-.649s.31-.671.945-.671c.672,0,.988.218.977.678-.01.439-.314.642-.963.642" transform="translate(-8.333 -106.115)" fill="#f28a1d" stroke="#f28a1d" stroke-width="0.5"/>
    <path id="Path_278" data-name="Path 278" d="M65.473,55.094a2.759,2.759,0,0,0-4.4-.251c-1.088,1.12-2.161,2.257-3.24,3.388L54.5,61.726a29.262,29.262,0,0,0-1.983-2.24,2.681,2.681,0,0,0-3.771.216,3,3,0,0,0-.166,3.952c1.295,1.521,2.691,2.946,4.117,4.331a2.654,2.654,0,0,0,3.961-.113q4.277-4.417,8.5-8.893a3.057,3.057,0,0,0,.316-3.886m-1.2,2.954q-4.259,4.462-8.528,8.914a1.492,1.492,0,0,1-2.287-.014Q51.555,65,49.688,63a1.692,1.692,0,0,1-.024-2.393,1.528,1.528,0,0,1,2.289.08c.681.7,1.348,1.408,2.022,2.11.5.524.769.526,1.267,0q3.342-3.495,6.681-6.993a1.58,1.58,0,0,1,1.744-.535,1.652,1.652,0,0,1,1.09,1.649,1.585,1.585,0,0,1-.483,1.122" transform="translate(-35.655 -39.45)" fill="#f28a1d" stroke="#f28a1d" stroke-width="0.5"/>
  </g>
</svg>
