<?xml version="1.0" encoding="UTF-8"?>
<svg id="Layer_1" data-name="Layer 1" xmlns="http://www.w3.org/2000/svg" viewBox="0 0 32 32">
  <defs>
    <style>
      .cls-1 {
        fill: #232323;
      }
    </style>
  </defs>
  <path class="cls-1" d="m31.11,18.67c-.15,2.17-.06,4.88-1.86,6.44-.77.67-1.74.97-2.73,1.13-.48.08-1.41.39-1.81,0-.44-.42-.05-.94.42-1.07,1.09-.3,2.18-.16,3.14-.86.73-.53,1.09-1.35,1.26-2.21.56-2.79.41-5.82.32-8.65-.07-2.05.03-5.06-2.22-6.03-1.12-.48-2.48-.51-3.69-.6-1.49-.11-2.98-.18-4.48-.22-1.51-.04-3.03-.06-4.54-.05-.66,0-1.32.02-1.97.04-.47.01-1.38.23-1.72-.24-.87-1.23,2.13-1.02,2.56-1.03,1.53-.03,3.06-.01,4.59,0,1.63.02,3.26.06,4.88.18,1.5.1,3.16.14,4.59.67,3.06,1.12,3.06,4.51,3.25,7.26v5.22Z"/>
  <path class="cls-1" d="m16.71,25.52c.57,0,1.14,0,1.71,0,.64,0,1.45-.18,2.07-.04.4.09.72.46.5.89-.26.51-1.11.36-1.58.37-2.95.07-5.89.06-8.84-.07-1.51-.07-3.02-.16-4.51-.37-1.04-.15-2.06-.38-2.91-1.03-1.92-1.47-1.95-4.18-2.04-6.38-.11-2.86-.21-5.87.27-8.7.37-2.18,1.58-3.77,3.81-4.24.54-.11,1.29-.33,1.84-.26.47.06.88.52.52.99-.3.39-1.16.34-1.61.41-.54.08-1.07.2-1.56.44-2.07,1.03-1.96,3.91-2.04,5.88-.07,1.67-.08,3.34,0,5.01.06,1.44.04,3.03.53,4.4.94,2.62,4.26,2.41,6.55,2.55,2.23.14,4.47.18,7.3.17Z"/>
  <path class="cls-1" d="m12.73,16.05c0-1.43,0-2.85,0-4.28,0-.3.03-.58.32-.74.3-.17.56-.05.82.12,2.3,1.43,4.6,2.85,6.9,4.27.62.38.62.88,0,1.26-2.31,1.43-4.62,2.85-6.93,4.28-.21.13-.42.25-.69.15-.29-.11-.42-.33-.42-.73,0-1.45,0-2.89,0-4.34Zm1.25,0c0,1.01,0,2.01,0,3.02,0,.09-.05.22.05.27.08.04.16-.06.23-.1,1.63-1.01,3.26-2.01,4.89-3.02.27-.17.28-.17,0-.35-1.63-1.01-3.26-2.02-4.89-3.02-.07-.04-.15-.13-.23-.09-.09.05-.05.16-.05.24,0,1.02,0,2.03,0,3.05Z"/>
  <path class="cls-1" d="m23.39,25.99c0,.54-.65.81-1.03.43-.37-.37-.12-1.05.43-1.04.34,0,.6.28.6.62Z"/>
  <path class="cls-1" d="m9.41,5.51c.53,0,.79.67.41,1.04-.38.37-1.04.1-1.03-.44,0-.35.27-.61.62-.6Z"/>
</svg>