<?xml version="1.0" encoding="UTF-8"?>
<svg id="Layer_1" data-name="Layer 1" xmlns="http://www.w3.org/2000/svg" viewBox="0 0 32 32">
  <defs>
    <style>
      .cls-1 {
        fill: #fff;
      }
    </style>
  </defs>
  <path class="cls-1" d="m7.44,31.14c-.2-.16-.27-.37-.26-.62.01-.63,0-1.26,0-1.89,0-.36.17-.57.45-.57.3,0,.47.2.47.58,0,.44,0,.89,0,1.33,0,.21.07.27.28.27,1.89,0,3.78,0,5.67,0,.26,0,.28-.13.28-.33,0-1.44,0-2.87,0-4.31,0-2.89,0-5.79,0-8.68,0-.41,0-.41-.4-.41-1.81,0-3.62,0-5.43,0-.38,0-.38,0-.38.4,0,3.07,0,6.14,0,9.21,0,.11,0,.22,0,.32-.02.29-.2.47-.46.46-.26,0-.44-.19-.46-.48,0-.1,0-.2,0-.3,0-3.18,0-6.36,0-9.54,0-.27-.08-.46-.27-.64-1.52-1.51-3.04-3.03-4.56-4.55-.42-.42-.42-.61,0-1.03.28-.28.55-.56.84-.83.27-.26.5-.27.78-.02.18.16.35.34.53.52,1.75,1.75,3.5,3.49,5.24,5.25.18.18.37.26.62.26,3.76,0,7.52,0,11.28,0,.27,0,.46-.09.65-.27,1.83-1.84,3.67-3.68,5.51-5.52.08-.08.15-.16.23-.23.28-.25.51-.25.78.01.3.29.6.6.9.9.34.34.34.56,0,.9-.58.59-1.17,1.17-1.75,1.76-.97.97-1.93,1.94-2.91,2.9-.17.17-.24.34-.23.57.01.79,0,1.58,0,2.36,0,.28-.2.48-.46.48-.26,0-.44-.19-.46-.47,0-.08,0-.16,0-.24,0-.62-.01-1.24,0-1.86,0-.26-.09-.33-.34-.33-1.85,0-3.7,0-5.55,0-.26,0-.34.08-.34.34,0,4.36,0,8.72,0,13.08,0,.24.08.32.32.32,1.86,0,3.72,0,5.58,0,.27,0,.33-.09.33-.34,0-2.85,0-5.69,0-8.54,0-.11,0-.22,0-.32.02-.3.18-.48.45-.48.27,0,.47.19.48.49,0,.54,0,1.08,0,1.62,0,2.62,0,5.24,0,7.86,0,.26-.06.46-.26.62H7.44Zm7.86-7.79c0,1.35,0,2.7,0,4.05,0,.81,0,1.61,0,2.42q0,.41.43.42c.19,0,.37,0,.56,0q.42,0,.42-.42c0-4.29,0-8.58,0-12.87,0-.06,0-.12,0-.18.01-.19-.08-.26-.27-.26-.25,0-.49,0-.74,0-.4,0-.4,0-.4.41,0,2.15,0,4.29,0,6.44Zm8.12-7.84c.46.06.79.03,1.11-.31.83-.89,1.71-1.73,2.57-2.59.51-.51,1.03-1.03,1.54-1.54.06-.06.17-.11.1-.24-.14-.28-.34-.32-.55-.11-1.52,1.52-3.04,3.04-4.56,4.56-.06.06-.12.13-.21.23Zm-14.85,0c-.06-.07-.09-.12-.13-.16-1.55-1.55-3.11-3.1-4.65-4.66-.21-.21-.31-.07-.46.05-.19.16-.05.25.05.35,1.36,1.36,2.73,2.7,4.06,4.08.33.34.65.42,1.12.33Z"/>
  <path class="cls-1" d="m16.01,11.59c2.88-.01,5.13-2.47,4.87-5.33-.21-2.34-2.09-4.21-4.43-4.42-1.08-.1-2.07.13-2.99.68-.41.25-.69.23-.84-.05-.16-.28-.05-.52.37-.77,3.56-2.17,8.27.07,8.81,4.19.44,3.33-1.94,6.32-5.28,6.64-3.17.3-6.02-2.09-6.33-5.29-.13-1.34.19-2.55.89-3.69.11-.17.23-.32.46-.32.34,0,.57.34.42.67-.08.19-.2.36-.3.54-1.55,3.01.32,6.63,3.67,7.1.22.03.45.03.68.04Z"/>
  <path class="cls-1" d="m14.89,5.52c0,.81.94.69,1.49.72.56.04,1.08.24,1.4.73.29.45.38,1.03.18,1.53-.09.23-.24.44-.43.61-.24.22-.65.24-.87.44-.32.3,0,.98-.5,1.17-.73.28-.52-.71-.75-1.01-.3-.39-.89-.33-1.2-.77-.25-.35-.54-1.27.11-1.39.61-.11.48.71.84.96.32.22,1.26.19,1.58,0,.43-.25.48-.85.1-1.16-.46-.38-1.22-.09-1.77-.26-1.12-.37-1.51-1.82-.7-2.69.31-.33.96-.38,1.15-.75.15-.3-.1-1.26.66-.96.46.18.18.89.66,1.2.56.36,1.06.41,1.19,1.19.12.66-.52,1.1-.89.43-.14-.27-.08-.49-.38-.65-.29-.16-.91-.06-1.2-.05-.4.02-.68.32-.68.71Z"/>
  <path class="cls-1" d="m7.98,10.93c.56.02,1.3,1.09,1.67,1.46.3.3,1.54,1.2.8,1.63-.54.31-1.26-.74-1.59-1.07-.35-.35-1.54-1.17-1.3-1.73.08-.18.23-.26.41-.28Z"/>
  <path class="cls-1" d="m24.02,10.93c.99.09.07,1.07-.21,1.35-.49.5-1.09,1.36-1.7,1.69-.28.15-.66.16-.77-.22-.1-.37.34-.66.56-.89.6-.6,1.2-1.2,1.8-1.8.09-.09.2-.13.33-.14Z"/>
  <path class="cls-1" d="m13.3,13.58c-.01,1.34-1.96-.58-2.15-1.01-.21-.47.15-.86.64-.64.51.23,1.06,1.01,1.42,1.41.07.07.09.17.09.24Z"/>
  <path class="cls-1" d="m19.2,14.09c-1.32,0,.66-2.05,1.12-2.2.61-.2.69.42.45.8-.32.49-.89.93-1.32,1.31-.07.07-.17.09-.24.08Z"/>
  <path class="cls-1" d="m25.29,5.87c0,.95-.97.91-.96-.04,0-.96.96-.95.96.04,0,0,0,0,0,0Z"/>
  <path class="cls-1" d="m23.76,6.44c.82,0,1.05.86.14.96-1.01.1-1.22-.96-.14-.96h0Z"/>
  <path class="cls-1" d="m8.74,1.67c0,.83-.87.98-.96.1-.03-.31-.03-.75.32-.87.38-.13.62.2.64.54,0,.08,0,.16,0,.24Z"/>
  <path class="cls-1" d="m7.77,3.73c.03-.26.02-.57.29-.7.36-.17.59.14.67.44.07.28.06.77-.19.95-.26.19-.65.06-.73-.26-.03-.13-.03-.27-.04-.42Z"/>
  <path class="cls-1" d="m25.87,6.43c.82,0,1.05.87.13.96-1.01.11-1.22-.96-.13-.96h0Z"/>
  <path class="cls-1" d="m25.28,7.96c0,.91-.94,1-.96.02-.02-.98.96-.98.96-.02,0,0,0,0,0,0Z"/>
  <path class="cls-1" d="m7.2,3.15c-1.03,0-.88-.98.11-.92.93.06.75.93-.11.93h0Z"/>
  <path class="cls-1" d="m9.32,3.15c-.95,0-.97-.92-.02-.93.95,0,1.01.93.02.93,0,0,0,0,0,0Z"/>
</svg>