<?xml version="1.0" encoding="UTF-8"?>
<svg id="Layer_1" data-name="Layer 1" xmlns="http://www.w3.org/2000/svg" viewBox="0 0 32 32">
  <defs>
    <style>
      .cls-1 {
        fill: #232323;
      }
    </style>
  </defs>
  <path class="cls-1" d="m7.47,31.31c-.21-.16-.27-.37-.26-.63.01-.63,0-1.27,0-1.91,0-.36.17-.57.46-.58.3,0,.47.21.48.59,0,.45,0,.89,0,1.34,0,.21.07.28.28.27,1.9,0,3.8,0,5.71,0,.26,0,.28-.13.28-.33,0-1.45,0-2.9,0-4.35,0-2.92,0-5.84,0-8.75,0-.41,0-.41-.4-.41-1.82,0-3.65,0-5.47,0-.39,0-.39,0-.39.4,0,3.1,0,6.19,0,9.29,0,.11,0,.22,0,.33-.02.3-.2.47-.47.47-.26,0-.44-.19-.46-.48,0-.1,0-.2,0-.3,0-3.21,0-6.41,0-9.62,0-.27-.08-.46-.27-.65-1.53-1.52-3.06-3.06-4.58-4.59-.43-.43-.43-.61,0-1.04.28-.28.56-.57.84-.84.27-.26.5-.27.78-.02.18.17.35.35.53.52,1.76,1.76,3.52,3.52,5.27,5.29.18.18.37.26.63.26,3.78,0,7.57,0,11.35,0,.27,0,.46-.09.65-.28,1.84-1.86,3.7-3.71,5.54-5.56.08-.08.15-.16.23-.23.28-.25.51-.25.78.01.31.3.61.6.9.9.34.35.34.57,0,.91-.59.59-1.18,1.18-1.76,1.77-.97.98-1.94,1.95-2.92,2.92-.17.17-.24.34-.23.58.01.79,0,1.59,0,2.38,0,.29-.2.48-.46.48-.26,0-.45-.19-.47-.48,0-.08,0-.16,0-.24,0-.63-.01-1.25,0-1.88,0-.27-.09-.34-.34-.34-1.86,0-3.72,0-5.59,0-.26,0-.34.08-.34.34,0,4.4,0,8.79,0,13.19,0,.25.08.32.32.32,1.87,0,3.74,0,5.62,0,.27,0,.33-.1.33-.35,0-2.87,0-5.74,0-8.61,0-.11,0-.22,0-.33.02-.3.18-.48.45-.49.27,0,.48.19.48.49,0,.55,0,1.09,0,1.64,0,2.64,0,5.28,0,7.92,0,.26-.06.47-.26.63H7.47Zm9.33-7.82c0-1.68,0-3.35,0-5.03,0-.54,0-1.07,0-1.61,0-.21-.07-.31-.29-.3-.23.01-.46,0-.68,0q-.44,0-.45.44c0,4.33,0,8.65,0,12.98,0,.06,0,.12,0,.18,0,.17.06.26.24.25.24,0,.48,0,.71,0q.46,0,.46-.45c0-2.15,0-4.31,0-6.46Zm6.8-7.93c.39.04.72.04,1.04-.29,1.36-1.4,2.74-2.77,4.13-4.15.16-.16.2-.26.02-.45-.19-.2-.28-.11-.42.03-1.53,1.54-3.06,3.07-4.59,4.6-.07.07-.16.11-.17.25Zm-15.03,0c0-.09-.05-.13-.09-.17-1.56-1.57-3.13-3.13-4.68-4.7-.21-.21-.31-.07-.46.05-.19.16-.05.25.05.35,1.37,1.37,2.74,2.72,4.09,4.11.33.34.66.43,1.1.34Z"/>
  <path class="cls-1" d="m16.86.81c2.29.4,4.28,1.98,4.9,4.28.57,2.11-.05,4.37-1.64,5.87-3.16,2.98-8.49,1.5-9.68-2.67-.35-1.2-.31-2.49.13-3.66.14-.37.42-1.22.81-1.4.54-.24.75.31.58.73-.44,1.1-.9,1.96-.78,3.19.1,1.01.52,1.97,1.18,2.73,2.9,3.34,8.53,1.3,8.64-3.12.06-2.42-1.8-4.63-4.19-4.97-.66-.09-1.34-.05-1.98.11-.35.09-.68.22-1,.39-.23.12-.56.4-.83.34-.95-.21.04-1.01.35-1.18.62-.33,1.28-.48,1.96-.64h1.55Z"/>
  <path class="cls-1" d="m8.54.81c.34.34.45,1.53-.25,1.51-.67-.02-.57-1.17-.22-1.51h.48Z"/>
  <path class="cls-1" d="m18.18,7.88c0,.53-.27,1.04-.69,1.35-.21.15-.64.19-.8.35-.18.18-.06.42-.11.65-.11.52-.64.74-.92.21-.14-.27.08-.63-.16-.84-.17-.15-.55-.15-.75-.27-.37-.23-.69-.67-.72-1.12-.04-.54.5-.95.88-.4.29.43.11.72.73.81.51.07,1.36.09,1.54-.51.39-1.28-1.86-.81-2.47-1.25-.91-.66-.92-2.04-.01-2.71.4-.29.81-.2.91-.7.07-.31.22-1.3.82-.72.28.27.02.74.38,1.04.43.37.93.29,1.21.89.19.4.22,1.49-.52,1.13-.48-.23-.21-.87-.84-1-.48-.11-1.4-.11-1.62.43-.41.99.91,1,1.48,1.01.92.02,1.66.75,1.67,1.67Z"/>
  <path class="cls-1" d="m8.02,10.93c.57.02,1.3,1.1,1.68,1.48.31.31,1.51,1.17.82,1.62-.55.36-1.28-.73-1.61-1.06-.35-.35-1.56-1.19-1.31-1.76.08-.18.23-.26.42-.28Z"/>
  <path class="cls-1" d="m21.43,13.66c.04-.57,1.08-1.29,1.47-1.67.31-.31,1.19-1.53,1.63-.83.34.54-.73,1.28-1.06,1.61-.36.36-1.17,1.55-1.76,1.31-.18-.08-.26-.23-.28-.42Z"/>
  <path class="cls-1" d="m11.6,11.87c.41-.03.94.73,1.19.98.27.27.93.83.37,1.19-.54.35-2.25-1.36-2-1.9.08-.18.22-.27.44-.27Z"/>
  <path class="cls-1" d="m19.26,14.11c-.86-.01-.26-.87,0-1.15.24-.27.97-1.19,1.4-1.1,1.14.23-.87,2.28-1.4,2.26Z"/>
  <path class="cls-1" d="m25.43,5.82c0,.95-.95.96-.97.02-.02-.97.97-1.03.97-.02,0,0,0,0,0,0Z"/>
  <path class="cls-1" d="m23.9,7.37c-.83-.03-1.07-.88-.16-.98.27-.03.65-.03.82.21.22.31.01.68-.34.75-.11.02-.22.02-.32.03Z"/>
  <path class="cls-1" d="m8.8,3.68c-.05.69-.77,1.17-.97.27-.07-.3-.05-.79.24-.96.29-.17.63,0,.7.31.03.12.02.26.03.37Z"/>
  <path class="cls-1" d="m26.01,6.4c.97,0,.98.97.02.97-.94,0-1.01-.97-.02-.97Z"/>
  <path class="cls-1" d="m25.43,7.95c0,.82-.87,1.03-.97.13-.11-1.01.97-1.24.97-.13,0,0,0,0,0,0Z"/>
  <path class="cls-1" d="m7.24,3.08c-.92,0-1-.91-.03-.93.96-.02,1.03.94.03.94h0Z"/>
  <path class="cls-1" d="m9.37,3.09c-.95,0-.97-.93-.02-.94.95,0,1.02.94.02.94,0,0,0,0,0,0Z"/>
</svg>