<?xml version="1.0" encoding="UTF-8"?>
<svg id="Layer_1" data-name="Layer 1" xmlns="http://www.w3.org/2000/svg" viewBox="0 0 32 32">
  <defs>
    <style>
      .cls-1 {
        fill: #f28a1d;
      }
    </style>
  </defs>
  <path class="cls-1" d="m24.8,16.01c0,3.38,0,6.76,0,10.14,0,.72-.31,1.27-.92,1.63-.63.37-1.29.37-1.92-.01-.57-.34-.88-.86-.89-1.52,0-.26-.09-.45-.27-.63-1.2-1.2-2.58-2.17-4.06-2.98-2.08-1.14-4.25-2.05-6.58-2.53-.67-.14-.51-.18-.67.42-.36,1.42-.71,2.84-1.07,4.25-.14.56-.34.72-.91.72-.69,0-1.39,0-2.08,0-.52,0-.78-.26-.78-.78,0-1.33,0-2.66,0-3.99q0-.78-.76-.78c-.13,0-.27,0-.4,0-1.14-.01-2.06-.92-2.07-2.05,0-1.26,0-2.52,0-3.78,0-1.14.92-2.05,2.06-2.06,1.39,0,2.77-.05,4.16,0,1.68.07,3.27-.25,4.84-.8,2.47-.87,4.79-2.01,6.87-3.6.54-.41,1.04-.86,1.51-1.34.14-.14.2-.28.2-.48,0-1.08.82-1.88,1.89-1.87,1.04,0,1.84.82,1.84,1.89,0,3.39,0,6.78,0,10.16Zm-3.74-.02c0-2.51,0-5.03,0-7.54,0-.08.04-.19-.04-.24-.08-.05-.13.06-.19.1-3.17,2.56-6.75,4.24-10.73,5.05-.27.05-.33.16-.33.42.01,1.47.02,2.95,0,4.42,0,.29.1.37.36.42,3.95.82,7.51,2.48,10.66,5.01.07.06.13.19.23.14.09-.05.04-.18.04-.27,0-2.5,0-5.01,0-7.51Zm1.43,0c0,1.74,0,3.48,0,5.22,0,1.55-.18,3.23,0,4.76.05.4.38.9.78.42.3-.37.11-1.28.11-1.74,0-1.55,0-3.1,0-4.65,0-2.99,0-5.99,0-8.98,0-1.5,0-2.99,0-4.49,0-.34.08-1.38-.61-1.1-.46.19-.27,1.26-.27,1.63,0,2.97,0,5.94,0,8.92Zm-14.14,0c0-.75,0-1.5,0-2.25,0-.19-.05-.28-.26-.28-.59.01-1.17.01-1.76,0-.21,0-.26.09-.26.28,0,1.5,0,3,0,4.5,0,.22.08.28.29.28.55-.01,1.1-.02,1.64,0,.26,0,.35-.06.35-.34-.02-.73,0-1.46,0-2.19Zm-3.7.02c0-.66.01-1.33,0-1.99-.01-.68-.42-.65-1.08-.54-1.11.18-.74,1.67-.74,2.52,0,.83-.38,2.35.73,2.52.5.08.94.14,1.08-.34.17-.58,0-1.56,0-2.16Zm1.43,5.99c0,.41-.24,1.78.11,2.05.09.07.72.06.82,0,.33-.21.36-1.05.45-1.42.15-.61.3-1.22.46-1.83.19-.75.3-.86-.51-.85-.41,0-1.08-.15-1.32.19-.2.28,0,1.49,0,1.87Z"/>
  <path class="cls-1" d="m25.69,10.94c.01-.64.99-.89,1.46-1.11.49-.24,1.25-.81,1.78-.41,1.3.99-1.7,2-2.26,2.24-.46.2-.96-.17-.97-.72Z"/>
  <path class="cls-1" d="m28.49,22.71c-.3.02-.64-.22-.9-.35-.43-.2-.89-.39-1.3-.62-.5-.29-.93-.96-.22-1.37.54-.31,1.35.29,1.83.52.52.25,1.53.55,1.28,1.32-.1.3-.36.49-.69.49Z"/>
  <path class="cls-1" d="m28.73,15.28c.61,0,1.87-.22,1.85.72-.02.97-1.4.71-2.02.71-.61,0-1.84.17-1.71-.81.11-.85,1.28-.62,1.87-.62Z"/>
</svg>