<?xml version="1.0" encoding="UTF-8"?>
<svg id="Layer_1" data-name="Layer 1" xmlns="http://www.w3.org/2000/svg" viewBox="0 0 32 32">
  <defs>
    <style>
      .cls-1 {
        fill: #232323;
      }
    </style>
  </defs>
  <path class="cls-1" d="m22.05,22.65c-1.35,0-2.7,0-4.06,0-1.21,0-2.46.1-3.65-.22-1.92-.52-3.57-1.95-4.35-3.77-.8-1.84-.7-4.12.31-5.87.25-.43.55-.83.88-1.19.23-.25.86-1.04,1.23-1.07.23-.02.62.44.57.71-.06.35-.82.75-1.06,1.02-.34.38-.63.8-.86,1.26-.13.26-.62,1.17-.46,1.45.12.2.74.16.95.13.47-.05.86-.27,1.19-.6.38-.38.83-.81,1.18-1.23.39-.46.25-1.01.26-1.58.01-.58.09-.82.7-.86.63-.04,1.23.15,1.74-.27.36-.3,1.13-.93,1.3-1.35.22-.54-.16-1.26.06-1.79.19-.45.66-.36,1.08-.36.8,0,1.08-.01,1.65-.59.43-.43.96-.77,1.02-1.4.04-.45-.21-1.29.14-1.64.37-.38,1.24-.08,1.71-.14.58-.07.92-.63,1.32-1.02.8-.77,2.44-.4,3.49-.4.37,0,1.52-.19,1.79.07.09.09.15.73.01.86-.15.14-.75.04-.93.04-.75,0-1.5,0-2.25,0-.59,0-1.12-.09-1.61.29-.42.32-.73.78-.83,1.3-.08.42.16.97-.02,1.37-.2.47-.77.35-1.2.35-.77,0-.99.04-1.53.59-.5.5-1,.8-1.02,1.53-.01.41.17,1.18-.15,1.5-.35.35-1.19.1-1.64.14-.63.06-.96.59-1.4,1.02-.58.58-.59.83-.59,1.65,0,.42.09.89-.36,1.08-.56.24-1.31-.17-1.87.11-1.02.51-1.48,2.15-2.71,2.27-.38.04-1.41-.23-1.64.1-.15.22.12,1.46.28,1.62.3.3,1.33.11,1.71.11.44,0,1.48.2,1.7-.2.21-.37-.06-1.17.01-1.6.09-.52.3-.54.8-.56.68-.02,1.36,0,2.04,0,.87,0,.93-.02.93-.88,0-.6-.08-1.25,0-1.85.07-.53.32-.55.83-.57.66-.02,1.33,0,2,0,.7,0,.93.12.93-.64,0-.52-.16-1.32.02-1.8.19-.52.73-.39,1.2-.39.68,0,1.38.05,2.06,0,.68-.05.49-.51.49-1.11,0-.67-.08-1.38,0-2.04.07-.61.35-.61.94-.62.64,0,1.27,0,1.91,0,.41,0,1.38-.19,1.72.1.33.27.18,1,.18,1.36,0,.76,0,1.53,0,2.29,0,1.47,0,2.95,0,4.42s0,2.95,0,4.42c0,.66,0,1.31,0,1.97,0,.58.18,1.52-.03,2.06-.27.74-2.16.38-2.8.38.31.31.97.75.78,1.25-.1.28-.52.57-.73.78-.34.34-.68.68-1.02,1.02-.53.53-1.06,1.06-1.59,1.59-.56.56-.94,1.22-1.66.56-.55-.5-1.06-1.05-1.58-1.58-.5-.51-.73-1-1.44-.8-.67.19-.81.42-.79,1.1.02.8.01,1.6.01,2.39,0,.47.12,1.02-.4,1.2-.62.21-1.63.02-2.28.02-.75,0-1.5,0-2.24,0-.44,0-1.36.2-1.65-.25-.27-.41-.06-1.44-.06-1.92,0-.52.23-1.68-.03-2.12-.19-.33-.98-.65-1.34-.49-.46.21-.96.98-1.32,1.34-.38.38-.95,1.24-1.47,1.4-.57.17-1.17-.73-1.53-1.09-.52-.52-1.04-1.04-1.56-1.56-.4-.4-1.38-1.07-1.54-1.62-.17-.58.72-1.15,1.09-1.52.47-.47,1.31-1.03,1.61-1.61.16-.31-.05-1.02-.33-1.26-.38-.33-1.48-.12-1.94-.12-.57,0-1.51.17-2.05-.01-.59-.2-.41-.88-.41-1.4,0-.74,0-1.49,0-2.23,0-.79-.13-1.71,0-2.49.11-.58.56-.5,1.07-.5.78,0,1.57,0,2.35,0,.69,0,.92.1,1.18-.54.32-.78.15-.84-.45-1.44-.51-.51-1.03-1.02-1.54-1.54-.47-.47-.82-.75-.34-1.32,1.06-1.23,2.33-2.36,3.49-3.49.6-.59.81-.61,1.42-.02.56.54,1.11,1.11,1.66,1.66.55.55.62.79,1.35.49.23-.09.49-.13.61-.36.13-.26.02-.83.02-1.12,0-.78-.02-1.57,0-2.35.02-.56.08-.77.67-.82,1.48-.12,3.03,0,4.52,0,.39,0,1.13-.15,1.38.24.28.44.07,1.46.07,1.97,0,.39.21,1.35-.16,1.59-.23.15-.71.03-.82-.17-.19-.34,0-1.33,0-1.71,0-.23.09-.68-.06-.86-.17-.21-.76-.08-1.02-.08-.73,0-1.47,0-2.2,0-.71,0-1.37-.26-1.39.59-.02.7,0,1.41,0,2.12,0,.61.16,1.23-.42,1.56-.41.24-1.34.71-1.81.72-.58.01-1.11-.8-1.49-1.17-.32-.32-1.02-1.32-1.45-1.44-.5-.14-1.11.8-1.47,1.16-.51.52-1.04,1.02-1.55,1.54-.3.3-.4.32-.21.66.16.29.61.6.84.84.48.48,1.06.94,1.47,1.47.45.57.01,1.15-.23,1.74-.26.62-.31,1.01-1.03,1.06-.75.05-1.52,0-2.27,0-.48,0-1.07-.19-1.23.31-.1.31,0,.92,0,1.25,0,.42,0,.83,0,1.25,0,.4-.22,1.57.12,1.84.17.14.81.02.99.02.43,0,.86,0,1.3,0,.21,0,.84.12.98-.02.18-.17.03-.5-.01-.71-.08-.46-.37-1.46.16-1.63,1.02-.33.77,1.1.88,1.69.93,5.11,6.3,8.33,11.27,6.89,1.2-.35,2.31-.97,3.27-1.77.04-.04.08-.08.18-.17Zm7.21-8.5c0-2.39,0-4.79,0-7.18,0-.25-.05-.35-.32-.34-.72.02-1.43.01-2.15,0-.24,0-.33.07-.32.31.01.93,0,1.86,0,2.8,0,3.84,0,7.67,0,11.51q0,.43.44.43c.66,0,1.31-.01,1.97,0,.29,0,.39-.07.38-.38-.01-2.38,0-4.77,0-7.15Zm-3.77,1.92c0-1.78,0-3.57,0-5.35,0-.24-.08-.32-.32-.32-.73.01-1.45.01-2.18,0-.21,0-.3.05-.3.28,0,3.57,0,7.14,0,10.71,0,.22.07.29.29.29.72-.01,1.43-.02,2.15,0,.29,0,.36-.09.36-.37-.01-1.75,0-3.49,0-5.24Zm-3.77,1.38c0-1.29,0-2.59,0-3.88,0-.25-.06-.35-.33-.34-.72.02-1.43.01-2.15,0-.24,0-.32.07-.32.31,0,2.61,0,5.22,0,7.82,0,.25.09.31.33.31.71-.01,1.41-.01,2.12,0,.27,0,.36-.07.35-.35-.01-1.29,0-2.59,0-3.88Zm-5.64,11.76c.69,0,1.37,0,2.06,0,.2,0,.28-.06.28-.27,0-.99,0-1.98,0-2.97,0-.21-.06-.27-.28-.23-1.37.29-2.75.29-4.12,0-.22-.05-.28,0-.28.22,0,.99,0,1.98,0,2.97,0,.21.08.27.28.27.69,0,1.37,0,2.06,0Zm-8.51-7.94s-.07.05-.1.08c-.74.73-1.47,1.47-2.21,2.2-.1.1-.1.17,0,.27,1.01,1,2.01,2.01,3.02,3.02.11.11.18.11.29,0,.73-.73,1.45-1.46,2.18-2.19.11-.11.12-.18-.02-.27-1.22-.79-2.22-1.8-3.02-3.02-.03-.05-.06-.1-.15-.1Zm10.38-2.17c0-.77,0-1.53,0-2.3,0-.22-.07-.29-.29-.29-.75.01-1.49,0-2.24,0-.21,0-.27.08-.27.28,0,1.5,0,3,0,4.5,0,.23.09.3.31.32.71.07,1.43.03,2.15.05.25,0,.34-.07.34-.33-.02-.75,0-1.49,0-2.24Zm6.81,3.55c-.35,0-.71,0-1.06,0-.12,0-.23.01-.32.11-.57.63-1.22,1.17-1.93,1.62-.15.1-.14.17-.02.29.73.71,1.45,1.43,2.17,2.15.11.11.19.13.31,0,.99-.99,1.98-1.99,2.97-2.97.13-.13.11-.21,0-.33q-.82-.87-2-.87s-.08,0-.12,0Zm-12.04-3.77c-.26,0-1.1-.15-1.29,0-.21.16.07.4.2.58.47.61,1.06,1.12,1.73,1.49.14.08.63.43.81.28.15-.14.01-1.24.02-1.44,0-.33.11-.71-.18-.89-.24-.15-1,0-1.28,0Zm9.98-14.18q0,.48.41.48t.49-.39-.41-.51-.49.42Zm-2.87,3.8q0-.46-.43-.46-.47,0-.47.45,0,.46.43.46.47,0,.47-.45Zm-4.22,4.22q.45,0,.45-.43,0-.47-.42-.47-.48,0-.48.43,0,.47.45.47Z"/>
</svg>