<?xml version="1.0" encoding="UTF-8"?>
<svg id="Layer_1" data-name="Layer 1" xmlns="http://www.w3.org/2000/svg" viewBox="0 0 32 32">
  <defs>
    <style>
      .cls-1 {
        fill: #f28a1d;
      }
    </style>
  </defs>
  <path class="cls-1" d="m28.97,31.82H3.03c-.71-.23-1.27-.62-1.58-1.32-.18-.41-.21-.83-.21-1.27,0-3.19,0-6.38,0-9.57,0-1.33,0-2.65,0-3.98,0-.43.12-.79.44-1.1.62-.6,1.2-1.25,1.82-1.85.26-.25.35-.52.35-.87-.01-2.98,0-5.97,0-8.95,0-.23.01-.45.03-.68.1-1.17,1.03-2.04,2.2-2.04,6.66,0,13.32,0,19.97,0,1.2,0,2.14.89,2.21,2.09.02.27.03.53.03.8,0,3,0,6.01,0,9.01,0,.3.08.53.3.74.57.55,1.1,1.14,1.68,1.68.37.35.51.73.51,1.23,0,4.51,0,9.01,0,13.52,0,.28-.01.56-.08.83-.22.92-.84,1.46-1.71,1.73Zm-12.99-.95c4.09,0,8.17,0,12.26,0,1,0,1.51-.51,1.51-1.5,0-4.44,0-8.87,0-13.31,0-.42,0-.42-.38-.21-.81.47-1.62.94-2.43,1.41-.43.25-.72.23-.89-.07-.17-.29-.04-.54.4-.8.17-.1.33-.21.51-.29.25-.11.32-.29.32-.56,0-4.32,0-8.64,0-12.97,0-.9-.51-1.43-1.41-1.43-6.53,0-13.07,0-19.6,0-.91,0-1.41.52-1.41,1.42,0,4.34,0,8.69,0,13.03,0,.28.09.44.33.59,3.52,2.04,7.03,4.08,10.54,6.13.22.13.38.12.59,0,2.48-1.45,4.96-2.89,7.44-4.34.29-.17.58-.35.89-.5.25-.12.51-.03.64.2.14.24.08.46-.13.63-.09.08-.21.14-.31.2-2.5,1.46-5,2.91-7.49,4.37-.33.19-.33.2,0,.39,2.82,1.64,5.64,3.28,8.46,4.92.14.08.29.16.41.27.2.16.25.38.12.61-.14.24-.35.3-.61.22-.11-.04-.2-.1-.3-.15-.79-.46-1.58-.92-2.37-1.38-6.8-3.96-13.6-7.92-20.41-11.88-.37-.22-.38-.21-.38.2,0,4.45,0,8.89,0,13.34,0,.13,0,.27.03.4.14.68.66,1.07,1.45,1.07,4.09,0,8.17,0,12.26,0ZM3.83,13.91l-.08-.04c-.14.15-.76.63-.78.82-.02.25.11.27.35.41.26.15.33.27.51.07.13-.14,0-1.05,0-1.26Zm24.45.69c0,.19,0,.33,0,.48,0,.3.8-.05.72-.4,0-.04-.45-.54-.5-.54-.37,0-.16.2-.22.47Z"/>
  <path class="cls-1" d="m16.04,9.54c-.89,0-2.91.41-3.51-.44-.3-.43-.19-1.1-.19-1.59,0-.7,0-1.4,0-2.11,0-.52,0-1.03.52-1.32.43-.25,1.06.07,1.44-.15.35-.2.18-.69.37-1.04.22-.39.56-.49.98-.54.5-.06,1.2-.08,1.6.27.37.32.21.71.39,1.06.23.43.63.19,1.12.26.6.08.94.37,1.02.98.09.63.01,1.33.01,1.97,0,.59.17,1.49-.1,2.04-.53,1.05-2.71.6-3.65.6Zm.02-4.62c-.79,0-1.58,0-2.38,0-.25,0-.35.1-.35.35,0,.97,0,1.93,0,2.9,0,.26.09.37.36.36,1.57,0,3.15,0,4.72,0,.27,0,.37-.1.36-.36,0-.96,0-1.91,0-2.87,0-.28-.09-.38-.38-.38-.78.01-1.56,0-2.34,0Zm-.04-.97c.77,0,.75-.61,0-.58-.69.02-.69.58,0,.58Z"/>
  <path class="cls-1" d="m8.61,15.42c-1.96,0-2.99-2.44-1.59-3.83,1.4-1.38,3.83-.38,3.85,1.58.01,1.23-1.01,2.25-2.26,2.24Zm0-3.48c-.7,0-1.23.53-1.23,1.22,0,1.1,1.34,1.68,2.12.9.79-.78.23-2.13-.88-2.13Z"/>
  <path class="cls-1" d="m23.74,14.17c0,.41.07,1.48-.67,1.2-.57-.21-.33-1.67-.33-2.16,0-.54-.21-1.6.1-2.07.28-.42,1.23-.31,1.65-.21.57.13,1.04.56,1.15,1.15.05.3,0,.62-.15.88-.12.21-.61.46-.66.65-.12.5,1.48,1.18.57,1.71-.57.33-1.25-.82-1.57-1.17-.02,0-.05.01-.07.02Zm0-1.85c-.03.24,0,.42.32.4,1.44-.08-.41-1.53-.32-.4Z"/>
  <path class="cls-1" d="m18.95,13.16c0-.52-.26-1.82.26-2.16.37-.24,1.97-.24,2.17.22.41.94-1.29.43-1.41.97-.19.88,1.29.08,1.34.94.05.82-1.17.24-1.34.79-.26.82,1.26.16,1.43.87.19.83-1.52.73-1.97.59-.79-.24-.48-1.57-.48-2.22h0Z"/>
  <path class="cls-1" d="m15.61,13.17c0-.52-.24-1.77.22-2.12.32-.25,1.62-.24,1.95-.02.26.18.34.51.09.76-.24.25-.59.09-.87.16-.23.06-.39.06-.38.37.02.36.21.28.48.33.41.07,1.23.33.61.86-.54.47-1.07-.2-1.08.77,0,.39.02,1.35-.68,1.1-.62-.22-.35-1.72-.35-2.22Z"/>
  <path class="cls-1" d="m12.03,13.18c0-.53-.26-1.77.21-2.13.31-.24,1.68-.25,1.97-.02.53.43.02.87-.46.92-.21.02-.49-.08-.64.11-.17.21-.05.49.15.6.3.16,1.31-.13,1.04.66-.25.7-1.14-.02-1.25.81-.05.37.09,1.57-.7,1.26-.58-.23-.31-1.71-.31-2.2Z"/>
  <path class="cls-1" d="m16.05,18.03c.64,0,3.28-.39,3.43.4.18.93-3,.57-3.6.57-.57,0-3.3.36-3.29-.48.01-.88,2.86-.49,3.46-.49Z"/>
</svg>