<?xml version="1.0" encoding="UTF-8"?>
<svg id="Layer_1" data-name="Layer 1" xmlns="http://www.w3.org/2000/svg" viewBox="0 0 32 32">
  <defs>
    <style>
      .cls-1 {
        fill: #fff;
      }
    </style>
  </defs>
  <path class="cls-1" d="m31.76,28.72c-.24,1.1-.81,1.99-1.8,2.56-.52.3-1.09.47-1.7.47-8.17,0-16.34,0-24.51,0-1.87,0-3.5-1.63-3.5-3.51,0-6.42,0-12.84,0-19.25,0-1.89,1.62-3.51,3.52-3.54,1.54-.02,3.08,0,4.61,0,.65,0,1.12.45,1.11,1.03,0,.56-.47,1.01-1.1,1.02-.84.01-1.68,0-2.52,0-.64,0-1.27,0-1.91,0-1.01,0-1.67.65-1.71,1.66,0,.07,0,.14,0,.22,0,6.15,0,12.3,0,18.45,0,.34.02.68.18.99.31.61.82.89,1.49.92.08,0,.16,0,.25,0,7.9,0,15.81,0,23.71,0,.35,0,.7-.03,1.01-.2.63-.35.88-.91.88-1.61,0-2.37,0-4.74,0-7.1,0-1.21,0-2.42,0-3.63,0-.69.23-1.06.72-1.2.52-.15.93.07,1.27.67v12.06Z"/>
  <path class="cls-1" d="m31.76,10.39c-.11.21-.24.4-.41.57-2.75,2.85-5.49,5.7-8.23,8.54-.21.22-.43.41-.75.44-.66.05-1.13-.39-1.14-1.07,0-1.25,0-2.5,0-3.75,0-.4,0-.4-.41-.41-1.58-.04-3.13.05-4.64.58-2.69.95-4.7,2.7-6.04,5.21-.25.47-.57.77-1.13.73-.47-.04-.88-.41-.88-.87-.03-1.88-.1-3.77.48-5.61,1.41-4.47,4.34-7.4,8.81-8.8,1.12-.35,2.28-.5,3.45-.5.29,0,.37-.09.36-.37-.01-1.2.01-2.4-.01-3.6-.01-.57.18-1,.7-1.25h.68c.24.14.44.33.63.53,2.72,2.83,5.44,5.65,8.17,8.48.15.16.26.34.37.53v.62Zm-8.48-6.62c0,.65-.02,1.21,0,1.77.07,1.71-.24,2.03-1.95,1.97-.63-.03-1.27-.02-1.9.09-4.51.81-7.48,3.4-8.88,7.77-.14.45-.24.91-.29,1.45.34-.38.66-.68.99-.97,1.88-1.64,4.05-2.64,6.52-3.02,1.48-.23,2.96-.16,4.45-.15.65,0,1.04.46,1.05,1.12.01.74,0,1.48,0,2.21,0,.1-.04.22.05.32.03-.02.06-.04.08-.06,1.92-1.99,3.84-3.99,5.76-5.97.16-.16.16-.26,0-.42-.91-.93-1.81-1.87-2.71-2.81-1.04-1.08-2.08-2.15-3.18-3.29Z"/>
</svg>