<?xml version="1.0" encoding="UTF-8"?>
<svg id="Layer_1" data-name="Layer 1" xmlns="http://www.w3.org/2000/svg" viewBox="0 0 32 32">
  <defs>
    <style>
      .cls-1 {
        fill: #f28a1d;
      }
    </style>
  </defs>
  <path class="cls-1" d="m.28,10.76c0-.35,0-.7,0-1.04.38-1.31.93-2.67,1.15-4.02.19-1.19-.17-2.44.15-3.62C2.2-.25,5.07.3,6.9.3c5.45,0,10.91-.05,16.36,0,1.06.01,1.13.91.07.97-1.12.06-2.26,0-3.39,0-2.43,0-4.86,0-7.28,0-2.43,0-4.86,0-7.28,0-.92,0-2.21-.2-2.74.75-.22.4-.19.87-.19,1.3,0,.41-.17,1.25,0,1.62.28.6,2.5.28,3.13.28,1.19,0,2.38,0,3.57,0,2.38,0,4.76,0,7.13,0,2.49,0,4.98,0,7.47,0,1.25,0,2.49,0,3.74,0,.45,0,1.2.15,1.6,0,.4-.15.34-.16.35-.66.02-.86.26-2.23-.43-2.89-.78-.73-1.91-.21-2.82-.42-.34-.08-.61-.33-.41-.71.21-.38.83-.25,1.18-.25.85,0,1.72-.07,2.45.44,1.77,1.22.68,3.68,1.18,5.4.52,1.8,1.84,4.04.64,5.82-.25.37-.66.64-.78,1.08-.12.45-.01,1.11-.01,1.57,0,1.14,0,2.29,0,3.43,0,2.52,0,5.04,0,7.55,0,.55.04,1.11-.15,1.64-.1.27-.54.68-.52.94.03.38.49.42.28.87-.19.4-.71.26-1.06.23-.79-.07-2.39-.56-3.02,0-.76.67-1.22,2-2.12,2.5h-.37c-.25-.13-.33-.34-.33-.61,0-.59,0-1.19,0-1.78q0-.54-.54-.54c-6.09,0-12.18,0-18.27,0-.14,0-.29,0-.43,0-1.4-.06-2.38-.97-2.46-2.36-.09-1.55-.03-3.11-.03-4.66,0-2.89,0-5.77,0-8.66,0-.18.05-.39-.11-.52-.58-.49-.89-1.14-1.06-1.86Zm13.03,17.05c3.14,0,6.28,0,9.43,0,.43,0,.44-.01.45-.45.01-.64.03-1.29.03-1.93,0-.4,0-.41-.42-.41-1.57,0-3.13,0-4.7,0-.53,0-.7-.18-.71-.7,0-.87,0-1.74,0-2.61,0-.6.17-.77.77-.77,1.22,0,2.44,0,3.65,0,1.51,0,3.03,0,4.54,0,.48,0,.7.18.7.62.01.95,0,1.9,0,2.86,0,.24-.09.45-.33.54-.2.08-.16.16-.04.28.7.69,1.4,1.38,2.1,2.07.14.14.24.12.35-.02.25-.3.3-.66.3-1.04,0-4.2,0-8.39,0-12.59,0-.38,0-.39-.4-.36-1.09.08-1.99-.28-2.7-1.11-.14-.16-.21-.16-.35,0-1.33,1.52-3.37,1.52-4.74,0-.12-.14-.2-.17-.33,0-1.24,1.57-3.59,1.47-4.76,0-.12-.16-.21-.15-.33,0-1.22,1.55-3.56,1.47-4.74.02-.13-.16-.21-.18-.35,0-1.25,1.57-3.61,1.44-4.76-.02-.13-.17-.2-.14-.32,0-.72.89-1.67,1.24-2.8,1.12-.42-.04-.42-.05-.42.38,0,4.17,0,8.33,0,12.5,0,1.08.57,1.65,1.65,1.65,3.07,0,6.14,0,9.21,0Zm8.95-5.86c-1.05,0-2.1-.02-3.15,0-.46,0-.6-.04-.7.39-.07.3-.11,1.18.02,1.44.24.51,2.03.23,2.57.23.54,0,1.09.02,1.63,0,.46-.02.54.01.61-.42.05-.33-.1-.75.24-.97.31-.2.56.03.79.23.35.3,1.46,1.8,1.8.88.11-.3.02-.91,0-1.24-.04-.49-.06-.51-.56-.54-1.07-.06-2.16,0-3.24,0Zm-8.8-12.56c.34,0,1.68.19,1.95-.07.25-.24.08-1.35.08-1.68,0-.43.16-1.13-.19-1.39-.26-.19-1.52-.01-1.85-.01-.36,0-1.41-.2-1.69.1-.22.24-.16,1.42-.19,1.75-.03.34-.29,1.08.06,1.29.32.19,1.43.01,1.82.01Zm10.09,0c.29,0,1.72.18,1.92-.06.21-.25-.19-1.22-.25-1.52-.07-.32-.12-1.35-.43-1.54-.35-.21-1.36-.03-1.76-.03-.39,0-1.47-.21-1.76.03-.26.22.04,1.2.07,1.52.04.4-.06,1.35.31,1.58.34.21,1.48.02,1.89.02Zm-15.11,0c.37,0,1.65.19,1.94-.07.27-.24.19-1.21.22-1.55.03-.34.31-1.29.02-1.51-.3-.23-1.33-.02-1.72-.02-.38,0-1.42-.18-1.73.02-.38.24-.37,1.3-.45,1.7-.06.3-.39,1.16-.14,1.4.22.21,1.55.03,1.87.03Zm-5.04,0c.38,0,1.62.19,1.94-.06.31-.25.3-1.13.37-1.51.05-.27.42-1.37.17-1.57-.27-.21-1.39-.02-1.72-.02-.45,0-1.33-.19-1.72.02-.39.21-.45,1.15-.57,1.55-.09.32-.59,1.33-.33,1.56.23.2,1.54.02,1.86.02Zm25.15,0c.31,0,1.66.18,1.9-.02.21-.17-.26-1.2-.33-1.42-.13-.42-.21-1.31-.53-1.62-.3-.28-1.12-.1-1.52-.1-.45,0-1.49-.2-1.88,0-.49.24-.1.93,0,1.42.08.36.13,1.42.43,1.67.32.26,1.51.07,1.92.07Zm-10.04,0c.31,0,1.61.19,1.87-.02.29-.24,0-1.2-.04-1.55-.04-.39.05-1.33-.3-1.56-.31-.2-1.33-.02-1.72-.02-.32,0-1.52-.17-1.76.08-.25.26-.07,1.15-.07,1.49,0,.33-.18,1.34.14,1.56.32.22,1.49.02,1.87.02Zm5.83,14.88l-.11.05c-.09,1.82-.05,3.64-.02,5.47.44-.48.97-1.49,1.57-1.74.59-.25,1.65.07,2.27.12-1.22-1.28-2.47-2.59-3.72-3.9Zm-.68-11.94c.93,0,1.78-.71,1.96-1.6.05-.23,0-.34-.26-.34-1.14,0-2.29,0-3.43,0-.32,0-.37.08-.29.4.23.88,1.09,1.54,2.02,1.53Zm-5.1-1.93c-.58,0-1.16,0-1.75,0-.23,0-.34.07-.28.33.2.88,1.05,1.58,1.97,1.6.93.02,1.77-.61,2-1.5.1-.39.07-.43-.32-.43-.54,0-1.08,0-1.62,0Zm-5.1,0c-.58,0-1.16,0-1.75,0-.24,0-.33.08-.27.33.2.89,1.06,1.59,2,1.6.94.01,1.77-.65,1.98-1.56.07-.31.03-.36-.29-.37-.56,0-1.12,0-1.68,0Zm15.27,0c-.66,0-2.37-.41-1.91.69.32.76,1.18,1.28,1.99,1.24.76-.04,1.6-.57,1.82-1.34.11-.39.1-.47-.25-.59-.43-.14-1.19,0-1.66,0Zm-20.37,0c-.56,0-1.12,0-1.68,0-.35,0-.39.05-.3.4.22.88,1.09,1.54,2.02,1.53.91,0,1.72-.64,1.94-1.54.08-.31.02-.39-.3-.39-.56,0-1.12,0-1.68,0Zm-5.08,0c-.56,0-1.12,0-1.69,0-.3,0-.36.09-.3.38.18.85,1.09,1.55,2.01,1.55.91,0,1.78-.68,1.96-1.55.06-.29,0-.37-.3-.38-.56,0-1.12,0-1.69,0Z"/>
  <path class="cls-1" d="m9.05,3.28c-.01,1.24-1.6,1.78-2.38.84-.7-.86-.08-2.18,1.03-2.18.74,0,1.35.61,1.35,1.34Zm-1.35-.35c-.21.04-.34.15-.33.36.04.82,1.26-.21.33-.36Z"/>
  <path class="cls-1" d="m9.59,3.28c0-1.14,1.34-1.76,2.2-1.02.91.78.36,2.33-.86,2.35-.74.01-1.34-.59-1.35-1.34Zm1.33-.36c-.2.03-.33.14-.34.34-.03.86,1.28-.16.34-.34Z"/>
  <path class="cls-1" d="m5.83,3.29c0,1.12-1.34,1.73-2.19,1-.92-.79-.37-2.35.87-2.35.75,0,1.33.59,1.33,1.35Zm-1.66-.06c0,.21.09.35.28.38.89.13-.07-1.31-.28-.38Z"/>
  <path class="cls-1" d="m5.73,23.74c.14-.01.2-.12.28-.2,2.27-2.27,4.55-4.54,6.82-6.82.07-.07.23-.14.17-.26-.04-.09-.19-.04-.29-.04-2.19,0-4.38,0-6.57,0-.43,0-.43,0-.44.42,0,.17,0,.35-.01.52-.04.27-.2.42-.48.43-.27,0-.47-.14-.5-.41-.05-.51-.05-1.02,0-1.53.02-.24.19-.38.43-.42.13-.02.26-.02.4-.02,2.82,0,5.65,0,8.47,0,.13,0,.27,0,.4.02.25.04.4.2.43.45.01.11.01.22.01.34,0,2.83,0,5.67,0,8.5,0,.71-.14.85-.84.85-2.83,0-5.67,0-8.5,0-.66,0-.81-.15-.81-.82,0-1.58,0-3.15,0-4.73,0-.1,0-.21.01-.31.04-.3.21-.45.48-.46.29,0,.49.16.51.46.02.41.01.82.01,1.23,0,.82,0,1.64,0,2.46,0,.11-.02.22.03.33Zm.84.81s.12.02.21.02c2.22,0,4.44,0,6.66,0,.29,0,.39-.1.39-.39,0-2.22,0-4.44,0-6.66,0-.09.05-.2,0-.23-2.44,2.44-4.85,4.85-7.26,7.26Z"/>
  <path class="cls-1" d="m22.21,17.34c-.96,0-1.92,0-2.89,0-.49,0-1.89.27-1.88-.5,0-.78,1.48-.51,1.94-.51,1,0,2.01,0,3.01,0,.95,0,1.9,0,2.85,0,.43,0,1.79-.25,1.78.51-.01.71-1.15.5-1.6.5-1.07,0-2.14,0-3.2,0Z"/>
  <path class="cls-1" d="m20.52,19.55c-.61,0-2.88.38-3.07-.38-.25-1.01,2.39-.63,2.92-.63.61,0,2.99-.36,3.24.33.38,1.06-2.57.68-3.1.68Z"/>
</svg>