<?xml version="1.0" encoding="UTF-8"?>
<svg id="Layer_1" data-name="Layer 1" xmlns="http://www.w3.org/2000/svg" viewBox="0 0 32 32">
  <defs>
    <style>
      .cls-1 {
        fill: #fff;
      }
    </style>
  </defs>
  <path class="cls-1" d="m16.41.48c1.1.4,1.53,1.01,1.53,2.19,0,3.19,0,6.38,0,9.57,0,.11,0,.22,0,.33-.03.29-.22.49-.48.5-.26,0-.47-.21-.5-.51-.01-.11,0-.22,0-.33,0-3.21,0-6.42,0-9.63,0-.84-.35-1.19-1.2-1.19-4.36,0-8.72,0-13.08,0-.88,0-1.25.37-1.25,1.25,0,4.36,0,8.72,0,13.08,0,.85.35,1.2,1.19,1.2,3.22,0,6.44,0,9.66,0,.15,0,.3-.02.45.04.22.08.36.24.36.47,0,.24-.15.4-.38.45-.14.03-.28.03-.42.03-3.2,0-6.4,0-9.6,0-1.18,0-1.78-.42-2.19-1.53V1.93c.24-.73.72-1.22,1.45-1.45h14.48Z"/>
  <path class="cls-1" d="m22.78,31.51c-2.23,0-4.46,0-6.69,0-1.23,0-2.06-.82-2.06-2.05,0-4.45,0-8.9,0-13.36,0-1.24.84-2.08,2.07-2.08,2.47,0,4.95,0,7.42,0,.09,0,.18,0,.27.01.26.05.42.2.43.47,0,.27-.15.43-.41.49-.13.03-.26.02-.39.02-2.42,0-4.85,0-7.27,0-.8,0-1.14.34-1.14,1.14,0,4.41,0,8.82,0,13.23,0,.8.36,1.16,1.17,1.16,4.38,0,8.76,0,13.14,0,.84,0,1.22-.38,1.22-1.22,0-4.37,0-8.74,0-13.11,0-.85-.35-1.2-1.19-1.2-1.13,0-2.26,0-3.39,0-.11,0-.22,0-.33-.02-.25-.05-.42-.2-.42-.48,0-.25.17-.45.45-.49.09-.01.18-.01.27-.01,1.17,0,2.34,0,3.51,0,1.25,0,2.06.82,2.06,2.07,0,4.45-.02,8.9.01,13.36,0,1.13-.9,2.09-2.08,2.06-2.22-.05-4.44-.01-6.66-.01Z"/>
  <path class="cls-1" d="m8.04,6.29c-.97,0-2.26.22-3.19-.02-.3-.08-.58-.21-.49-.59.11-.44.58-.37.94-.37.51,0,1.02,0,1.53,0,.38,0,1.29.18,1.61,0,.33-.18.17-.23.29-.58.12-.32.44-.52.75-.28.29.22.06.59.27.81.21.21,1.09.05,1.36.05.54,0,2.64-.3,2.89.3.37.89-1.29.58-1.57.86-.25.25-.36.97-.5,1.31-.21.49-.45.97-.72,1.43-.27.46-.57.91-.89,1.33-.32.42-.49.52-.13.95.3.35.73.65,1.09.92.33.25,1.03.52,1.22.89.18.34,0,.68-.37.73-.38.05-.9-.44-1.19-.65-.41-.29-.81-.61-1.17-.95-.5-.46-.56-.54-1.07-.09-.51.46-1.59,1.61-2.32,1.66-.38.03-.68-.22-.55-.62.13-.4.9-.7,1.22-.94.39-.29.86-.61,1.17-.99.33-.39.17-.46-.14-.86-.53-.69-1.38-1.75-1.56-2.62-.07-.35.05-.85.54-.72.44.12.69,1.04.91,1.42.19.32.67,1.35,1.03,1.52.42.2.63-.35.88-.72.33-.49.63-1,.89-1.53.15-.3.75-1.26.61-1.55-.17-.35-2.94-.1-3.35-.1Z"/>
  <path class="cls-1" d="m26.72,27.12c-.05.45-.51.66-.85.35-.46-.41-.3-1.35-.72-1.79-.36-.38-1.23-.18-1.73-.18-.76,0-1.52-.01-2.28,0-.73,0-.74.19-.98.84-.14.38-.3,1.27-.83,1.29-1.13.05.39-2.9.58-3.38.56-1.47,1.12-2.95,1.69-4.42.23-.61.85-2.82,1.79-1.55.4.54.56,1.43.79,2.05.27.73.55,1.46.83,2.19.55,1.46,1.1,2.92,1.65,4.37.03.08.05.17.07.23Zm-3.9-7.64c-.05.07-.07.09-.08.12-.59,1.56-1.18,3.11-1.78,4.67-.07.19-.04.25.17.25,1.1,0,2.2,0,3.3,0,.25,0,.27-.09.19-.29-.2-.51-.39-1.02-.58-1.53-.4-1.06-.8-2.11-1.21-3.21Z"/>
  <path class="cls-1" d="m20.97,6.85c.26.19.77.45.83.8.08.47-.39.6-.73.48-.46-.17-2.28-1.4-2.16-1.94.08-.38.74-.71,1.03-.93.32-.24.84-.81,1.24-.88.4-.07.71.2.59.61-.1.33-.65.62-.91.81,1.54,0,3.02-.04,4.19,1.13,1.27,1.27,1.14,2.95,1.14,4.61,0,.37.11,2.04-.77,1.45-.52-.35-.22-2.02-.22-2.55,0-1.62-.45-3.2-2.26-3.59-.64-.14-1.3-.05-1.97,0Z"/>
  <path class="cls-1" d="m11.03,26.18c-1.72,0-3.33-.05-4.45-1.54-.44-.58-.7-1.28-.77-2.01-.05-.56-.02-1.13-.02-1.69,0-.49-.14-1.19.02-1.65.12-.34.52-.55.82-.24.26.27.15.93.15,1.26,0,.91-.14,1.95.12,2.83.57,1.97,2.43,2.05,4.14,2.05-.22-.27-.79-.49-.86-.86-.07-.39.3-.62.64-.52.43.11.87.6,1.22.87.32.24,1.01.57,1.02,1.02.02.51-1.7,1.67-2.15,1.84-.32.13-.73.08-.74-.37-.01-.4.6-.72.88-.92,0-.02,0-.04-.01-.07Z"/>
</svg>