<?xml version="1.0" encoding="UTF-8"?>
<svg id="Layer_1" data-name="Layer 1" xmlns="http://www.w3.org/2000/svg" viewBox="0 0 29.08 32">
  <defs>
    <style>
      .cls-1 {
        fill: #212427;
      }
    </style>
  </defs>
  <path class="cls-1" d="m25.7,10.35c-5.2-3.04-10.42-6.05-15.66-9.02C5.5-1.25.25,1.85.24,7.07c0,2.97,0,5.94,0,8.91,0,2.97,0,5.94,0,8.91.01,5.31,5.28,8.38,9.89,5.74,5.19-2.96,10.37-5.94,15.53-8.95,4.54-2.64,4.56-8.69.04-11.34Zm-3.2,6.31c-5.04,2.91-10.09,5.81-15.14,8.71-.88.51-1.18.33-1.18-.71,0-2.89,0-5.79,0-8.68s0-5.79,0-8.68c0-.98.31-1.16,1.16-.67,5.05,2.9,10.09,5.8,15.14,8.71.88.5.88.83.02,1.33Z"/>
</svg>