<?xml version="1.0" encoding="UTF-8"?>
<svg id="Layer_1" data-name="Layer 1" xmlns="http://www.w3.org/2000/svg" viewBox="0 0 32 32">
  <defs>
    <style>
      .cls-1 {
        fill: #f28a1d;
      }
    </style>
  </defs>
  <path class="cls-1" d="m31.67,16.12c0,1.07,0,2.15,0,3.22,0,1.4-.94,2.43-2.34,2.55-.3.03-.47.16-.61.43-2.24,4.34-5.75,6.97-10.59,7.72-6.01.94-11.96-2.19-14.66-7.69-.15-.31-.34-.44-.67-.47-1.31-.1-2.29-1.15-2.3-2.47,0-2.2,0-4.4,0-6.6,0-1.32.99-2.37,2.3-2.47.29-.02.49-.1.64-.4,2.24-4.36,5.75-6.99,10.61-7.76,5.96-.95,11.96,2.19,14.65,7.66.16.33.35.48.73.51,1.23.08,2.24,1.15,2.26,2.39.01,1.13,0,2.25,0,3.38Zm-15.57-4.09c-4.27,0-8.54,0-12.81,0-.82,0-1.07.25-1.07,1.06,0,2.02,0,4.04,0,6.05,0,.81.25,1.06,1.07,1.06,8.53,0,17.05,0,25.58,0,.82,0,1.07-.25,1.07-1.06,0-2.01,0-4.01,0-6.02,0-.87-.24-1.1-1.11-1.1-4.24,0-8.49,0-12.73,0Zm-.05,16.45c1.39,0,2.74-.21,4.04-.67,2.9-1.01,5.13-2.85,6.69-5.49.21-.35.19-.38-.22-.38-.52,0-1.04.02-1.55,0-.35-.02-.56.11-.78.38-2.56,3.18-5.88,4.51-9.91,3.89-2.66-.41-4.79-1.79-6.43-3.93-.18-.24-.38-.35-.68-.34-.48.02-.96,0-1.44,0-.16,0-.39-.08-.48.06-.11.17.09.33.18.48,2.45,3.89,6,5.85,10.57,6Zm.07-24.72c-.77,0-1.53.06-2.29.2-.6.11-1.19.26-1.76.46-2.9,1.02-5.13,2.85-6.69,5.49-.21.35-.19.38.22.38.52,0,1.04-.02,1.55,0,.35.02.56-.11.78-.38,2.69-3.31,6.15-4.61,10.33-3.8,2.48.48,4.47,1.83,6.01,3.84.14.18.26.34.52.34.62,0,1.24,0,1.86,0,.26,0,.3-.1.17-.31-.05-.09-.1-.18-.16-.27-2.46-3.87-6-5.82-10.55-5.97Zm-.08,6.54c1.94,0,3.88,0,5.81,0,.11,0,.25.05.31-.09.03-.08-.06-.14-.11-.19-1.53-1.45-3.34-2.29-5.44-2.41-2.44-.14-4.57.64-6.37,2.3-.09.09-.27.16-.23.29.05.17.24.1.38.1,1.89,0,3.77,0,5.66,0Zm.05,11.63c-1.93,0-3.86,0-5.78,0-.11,0-.25-.05-.31.09-.03.08.06.13.11.19,1.52,1.44,3.32,2.28,5.41,2.41,2.46.15,4.6-.64,6.42-2.32.09-.08.26-.15.2-.29-.06-.14-.23-.07-.35-.07-1.9,0-3.8,0-5.71,0Z"/>
  <path class="cls-1" d="m12.61,16.09c0-.6-.27-1.89.08-2.42.36-.53,1.32-.4,1.86-.33,1.38.17,2.12,1.1,2.24,2.46.13,1.46-.65,2.87-2.17,3.06-.55.07-1.56.24-1.93-.29-.37-.54-.09-1.87-.09-2.48h0Zm1.2.01h0c0,.71-.31,1.86.78,1.61.85-.19,1.11-1.11,1.02-1.88-.07-.63-.31-1.15-.97-1.3-1.14-.27-.84.77-.84,1.57Z"/>
  <path class="cls-1" d="m17.26,18.19c.27-.91.66-1.79,1-2.67.2-.53.46-1.91,1.06-2.13,1.15-.42,1.86,2.98,2.15,3.74.18.49.76,1.44.01,1.71-.76.28-.64-.66-1.1-.94-.28-.17-1.36-.17-1.65,0-.47.28-.29,1.12-1.05.95-.31-.07-.44-.29-.42-.67Zm2.34-2.67s-.06,0-.09,0c-.15.39-.72,1.26.12,1.11.58-.1.14-.68-.02-1.11Z"/>
  <path class="cls-1" d="m7.53,15.53c0,1.07.18,2.23-.8,2.93-.94.67-2.29.55-3.02-.37-.67-.85-.42-2.19-.42-3.2,0-.38-.13-1.08.21-1.38.4-.35.82-.08.96.35.33.99-.45,2.65.2,3.5.68.89,1.62.11,1.69-.72.05-.69-.38-2.79.32-3.21,1.1-.66.86,1.69.86,2.11Z"/>
  <path class="cls-1" d="m8.25,16.09c0-.6-.26-1.9.08-2.42.33-.5,1.12-.4,1.65-.35,1.38.12,2.52,1.43,1.67,2.78-.41.66-.95.72-1.63.89-.61.16-.51.23-.56.87-.03.48-.24,1.39-.94.9-.58-.41-.26-2.06-.26-2.68,0,0,0,0,0,0Zm1.2-.97q0,.67.44.67c.66,0,1.24-.71.53-1.17-.61-.4-.97-.07-.96.5Z"/>
  <path class="cls-1" d="m25.82,16.13c0-.86-.41-2.57.69-2.8.49-.1,3.05-.15,2.22.94-.42.54-2.11-.22-1.72.93.26.76,1.48-.09,1.68.79.25,1.13-1.51.26-1.69,1.12-.2,1.01.99.4,1.5.68.33.18.48.6.22.91-.3.36-1.17.24-1.57.23-.63-.01-1.15.04-1.31-.65-.15-.65-.02-1.49-.02-2.15,0,0,0,0,0,0Z"/>
  <path class="cls-1" d="m23.9,16.58c0,.53.3,1.97-.35,2.26-.93.41-.85-1-.85-1.46,0-.55.29-2.13,0-2.62-.27-.45-1-.07-1.15-.7-.22-.94,1.27-.75,1.76-.75.53,0,1.86-.2,1.79.66-.06.71-.79.31-1.11.66-.3.33-.07,1.53-.07,1.95Z"/>
</svg>