<?xml version="1.0" encoding="UTF-8"?>
<svg id="Layer_1" data-name="Layer 1" xmlns="http://www.w3.org/2000/svg" viewBox="0 0 32 32">
  <defs>
    <style>
      .cls-1 {
        fill: #212427;
      }
    </style>
  </defs>
  <path class="cls-1" d="m31.65,18.16c-.04.09-.08.18-.12.27-.23.49-.78.78-1.3.68-.56-.1-.98-.57-1.01-1.13-.01-.32,0-.65,0-.97,0-3.63,0-7.25,0-10.88,0-1.6-1.01-2.62-2.61-2.62-7.01,0-14.01,0-21.02,0-1.6,0-2.62,1.01-2.62,2.61,0,6.18,0,12.35,0,18.53,0,1.6,1.02,2.61,2.62,2.61,3.5,0,7.01,0,10.51,0,.89,0,1.48.8,1.21,1.61-.17.5-.63.82-1.19.82-1.23,0-2.45,0-3.68,0-2.33,0-4.66,0-6.99,0-2.38,0-4.32-1.58-4.82-3.91-.07-.33-.1-.66-.1-.99,0-6.27,0-12.54,0-18.8,0-2.76,2.15-4.91,4.91-4.91,7.1,0,14.2,0,21.29,0,2.47,0,4.46,1.72,4.85,4.16,0,.04,0,.08.06.09v12.82Z"/>
  <path class="cls-1" d="m6.45,5.95c.67,0,1.21.56,1.2,1.23,0,.67-.56,1.21-1.23,1.2-.67,0-1.21-.56-1.2-1.23,0-.67.56-1.21,1.23-1.2Z"/>
  <path class="cls-1" d="m11.3,8.38c-.67,0-1.21-.55-1.21-1.22,0-.67.55-1.21,1.22-1.21.67,0,1.21.55,1.21,1.22,0,.67-.55,1.21-1.22,1.21Z"/>
  <path class="cls-1" d="m17.37,7.17c0,.67-.55,1.21-1.22,1.21-.67,0-1.21-.55-1.21-1.22,0-.67.55-1.21,1.22-1.21.67,0,1.21.55,1.21,1.22Z"/>
  <path class="cls-1" d="m21.01,5.95c.67,0,1.22.53,1.23,1.2,0,.67-.53,1.22-1.2,1.23-.67,0-1.22-.53-1.23-1.2,0-.67.53-1.22,1.2-1.23Z"/>
  <path class="cls-1" d="m25.88,8.38c-.67,0-1.21-.55-1.21-1.22,0-.67.55-1.21,1.22-1.21.67,0,1.21.55,1.21,1.22,0,.67-.55,1.21-1.22,1.21Z"/>
  <path class="cls-1" d="m7.65,23.64c0,.67-.55,1.21-1.22,1.21-.67,0-1.21-.55-1.21-1.22,0-.67.55-1.21,1.22-1.21.67,0,1.21.55,1.21,1.22Z"/>
  <path class="cls-1" d="m12.51,23.62c0,.67-.54,1.22-1.21,1.22-.67,0-1.22-.54-1.22-1.21,0-.67.54-1.22,1.21-1.22.67,0,1.22.54,1.22,1.21Z"/>
  <path class="cls-1" d="m16.17,24.84c-.67,0-1.22-.54-1.22-1.21,0-.67.53-1.22,1.2-1.22.67,0,1.22.54,1.22,1.2,0,.67-.54,1.22-1.21,1.22Z"/>
  <path class="cls-1" d="m30.22,22.22c-2.13-1.24-4.26-2.48-6.41-3.69-1.86-1.05-4,.21-4.01,2.35,0,1.21,0,2.43,0,3.64,0,1.21,0,2.43,0,3.64,0,2.17,2.16,3.43,4.05,2.35,2.12-1.21,4.24-2.43,6.35-3.66,1.86-1.08,1.87-3.56.01-4.64Zm-1.31,2.58c-2.06,1.19-4.13,2.38-6.19,3.56-.36.21-.48.13-.48-.29,0-1.18,0-2.37,0-3.55s0-2.37,0-3.55c0-.4.13-.47.47-.27,2.06,1.19,4.13,2.37,6.19,3.56.36.21.36.34,0,.54Z"/>
</svg>