<?xml version="1.0" encoding="UTF-8"?>
<svg id="Layer_1" data-name="Layer 1" xmlns="http://www.w3.org/2000/svg" viewBox="0 0 32 32">
  <defs>
    <style>
      .cls-1 {
        fill: #232323;
        stroke: #fff;
        stroke-miterlimit: 10;
        stroke-width: .75px;
      }
    </style>
  </defs>
  <path class="cls-1" d="m1.13,24.59c.25-.92,1.03-1.43,1.63-2.11.59-.67,1.08-1.44,1.43-2.26.81-1.96.65-4.11.65-6.19-.01-3.45,1.57-6.64,4.73-8.25.61-.31,1.58-.81,2.3-.71,1.01.14,1.04,1.43.2,1.83-.74.36-1.51.51-2.23.95-.63.39-1.19.89-1.65,1.48-2.46,3.17-.8,7.28-1.94,10.86-.54,1.67-1.53,3.13-2.79,4.34-1.06,1.02.71.79,1.4.79,1.18,0,2.36,0,3.54,0,4.72,0,9.43,0,14.15,0,.65,0,2.05.13,1.14-.75-.77-.74-1.44-1.54-1.97-2.47-.37-.66-.79-1.74.26-2.03.93-.25,1.23.82,1.62,1.42.92,1.41,3.17,2.63,2.15,4.58-.4.75-1.15,1.11-1.97,1.15-1.13.06-2.28,0-3.41,0-.55,0-1.33-.14-1.86,0-.48.12-.43.35-.6.79-.33.85-.93,1.58-1.67,2.1-1.57,1.1-3.69,1.13-5.29.06-.74-.49-1.33-1.2-1.68-2.01-.19-.43-.16-.77-.61-.93-.48-.17-1.42,0-1.94,0-1.2,0-2.54.18-3.72-.02-1.01-.17-1.46-.82-1.85-1.68,0-.31,0-.62,0-.93Zm12.42,2.64c-.77,0-1.53,0-2.3,0-.23,0-.31.05-.18.28.53.98,1.36,1.53,2.46,1.53,1.12,0,1.95-.54,2.49-1.53.12-.22.07-.28-.17-.28-.76.01-1.53,0-2.3,0Z"/>
  <path class="cls-1" d="m23.77,1.13c3.32.62,6.1,2.67,6.92,6.07.76,3.14-.31,6.46-2.9,8.44-2.58,1.97-6.17,2.21-8.97.58-2.8-1.63-4.43-4.84-3.99-8.07.51-3.8,3.49-6.37,7.14-7.01.6,0,1.2,0,1.8,0Zm-.9,14.25c3.26,0,6.16-2.58,6.17-6.17,0-3.47-2.74-6.19-6.18-6.18-3.58,0-6.17,2.9-6.17,6.17,0,3.42,2.77,6.18,6.18,6.18Z"/>
  <path class="cls-1" d="m24.14,9.51c0,.84.22,2-.07,2.8-.24.66-1.09.88-1.58.35-.53-.57-.29-1.8-.29-2.51,0-.49.25-1.88-.18-2.14-.21-.12-.58,0-.82-.14-.27-.14-.45-.36-.51-.65-.19-.96.72-1.16,1.44-1.17.68,0,1.63-.16,1.94.62.3.77.07,2.01.07,2.83Z"/>
</svg>