<?xml version="1.0" encoding="UTF-8"?>
<svg id="Layer_1" data-name="Layer 1" xmlns="http://www.w3.org/2000/svg" viewBox="0 0 32 32">
  <defs>
    <style>
      .cls-1 {
        fill: #232323;
      }
    </style>
  </defs>
  <path class="cls-1" d="m24.29,17.16c.61,0,1.91-.27,2.33.27.44.56.15,2.13.14,2.81,0,.31-.16,1.05.03,1.28.24.31.98.16,1.31.16.73,0,2.21-.3,2.85.1.57.35.34,1.46.34,2.01,0,.62.29,2.21-.19,2.69-.45.45-1.7.2-2.27.2-.45,0-1.23-.16-1.64-.01-.48.17-.41.32-.42.83-.02.95.18,2.06-.01,2.98-.19.94-1.06.72-1.87.72-.69,0-2.17.29-2.77-.09-.64-.4-.35-1.75-.35-2.38,0-.71.31-1.81-.42-2.06-.91-.32-2.28.13-3.25,0-.92-.12-.85-.61-.85-1.46,0-.85-.25-2.17.02-2.97.31-.9,1.68-.56,2.44-.56.47,0,1.22.17,1.64.01.56-.21.42-.46.41-1.1,0-.73-.33-2.49.1-3.11.42-.6,1.81-.32,2.42-.32Zm3.54,8.15c.42,0,1.36.18,1.73,0,.42-.2.34-.2.35-.73,0-.31.15-1.11-.02-1.37-.22-.33-1-.15-1.31-.15-.68,0-2.36.33-2.93-.14-.53-.44-.26-1.77-.26-2.37,0-.41.17-1.25,0-1.62-.19-.46-.21-.38-.76-.39-.3,0-1.08-.15-1.34.02-.33.21-.15,1-.15,1.31,0,.68.33,2.36-.14,2.93-.44.53-1.77.26-2.37.26-.41,0-1.25-.17-1.62,0-.46.19-.38.21-.39.76,0,.3-.15,1.08.02,1.34.21.33,1,.15,1.31.15.68,0,2.36-.33,2.93.14.53.44.26,1.77.26,2.37,0,.41-.17,1.25,0,1.62.19.46.21.38.76.39.3,0,1.09.15,1.34-.02.31-.21.15-.91.15-1.22,0-.69-.31-2.34.09-2.93.43-.64,1.7-.35,2.36-.35Z"/>
  <path class="cls-1" d="m.95,7.85c0-1.23,0-2.47,0-3.7.01-1.82,1.45-3.27,3.26-3.28,2.51,0,5.02,0,7.53,0,1.79,0,3.24,1.45,3.25,3.25.01,2.41,0,4.83,0,7.24,0,.31-.09.55-.31.77-.83.82-1.65,1.64-2.47,2.47-.22.22-.45.32-.76.32-2.43,0-4.85,0-7.28,0-1.76,0-3.21-1.47-3.22-3.24,0-1.27,0-2.55,0-3.82Zm1.37.02c0,1.18,0,2.36,0,3.54,0,1.32.82,2.13,2.14,2.14,2.17,0,4.33,0,6.5,0,.24,0,.41-.07.58-.24.59-.61,1.19-1.21,1.8-1.8.2-.2.29-.4.28-.69,0-2.11,0-4.22,0-6.33,0-1.45-.79-2.24-2.24-2.24-2.28,0-4.55,0-6.83,0-1.45,0-2.23.79-2.23,2.25,0,1.12,0,2.25,0,3.37Z"/>
  <path class="cls-1" d="m17.25,7.91c0-1.26,0-2.52,0-3.78.01-1.79,1.45-3.25,3.24-3.26,2.52-.01,5.05-.01,7.57,0,1.77,0,3.22,1.46,3.23,3.22.01,2.41,0,4.83,0,7.24,0,.32-.09.58-.33.8-.82.81-1.64,1.62-2.44,2.44-.23.23-.47.34-.8.34-2.41,0-4.83,0-7.24,0-1.79,0-3.23-1.46-3.24-3.26,0-1.25,0-2.5,0-3.74Zm1.37-.02c0,1.17,0,2.33,0,3.5,0,1.34.82,2.15,2.16,2.15,2.15,0,4.3,0,6.46,0,.26,0,.44-.08.61-.26.59-.61,1.19-1.21,1.8-1.8.19-.19.27-.39.27-.65,0-2.12,0-4.25,0-6.37,0-1.42-.8-2.21-2.23-2.21-2.29,0-4.58,0-6.87,0-1.4,0-2.2.8-2.2,2.19,0,1.15,0,2.3,0,3.45Z"/>
  <path class="cls-1" d="m.95,24.2c0-1.25,0-2.5,0-3.74.01-1.84,1.45-3.28,3.29-3.29,2.48,0,4.96,0,7.44,0,1.87,0,3.3,1.44,3.3,3.32,0,2.37,0,4.74,0,7.12,0,.34-.09.6-.33.84-.82.81-1.64,1.62-2.44,2.44-.23.23-.48.33-.8.33-2.4,0-4.8,0-7.2,0-1.82,0-3.26-1.45-3.27-3.27,0-1.25,0-2.5,0-3.74Zm1.37-.04c0,1.37-.5,3.87.5,5.01,1.01,1.15,3.33.67,4.67.67,1.01,0,2.03.04,3.03,0,1-.04,1.37-.61,2.06-1.3.68-.68,1.03-.94,1.04-1.89.01-1.06,0-2.13,0-3.19,0-1.37.49-3.68-.87-4.59-1.22-.81-3.64-.35-5.02-.35-1.36,0-3.9-.51-4.92.67-.98,1.13-.49,3.58-.49,4.95Z"/>
</svg>