<?xml version="1.0" encoding="UTF-8"?>
<svg id="Layer_1" data-name="Layer 1" xmlns="http://www.w3.org/2000/svg" viewBox="0 0 32 32">
  <defs>
    <style>
      .cls-1 {
        fill: #fff;
      }
    </style>
  </defs>
  <path class="cls-1" d="m31.49,6.46c-.3,1.02-.51,2.07-.77,3.11-.35,1.43-.64,2.87-1.06,4.28-.48,1.62-1.65,2.55-3.32,2.78-1.56.21-3.12.33-4.68.5-1.63.17-3.26.35-4.89.52-1.65.17-3.3.34-4.96.5-.63.06-.94.44-.98,1.24-.06,1.13.76,1.99,1.92,1.99,4.5,0,8.99,0,13.49,0,.18,0,.36,0,.54.05.32.1.55.4.54.72-.01.33-.24.63-.57.7-.15.03-.3.05-.45.05-4.48,0-8.95,0-13.43,0-1.59,0-2.8-.81-3.33-2.2-.33-.87-.33-1.75.06-2.59.25-.52.22-.96.05-1.49-1.43-4.25-2.83-8.51-4.24-12.76-.34-1.01-.93-1.44-2-1.44-.66,0-1.31,0-1.97,0-.16,0-.32-.01-.47-.07-.31-.12-.49-.44-.45-.78.04-.33.28-.6.63-.63.89-.08,1.79-.07,2.69,0,1.22.09,2.13.69,2.72,1.75.3.55.43,1.17.64,1.76.28.79.08.66.92.67,1.9.03,3.81.03,5.71.08,1.31.04,2.62,0,3.93.05,1.61.05,3.23.02,4.84.07,1.32.04,2.64,0,3.96.05,1.32.05,2.64.04,3.96.05.41,0,.75.13.98.49v.54Zm-21.4.26s0-.06,0-.08c-.59,0-1.19,0-1.78,0-.4,0-.4,0-.28.38.99,3,1.98,6.01,2.97,9.01.21.62.2.62.85.58.11,0,.22-.01.33-.02,1.46-.15,2.92-.31,4.38-.46,1.46-.15,2.92-.29,4.38-.45,1.66-.17,3.32-.37,4.98-.52,1.26-.12,2.08-.76,2.39-1.99.49-1.97.96-3.95,1.44-5.93.06-.24,0-.29-.24-.3-1.83-.08-3.67-.05-5.5-.09-2.72-.05-5.44-.08-8.16-.13-1.92-.03-3.85,0-5.77,0Z"/>
  <path class="cls-1" d="m24.06,31.11c-2.85,0-4.32-3.52-2.33-5.54,2-2.03,5.61-.57,5.59,2.3,0,1.77-1.48,3.24-3.27,3.24Zm1.74-3.26c0-.97-.77-1.75-1.74-1.76-1.53-.01-2.32,1.93-1.24,3,1.09,1.09,2.98.29,2.98-1.24Z"/>
  <path class="cls-1" d="m10.38,31.11c-2.85-.02-4.29-3.6-2.25-5.59,2.04-1.99,5.55-.46,5.54,2.38-.01,1.78-1.49,3.23-3.29,3.22Zm.02-1.5c.97,0,1.79-.82,1.77-1.77-.03-1.57-2.04-2.32-3.08-1.14-.97,1.11-.17,2.92,1.31,2.92Z"/>
</svg>