<?xml version="1.0" encoding="UTF-8"?>
<svg id="Layer_1" data-name="Layer 1" xmlns="http://www.w3.org/2000/svg" viewBox="0 0 32 32">
  <defs>
    <style>
      .cls-1 {
        fill: #fff;
      }
    </style>
  </defs>
  <path class="cls-1" d="m23.8,23.15c1.09-3.43,3.21-7.9,1.2-11.38-.82-1.42-2.32-2.61-2.32-4.38,0-1.53,1.01-2.44,2.28-3.08-2.06-1.67-4.71-2.67-7.33-2.96-1.37-.15-2.76-.12-4.12.11-.54.09-1.19.42-1.73.4-.63-.01-.83-.57-.24-.91,1.02-.58,2.67-.57,3.81-.62,1.23-.05,2.46.02,3.67.24,2.27.42,4.41,1.38,6.25,2.77,4.07,3.05,6.42,7.67,6.41,12.76,0,4.99-2.56,9.86-6.66,12.72-.33.23-1.1.94-1.53.87-.58-.09-.51-.53-.22-.87.86-1.01,1.13-2.5,1.56-3.78.96-2.89,1.93-5.78,2.9-8.67.48-1.43,1.02-2.85,1.43-4.31.16-.59.42-1.36.31-1.97-.11-.67-.64-1.38-1-1.94-.55-.87-1.46-2.46-2.44-2.88-.99-.42-2.08.64-2.32,1.53-.32,1.15.39,2.1,1.02,2.99.84,1.17,1.56,2.19,1.83,3.64.54,2.86-.47,5.61-1.29,8.31-.19.61-.37,1.22-.56,1.83-.1.34-.2,1.29-.52,1.53-.99.76-1.49-2.13-1.67-2.66-1-2.91-1.99-5.82-2.99-8.73-.48-1.39-.97-2.78-1.43-4.18-.12-.37-.41-.88-.05-1.2.44-.39,1.33.1,1.81-.12.36-.17.43-.19-.02-.33-.49-.16-1.31,0-1.82,0-1.58,0-3.15,0-4.73,0-.26,0-1.74-.19-1.8.17-.05.29.93.17,1,.18.78.02.94.16,1.25.87.32.74.61,1.49.92,2.23.3.72.73,1.47.93,2.23.14.55-.05.95-.22,1.47-.5,1.48-.99,2.96-1.49,4.44-.45,1.35-.77,2.89-1.39,4.16-.8,1.64-1.46-1.16-1.68-1.79-1.01-2.94-2.02-5.89-3.03-8.84-.22-.63-.43-1.27-.65-1.9-.21-.6-.79-1.61-.76-2.25.03-.51.22-.58.76-.63.22-.02,1.71.17,1.5-.25-.1-.21-1.34-.05-1.53-.05-.76,0-1.52,0-2.28,0-.59,0-1-.11-1.4.36-.31.36-.68,1.02-.73,1.51-.1,1,.64,2.21.97,3.11.56,1.51,1.12,3.02,1.68,4.53,1.07,2.89,2.14,5.79,3.21,8.68.35.96.64,2.73,1.52,3.36.16.11.9.51,1.1.43.25-.1.28-.45.37-.7,1.02-2.88,2.08-5.76,3.12-8.63.27-.75.54-1.5.81-2.25.1-.28.27-1.14.6-1.31.86-.42,1.61,2.79,1.85,3.44,1.05,2.84,2.07,5.69,3.13,8.53.04.1.14.58.31.65.22.1.37-.15.58-.12.37.06.62.26.47.67-.16.44-1.35.66-1.74.78-.69.22-1.4.39-2.12.51-2.74.45-5.62.2-8.21-.81-4.36-1.7-7.92-5.34-9.3-9.83C-.33,16.31.23,11.36,2.87,7.41c.65-.96,1.39-1.87,2.22-2.69.47-.47.98-.91,1.51-1.3.43-.32,1.18-1.03,1.71-1.09.57-.06.78.32.47.79-.21.33-.89.57-1.21.79-.55.38-1.07.8-1.57,1.26-.39.36-1.24.98-1.38,1.47-.06.2-.28.17-.01.34.13.08.74-.01.9-.01.61,0,1.22,0,1.83,0,.88,0,2.65-.07,2.32,1.36-.11.48-.48.74-.95.85-.27.06-1.02-.15-1.16.15-.15.3.52,1.59.63,1.92.25.75.51,1.5.77,2.24.98,2.87,1.87,5.8,2.97,8.64.35-.17.54-1.43.66-1.79.29-.88.59-1.76.88-2.64.25-.75.5-1.51.76-2.26.31-.93.52-1.44.13-2.38-.31-.74-.62-1.47-.92-2.21-.2-.49-.36-1.44-.89-1.66-.59-.24-1.19.19-1.72-.36-.38-.39-.43-1.01-.08-1.44.41-.52,1.09-.42,1.68-.42.87,0,1.75,0,2.62,0,.87,0,1.75,0,2.62,0,.81,0,1.75-.13,2.55.02,1.16.21,1.33,1.81.15,2.17-.49.15-1.12-.21-1.26.3-.06.21.27.81.35,1.02.15.43.3.87.45,1.3,1.26,3.69,2.53,7.37,3.79,11.05.04.11.08.22.13.33Zm-7.46-4.32c-.05.11-.07.14-.09.17-1.3,3.6-2.59,7.19-3.89,10.79-.16.45-.16.45.32.56,2.47.56,4.92.49,7.36-.18.34-.09.41-.2.28-.54-.95-2.55-1.89-5.11-2.83-7.66-.38-1.03-.76-2.06-1.16-3.15ZM2.09,11.37s-.07.01-.1.02c-1.14,3.66-.98,7.26.62,10.77,1.2,2.62,4.27,5.97,5.86,6.42-2.13-5.74-4.25-11.48-6.38-17.21Zm22.97,16.17c2.56-1.98,4.27-4.52,5.13-7.62.73-2.6.72-5.2-.02-7.8-1.68,5.15-3.45,10.26-5.11,15.42Z"/>
  <path class="cls-1" d="m10.92,1.85c-.03.45-.96.82-1.3.63-.83-.47.37-1.06.8-1.1.28-.03.5.19.5.48Z"/>
</svg>