<?xml version="1.0" encoding="UTF-8"?>
<svg id="Layer_1" data-name="Layer 1" xmlns="http://www.w3.org/2000/svg" viewBox="0 0 32 32">
  <defs>
    <style>
      .cls-1 {
        fill: #fff;
      }
    </style>
  </defs>
  <path class="cls-1" d="m16.62.81c.82.19,1.55.55,2.1,1.2,1.22,1.43,1.18,3.4-.08,4.79-.03.04-.07.07-.1.11.05.11.15.1.23.12,2.04.61,3.37,2.35,3.39,4.48,0,.59,0,1.19,0,1.78,0,.54-.2.73-.74.73-3.6,0-7.19,0-10.79,0-.54,0-.74-.2-.74-.73,0-.87-.09-1.75.08-2.61.37-1.85,1.48-3.06,3.28-3.64.07-.02.13-.04.2-.06.02,0,.03-.02.05-.03.01-.06-.04-.09-.07-.12-1.9-2.08-.93-5.27,1.8-5.96.07-.02.13-.04.2-.06.4,0,.79,0,1.19,0Zm-.62,12.13c1.58,0,3.15,0,4.73,0,.25,0,.36-.07.35-.34-.02-.41,0-.81,0-1.22-.02-1.86-1.56-3.4-3.42-3.43-1.08-.01-2.16-.01-3.24,0-1.67.02-3.1,1.28-3.37,2.93-.09.56-.02,1.13-.06,1.69-.02.29.1.37.38.37,1.55-.01,3.09,0,4.64,0Zm.04-11.06c-1.4,0-2.49,1.08-2.49,2.48,0,2.17,2.7,3.32,4.24,1.78,1.55-1.54.43-4.25-1.75-4.25Z"/>
  <path class="cls-1" d="m31.24,30.95c-.15.25-.37.32-.65.32-3.63,0-7.25,0-10.88,0-.48,0-.68-.18-.67-.66.02-.85-.08-1.71.06-2.55.31-1.9,1.41-3.13,3.23-3.75.34-.12.34-.11.11-.39-1.71-2.07-.72-5.12,1.87-5.79,2.07-.53,4.19.95,4.41,3.08.11,1.07-.21,1.99-.9,2.79-.11.12-.19.2.05.27,1.85.56,2.96,1.79,3.35,3.68,0,.03.02.06.03.08v2.91Zm-6.06-.74c1.56,0,3.11,0,4.67,0,.29,0,.38-.09.37-.37-.02-.47,0-.95-.04-1.42-.13-1.77-1.63-3.2-3.41-3.22-1.07-.01-2.14-.01-3.21,0-1.61.02-3.03,1.19-3.36,2.77-.13.63-.04,1.26-.08,1.9-.01.27.08.36.36.35,1.57-.01,3.13,0,4.7,0Zm-.01-11.09c-1.28-.04-2.5.98-2.51,2.47,0,2.19,2.69,3.32,4.25,1.78,1.56-1.53.43-4.24-1.75-4.25Z"/>
  <path class="cls-1" d="m6.89,31.27c-1.79,0-3.59,0-5.38,0-.57,0-.74-.16-.73-.72.02-.85-.09-1.71.06-2.55.33-1.88,1.44-3.1,3.24-3.7.31-.1.32-.1.11-.35-1.8-2.11-.7-5.23,1.92-5.84,1.49-.35,3.04.32,3.84,1.63.8,1.3.68,2.95-.3,4.14-.03.04-.06.08-.1.11-.17.16-.14.23.09.3,2.03.58,3.35,2.34,3.36,4.45,0,.61,0,1.23,0,1.84,0,.5-.18.68-.68.68-1.81,0-3.62,0-5.44,0Zm-.03-1.05c1.35,0,2.7,0,4.05,0,.43,0,.84.15,1.01-.23.16-.37.02-1.19-.01-1.58-.21-2.22-2.05-3.19-4.07-3.2-2.2-.01-4.88-.23-5.77,2.32-.2.56-.21,1.15-.22,1.74-.02.77-.09.96.71.96,1.43.01,2.87,0,4.31,0Zm.03-6.11c1.37,0,2.51-1.12,2.5-2.5-.02-2.18-2.72-3.29-4.27-1.75-1.55,1.54-.39,4.25,1.77,4.24Z"/>
  <path class="cls-1" d="m6.55,8.87c-.19-.03-.67-.38-.69-.58-.03-.21.3-.7.51-.75.23-.06.62.24.69.52.1.36-.12.54-.42.75-.03.02-.06.04-.09.06Z"/>
  <path class="cls-1" d="m3.58,16.09q-.75-.03-.71-.77c.02-.38.05-.41.42-.35q.66.1.62.8c-.02.29-.05.33-.33.32Z"/>
  <path class="cls-1" d="m28.74,16.02c.4-.02.39-.01.5.3.06.16.04.64-.11.76-.08.06-.77.04-.85-.01-.21-.14-.27-1.04.07-1.05.13,0,.26,0,.38,0Z"/>
  <path class="cls-1" d="m16.57,29.27q0,.5-.42.5c-.67,0-.67,0-.67-.33,0-.72.02-.77.42-.77.72,0,.67-.09.68.59Z"/>
  <path class="cls-1" d="m5.95,9.7c0,.65-.73.97-1.15.44-.22-.27-.18-.62.14-.85.24-.18.12-.13.39-.08.12.02.62.36.61.5Z"/>
  <path class="cls-1" d="m27.96,10.91c-.11.12-.69.49-.85.45-.2-.06-.56-.71-.47-.89.07-.15.61-.46.76-.43.33.05.4.54.53.78,0,.02.01.04.03.1Z"/>
  <path class="cls-1" d="m3.38,17.02c.48-.02.46.02.53.44.08.42.03.58-.43.65-.48.08-.59-.01-.64-.46-.04-.36-.12-.62.32-.63.08,0,.16,0,.22,0Z"/>
  <path class="cls-1" d="m23.99,6.15c-.15.19-.41.68-.64.69-.11,0-.7-.43-.72-.54-.02-.11.35-.73.45-.77.28-.11.64.27.88.45.04.03.06.08.03.18Z"/>
  <path class="cls-1" d="m14.62,28.82c-.18.27.1.77-.35.79-.26.01-.85.16-.82-.31.04-.77.11-.91.36-.82.27.1.67-.09.81.34Z"/>
  <path class="cls-1" d="m17.49,28.89c-.01-.58.95-.53,1.12-.05.26.72-.3.83-.84.78-.44-.04-.12-.53-.28-.73Z"/>
  <path class="cls-1" d="m4.47,12.23c-.32-.12-.73-.16-.76-.5-.03-.37.3-.77.6-.73.78.09.67.64.39,1.13-.04.07-.07.14-.24.11Z"/>
  <path class="cls-1" d="m7.9,7.47c-.56-.28-.86-1.02-.12-1.29.32-.11.54.03.71.4.21.47-.17.55-.5.85-.02.02-.05.03-.09.04Z"/>
  <path class="cls-1" d="m3.93,14.13c-.27-.06-.68-.06-.82-.35-.11-.23.1-.79.3-.86.17-.07.79.15.88.35.1.21-.11.91-.36.87Z"/>
  <path class="cls-1" d="m9.47,6.28c-.57-.28-.62-1.01-.02-1.24.39-.15.54-.03.68.39.18.55-.12.55-.58.83-.02,0-.04.01-.07.02Z"/>
  <path class="cls-1" d="m28.4,15.09c-.37.03-.33-.07-.44-.78-.03-.23.26-.42.83-.36.46.05.31.57.31.84,0,.5-.53.11-.7.3Z"/>
  <path class="cls-1" d="m26.13,9.66c-.1,0-.14-.06-.18-.11-.56-.62-.56-.62.09-1.15.19-.16.3-.14.44.06.49.66.49.65-.19,1.1-.06.04-.12.07-.16.1Z"/>
  <path class="cls-1" d="m21.42,4.47c.25.12.78.25.8.54,0,.17-.31.67-.48.73-.19.07-.49-.08-.63-.22-.32-.33-.08-.54.11-.98.02-.06.07-.1.2-.08Z"/>
  <path class="cls-1" d="m27.8,13.19c-.18-.11-.26-.4-.29-.6-.06-.38-.08-.36.37-.55.37-.15.4-.19.6.09.09.13.29.62.16.76-.19.21-.54.19-.85.3Z"/>
  <path class="cls-1" d="m25.58,7.46c-.18.59-1.22.85-1.36.07-.04-.21.27-.6.46-.66.33-.12.44.07.7.33.08.08.19.14.21.27Z"/>
</svg>