<?xml version="1.0" encoding="UTF-8"?>
<svg id="Layer_1" data-name="Layer 1" xmlns="http://www.w3.org/2000/svg" viewBox="0 0 32 32">
  <defs>
    <style>
      .cls-1 {
        fill: #232323;
      }
    </style>
  </defs>
  <path class="cls-1" d="m24.51,31.39H7.66c-.01-.97,0-1.03.99-1.03.96,0,.97-.03.98-.99,0-.52.14-.81-.39-.89-.78-.13-1.68,0-2.47,0-.85,0-1.69,0-2.54,0-.69,0-1.38.04-2.02-.26-1.03-.49-1.45-1.51-1.46-2.59-.04-3.18.02-6.35.02-9.53,0-1.53-.01-3.07,0-4.6,0-1.11.39-2.15,1.49-2.61,1.22-.52,2.94-.22,4.24-.22,1.54,0,3.08,0,4.62,0,.83,0,1.65,0,2.48,0,.37,0,1.44.2,1.78,0,.49-.29-.1-1.1.47-1.43.4-.23.82-.15,1.06-.62.2-.4.5-.99.48-1.44-.02-.75-.67-.89-.04-1.53.33-.34.93-1.18,1.37-1.36.55-.23.98.47,1.61.27.38-.12.97-.33,1.27-.6.33-.3.3-.95.65-1.15.38-.22,1.37-.01,1.82-.01.34,0,.65-.09.87.16.27.31.13.8.52,1.08.2.15.5.17.72.27.31.14.5.3.86.29.55-.02.84-.56,1.34-.24.29.19.55.57.8.82.19.19.65.5.76.75.19.44-.26.78-.27,1.24-.01,1.06.71,1.98,1.74,2.16v19.18c-.53,1.26-1.29,1.93-2.68,1.98-1.48.05-2.98,0-4.46,0-.32,0-1.38-.2-1.63.06-.17.17-.13,1.25-.06,1.5.15.53.8.33,1.28.33.82,0,.69.29.69,1.03Zm-8.46-6.95c4.6,0,9.2,0,13.8,0q.5,0,.5-.49c0-4.36,0-8.72,0-13.08,0-.06,0-.12,0-.18,0-.07.03-.18-.08-.19-.1,0-.1.1-.13.17-.08.23-.12.5-.26.7-.41.59-.35,1.13.05,1.69.13.19.09.34-.08.49-.5.48-1,.98-1.48,1.48-.17.18-.33.24-.54.09-.53-.39-1.07-.47-1.62-.04-.02.02-.05.03-.08.03-.72.1-1.08.54-1.18,1.23-.03.21-.17.29-.38.29-.72,0-1.43,0-2.15,0-.21,0-.35-.08-.38-.29-.1-.69-.52-1-1.17-1.27-.66-.28-1.19-.37-1.77.07-.16.12-.3.08-.44-.07-.39-.4-.79-.79-1.18-1.19-.67-.69-.63-.39-.2-1.25.16-.31.23-.57,0-.88-.11-.14-.19-.32-.22-.49-.11-.68-.53-.99-1.17-1.11-.11-.02-.27-.04-.3-.17-.06-.31-.28-.28-.5-.28-3.87,0-7.75.02-11.62-.01-.94,0-1.67.62-1.66,1.67.03,4.2.01,8.4.01,12.6q0,.46.46.46c4.59,0,9.18,0,13.77,0Zm.03,1.06c-4.59,0-9.18,0-13.77,0-.1,0-.2,0-.3,0-.12,0-.17.07-.19.19-.14.75.39,1.54,1.14,1.68.24.04.47.06.71.06,8.27,0,16.55,0,24.82,0,.11,0,.22,0,.33,0,.92-.06,1.5-.61,1.52-1.44.01-.48,0-.48-.47-.48-4.6,0-9.2,0-13.8,0Zm7.41-9.94c.7,0,.58.04.8-.58.22-.63.68-.54,1.26-.75.47-.18.99-.68,1.51-.63.68.07.72.52,1.29-.05.26-.26.35-.31.31-.65-.06-.43-.38-.55-.23-1.03.16-.52.53-.99.69-1.55.12-.41.23-.68.64-.85.54-.23.66-.31.59-.97-.07-.68-.47-.37-.93-.75-.34-.28-.32-.96-.5-1.35-.17-.39-.53-.72-.54-1.17-.01-.52.46-.71.18-1.19-.14-.23-.47-.5-.74-.51-.32-.01-.58.33-.91.31-.41-.02-.88-.5-1.28-.64-.46-.17-1-.15-1.29-.6-.16-.25-.07-.55-.34-.72-.36-.23-1-.08-1.21.22-.25.35-.13.64-.58.87-.41.21-.92.24-1.34.46-.67.35-.75.37-1.45.17-.42-.12-.68-.02-.94.41-.2.31-.16.43-.03.77.23.6.09.69-.22,1.26-.39.75-.31,1.53-1.12,1.91-.47.22-.57.4-.49.96.02.17-.02.29.1.42.16.18.54.13.73.27.38.27.35.76.5,1.18.17.45.63.9.63,1.39,0,.47-.42.68-.23,1.12.41.94,1,.31,1.6.26.45-.03,1.01.49,1.43.65.36.13.86.14,1.13.44.49.55.06.91.96.91Zm-7.37,12.92c-1.67,0-3.34,0-5.01,0-.37,0-.4.03-.4.39,0,.37,0,.74,0,1.1,0,.36.03.39.39.39,1.4,0,2.81,0,4.21,0,1.89,0,3.78,0,5.67,0q.49,0,.49-.5c0-.32,0-.64,0-.95,0-.4-.02-.42-.42-.42-1.64,0-3.28,0-4.92,0Z"/>
  <path class="cls-1" d="m11.37,12.68c-1.4,0-2.81,0-4.21,0-.47,0-.47,0-.47-.46,0-.61-.11-.62.61-.62,2.77,0,5.54,0,8.31,0,.51,0,.52,0,.51.5,0,.54.13.58-.59.58-1.38,0-2.77,0-4.15,0Z"/>
  <path class="cls-1" d="m11.37,16.63c-1.4,0-2.81,0-4.21,0-.47,0-.47,0-.47-.46,0-.6-.12-.62.61-.62,2.74,0,5.48,0,8.22,0,.11,0,.22,0,.33,0,.31,0,.31.22.27.41-.05.23.22.6-.25.66-.1.01-.2,0-.3,0-1.39,0-2.79,0-4.18,0Z"/>
  <path class="cls-1" d="m11.37,18.6c-1.4,0-2.81,0-4.21,0-.47,0-.48,0-.47-.46,0-.6-.13-.62.61-.62,2.74,0,5.48,0,8.22,0,.1,0,.2,0,.3,0,.35-.02.33.23.3.44-.04.23.21.61-.28.63-.1,0-.2,0-.3,0-1.38,0-2.77,0-4.15,0Z"/>
  <path class="cls-1" d="m11.39,22.55c-1.41,0-2.83,0-4.24,0-.45,0-.46,0-.46-.44,0-.64-.13-.64.65-.64,2.75,0,5.5,0,8.25,0,.53,0,.53,0,.53.52q0,.56-.57.56c-1.38,0-2.77,0-4.15,0Z"/>
  <path class="cls-1" d="m20.06,19.1c.11.48-.29.45-.58.66-.5.35-.32.93-.41,1.45-.08.46-.3.84-.69,1.09-.22.14-.88.39-1.15.24-.23-.13-.3-.81-.11-1.01.22-.24.64.02.87-.33.2-.31.01-.92.14-1.29.16-.45.53-.63.35-1.13-.08-.23-.28-.38-.36-.63-.08-.25-.05-.5-.07-.75-.03-.36,0-.54-.33-.71-.45-.25-.73.05-.67-.69.03-.39.07-.43.46-.44.79-.02,1.43.55,1.56,1.31.07.41-.04.84.19,1.21.14.23.8.43.8.64,0,.12,0,.24,0,.39Z"/>
  <path class="cls-1" d="m2.75,14.6c-.1-.53.24-.47.57-.7.44-.31.35-.78.4-1.25.08-.79.7-1.65,1.61-1.56.4.04.61.41.44.82-.16.37-.43.14-.73.33-.26.17-.22.34-.26.62-.08.61-.17.9-.41,1.45-.22.52.13.59.31,1.12.13.4-.07,1.09.22,1.4.23.24.63.05.82.25.11.12.1.68.04.8-.29.54-1.37.02-1.66-.34-.52-.63-.05-2.07-.94-2.32-.38-.11-.47-.31-.39-.64Z"/>
  <path class="cls-1" d="m12.36,14.66c-1.1,0-2.19,0-3.29,0-.41,0-.42-.01-.42-.42,0-.67-.12-.66.66-.66,2.1,0,4.2,0,6.3,0,.49,0,.49,0,.49.5q0,.58-.58.58c-1.06,0-2.11,0-3.17,0Z"/>
  <path class="cls-1" d="m10.41,19.5c1.1,0,2.19,0,3.29,0,.43,0,.45.01.44.43,0,.67.12.65-.66.65-2.09,0-4.18,0-6.27,0q-.52,0-.52-.5t.59-.58c1.05,0,2.09,0,3.14,0Z"/>
  <path class="cls-1" d="m6.69,14.12q0-.55.53-.55t.53.55-.55.53-.51-.53Z"/>
  <path class="cls-1" d="m16.11,20.03q0,.54-.53.54t-.52-.54.54-.55.51.54Z"/>
  <path class="cls-1" d="m23.47,13.66c-4.34-.01-6.54-5.43-3.48-8.48,3.06-3.05,8.47-.82,8.48,3.51,0,2.73-2.26,4.98-5,4.97Zm3.92-4.79c.12-2.22-1.67-3.97-3.7-4.09-3.4-.2-5.37,4.02-3.12,6.53,2.26,2.51,6.74,1.01,6.81-2.44Z"/>
  <path class="cls-1" d="m23.48,10.68c-1.69,0-2.6-2.1-1.45-3.35,1.21-1.32,3.49-.41,3.47,1.38,0,1.1-.9,1.97-2.02,1.97Zm.96-1.99c0-.53-.42-.95-.95-.95-.81,0-1.24,1.04-.66,1.61.58.57,1.61.16,1.61-.66Z"/>
</svg>