<svg xmlns="http://www.w3.org/2000/svg" xmlns:xlink="http://www.w3.org/1999/xlink" width="43.03" height="43.03" viewBox="0 0 43.03 43.03">
  <defs>
    <clipPath id="clip-path">
      <rect id="Rectangle_30" data-name="Rectangle 30" width="43.03" height="43.03" fill="#f28a1d"/>
    </clipPath>
  </defs>
  <g id="Group_60" data-name="Group 60" clip-path="url(#clip-path)">
    <path id="Path_263" data-name="Path 263" d="M82.121,0a1.084,1.084,0,0,1,.607,1.124c-.03,1.116-.006,2.234-.01,3.351,0,.617-.318.984-.837.987a.862.862,0,0,1-.852-.977c0-1.117.018-2.235-.01-3.351A1.134,1.134,0,0,1,81.615,0Z" transform="translate(-60.405)" fill="#f28a1d"/>
    <path id="Path_264" data-name="Path 264" d="M27.068,1.858A.833.833,0,0,1,27.545,1a.809.809,0,0,1,.966.165c.473.456.935.925,1.4,1.389.526.523,1.055,1.043,1.576,1.571A.857.857,0,1,1,30.3,5.334q-1.462-1.447-2.915-2.9a.848.848,0,0,1-.316-.574" transform="translate(-20.181 -0.678)" fill="#f28a1d"/>
    <path id="Path_265" data-name="Path 265" d="M122.984,4.812a.831.831,0,0,1,.3-.624c.991-.987,1.977-1.979,2.974-2.96a.847.847,0,1,1,1.191,1.2c-.985.993-1.98,1.976-2.968,2.966a.853.853,0,0,1-1,.224.8.8,0,0,1-.5-.8" transform="translate(-91.693 -0.69)" fill="#f28a1d"/>
    <path id="Path_266" data-name="Path 266" d="M20.677,143.988a.831.831,0,0,1-.833-.857.843.843,0,0,1,1.686.02.828.828,0,0,1-.853.836" transform="translate(-14.795 -106.156)" fill="#f28a1d"/>
    <path id="Path_267" data-name="Path 267" d="M42.211,49.342c-.5-.528-1.016-1.046-1.55-1.541a2.74,2.74,0,0,0-3.036-.576.42.42,0,0,1-.538-.118c-.756-.769-1.515-1.538-2.294-2.283-.239-.229-.214-.352-.01-.59A2.9,2.9,0,0,0,33.5,39.554c-.234-.081-.308-.147-.269-.423a2.87,2.87,0,0,0-2.02-3.3c-.207-.072-.241-.131-.2-.343a2.888,2.888,0,0,0-1.929-3.316c-.256-.087-.332-.178-.281-.463a2.894,2.894,0,0,0-2.3-3.336c-.377-.08-.757-.012-1.129-.083-1.816-.343-3.629-.7-5.447-1.03a2.779,2.779,0,0,0-2.553.4c-.109.1-.2.042-.31.018A2.917,2.917,0,0,0,13.4,31.053c.038.256-.05.3-.238.36a2.88,2.88,0,0,0-1.985,3.279c.037.226.014.333-.234.418a2.9,2.9,0,0,0-1.673,4.182c.11.211.1.266-.123.372a2.9,2.9,0,0,0-.927,4.643c.172.195.167.284-.014.46Q7.016,45.923,5.855,47.11a.441.441,0,0,1-.543.128A2.441,2.441,0,0,0,2.8,47.6C1.659,48.624.271,49.506.037,51.237c0,.006-.025.009-.038.014V51.5c.139.041.079.161.093.246a2.873,2.873,0,0,0,.8,1.627q.906.907,1.816,1.811a.951.951,0,0,0,.417.269.858.858,0,0,0,.956-.354.815.815,0,0,0-.118-1.04c-.594-.614-1.212-1.206-1.809-1.818a1.092,1.092,0,0,1-.108-1.581c.522-.565,1.072-1.109,1.639-1.629a1.024,1.024,0,0,1,1.405.027c.916.765,1.72,1.645,2.558,2.489,2.152,2.166,4.368,4.269,6.459,6.5.655.7.679,1.2-.006,1.886-.4.4-.79.8-1.191,1.188a1.166,1.166,0,0,1-1.863-.007c-.569-.561-1.126-1.134-1.7-1.69a.845.845,0,1,0-1.184,1.2c.608.62,1.217,1.241,1.845,1.841a2.806,2.806,0,0,0,3.913.03c.554-.514,1.088-1.053,1.607-1.6a2.741,2.741,0,0,0,.491-3.149.379.379,0,0,1,.091-.528c.911-.892,1.821-1.786,2.708-2.7A1.511,1.511,0,0,1,19.97,54c.168,0,.337-.01.5-.008a24.14,24.14,0,0,0,3.025.069c.172-.019.253.094.35.191,1.023,1.018,2.043,2.039,3.07,3.054a.357.357,0,0,1,.1.464,2.733,2.733,0,0,0,.619,3.128c.474.5.965.977,1.458,1.455a2.8,2.8,0,0,0,4,.005q4.556-4.511,9.079-9.055a2.775,2.775,0,0,0,.029-3.965m-23.194-20.5c1.13.184,2.256.4,3.384.6.3.054.594.114.982.188-.745.74-1.436,1.423-2.124,2.11-.1.1-.184.038-.26-.009a5.558,5.558,0,0,1-2.307-2.472c-.174-.4-.106-.488.325-.418m-2.3.5a.534.534,0,0,1,.326.343,6.808,6.808,0,0,0,3.833,3.833.634.634,0,0,1,.419.467,1.257,1.257,0,0,1-.511,1.361,1.242,1.242,0,0,1-1.451-.068,8.269,8.269,0,0,1-.607-.581q-1.609-1.6-3.216-3.2a1.277,1.277,0,0,1-.465-.979,1.241,1.241,0,0,1,1.672-1.175m-3.546,3.994a1.219,1.219,0,0,1,1.766-.01q1.565,1.519,3.091,3.078a1.234,1.234,0,0,1-.88,2.091,1.153,1.153,0,0,1-.873-.344c-1.032-1.024-2.069-2.044-3.086-3.082a1.21,1.21,0,0,1-.017-1.732m-2.208,3.678a1.233,1.233,0,0,1,1.77.015c.782.759,1.55,1.534,2.316,2.31a1.176,1.176,0,0,1,.253,1.389,1.161,1.161,0,0,1-1.134.716,1.128,1.128,0,0,1-.838-.326c-.8-.785-1.6-1.564-2.375-2.37a1.212,1.212,0,0,1,.008-1.734m-1.553,4.52a1.183,1.183,0,0,1,1.513-.3,4.8,4.8,0,0,1,1.39,1.373.9.9,0,0,1,.143.561,1.193,1.193,0,0,1-.693,1.108,1.14,1.14,0,0,1-1.3-.132A9.366,9.366,0,0,1,9.4,43.081a1.219,1.219,0,0,1,.018-1.547m18.614,14.5q-1.156-1.192-2.352-2.345c-.2-.191-.171-.263.03-.43a12,12,0,0,0,1.033-.986.821.821,0,0,0,.027-1.2.855.855,0,0,0-1.238.028.886.886,0,0,0-.119.119,3.34,3.34,0,0,1-3.271,1.174,14.3,14.3,0,0,0-2.52-.06,2.844,2.844,0,0,0-1.832.828c-.936.947-1.889,1.877-2.822,2.827-.18.183-.27.191-.457,0q-3.668-3.676-7.357-7.331c-.205-.2-.173-.3.015-.485Q8.325,47.05,9.455,45.89a.363.363,0,0,1,.5-.085,2.914,2.914,0,0,0,4.185-2.379c.018-.177.039-.289.249-.294A2.9,2.9,0,0,0,17.1,40.421c0-.184.092-.24.261-.244a2.888,2.888,0,0,0,2.7-2.679c.015-.225.116-.26.314-.279a2.935,2.935,0,0,0,2.67-2.993,2.833,2.833,0,0,0-.324-1.233.274.274,0,0,1,.065-.392c.74-.727,1.465-1.469,2.208-2.192a1.243,1.243,0,1,1,1.751,1.761c-.471.481-.955.948-1.428,1.426A.858.858,0,1,0,26.5,34.809c.242-.234.473-.479.716-.711a1.24,1.24,0,1,1,1.766,1.74c-.512.537-1.053,1.048-1.569,1.582a.784.784,0,0,0-.12,1,.808.808,0,0,0,.9.4.912.912,0,0,0,.5-.291c.269-.266.527-.544.809-.8a1.236,1.236,0,0,1,1.752,1.743c-.447.484-.928.935-1.39,1.4a.874.874,0,0,0-.108,1.3.864.864,0,0,0,1.3-.1c.211-.2.41-.423.628-.621a1.246,1.246,0,0,1,1.775-.006,1.226,1.226,0,0,1-.033,1.769c-.574.595-1.169,1.169-1.753,1.755a.86.86,0,1,0,1.182,1.215c.471-.454.471-.453.927,0,.685.683,1.363,1.372,2.06,2.043.186.179.188.27,0,.456q-3.688,3.656-7.356,7.332c-.171.172-.263.211-.455.012m12.822-3.78q-3.226,3.222-6.455,6.439-1.161,1.157-2.321,2.314a1.181,1.181,0,0,1-1.922,0c-.419-.412-.838-.826-1.25-1.245A1.137,1.137,0,0,1,28.893,58q4.458-4.455,8.923-8.9a1.121,1.121,0,0,1,.872-.388,1.105,1.105,0,0,1,.845.355c.437.435.876.867,1.311,1.3a1.167,1.167,0,0,1,.005,1.888" transform="translate(0.001 -20.243)" fill="#f28a1d"/>
    <path id="Path_268" data-name="Path 268" d="M110.874,111.546a.828.828,0,0,1-.845-.844.849.849,0,0,1,.817-.841.868.868,0,0,1,.875.833.849.849,0,0,1-.847.853" transform="translate(-82.035 -81.954)" fill="#f28a1d"/>
  </g>
</svg>
